<svg xmlns="http://www.w3.org/2000/svg" width="116" height="116"><g data-name="Ellipse 8" fill="none" stroke="#fff" stroke-width="3"><circle cx="58" cy="58" r="58" stroke="none"/><circle cx="58" cy="58" r="56.5"/></g><g data-name="Group 409"><g data-name="Group 32"><g data-name="Group 25"><path data-name="Path 51" d="M42.22 79.998H28.378a1.418 1.418 0 01-1.418-1.42v-41.56a1.417 1.417 0 112.835 0V77.16h12.426a1.42 1.42 0 010 2.839z" fill="#ffde14"/></g><g data-name="Group 26"><path data-name="Path 52" d="M50.254 79.994a1.414 1.414 0 01-.991-2.425 1.464 1.464 0 012 0 1.441 1.441 0 010 2.016 1.471 1.471 0 01-1.009.409z" fill="#ffde14"/></g><g data-name="Group 27"><path data-name="Path 53" d="M91.467 79.999H58.298a1.42 1.42 0 010-2.839h33.169a1.42 1.42 0 010 2.839z" fill="#ffde14"/></g><g data-name="Group 28"><path data-name="Path 54" d="M23.956 43.948a1.422 1.422 0 01-1.107-2.308l4.419-5.505a1.42 1.42 0 012.215 1.775l-4.419 5.508a1.422 1.422 0 01-1.108.53z" fill="#ffde14"/></g><g data-name="Group 29"><path data-name="Path 55" d="M32.8 43.948a1.411 1.411 0 01-1.109-.531l-4.421-5.508a1.42 1.42 0 012.215-1.775l4.417 5.505a1.42 1.42 0 01-1.1 2.308z" fill="#ffde14"/></g><g data-name="Group 30"><path data-name="Path 56" d="M92.041 79.999a1.423 1.423 0 01-.883-.31l-5.522-4.407a1.418 1.418 0 111.769-2.217l5.522 4.405a1.418 1.418 0 01-.885 2.529z" fill="#ffde14"/></g><g data-name="Group 31"><path data-name="Path 57" d="M86.521 84.399a1.418 1.418 0 01-.885-2.527l5.522-4.405a1.419 1.419 0 111.769 2.219l-5.522 4.405a1.405 1.405 0 01-.884.308z" fill="#ffde14"/></g></g><g data-name="Group 33"><path data-name="Path 58" d="M38.673 56.318a5.124 5.124 0 115.143-5.125 5.139 5.139 0 01-5.143 5.125zm0-7.41a2.287 2.287 0 102.306 2.286 2.3 2.3 0 00-2.306-2.286z" fill="#ffde14"/></g><g data-name="Group 34"><path data-name="Path 59" d="M36.515 72.624a5.123 5.123 0 115.147-5.122 5.139 5.139 0 01-5.147 5.122zm0-7.408a2.286 2.286 0 102.308 2.286 2.3 2.3 0 00-2.308-2.29z" fill="#ffde14"/></g><g data-name="Group 35"><path data-name="Path 60" d="M57.378 45.848a5.123 5.123 0 115.143-5.123 5.138 5.138 0 01-5.143 5.123zm0-7.408a2.286 2.286 0 102.3 2.286 2.3 2.3 0 00-2.3-2.29z" fill="#ffde14"/></g><g data-name="Group 36"><path data-name="Path 61" d="M57.378 65.216a5.124 5.124 0 115.143-5.125 5.14 5.14 0 01-5.143 5.125zm0-7.41a2.287 2.287 0 102.3 2.286 2.3 2.3 0 00-2.3-2.286z" fill="#ffde14"/></g><g data-name="Group 37"><path data-name="Path 62" d="M80.847 56.318a5.124 5.124 0 115.145-5.125 5.139 5.139 0 01-5.145 5.125zm0-7.41a2.287 2.287 0 102.306 2.286 2.3 2.3 0 00-2.306-2.286z" fill="#ffde14"/></g><g data-name="Group 38"><path data-name="Path 63" d="M88.296 71.613a5.124 5.124 0 115.141-5.122 5.139 5.139 0 01-5.141 5.122zm0-7.41a2.287 2.287 0 102.3 2.288 2.3 2.3 0 00-2.3-2.292z" fill="#ffde14"/></g><g data-name="Group 39"><path data-name="Path 64" d="M41.449 50.164a1.419 1.419 0 01-.626-2.693L53.51 41.25a1.419 1.419 0 011.25 2.547l-12.687 6.221a1.4 1.4 0 01-.624.146z" fill="#ffde14"/></g><g data-name="Group 40"><path data-name="Path 65" d="M77.125 51.473a1.43 1.43 0 01-.6-.134l-16.028-7.532a1.418 1.418 0 011.206-2.567l16.026 7.53a1.419 1.419 0 01-.6 2.7z" fill="#ffde14"/></g><g data-name="Group 41"><path data-name="Path 66" d="M40.243 67.908a1.419 1.419 0 01-.446-2.766l13.893-4.6a1.418 1.418 0 01.891 2.693l-13.892 4.6a1.426 1.426 0 01-.446.073z" fill="#ffde14"/></g><g data-name="Group 42"><path data-name="Path 67" d="M84.573 67.909a1.553 1.553 0 01-.273-.026l-23.475-4.6a1.419 1.419 0 01.545-2.784l23.475 4.6a1.418 1.418 0 01-.272 2.811z" fill="#ffde14"/></g></g></svg>