<svg xmlns="http://www.w3.org/2000/svg" width="116" height="116"><g data-name="Ellipse 8" fill="none" stroke="#fff" stroke-width="3"><circle cx="58" cy="58" r="58" stroke="none"/><circle cx="58" cy="58" r="56.5"/></g><g data-name="Group 407"><g data-name="Group 94"><g data-name="Group 90"><path data-name="Path 96" d="M79.656 75.658h-9.681a1.194 1.194 0 01-1.2-1.194V45.24a1.194 1.194 0 011.2-1.194h9.681a1.2 1.2 0 011.2 1.194v29.225a1.2 1.2 0 01-1.2 1.193zm-8.487-2.389h7.292V46.434h-7.292z" fill="#ffde14"/></g><g data-name="Group 91"><path data-name="Path 97" d="M62.842 75.658h-9.684a1.193 1.193 0 01-1.194-1.194v-16.26a1.2 1.2 0 011.194-1.194h9.684a1.193 1.193 0 011.193 1.194v16.26a1.192 1.192 0 01-1.193 1.194zm-8.49-2.389h7.3V59.395h-7.3z" fill="#ffde14"/></g><g data-name="Group 92"><path data-name="Path 98" d="M36.343 44.277a1.153 1.153 0 01-.846-.346 1.177 1.177 0 01-.348-.848 1.149 1.149 0 01.348-.836 1.221 1.221 0 011.682 0 1.165 1.165 0 01.359.836 1.193 1.193 0 01-.359.848 1.157 1.157 0 01-.836.346z" fill="#ffde14"/></g><g data-name="Group 93"><path data-name="Path 99" d="M46.024 75.661h-9.683a1.194 1.194 0 01-1.2-1.194V47.653a1.195 1.195 0 112.389 0v25.616h7.294V27.882H37.53v10.636a1.195 1.195 0 11-2.389 0v-11.83a1.2 1.2 0 011.2-1.2h9.681a1.2 1.2 0 011.2 1.2v47.773a1.2 1.2 0 01-1.198 1.2z" fill="#ffde14"/></g></g><g data-name="Group 95"><path data-name="Path 100" d="M86.663 82.348H29.336a1.195 1.195 0 010-2.389h57.327a1.195 1.195 0 010 2.389z" fill="#ffde14"/></g></g></svg>