<svg xmlns="http://www.w3.org/2000/svg" width="98" height="98"><circle data-name="Ellipse 15" cx="49" cy="49" r="49" fill="#b3cf60"/><g data-name="Group 388" fill="none" stroke="#fff" stroke-linecap="round" stroke-linejoin="round" stroke-width="2"><g data-name="Group 387"><path data-name="Path 355" d="M43.055 74.357l2.143 9.458a35.121 35.121 0 003.925.227c.292 0 .578-.014.867-.022l3.209-9.276a26.82 26.82 0 007.846-2.466l7.592 5.767a34.908 34.908 0 003.97-3.143l-3.376-8.83a27.087 27.087 0 004.449-6.777l8.847-.428a34.668 34.668 0 001.083-5.356l-7.5-4.173c.021-.432.032-.867.032-1.305a27.033 27.033 0 00-.912-6.97l5.86-5.422a34.661 34.661 0 00-2.723-5.119l-7.517 1.45a27.18 27.18 0 00-6.283-6.1l.919-7.241a34.6 34.6 0 00-5.441-2.328l-4.465 5.5a27.064 27.064 0 00-9.2-.643l-3.852-5.983a34.53 34.53 0 00-5.561 1.559l.113 7.12a27.117 27.117 0 00-7.614 5.662l-7.224-2.239a34.688 34.688 0 00-3.1 4.459l5.068 5.847a26.847 26.847 0 00-2.073 9.2l-7.747 3.252a34.9 34.9 0 00.466 5.018l8.588 1.372a26.913 26.913 0 004.243 8.037l-4.237 8.239a34.8 34.8 0 003.456 3.3l8.172-4.893"/><path data-name="Path 356" d="M37.522 61.182a17.377 17.377 0 01.275-26.324"/><path data-name="Path 357" d="M66.217 45.767a17.774 17.774 0 01.159 2.371 17.375 17.375 0 01-17.375 17.376"/><path data-name="Path 358" d="M58.716 33.73a17.441 17.441 0 014.29 4.122"/></g><path data-name="Path 359" d="M46.591 26.983H58.12l-7.175 14.589 13.986.16L38.07 72.225l7.659-22.62h-9.648l7.1-18.358"/></g></svg>