<svg xmlns="http://www.w3.org/2000/svg" width="98" height="98"><circle data-name="Ellipse 14" cx="49" cy="49" r="49" fill="#b3cf60"/><g data-name="Group 386" stroke="#fff" stroke-linecap="round" stroke-linejoin="round" stroke-width="2.133"><path data-name="Path 349" d="M31.631 48.984a12.661 12.661 0 1124.578-6.018" fill="#b3cf60"/><path data-name="Line 19" fill="none" d="M43.807 26.127v-7.408"/><path data-name="Line 20" fill="none" d="M34.113 28.725l-3.704-6.416"/><path data-name="Line 21" fill="none" d="M27.015 35.821L20.6 32.117"/><path data-name="Line 22" fill="none" d="M24.418 45.516H17.01"/><path data-name="Line 23" fill="none" d="M67.015 32.117l-6.416 3.704"/><path data-name="Line 24" fill="none" d="M57.206 22.309l-3.704 6.416"/><path data-name="Path 350" d="M25.736 56.497s15.435-16.078 60.452-9.325" fill="#b3cf60"/><path data-name="Path 351" d="M25.736 73.54s20.258-24.116 60.452-24.116" fill="#b3cf60"/><path data-name="Path 352" d="M86.183 52.961s-20.253-.234-38.26 22.508" fill="#b3cf60"/><path data-name="Path 353" d="M62.765 61.481s13.776 6.271 13.776 13.991" fill="#b3cf60"/><path data-name="Path 354" d="M69.653 57.487s16.534 1.582 16.534 8.335" fill="#b3cf60"/></g></svg>