<svg xmlns="http://www.w3.org/2000/svg" width="846.397" height="392.892"><path data-name="Path 961" d="M7.007 67.981l-1.876 7.014h-.014l-1.512-7.014h-2.1l2.422 9.8h2.254l1.806-7.042 1.848 7.042h2.254l2.394-9.8h-1.988l-1.568 7.014h-.014l-1.876-7.014zm14.238 7.056c0-2.688-1.6-3.836-3.36-3.836a3.248 3.248 0 00-3.332 3.374 3.27 3.27 0 003.36 3.374 3.261 3.261 0 003.206-2.016l-1.89-.2a1.452 1.452 0 01-1.288.658 1.452 1.452 0 01-1.47-1.288h4.774zm-3.36-2.324a1.391 1.391 0 011.414 1.176h-2.87a1.43 1.43 0 011.456-1.176zm6.748 3.906c-.56 0-.91-.322-.91-.756s.336-.7.91-.7h.686a.791.791 0 00.56-.14v.458a1.109 1.109 0 01-1.246 1.138zm1.246-3.038c0 .238-.14.378-.448.378h-1.26c-1.428 0-2.324.756-2.324 1.974a2.1 2.1 0 002.24 2.016 2.161 2.161 0 001.792-.768v.6h1.82v-4.214c0-1.694-1.33-2.366-2.786-2.366a5.487 5.487 0 00-2.744.784l.714 1.372a4.358 4.358 0 011.932-.6c.7 0 1.064.294 1.064.756zm3.794-4.648v2.436h-1.008v1.54h1.008v3.514c0 1.288.938 1.442 1.848 1.442.532 0 1.414-.084 1.414-.084v-1.554s-.378.042-.84.042c-.28 0-.6-.056-.6-.462v-2.9h1.386v-1.54h-1.388v-2.434zm6.23 3.192s.028-.28.028-.5v-3.644h-1.792v9.8h1.82v-4.158a1.776 1.776 0 011.358-.728 1.036 1.036 0 011.092 1.148v3.738h1.82v-4.2a2.234 2.234 0 00-2.376-2.38 2.516 2.516 0 00-1.95.924zm12.11 2.912c0-2.688-1.6-3.836-3.36-3.836a3.248 3.248 0 00-3.332 3.374 3.27 3.27 0 003.36 3.374 3.261 3.261 0 003.206-2.016l-1.89-.2a1.452 1.452 0 01-1.288.658 1.452 1.452 0 01-1.47-1.288h4.774zm-3.36-2.324a1.391 1.391 0 011.414 1.176h-2.87a1.43 1.43 0 011.456-1.176zm8.372-1.372a2.061 2.061 0 00-.5-.056 1.689 1.689 0 00-1.672 1.106v-1.022h-1.762v6.412h1.82v-3.066c0-1.12.42-1.554 1.344-1.554h.77zm12.25 1.54c0-2.912-1.876-4.9-5.082-4.9h-3.36v9.8h3.36c3.206 0 5.082-1.988 5.082-4.9zm-1.988 0a2.956 2.956 0 01-3.164 3.248h-1.344v-6.482h1.344a2.959 2.959 0 013.164 3.234zm5.432 3.738c-.56 0-.91-.322-.91-.756s.336-.7.91-.7h.686a.791.791 0 00.56-.14v.458a1.109 1.109 0 01-1.246 1.138zm1.246-3.038c0 .238-.14.378-.448.378h-1.264c-1.428 0-2.324.756-2.324 1.974a2.1 2.1 0 002.244 2.016 2.161 2.161 0 001.792-.768v.6h1.82v-4.214c0-1.694-1.33-2.366-2.786-2.366a5.487 5.487 0 00-2.746.78l.714 1.372a4.358 4.358 0 011.932-.6c.7 0 1.064.294 1.064.756zm3.794-4.648v2.436h-1.006v1.54h1.008v3.514c0 1.288.938 1.442 1.848 1.442.53 0 1.412-.084 1.412-.084v-1.554s-.378.042-.84.042c-.28 0-.6-.056-.6-.462v-2.9h1.386v-1.54h-1.388v-2.434zm6.776 7.686c-.56 0-.91-.322-.91-.756s.336-.7.91-.7h.686a.791.791 0 00.56-.14v.458a1.109 1.109 0 01-1.246 1.138zm1.246-3.038c0 .238-.14.378-.448.378h-1.26c-1.428 0-2.324.756-2.324 1.974a2.1 2.1 0 002.24 2.016 2.161 2.161 0 001.792-.768v.6h1.82v-4.214c0-1.694-1.33-2.366-2.786-2.366a5.487 5.487 0 00-2.744.784l.714 1.372a4.358 4.358 0 011.932-.6c.7 0 1.064.294 1.064.756z" fill="#fff"/><path data-name="Path 960" d="M68.004 123.084h2.24l-2.506-4.13a2.755 2.755 0 001.862-2.688c0-1.708-1.26-2.982-3.4-2.982h-3.684v9.8h1.946v-3.766h1.372zm-.35-6.8c0 .84-.63 1.344-1.708 1.344h-1.484v-2.664h1.484c1.078 0 1.708.448 1.708 1.32zm10.976-3h-7.294v9.8h7.294v-1.666h-5.348v-2.492h3.122v-1.666h-3.122v-2.3h5.348zm7.672 1.2a5.143 5.143 0 00-3.234-1.372c-1.736 0-3.276 1.036-3.276 2.758a3.106 3.106 0 002.142 2.748l.686.322c.938.434 1.54.812 1.54 1.484 0 .6-.518 1.064-1.358 1.064a3.605 3.605 0 01-2.394-1.162l-1.078 1.458a4.829 4.829 0 003.514 1.468c2.156 0 3.4-1.428 3.4-2.9s-.938-2.282-2.492-3.01l-.812-.378c-.784-.364-1.064-.714-1.064-1.162 0-.588.588-.924 1.232-.924a3.225 3.225 0 012.074 1.006zm.63-1.2v1.736h2.926v8.064h1.936v-8.064h2.926v-1.736zm15.638 0h-2.324l-3.164 9.8h2.044l.784-2.674h2.954l.84 2.674h2.1zm-.2 5.46h-2l.994-3.36h.03zm6.5 1.022h1.386a3.214 3.214 0 003.528-3.262c0-1.778-1.218-3.22-3.528-3.22h-3.318v9.8h1.932zm1.092-4.8c1.064 0 1.834.448 1.834 1.54s-.77 1.6-1.834 1.6h-1.092v-3.142zm5.124 8.118h1.946v-9.8h-1.946zm12.978-7.294c0-1.26-1.008-2.506-3.024-2.506h-3.164v9.8h3.486c2.072 0 3.232-1.246 3.232-2.814a2.578 2.578 0 00-1.82-2.422v-.028a2.161 2.161 0 001.29-2.03zm-4.242 3.066h1.106c.952 0 1.638.42 1.638 1.246 0 .8-.56 1.344-1.736 1.344h-1.008zm.994-3.92c.672 0 1.274.322 1.274 1.078s-.574 1.106-1.274 1.106h-.994v-2.184zm7.294 6.986c-.56 0-.91-.322-.91-.756s.336-.7.91-.7h.684a.791.791 0 00.56-.14v.458a1.109 1.109 0 01-1.244 1.138zm1.246-3.038c0 .238-.14.378-.448.378h-1.26c-1.428 0-2.324.756-2.324 1.974a2.1 2.1 0 002.24 2.016 2.161 2.161 0 001.792-.768v.6h1.82v-4.214c0-1.694-1.33-2.366-2.786-2.366a5.487 5.487 0 00-2.744.784l.714 1.372a4.358 4.358 0 011.932-.6c.7 0 1.064.294 1.064.756zm3.794-4.648v2.436h-1.008v1.54h1.008v3.514c0 1.288.938 1.442 1.848 1.442.532 0 1.414-.084 1.414-.084v-1.554s-.378.042-.84.042c-.28 0-.6-.056-.6-.462v-2.9h1.386v-1.54h-1.388v-2.434zm7.49 3.892a1.487 1.487 0 011.414.98l1.708-.518a3.2 3.2 0 00-3.136-2.086 3.325 3.325 0 00-3.416 3.374 3.325 3.325 0 003.416 3.374 3.186 3.186 0 003.136-2.068l-1.708-.536a1.469 1.469 0 01-1.414.98 1.621 1.621 0 01-1.61-1.75 1.621 1.621 0 011.61-1.75zm5.964-.7s.028-.28.028-.5v-3.644h-1.792v9.8h1.82v-4.158a1.776 1.776 0 011.358-.728 1.036 1.036 0 011.092 1.148v3.738h1.82v-4.2a2.234 2.234 0 00-2.38-2.38 2.516 2.516 0 00-1.946.924zm17.3.756c0-2.912-1.876-4.9-5.082-4.9h-3.36v9.8h3.36c3.21 0 5.086-1.988 5.086-4.9zm-1.988 0a2.956 2.956 0 01-3.164 3.248h-1.34v-6.482h1.344a2.959 2.959 0 013.164 3.234zm5.432 3.738c-.56 0-.91-.322-.91-.756s.336-.7.91-.7h.686a.791.791 0 00.56-.14v.458a1.109 1.109 0 01-1.242 1.138zm1.246-3.038c0 .238-.14.378-.448.378h-1.252c-1.428 0-2.324.756-2.324 1.974a2.1 2.1 0 002.24 2.016 2.161 2.161 0 001.784-.768v.6h1.82v-4.214c0-1.694-1.33-2.366-2.786-2.366a5.487 5.487 0 00-2.744.784l.714 1.372a4.358 4.358 0 011.932-.6c.7 0 1.064.294 1.064.756zm3.8-4.648v2.436h-1.01v1.54h1.01v3.514c0 1.288.938 1.442 1.848 1.442.532 0 1.414-.084 1.414-.084v-1.554s-.378.042-.84.042c-.28 0-.6-.056-.6-.462v-2.9h1.378v-1.54h-1.386v-2.434zm6.776 7.686c-.56 0-.91-.322-.91-.756s.336-.7.91-.7h.686a.791.791 0 00.56-.14v.458a1.109 1.109 0 01-1.248 1.138zm1.244-3.038c0 .238-.14.378-.448.378h-1.26c-1.428 0-2.324.756-2.324 1.974a2.1 2.1 0 002.24 2.016 2.161 2.161 0 001.792-.768v.6h1.82v-4.214c0-1.694-1.33-2.366-2.786-2.366a5.487 5.487 0 00-2.744.784l.714 1.372a4.358 4.358 0 011.932-.6c.7 0 1.064.294 1.064.756z" fill="#fff"/><path data-name="Path 967" d="M250.192 70.559h-2.324l-3.164 9.8h2.044l.784-2.674h2.954l.842 2.674h2.1zm-.2 5.46h-2l.994-3.36h.028zm9.576-2.072h-5.5v1.54h3.29l-3.316 3.372v1.5h5.53v-1.526h-3.3l3.3-3.388zm4.26 6.58c1.974 0 3.038-1.176 3.038-2.52v-4.06h-1.806v3.724a1.131 1.131 0 01-1.232 1.232 1.137 1.137 0 01-1.232-1.232v-3.724h-1.82v4.06c0 1.344 1.092 2.52 3.052 2.52zm8.442-6.608a2.061 2.061 0 00-.5-.056 1.689 1.689 0 00-1.67 1.106v-1.022h-1.764v6.412h1.82v-3.066c0-1.12.42-1.554 1.344-1.554h.77zm7.238 3.696c0-2.688-1.6-3.836-3.36-3.836a3.248 3.248 0 00-3.332 3.374 3.27 3.27 0 003.36 3.374 3.261 3.261 0 003.206-2.016l-1.89-.2a1.452 1.452 0 01-1.288.658 1.452 1.452 0 01-1.47-1.288h4.774zm-3.36-2.324a1.391 1.391 0 011.414 1.176h-2.87a1.43 1.43 0 011.456-1.176zm15.918.168c0-2.912-1.876-4.9-5.082-4.9h-3.356v9.8h3.36c3.202 0 5.078-1.988 5.078-4.9zm-1.988 0a2.956 2.956 0 01-3.164 3.248h-1.344v-6.482h1.344a2.959 2.959 0 013.164 3.234zm5.432 3.738c-.56 0-.91-.322-.91-.756s.336-.7.91-.7h.686a.791.791 0 00.56-.14v.458a1.109 1.109 0 01-1.246 1.138zm1.246-3.038c0 .238-.14.378-.448.378h-1.26c-1.428 0-2.324.756-2.324 1.974a2.1 2.1 0 002.24 2.016 2.161 2.161 0 001.792-.768v.6h1.82v-4.214c0-1.694-1.33-2.366-2.786-2.366a5.487 5.487 0 00-2.744.784l.714 1.372a4.358 4.358 0 011.932-.6c.7 0 1.064.294 1.064.756zm3.794-4.648v2.436h-1.008v1.54h1.008v3.514c0 1.288.938 1.442 1.848 1.442.53 0 1.414-.084 1.414-.084v-1.554s-.378.042-.84.042c-.28 0-.6-.056-.6-.462v-2.9h1.386v-1.54h-1.388v-2.434zm6.778 7.686c-.56 0-.91-.322-.91-.756s.336-.7.91-.7h.686a.791.791 0 00.56-.14v.458a1.109 1.109 0 01-1.246 1.138zm1.244-3.038c0 .238-.14.378-.448.378h-1.26c-1.428 0-2.324.756-2.324 1.974a2.1 2.1 0 002.24 2.016 2.161 2.161 0 001.792-.768v.6h1.82v-4.214c0-1.694-1.33-2.366-2.786-2.366a5.487 5.487 0 00-2.744.784l.714 1.372a4.358 4.358 0 011.932-.6c.7 0 1.064.294 1.064.756zm-45.644 16.308v-1.68h-3.78v-2.548h5.152v-1.68h-7.1v9.8h1.946v-3.892zm3.808 2.73c-.56 0-.91-.322-.91-.756s.336-.7.91-.7h.686a.791.791 0 00.56-.14v.458a1.109 1.109 0 01-1.254 1.138zm1.246-3.038c0 .238-.14.378-.448.378h-1.26c-1.428 0-2.324.756-2.324 1.974a2.1 2.1 0 002.24 2.016 2.161 2.161 0 001.792-.77v.602h1.82v-4.214c0-1.694-1.33-2.366-2.786-2.366a5.487 5.487 0 00-2.744.784l.714 1.372a4.358 4.358 0 011.932-.6c.7 0 1.064.294 1.064.756zm6.342-.756a1.487 1.487 0 011.414.98l1.708-.518a3.2 3.2 0 00-3.139-2.086 3.325 3.325 0 00-3.416 3.374 3.325 3.325 0 003.416 3.374 3.186 3.186 0 003.136-2.068l-1.708-.532a1.469 1.469 0 01-1.414.98 1.621 1.621 0 01-1.61-1.75 1.621 1.621 0 011.61-1.754zm4.673-3.892v2.436h-1.008v1.54h1.008v3.514c0 1.288.938 1.442 1.848 1.442.532 0 1.414-.084 1.414-.084v-1.554s-.378.042-.84.042c-.28 0-.6-.056-.6-.462v-2.9h1.384v-1.538h-1.386v-2.436zm7.49 9.016a3.374 3.374 0 100-6.748 3.374 3.374 0 100 6.748zm0-5.124a1.619 1.619 0 011.6 1.75 1.609 1.609 0 11-3.206 0 1.621 1.621 0 011.606-1.75zm8.526-1.484a2.061 2.061 0 00-.5-.056 1.689 1.689 0 00-1.666 1.106v-1.022h-1.768v6.412h1.82v-3.066c0-1.12.42-1.554 1.344-1.554h.77zm2.915 6.86a.667.667 0 01-.714.5h-.9v1.53h1.26a1.844 1.844 0 002-1.442l2.562-7.42h-1.971l-1.372 4.564-1.358-4.564h-2.03l2.198 6.412h.462z" fill="#fff"/><path data-name="Path 966" d="M261.576 121.211h1.92l-2.148-3.54a2.362 2.362 0 001.6-2.3c0-1.464-1.08-2.556-2.916-2.556h-3.156v8.396h1.668v-3.228h1.176zm-.3-5.832c0 .72-.54 1.152-1.464 1.152h-1.272v-2.28h1.272c.924 0 1.464.384 1.464 1.128zm8.076 3.48c0-2.3-1.368-3.288-2.88-3.288a2.784 2.784 0 00-2.856 2.892 2.8 2.8 0 002.88 2.892 2.8 2.8 0 002.748-1.728l-1.62-.168a1.245 1.245 0 01-1.1.564 1.245 1.245 0 01-1.26-1.1h4.092zm-2.88-1.992a1.192 1.192 0 011.212 1.008h-2.456a1.226 1.226 0 011.244-1.008zm7.932-.48a3.276 3.276 0 00-2.22-.816c-1.32 0-2.136.8-2.136 1.7a1.627 1.627 0 001.272 1.612l.936.276c.444.132.624.252.624.528 0 .216-.228.408-.6.408a2.72 2.72 0 01-1.62-.684l-.832 1.08a3.545 3.545 0 002.428.864c1.5 0 2.184-.936 2.184-1.74 0-.72-.384-1.332-1.512-1.7l-.912-.288c-.288-.1-.408-.228-.408-.42 0-.168.144-.372.552-.372a2 2 0 011.356.564zm1.44-2.76v2.084h-.864v1.32h.864v3.012c0 1.1.8 1.236 1.584 1.236.456.004 1.212-.068 1.212-.068v-1.332s-.324.036-.72.036c-.24 0-.516-.048-.516-.4v-2.48h1.188v-1.324h-1.188v-2.084zm10.068-.816h-1.992l-2.712 8.4h1.752l.668-2.292h2.536l.72 2.292h1.8zm-.168 4.68h-1.716l.852-2.88h.024zm5.568.876h1.188a2.755 2.755 0 003.028-2.796 2.723 2.723 0 00-3.028-2.76h-2.844v8.4h1.656zm.936-4.116c.912 0 1.572.384 1.572 1.32s-.66 1.368-1.572 1.368h-.936v-2.688zm4.392 6.96h1.668v-8.4h-1.668zm3.12-.888a1 1 0 00.444.852l-.684 1.512h1.26l.948-1.764a1.535 1.535 0 00.156-.6 1.053 1.053 0 00-1.08-1.044 1.03 1.03 0 00-1.044 1.044zm-42.678 10.636c0-1.08-.864-2.148-2.592-2.148h-2.712v8.4h2.988a2.461 2.461 0 002.772-2.412 2.21 2.21 0 00-1.56-2.076v-.024a1.853 1.853 0 001.104-1.74zm-3.636 2.628h.948c.816 0 1.4.36 1.4 1.068 0 .684-.48 1.152-1.488 1.152h-.864zm.852-3.36c.576 0 1.092.276 1.092.924s-.492.948-1.092.948h-.852v-1.872zm6.252 5.984c-.48 0-.78-.276-.78-.648s.288-.6.78-.6h.588a.678.678 0 00.48-.12v.4a.951.951 0 01-1.068.968zm1.068-2.6c0 .2-.12.324-.384.324h-1.08c-1.224 0-1.992.648-1.992 1.692a1.8 1.8 0 001.92 1.728 1.853 1.853 0 001.536-.66v.516h1.56v-3.612c0-1.452-1.14-2.028-2.388-2.028a4.7 4.7 0 00-2.352.672l.612 1.176a3.735 3.735 0 011.656-.516c.6 0 .912.252.912.648zm3.252-3.984v2.084h-.864v1.32h.864v3.012c0 1.1.8 1.236 1.584 1.236.456 0 1.212-.072 1.212-.072v-1.328s-.324.036-.72.036c-.24 0-.516-.048-.516-.4v-2.48h1.188v-1.324h-1.19v-2.084zm6.42 3.336a1.275 1.275 0 011.212.84l1.464-.444a2.74 2.74 0 00-2.688-1.788 2.85 2.85 0 00-2.928 2.892 2.85 2.85 0 002.928 2.892 2.731 2.731 0 002.688-1.776l-1.464-.456a1.259 1.259 0 01-1.212.84 1.39 1.39 0 01-1.38-1.5 1.39 1.39 0 011.38-1.5zm5.112-.6s.024-.24.024-.432v-3.12h-1.536v8.4h1.56v-3.564a1.523 1.523 0 011.164-.624.888.888 0 01.936.984v3.204h1.56v-3.6a1.915 1.915 0 00-2.04-2.04 2.156 2.156 0 00-1.668.792zm14.832.648a3.987 3.987 0 00-4.356-4.2h-2.88v8.4h2.88a3.987 3.987 0 004.356-4.2zm-1.7 0a2.534 2.534 0 01-2.716 2.784h-1.152v-5.556h1.152a2.536 2.536 0 012.71 2.772zm4.652 3.2c-.48 0-.78-.276-.78-.648s.288-.6.78-.6h.588a.678.678 0 00.48-.12v.4a.951.951 0 01-1.068.968zm1.068-2.6c0 .2-.12.324-.384.324h-1.08c-1.224 0-1.992.648-1.992 1.692a1.8 1.8 0 001.92 1.728 1.853 1.853 0 001.536-.66v.516h1.56v-3.612c0-1.452-1.14-2.028-2.388-2.028a4.7 4.7 0 00-2.352.672l.612 1.176a3.735 3.735 0 011.656-.516c.6 0 .912.252.912.648zm3.252-3.984v2.084h-.864v1.32h.864v3.012c0 1.1.8 1.236 1.584 1.236.456 0 1.212-.072 1.212-.072v-1.328s-.324.036-.72.036c-.24 0-.516-.048-.516-.4v-2.48h1.188v-1.324h-1.188v-2.084zm5.808 6.584c-.48 0-.78-.276-.78-.648s.288-.6.78-.6h.588a.678.678 0 00.48-.12v.4a.951.951 0 01-1.068.968zm1.068-2.6c0 .2-.12.324-.384.324h-1.08c-1.224 0-1.992.648-1.992 1.692a1.8 1.8 0 001.92 1.728 1.853 1.853 0 001.536-.66v.516h1.56v-3.612c0-1.452-1.14-2.028-2.388-2.028a4.7 4.7 0 00-2.352.672l.612 1.176a3.735 3.735 0 011.656-.516c.6 0 .912.252.912.648zm-49.68 19.6h1.668v-8.4h-1.668zm4.716-4.848s.024-.24.024-.432v-.22h-1.524v5.5h1.56v-3.564a1.523 1.523 0 011.164-.624.888.888 0 01.936.984v3.204h1.56v-3.6a1.915 1.915 0 00-2.04-2.04 2.162 2.162 0 00-1.68.792zm9.01-.652v.252c0 .288.024.4.024.456a1.99 1.99 0 00-1.74-.852 2.638 2.638 0 00-2.628 2.856 2.643 2.643 0 002.644 2.848 2.012 2.012 0 001.7-.828v1.056c0 .42-.312.492-.588.492h-2v1.32h2.388a1.568 1.568 0 001.764-1.692v-5.908zm-2.736 2.712a1.38 1.38 0 011.38-1.512 1.383 1.383 0 011.392 1.512 1.379 1.379 0 01-1.392 1.5 1.377 1.377 0 01-1.378-1.496zm11.028.432c0-2.3-1.368-3.288-2.88-3.288a2.784 2.784 0 00-2.856 2.892 2.8 2.8 0 002.88 2.892 2.8 2.8 0 002.748-1.728l-1.62-.168a1.245 1.245 0 01-1.1.564 1.245 1.245 0 01-1.26-1.1h4.092zm-2.88-1.992a1.192 1.192 0 011.212 1.008h-2.46a1.226 1.226 0 011.25-1.004zm7.932-.48a3.276 3.276 0 00-2.22-.816c-1.32 0-2.136.8-2.136 1.7a1.627 1.627 0 001.274 1.616l.936.276c.444.132.624.252.624.528 0 .216-.228.408-.6.408a2.72 2.72 0 01-1.622-.684l-.828 1.08a3.545 3.545 0 002.424.864c1.5 0 2.184-.936 2.184-1.74 0-.72-.384-1.332-1.512-1.7l-.912-.288c-.288-.1-.408-.228-.408-.42 0-.168.144-.372.552-.372a2 2 0 011.356.564zm1.44-2.76v2.088h-.862v1.32h.864v3.012c0 1.1.8 1.236 1.584 1.236.456 0 1.212-.072 1.212-.072v-1.328s-.324.036-.72.036c-.24 0-.516-.048-.516-.4v-2.48h1.188v-1.324h-1.188v-2.084zm5.716 2.088h-2.33v1.32h.768v4.18h1.562zm-1.848-1.9a1 1 0 002 0 1 1 0 10-2 0zm5.784 7.536a2.892 2.892 0 100-5.784 2.892 2.892 0 100 5.784zm0-4.392a1.505 1.505 0 11-1.38 1.5 1.387 1.387 0 011.378-1.492zm5.436-.6s.024-.24.024-.432v-.212h-1.526v5.5h1.56v-3.564a1.523 1.523 0 011.164-.624.888.888 0 01.936.984v3.204h1.56v-3.6a1.915 1.915 0 00-2.04-2.04 2.162 2.162 0 00-1.68.792z" fill="#fff"/><path data-name="Path 968" d="M409.815 63.958h-2.324l-3.164 9.8h2.044l.781-2.674h2.954l.846 2.674h2.1zm-.2 5.46h-2l.994-3.36h.028zm13.006-.56c0-2.912-1.876-4.9-5.082-4.9h-3.36v9.8h3.36c3.213 0 5.086-1.988 5.086-4.9zm-1.988 0a2.956 2.956 0 01-3.164 3.248h-1.344v-6.482h1.344a2.959 2.959 0 013.168 3.234zm9.594 4.9v-1.666h-4.158v-8.134h-1.946v9.8zm7.35-8.6a5.143 5.143 0 00-3.234-1.368c-1.736 0-3.276 1.036-3.276 2.758a3.106 3.106 0 002.142 2.744l.686.322c.938.434 1.54.812 1.54 1.484 0 .6-.518 1.064-1.358 1.064A3.605 3.605 0 01431.683 71l-1.078 1.458a4.829 4.829 0 003.514 1.468c2.156 0 3.4-1.428 3.4-2.9s-.938-2.282-2.492-3.01l-.812-.378c-.782-.362-1.063-.712-1.063-1.16 0-.588.588-.924 1.232-.924a3.225 3.225 0 012.073 1.004zm8.652 8.768a3.87 3.87 0 003.164-1.526v1.358h1.582V68.9h-4.158v1.6h2.142a2.6 2.6 0 01-2.562 1.634 3.038 3.038 0 01-3.108-3.276 3.087 3.087 0 013.122-3.276 2.637 2.637 0 012.66 1.862h2.142a4.819 4.819 0 00-4.8-3.654 4.991 4.991 0 00-5.154 5.068 4.883 4.883 0 004.97 5.068zm12.474-2.912c0-2.688-1.6-3.836-3.36-3.836a3.248 3.248 0 00-3.332 3.374 3.27 3.27 0 003.36 3.374 3.261 3.261 0 003.206-2.016l-1.89-.2a1.452 1.452 0 01-1.288.658 1.452 1.452 0 01-1.47-1.288h4.774zm-3.36-2.324a1.391 1.391 0 011.409 1.176h-2.87a1.43 1.43 0 011.461-1.176zm6.188-.588s.028-.28.028-.5v-.252h-1.778v6.408h1.82V69.6a1.776 1.776 0 011.358-.728 1.036 1.036 0 011.093 1.148v3.738h1.82v-4.2a2.234 2.234 0 00-2.38-2.38 2.523 2.523 0 00-1.961.924zm5.614 5.656h6.524v-1.68h-4.06l1.162-1.02c2.394-2.1 2.772-3.22 2.772-4.382a2.965 2.965 0 00-3.276-2.884c-2.086 0-3.234 1.344-3.234 2.716a3.1 3.1 0 00.364 1.512l1.792-.322a2.531 2.531 0 01-.252-1.022 1.18 1.18 0 011.3-1.162 1.223 1.223 0 011.3 1.26c0 .8-.266 1.512-1.5 2.674s-2.9 2.632-2.9 2.632z" fill="#fff"/><path data-name="Path 970" d="M400.556 127.676h1.92l-2.148-3.54a2.362 2.362 0 001.6-2.3c0-1.464-1.08-2.556-2.916-2.556h-3.16v8.396h1.668v-3.228h1.176zm-.3-5.832c0 .72-.54 1.152-1.464 1.152h-1.272v-2.28h1.272c.924 0 1.464.384 1.464 1.128zm4.848 4.832c-.48 0-.78-.276-.78-.648s.288-.6.78-.6h.588a.678.678 0 00.48-.12v.4a.951.951 0 01-1.068.968zm1.068-2.6c0 .2-.12.324-.384.324h-1.08c-1.224 0-1.992.648-1.992 1.692a1.8 1.8 0 001.92 1.728 1.853 1.853 0 001.536-.66v.516h1.56v-3.612c0-1.452-1.14-2.028-2.388-2.028a4.7 4.7 0 00-2.352.672l.612 1.176a3.735 3.735 0 011.656-.516c.6 0 .912.252.912.648zm7.368-1.9h-1.524l-1.02 3.532-.732-3.532h-1.682l1.346 5.5h1.836l.984-3.432.96 3.432h1.848l1.426-5.5h-1.606l-.84 3.58z" fill="#fff"/><path data-name="Path 969" d="M453.162 127.676h1.92l-2.148-3.54a2.362 2.362 0 001.6-2.3c0-1.464-1.08-2.556-2.916-2.556h-3.156v8.396h1.668v-3.228h1.176zm-.3-5.832c0 .72-.54 1.152-1.464 1.152h-1.272v-2.28h1.272c.924 0 1.464.384 1.464 1.128zm8.076 3.48c0-2.3-1.368-3.288-2.88-3.288a2.784 2.784 0 00-2.856 2.892 2.8 2.8 0 002.88 2.892 2.8 2.8 0 002.748-1.728l-1.62-.168a1.245 1.245 0 01-1.1.564 1.245 1.245 0 01-1.26-1.1h4.092zm-2.88-1.992a1.192 1.192 0 011.212 1.008h-2.46a1.226 1.226 0 011.248-1.008zm9.252-1.156h-3.516v-1.112c0-.384.192-.456.492-.456.168 0 .648.06.648.06v-1.428s-.72-.072-1.14-.072a1.365 1.365 0 00-1.56 1.452v1.556h-.864v1.32h.864v4.18h1.56V123.5h1.958v4.176h1.56zm-1.848-1.9a.986.986 0 001 1 .989.989 0 001.008-1 1.006 1.006 0 00-1.012-1 1 1 0 00-.996 1.008zm4.668 2.552s.024-.24.024-.432v-.22h-1.524v5.5h1.56v-3.564a1.523 1.523 0 011.162-.624.888.888 0 01.936.984v3.204h1.564v-3.6a1.915 1.915 0 00-2.04-2.04 2.162 2.162 0 00-1.682.792zm10.392 2.5c0-2.3-1.368-3.288-2.88-3.288a2.784 2.784 0 00-2.856 2.888 2.8 2.8 0 002.88 2.892 2.8 2.8 0 002.748-1.728l-1.62-.168a1.245 1.245 0 01-1.1.564 1.245 1.245 0 01-1.26-1.1h4.088zm-2.88-1.996a1.192 1.192 0 011.21 1.008h-2.458a1.226 1.226 0 011.248-1.008zm6.48.1a1.408 1.408 0 011.4 1.5 1.425 1.425 0 01-1.4 1.512 1.425 1.425 0 01-1.4-1.512 1.408 1.408 0 011.4-1.504zm1.368 4.244h1.562v-8.4h-1.56v2.568c0 .408.024.864.024 1.044a2 2 0 00-1.754-.852 2.7 2.7 0 00-2.652 2.892 2.71 2.71 0 002.664 2.892 2.013 2.013 0 001.716-.844z" fill="#fff"/><path data-name="Path 963" d="M69.176 330.592h2.24l-2.506-4.13a2.755 2.755 0 001.862-2.688c0-1.708-1.26-2.982-3.4-2.982H63.69v9.8h1.946v-3.766h1.372zm-.35-6.8c0 .84-.63 1.344-1.708 1.344h-1.484v-2.664h1.484c1.077 0 1.707.448 1.707 1.32zm9.422 4.06c0-2.688-1.6-3.836-3.36-3.836a3.248 3.248 0 00-3.332 3.374 3.27 3.27 0 003.359 3.37 3.261 3.261 0 003.206-2.016l-1.89-.2a1.452 1.452 0 01-1.288.658 1.452 1.452 0 01-1.467-1.284h4.774zm-3.36-2.324a1.391 1.391 0 011.414 1.176h-2.87a1.43 1.43 0 011.455-1.18zm6.748 3.906c-.56 0-.91-.322-.91-.756s.336-.7.91-.7h.686a.791.791 0 00.56-.14v.454a1.109 1.109 0 01-1.247 1.138zm1.245-3.042c0 .238-.14.378-.448.378h-1.257c-1.428 0-2.324.756-2.324 1.974a2.1 2.1 0 002.237 2.016 2.161 2.161 0 001.792-.768v.6h1.82v-4.214c0-1.694-1.33-2.366-2.786-2.366a5.487 5.487 0 00-2.739.78l.714 1.372a4.358 4.358 0 011.932-.6c.7 0 1.064.294 1.064.756zm5.124-5.6h-1.806v9.8h1.806zm3.374 0v1.736h2.926v8.064h1.932v-8.064h2.926v-1.736zm10.962 3.388h-2.716v1.54h.9v4.872h1.82zm-2.156-2.212a1.15 1.15 0 001.162 1.162 1.154 1.154 0 001.176-1.162 1.174 1.174 0 00-1.176-1.176 1.171 1.171 0 00-1.162 1.176zm12.152 8.624h1.82v-4.2a2.223 2.223 0 00-2.366-2.38 2.576 2.576 0 00-2.156 1.162 2.14 2.14 0 00-2.059-1.162 2.484 2.484 0 00-1.918.924s.028-.28.028-.5v-.252h-1.778v6.408h1.82v-4.158a1.746 1.746 0 011.33-.728 1.015 1.015 0 011.064 1.12v3.766h1.82v-4.158a1.746 1.746 0 011.33-.728 1.014 1.014 0 011.064 1.12zm9.6-2.744c0-2.688-1.6-3.836-3.36-3.836a3.248 3.248 0 00-3.328 3.374 3.27 3.27 0 003.36 3.374 3.261 3.261 0 003.206-2.016l-1.89-.2a1.452 1.452 0 01-1.288.658 1.452 1.452 0 01-1.47-1.288h4.774zm-3.36-2.324a1.391 1.391 0 011.418 1.176h-2.87a1.43 1.43 0 011.456-1.176zm6.248-4.732v1.736h2.926v8.064h1.932v-8.064h2.926v-1.736zm13.594 7.056c0-2.688-1.6-3.836-3.36-3.836a3.248 3.248 0 00-3.332 3.374 3.27 3.27 0 003.36 3.374 3.261 3.261 0 003.206-2.016l-1.89-.2a1.452 1.452 0 01-1.288.658 1.452 1.452 0 01-1.47-1.288h4.774zm-3.36-2.324a1.391 1.391 0 011.417 1.176h-2.873a1.43 1.43 0 011.456-1.176zm6.244-4.732h-1.806v9.8h1.806zm7.854 7.056c0-2.688-1.6-3.836-3.36-3.836a3.248 3.248 0 00-3.332 3.374 3.27 3.27 0 003.36 3.374 3.261 3.261 0 003.206-2.016l-1.89-.2a1.452 1.452 0 01-1.288.658 1.452 1.452 0 01-1.47-1.288h4.774zm-3.36-2.324a1.391 1.391 0 011.414 1.176h-2.87a1.43 1.43 0 011.456-1.176zm12.866 5.068h1.82v-4.2a2.223 2.223 0 00-2.366-2.38 2.576 2.576 0 00-2.156 1.162 2.14 2.14 0 00-2.058-1.162 2.484 2.484 0 00-1.918.924s.028-.28.028-.5v-.252h-1.778v6.408h1.82v-4.158a1.746 1.746 0 011.33-.728 1.015 1.015 0 011.064 1.12v3.766h1.82v-4.158a1.746 1.746 0 011.33-.728 1.014 1.014 0 011.064 1.12zm9.6-2.744c0-2.688-1.6-3.836-3.36-3.836a3.248 3.248 0 00-3.327 3.374 3.27 3.27 0 003.359 3.374 3.261 3.261 0 003.206-2.016l-1.89-.2a1.452 1.452 0 01-1.288.658 1.452 1.452 0 01-1.47-1.288h4.774zm-3.36-2.324a1.391 1.391 0 011.414 1.176h-2.87a1.43 1.43 0 011.46-1.176zm4.914-3.78v2.436h-1.004v1.54h1.008v3.514c0 1.288.938 1.442 1.848 1.442.532 0 1.414-.084 1.414-.084v-1.554s-.378.042-.84.042c-.28 0-.6-.056-.6-.462v-2.9h1.386v-1.54h-1.388v-2.434zm8.4 2.408a2.061 2.061 0 00-.5-.056 1.689 1.689 0 00-1.666 1.106v-1.022h-1.764v6.412h1.82v-3.066c0-1.12.42-1.554 1.344-1.554h.77zm2.916 6.86a.667.667 0 01-.714.5h-.9v1.53h1.26a1.844 1.844 0 002-1.442l2.562-7.42h-1.965l-1.375 4.564-1.358-4.564h-2.03l2.198 6.412h.465zm-89.145 9.168h-1.974l2.184 6.412h2.254l2.282-6.412h-1.918l-1.456 4.452zm7.854 0h-2.716v1.54h.9v4.872h1.82zm-2.156-2.212a1.15 1.15 0 001.162 1.162 1.154 1.154 0 001.176-1.162 1.174 1.174 0 00-1.176-1.176 1.171 1.171 0 00-1.162 1.176zm6.034 7.462c-.56 0-.91-.322-.91-.756s.336-.7.91-.7h.686a.791.791 0 00.56-.14v.458a1.109 1.109 0 01-1.246 1.138zm1.246-3.038c0 .238-.14.378-.448.378h-1.26c-1.428 0-2.324.756-2.324 1.974a2.1 2.1 0 002.24 2.016 2.161 2.161 0 001.792-.77v.602h1.82v-4.214c0-1.694-1.33-2.366-2.786-2.366a5.487 5.487 0 00-2.744.784l.714 1.372a4.358 4.358 0 011.932-.6c.7 0 1.064.294 1.064.756zm8.288.882h1.386a3.214 3.214 0 003.528-3.262c0-1.778-1.218-3.22-3.528-3.22h-3.318v9.8h1.932zm1.092-4.8c1.064 0 1.834.448 1.834 1.54s-.77 1.6-1.834 1.6h-1.092v-3.142zm5.124 8.118h1.946v-9.8h-1.946zm10.15-8.6a5.143 5.143 0 00-3.234-1.368c-1.736 0-3.276 1.036-3.276 2.758a3.106 3.106 0 002.142 2.744l.686.322c.938.434 1.54.812 1.54 1.484 0 .6-.518 1.064-1.358 1.064a3.605 3.605 0 01-2.394-1.162l-1.078 1.458a4.829 4.829 0 003.514 1.47c2.156 0 3.4-1.428 3.4-2.9s-.936-2.282-2.486-3.01l-.812-.378c-.788-.364-1.068-.714-1.068-1.162 0-.588.588-.924 1.232-.924a3.225 3.225 0 012.072 1.004zm7.42 5.852c0-2.688-1.6-3.836-3.36-3.836a3.248 3.248 0 00-3.332 3.374 3.27 3.27 0 003.36 3.374 3.261 3.261 0 003.206-2.016l-1.89-.2a1.452 1.452 0 01-1.288.658 1.452 1.452 0 01-1.47-1.288h4.774zm-3.364-2.32a1.391 1.391 0 011.414 1.176h-2.866a1.43 1.43 0 011.452-1.176zm6.188-.588s.028-.28.028-.5v-.256h-1.774v6.412h1.82v-4.158a1.776 1.776 0 011.358-.728 1.036 1.036 0 011.092 1.148v3.738h1.82v-4.2a2.234 2.234 0 00-2.38-2.38 2.523 2.523 0 00-1.96.924zm10.654.028a3.822 3.822 0 00-2.59-.952c-1.54 0-2.492.938-2.492 1.988a1.9 1.9 0 001.484 1.876l1.092.322c.518.154.728.294.728.616 0 .252-.266.476-.7.476a3.173 3.173 0 01-1.89-.8l-.966 1.26a4.136 4.136 0 002.828 1.008c1.75 0 2.548-1.092 2.548-2.03 0-.84-.448-1.554-1.764-1.988l-1.064-.336c-.336-.112-.476-.266-.476-.49 0-.2.168-.434.644-.434a2.335 2.335 0 011.582.658zm7.49 2.884c0-2.688-1.6-3.836-3.36-3.836a3.248 3.248 0 00-3.332 3.374 3.437 3.437 0 006.566 1.358l-1.89-.2a1.523 1.523 0 01-2.758-.63h4.774zm-3.36-2.324a1.391 1.391 0 011.414 1.176h-2.866a1.43 1.43 0 011.456-1.176z" fill="#fff"/><path data-name="Path 964" d="M254.441 322.704h1.946v-9.8h-1.946zm8.54-9.968a4.992 4.992 0 00-5.124 5.068 4.992 4.992 0 005.124 5.068 4.992 4.992 0 005.124-5.068 4.992 4.992 0 00-5.124-5.068zm0 8.344a3.065 3.065 0 01-3.094-3.276 3.065 3.065 0 013.094-3.276 3.065 3.065 0 013.09 3.276 3.065 3.065 0 01-3.09 3.276zm5.572-8.176v1.736h2.926v8.064h1.932v-8.064h2.926v-1.736zm19.18 9.8v-9.8h-1.946v3.976h-3.892v-3.976h-1.946v9.8h1.946v-4.158h3.892v4.158zm4.76.168c1.974 0 3.038-1.176 3.038-2.52v-4.06h-1.806v3.724a1.131 1.131 0 01-1.232 1.232 1.137 1.137 0 01-1.232-1.232v-3.724h-1.82v4.06c0 1.344 1.092 2.52 3.052 2.52zm7.924-5.124a1.642 1.642 0 011.638 1.75 1.662 1.662 0 01-1.638 1.764 1.662 1.662 0 01-1.638-1.764 1.642 1.642 0 011.638-1.75zm-1.596 4.144a2.307 2.307 0 001.988.98 3.172 3.172 0 003.122-3.374 3.161 3.161 0 00-3.108-3.374 2.3 2.3 0 00-2.03.994c0-.182.028-.63.028-1.05v-3.164h-1.82v9.8h1.82z" fill="#fff"/><path data-name="Path 965" d="M255.071 344.592h1.668v-8.4h-1.668zm4.716-4.848s.024-.24.024-.432v-.22h-1.524v5.5h1.56v-3.564a1.523 1.523 0 011.164-.624.888.888 0 01.936.984v3.204h1.56v-3.6a1.915 1.915 0 00-2.04-2.04 2.162 2.162 0 00-1.682.792zm7.6.6a1.275 1.275 0 011.212.84l1.464-.444a2.74 2.74 0 00-2.692-1.788 2.85 2.85 0 00-2.93 2.892 2.85 2.85 0 002.93 2.892 2.731 2.731 0 002.686-1.776l-1.464-.456a1.259 1.259 0 01-1.212.84 1.39 1.39 0 01-1.38-1.5 1.39 1.39 0 011.38-1.5zm6.184 4.392a2.86 2.86 0 002.94-2.892 2.86 2.86 0 00-2.94-2.892 2.86 2.86 0 00-2.94 2.892 2.86 2.86 0 002.94 2.892zm0-4.392a1.387 1.387 0 011.368 1.5 1.394 1.394 0 01-1.368 1.5 1.4 1.4 0 01-1.38-1.5 1.39 1.39 0 011.38-1.5zm11.162 4.248h1.56v-3.6a1.905 1.905 0 00-2.028-2.04 2.208 2.208 0 00-1.848 1 1.834 1.834 0 00-1.764-1 2.129 2.129 0 00-1.644.792s.024-.24.024-.432v-.22h-1.524v5.5h1.562v-3.564a1.5 1.5 0 011.14-.624.87.87 0 01.912.96v3.228h1.558v-3.564a1.5 1.5 0 011.14-.624.869.869 0 01.912.96zm4.728-5.5h-2.328v1.32h.768v4.18h1.56zm-1.848-1.9a.986.986 0 001 1 .989.989 0 001.008-1 1.006 1.006 0 00-1.012-1 1 1 0 00-.996 1.008zm4.692 2.544s.024-.24.024-.432v-.212h-1.524v5.5h1.56v-3.564a1.523 1.523 0 011.164-.624.888.888 0 01.936.984v3.204h1.56v-3.6a1.915 1.915 0 00-2.04-2.04 2.162 2.162 0 00-1.68.792zm9.012-.644v.252c0 .288.024.4.024.456a1.99 1.99 0 00-1.74-.852 2.638 2.638 0 00-2.63 2.86 2.643 2.643 0 002.642 2.844 2.012 2.012 0 001.7-.828v1.056c0 .42-.312.492-.588.492h-2v1.32h2.388a1.568 1.568 0 001.764-1.692v-5.908zm-2.736 2.716a1.38 1.38 0 011.38-1.516 1.383 1.383 0 011.392 1.512 1.379 1.379 0 01-1.392 1.5 1.377 1.377 0 01-1.38-1.496zm-35.388 15.2v.8a2.823 2.823 0 003.132 2.928 2.87 2.87 0 003.18-2.928v-5.616h-1.668v5.46a1.4 1.4 0 01-1.488 1.548 1.4 1.4 0 01-1.488-1.548v-.648zm13.272-3.78a4.408 4.408 0 00-2.772-1.18 2.541 2.541 0 00-2.808 2.364 2.662 2.662 0 001.836 2.352l.588.276c.8.372 1.32.7 1.32 1.272 0 .516-.444.912-1.164.912a3.09 3.09 0 01-2.052-1l-.924 1.248a4.139 4.139 0 003.012 1.26 2.651 2.651 0 002.916-2.48c0-1.26-.8-1.956-2.136-2.58l-.7-.324c-.672-.312-.912-.612-.912-1 0-.5.5-.792 1.056-.792a2.765 2.765 0 011.776.864zm5.148-1.18a4.279 4.279 0 00-4.392 4.344 4.279 4.279 0 004.392 4.344 4.279 4.279 0 004.392-4.344 4.279 4.279 0 00-4.392-4.344zm0 7.152a2.627 2.627 0 01-2.652-2.808 2.627 2.627 0 012.652-2.808 2.627 2.627 0 012.652 2.808 2.627 2.627 0 01-2.652 2.808zm7.3-4.44l3 5.832h2.028v-8.4h-1.648v5.592l-2.832-5.592h-2.2v8.4h1.644z" fill="#fff"/><path data-name="Path 962" d="M1.932 256.014h1.386a3.214 3.214 0 003.528-3.262c0-1.778-1.218-3.22-3.528-3.22H0v9.8h1.932zm1.092-4.8c1.064 0 1.834.448 1.834 1.54s-.77 1.6-1.834 1.6H1.932v-3.142zm7.378 8.118h2.114l3.318-9.8h-2.03l-2.338 7.266h-.014l-2.226-7.266H7.07zm17.318-4.9c0-2.912-1.876-4.9-5.082-4.9h-3.36v9.8h3.36c3.206 0 5.082-1.988 5.082-4.9zm-1.988 0a2.956 2.956 0 01-3.164 3.248h-1.344v-6.482h1.344a2.959 2.959 0 013.164 3.234zm5.432 3.738c-.56 0-.91-.322-.91-.756s.336-.7.91-.7h.686a.791.791 0 00.56-.14v.458a1.109 1.109 0 01-1.246 1.138zm1.246-3.038c0 .238-.14.378-.448.378h-1.26c-1.428 0-2.324.756-2.324 1.974a2.1 2.1 0 002.24 2.016 2.161 2.161 0 001.792-.768v.6h1.82v-4.214c0-1.694-1.33-2.366-2.786-2.366a5.487 5.487 0 00-2.744.784l.714 1.372a4.358 4.358 0 011.932-.6c.7 0 1.064.294 1.064.756zm3.794-4.648v2.436h-1.008v1.54h1.008v3.514c0 1.288.938 1.442 1.848 1.442.532 0 1.414-.084 1.414-.084v-1.554s-.378.042-.84.042c-.28 0-.6-.056-.6-.462v-2.9h1.386v-1.54h-1.388v-2.434zm6.774 7.686c-.56 0-.91-.322-.91-.756s.336-.7.91-.7h.686a.791.791 0 00.56-.14v.458a1.109 1.109 0 01-1.246 1.138zm1.248-3.038c0 .238-.14.378-.448.378h-1.26c-1.428 0-2.324.756-2.324 1.974a2.1 2.1 0 002.24 2.016 2.161 2.161 0 001.792-.768v.6h1.82v-4.214c0-1.694-1.33-2.366-2.786-2.366a5.487 5.487 0 00-2.744.784l.714 1.372a4.358 4.358 0 011.932-.6c.7 0 1.064.294 1.064.756zm12.516-4.4a5.143 5.143 0 00-3.234-1.368c-1.736 0-3.276 1.036-3.276 2.758a3.106 3.106 0 002.146 2.744l.686.322c.938.434 1.54.812 1.54 1.484 0 .6-.518 1.064-1.358 1.064a3.605 3.605 0 01-2.398-1.162l-1.078 1.458a4.829 4.829 0 003.514 1.468c2.156 0 3.4-1.428 3.4-2.9s-.938-2.282-2.492-3.01l-.814-.376c-.784-.364-1.064-.714-1.064-1.162 0-.588.588-.924 1.232-.924a3.225 3.225 0 012.076 1.004zM60.9 259.5a3.336 3.336 0 003.43-3.374 3.336 3.336 0 00-3.43-3.374 3.336 3.336 0 00-3.43 3.374 3.336 3.336 0 003.43 3.374zm0-5.124a1.619 1.619 0 011.6 1.75 1.627 1.627 0 01-1.6 1.75 1.629 1.629 0 01-1.61-1.75 1.621 1.621 0 011.61-1.75zm7.546 5.124c1.974 0 3.038-1.176 3.038-2.52v-4.06h-1.806v3.724a1.131 1.131 0 01-1.232 1.232 1.137 1.137 0 01-1.232-1.232v-3.724h-1.82v4.06c0 1.344 1.092 2.52 3.052 2.52zm8.442-6.608a2.061 2.061 0 00-.5-.056 1.689 1.689 0 00-1.67 1.106v-1.022h-1.764v6.412h1.824v-3.066c0-1.12.42-1.554 1.344-1.554h.77zm3.976 1.484a1.487 1.487 0 011.414.98l1.708-.518a3.2 3.2 0 00-3.136-2.086 3.325 3.325 0 00-3.416 3.374 3.325 3.325 0 003.416 3.374 3.186 3.186 0 003.136-2.068l-1.708-.536a1.469 1.469 0 01-1.414.98 1.621 1.621 0 01-1.61-1.75 1.621 1.621 0 011.61-1.75zm10.486 2.212c0-2.688-1.6-3.836-3.36-3.836a3.248 3.248 0 00-3.332 3.374 3.27 3.27 0 003.36 3.374 3.261 3.261 0 003.206-2.016l-1.89-.2a1.452 1.452 0 01-1.288.658 1.452 1.452 0 01-1.468-1.284h4.774zm-3.36-2.324a1.391 1.391 0 011.414 1.176h-2.87a1.43 1.43 0 011.456-1.176zm9.254-.56a3.822 3.822 0 00-2.59-.952c-1.54 0-2.492.938-2.492 1.988a1.9 1.9 0 001.484 1.876l1.092.322c.518.154.728.294.728.616 0 .252-.266.476-.7.476a3.173 3.173 0 01-1.89-.8l-.966 1.262a4.136 4.136 0 002.828 1.008c1.75 0 2.548-1.092 2.548-2.03 0-.84-.448-1.554-1.764-1.988l-1.064-.336c-.336-.114-.48-.266-.48-.49 0-.2.168-.434.644-.434a2.335 2.335 0 011.582.658z" fill="#fff"/><g data-name="Group 884"><g data-name="Group 883"><g data-name="Group 879"><path data-name="Path 859" d="M65.92 37.013a1.058 1.058 0 01-1.068-1.069 1.079 1.079 0 01.309-.759 1.105 1.105 0 011.507 0 1.078 1.078 0 01.312.759 1.063 1.063 0 01-1.06 1.069z" fill="#ffde14"/></g><g data-name="Group 880"><path data-name="Path 860" d="M48.181 52.904H31.532a10.027 10.027 0 01-2.811-19.643v-.229a9.993 9.993 0 0119.625-2.692 72.243 72.243 0 0014.758 2.952 1.07 1.07 0 01-.628 2.044 7.918 7.918 0 00-3.235-.285 1.07 1.07 0 01-.959-.392 7.808 7.808 0 00-10.154-1.817 1.072 1.072 0 01-1.615-.785 7.855 7.855 0 10-15.593 1.9 1.07 1.07 0 01-.863 1.175 7.887 7.887 0 001.479 15.628h16.645a1.07 1.07 0 110 2.139z" fill="#ffde14"/></g><g data-name="Group 881"><path data-name="Path 861" d="M60.159 52.904H46.414a1.07 1.07 0 010-2.139h13.745a7.9 7.9 0 007.2-11.068 1.068 1.068 0 111.954-.862 10.033 10.033 0 01-9.151 14.069z" fill="#ffde14"/></g><g data-name="Group 882"><path data-name="Path 862" d="M27.26 43.597a1.068 1.068 0 01-1.069-1.069 5.642 5.642 0 015.629-5.642 1.069 1.069 0 110 2.137 3.5 3.5 0 00-3.492 3.5 1.068 1.068 0 01-1.068 1.074z" fill="#ffde14"/></g></g><path data-name="Path 863" d="M40.684 21.613a12.945 12.945 0 1123.673 10.232" fill="none" stroke="#ff0" stroke-linecap="round" stroke-miterlimit="10" stroke-width="3"/></g><g data-name="Group 921"><g data-name="Group 887"><g data-name="Group 886"><g data-name="Group 885"><path data-name="Path 864" d="M283.417 286.192a10.5 10.5 0 1110.519-10.5 10.52 10.52 0 01-10.519 10.5zm0-19.029a8.531 8.531 0 108.55 8.532 8.55 8.55 0 00-8.55-8.533z" fill="#ffde14"/></g></g></g><g data-name="Group 890"><g data-name="Group 889"><g data-name="Group 888"><path data-name="Path 865" d="M297.84 257.126a5 5 0 115.01-5 5.009 5.009 0 01-5.01 5zm0-8.033a3.032 3.032 0 103.041 3.032 3.038 3.038 0 00-3.041-3.031z" fill="#ffde14"/></g></g></g><g data-name="Group 893"><g data-name="Group 892"><g data-name="Group 891"><path data-name="Path 866" d="M292.951 296.912a5 5 0 115.009-5 5.01 5.01 0 01-5.009 5zm0-8.034a3.032 3.032 0 103.04 3.033 3.041 3.041 0 00-3.04-3.032z" fill="#ffde14"/></g></g></g><g data-name="Group 896"><g data-name="Group 895"><g data-name="Group 894"><path data-name="Path 867" d="M260.042 296.335a4.425 4.425 0 114.432-4.424 4.435 4.435 0 01-4.432 4.424zm0-6.882a2.456 2.456 0 102.463 2.458 2.464 2.464 0 00-2.463-2.458z" fill="#ffde14"/></g></g></g><g data-name="Group 899"><g data-name="Group 898"><g data-name="Group 897"><path data-name="Path 868" d="M259.477 259.701a4.279 4.279 0 114.286-4.28 4.29 4.29 0 01-4.286 4.28zm0-6.591a2.311 2.311 0 102.317 2.311 2.316 2.316 0 00-2.317-2.311z" fill="#ffde14"/></g></g></g><g data-name="Group 902"><g data-name="Group 901"><g data-name="Group 900"><path data-name="Path 869" d="M288.459 268.613a.966.966 0 01-.494-.134.979.979 0 01-.356-1.343l7.083-12.211a.984.984 0 011.7.991l-7.084 12.207a.982.982 0 01-.849.49z" fill="#ffde14"/></g></g></g><g data-name="Group 905"><g data-name="Group 904"><g data-name="Group 903"><path data-name="Path 870" d="M265.861 263.016a.976.976 0 01-.7-.292l-4.14-4.2a.985.985 0 011.4-1.385l4.141 4.2a.988.988 0 01-.011 1.393.975.975 0 01-.69.284z" fill="#ffde14"/></g></g></g><g data-name="Group 908"><g data-name="Group 907"><g data-name="Group 906"><path data-name="Path 871" d="M268.315 265.505a.977.977 0 01-.7-.295.947.947 0 01-.286-.689.967.967 0 01.286-.7 1.007 1.007 0 011.387 0 .976.976 0 01.3.7 1.01 1.01 0 01-.984.984z" fill="#ffde14"/></g></g></g><g data-name="Group 911"><g data-name="Group 910"><g data-name="Group 909"><path data-name="Path 872" d="M274.976 272.255a.986.986 0 01-.7-.292l-4.212-4.271a.985.985 0 011.4-1.385l4.214 4.272a.984.984 0 01-.7 1.675z" fill="#ffde14"/></g></g></g><g data-name="Group 914"><g data-name="Group 913"><g data-name="Group 912"><path data-name="Path 873" d="M262.777 290.807a.984.984 0 01-.422-1.873l14.474-6.875a.984.984 0 11.844 1.778l-14.474 6.874a.971.971 0 01-.422.096z" fill="#ffde14"/></g></g></g><g data-name="Group 917"><g data-name="Group 916"><g data-name="Group 915"><path data-name="Path 874" d="M290.882 289.454a.983.983 0 01-.875-.533l-2.424-4.71a.985.985 0 111.751-.9l2.42 4.71a.982.982 0 01-.873 1.434z" fill="#ffde14"/></g></g></g><g data-name="Group 920"><g data-name="Group 919"><g data-name="Group 918"><path data-name="Path 875" d="M288.468 276.146a.983.983 0 01-.984-.984 3.086 3.086 0 00-3.083-3.083.985.985 0 110-1.969 5.058 5.058 0 015.051 5.052.984.984 0 01-.984.984z" fill="#ffde14"/></g></g></g></g><path data-name="Path 971" d="M416.667 294.818a5.143 5.143 0 00-3.234-1.372c-1.736 0-3.276 1.036-3.276 2.758a3.106 3.106 0 002.142 2.744l.686.322c.938.434 1.54.812 1.54 1.484 0 .6-.518 1.064-1.358 1.064a3.605 3.605 0 01-2.394-1.162l-1.078 1.462a4.829 4.829 0 003.514 1.468c2.156 0 3.4-1.428 3.4-2.9s-.938-2.282-2.492-3.01l-.812-.378c-.784-.364-1.064-.714-1.064-1.162 0-.588.588-.924 1.232-.924a3.225 3.225 0 012.072 1.006zm1.568-.252v2.436h-1.008v1.54h1.008v3.514c0 1.288.938 1.442 1.848 1.442.532.004 1.414-.08 1.414-.08v-1.554s-.378.042-.84.042c-.28 0-.6-.056-.6-.462v-2.9h1.388v-1.54h-1.39v-2.434zm8.4 2.408a2.061 2.061 0 00-.5-.056 1.689 1.689 0 00-1.67 1.11v-1.022h-1.764v6.412h1.82v-3.066c0-1.12.42-1.554 1.344-1.554h.77zm7.238 3.7c0-2.688-1.6-3.836-3.36-3.836a3.248 3.248 0 00-3.332 3.374 3.27 3.27 0 003.364 3.374 3.261 3.261 0 003.2-2.016l-1.89-.2a1.452 1.452 0 01-1.288.658 1.452 1.452 0 01-1.47-1.288h4.774zm-3.36-2.324a1.391 1.391 0 011.414 1.176h-2.87a1.43 1.43 0 011.456-1.176zm6.748 3.906c-.56 0-.91-.322-.91-.756s.336-.7.91-.7h.684a.791.791 0 00.56-.14v.458a1.109 1.109 0 01-1.244 1.138zm1.246-3.038c0 .238-.14.378-.448.378h-1.26c-1.428 0-2.324.756-2.324 1.974a2.1 2.1 0 002.24 2.016 2.161 2.161 0 001.792-.768v.6h1.82v-4.214c0-1.694-1.33-2.366-2.786-2.366a5.487 5.487 0 00-2.744.78l.714 1.372a4.358 4.358 0 011.932-.6c.7 0 1.064.294 1.064.756zm11.746 4.2h1.82v-4.2a2.223 2.223 0 00-2.366-2.38 2.576 2.576 0 00-2.156 1.162 2.14 2.14 0 00-2.058-1.162 2.484 2.484 0 00-1.918.924s.028-.28.028-.5v-.252h-1.778v6.408h1.82v-4.158a1.746 1.746 0 011.33-.728 1.015 1.015 0 011.064 1.12v3.766h1.82v-4.158a1.746 1.746 0 011.33-.728 1.014 1.014 0 011.064 1.12zm5.516-6.412h-2.716v1.54h.9v4.872h1.82zm-2.156-2.212a1.15 1.15 0 001.162 1.162 1.154 1.154 0 001.176-1.162 1.174 1.174 0 00-1.176-1.176 1.171 1.171 0 00-1.162 1.176zm5.474 2.968s.028-.28.028-.5v-.252h-1.778v6.408h1.82v-4.158a1.776 1.776 0 011.358-.728 1.036 1.036 0 011.092 1.148v3.738h1.82v-4.2a2.234 2.234 0 00-2.382-2.38 2.523 2.523 0 00-1.958.924zm10.514-.756v.294c0 .336.028.462.028.532a2.322 2.322 0 00-2.03-.994 3.077 3.077 0 00-3.066 3.332 3.083 3.083 0 003.08 3.318 2.348 2.348 0 001.988-.97v1.236c0 .49-.364.574-.686.574h-2.338v1.54h2.786a1.83 1.83 0 002.058-1.974v-6.888zm-3.192 3.164a1.61 1.61 0 011.61-1.764 1.613 1.613 0 011.626 1.764 1.609 1.609 0 01-1.626 1.748 1.606 1.606 0 01-1.61-1.748zm-44.212 9.448h-2.324l-3.164 9.8h2.044l.784-2.674h2.954l.84 2.674h2.1zm-.2 5.46h-2l.994-3.36h.028zm6.076-1.316s.028-.28.028-.5v-.256h-1.778v6.412h1.82v-4.158a1.776 1.776 0 011.358-.728 1.036 1.036 0 011.092 1.148v3.738h1.82v-4.2a2.234 2.234 0 00-2.38-2.38 2.523 2.523 0 00-1.956.924zm8.148 4.494c-.56 0-.91-.322-.91-.756s.336-.7.91-.7h.686a.791.791 0 00.56-.14v.458a1.109 1.109 0 01-1.242 1.138zm1.25-3.038c0 .238-.14.378-.448.378h-1.26c-1.428 0-2.324.756-2.324 1.974a2.1 2.1 0 002.24 2.016 2.161 2.161 0 001.792-.77v.602h1.82v-4.214c0-1.694-1.33-2.366-2.786-2.366a5.487 5.487 0 00-2.744.784l.714 1.372a4.358 4.358 0 011.932-.6c.7 0 1.064.294 1.064.756zm5.124-5.6h-1.806v9.8h1.806zm3.458 10.22a.667.667 0 01-.714.5h-.894v1.53h1.26a1.844 1.844 0 002-1.442l2.562-7.42h-1.974l-1.372 4.564-1.358-4.564h-2.03l2.198 6.412h.462zm5.614-9.268v2.436h-1.008v1.54h1.008v3.514c0 1.288.938 1.442 1.848 1.442.532 0 1.414-.084 1.414-.084v-1.554s-.378.042-.84.042c-.28 0-.6-.056-.6-.462v-2.9h1.386v-1.538h-1.388v-2.436zm6.664 2.436h-2.716v1.54h.9v4.872h1.82zm-2.156-2.212a1.169 1.169 0 002.338 0 1.169 1.169 0 10-2.338 0zm8.54 3a3.822 3.822 0 00-2.59-.952c-1.54 0-2.492.938-2.492 1.988a1.9 1.9 0 001.484 1.876l1.092.322c.518.154.728.294.728.616 0 .252-.266.476-.7.476a3.173 3.173 0 01-1.89-.8l-.966 1.26a4.136 4.136 0 002.828 1.008c1.75 0 2.548-1.092 2.548-2.03 0-.84-.448-1.554-1.764-1.988l-1.064-.336c-.336-.112-.476-.266-.476-.49 0-.2.168-.434.644-.434a2.335 2.335 0 011.582.658z" fill="#fff"/><path data-name="Path 972" d="M401.575 340.93v.8a2.823 2.823 0 003.132 2.932 2.87 2.87 0 003.18-2.928v-5.616h-1.668v5.46a1.4 1.4 0 01-1.488 1.548 1.4 1.4 0 01-1.486-1.548v-.648zm10.224 3.732a2.86 2.86 0 002.94-2.892 2.86 2.86 0 00-2.94-2.892 2.86 2.86 0 00-2.94 2.892 2.86 2.86 0 002.94 2.892zm0-4.392a1.387 1.387 0 011.368 1.5 1.394 1.394 0 01-1.368 1.5 1.4 1.4 0 01-1.38-1.5 1.39 1.39 0 011.38-1.5zm5.82-1.248h-2.328v1.32h.768v4.176h1.56zm-1.848-1.9a.986.986 0 001 1 .989.989 0 001.008-1 1.006 1.006 0 00-1.012-1.004 1 1 0 00-.996 1.008zm4.692 2.544s.024-.24.024-.432v-.216h-1.524v5.5h1.56v-3.564a1.523 1.523 0 011.164-.624.888.888 0 01.936.984v3.204h1.56v-3.6a1.915 1.915 0 00-2.038-2.04 2.162 2.162 0 00-1.682.792zm6.888-.648h-2.328v1.32h.768v4.18h1.56zm-1.848-1.9a.986.986 0 001 1 .989.989 0 001.008-1 1.006 1.006 0 00-1.012-1 1 1 0 00-.996 1.008zm4.692 2.544s.024-.24.024-.432v-.212h-1.524v5.5h1.56v-3.564a1.523 1.523 0 011.164-.624.888.888 0 01.936.988v3.2h1.56v-3.6a1.915 1.915 0 00-2.04-2.04 2.162 2.162 0 00-1.68.792zm9.012-.644v.252c0 .288.024.4.024.456a1.99 1.99 0 00-1.74-.852 2.638 2.638 0 00-2.628 2.86 2.643 2.643 0 002.64 2.844 2.012 2.012 0 001.7-.828v1.056c0 .42-.312.492-.588.492h-2v1.32h2.388a1.568 1.568 0 001.764-1.692v-5.908zm-2.736 2.716a1.38 1.38 0 011.38-1.516 1.383 1.383 0 011.394 1.516 1.379 1.379 0 01-1.392 1.5 1.377 1.377 0 01-1.382-1.5zm8.268-4.8v2.084h-.864v1.32h.864v3.012c0 1.1.8 1.236 1.584 1.236.456.004 1.212-.068 1.212-.068v-1.332s-.324.036-.72.036c-.24 0-.516-.048-.516-.4v-2.48h1.188v-1.324h-1.188v-2.084zm5.34 2.736s.024-.24.024-.432v-3.12h-1.536v8.4h1.56v-3.564a1.523 1.523 0 011.164-.624.888.888 0 01.936.984v3.204h1.56v-3.6a1.915 1.915 0 00-2.042-2.04 2.156 2.156 0 00-1.666.792zm10.38 2.5c0-2.3-1.368-3.288-2.88-3.288a2.784 2.784 0 00-2.856 2.892 2.8 2.8 0 002.88 2.888 2.8 2.8 0 002.748-1.728l-1.62-.168a1.245 1.245 0 01-1.1.564 1.245 1.245 0 01-1.26-1.1h4.092zm-2.88-1.992a1.192 1.192 0 011.212 1.008h-2.46a1.226 1.226 0 011.248-1.012zm7.716-.5s.024-.24.024-.432v-3.128h-1.536v8.4h1.562v-3.564a1.523 1.523 0 011.164-.624.888.888 0 01.936.988v3.2h1.56v-3.6a1.915 1.915 0 00-2.04-2.04 2.156 2.156 0 00-1.67.792zm7.584 4.984a2.86 2.86 0 002.94-2.892 2.86 2.86 0 00-2.94-2.892 2.86 2.86 0 00-2.94 2.892 2.86 2.86 0 002.94 2.892zm0-4.392a1.387 1.387 0 011.368 1.5 1.394 1.394 0 01-1.368 1.5 1.4 1.4 0 01-1.38-1.5 1.39 1.39 0 011.38-1.5zm4.344-3.336v2.084h-.864v1.32h.864v3.012c0 1.1.8 1.236 1.584 1.236.456.004 1.212-.068 1.212-.068v-1.332s-.324.036-.72.036c-.24 0-.516-.048-.516-.4v-2.48h1.188v-1.324h-1.188v-2.084zm-58.26 19.336a1.408 1.408 0 011.4 1.5 1.425 1.425 0 01-1.4 1.512 1.425 1.425 0 01-1.4-1.512 1.408 1.408 0 011.4-1.5zm-1.368 3.548a1.977 1.977 0 001.7.84 2.719 2.719 0 002.676-2.892 2.71 2.71 0 00-2.664-2.892 1.975 1.975 0 00-1.74.852c0-.06.024-.18.024-.444v-.264h-1.56v7.6h1.56zm7.368-.3c-.48 0-.78-.276-.78-.648s.288-.6.78-.6h.588a.678.678 0 00.48-.12v.4a.951.951 0 01-1.068.968zm1.068-2.6c0 .2-.12.324-.384.324h-1.08c-1.224 0-1.992.648-1.992 1.692a1.8 1.8 0 001.92 1.728 1.853 1.853 0 001.536-.66v.516h1.56v-3.612c0-1.452-1.14-2.028-2.388-2.028a4.7 4.7 0 00-2.352.672l.612 1.176a3.735 3.735 0 011.656-.516c.6 0 .912.252.912.648zm3.252-3.984v2.084h-.864v1.32h.864v3.012c0 1.1.8 1.236 1.584 1.236.456 0 1.212-.072 1.212-.072v-1.328s-.324.036-.72.036c-.24 0-.516-.048-.516-.4v-2.48h1.188v-1.324h-1.186v-2.084zm5.34 2.736s.024-.24.024-.432v-3.12h-1.536v8.4h1.56v-3.564a1.523 1.523 0 011.164-.624.888.888 0 01.936.984v3.204h1.56v-3.6a1.915 1.915 0 00-2.04-2.04 2.156 2.156 0 00-1.668.792zm11.688-.652h-1.524l-1.02 3.528-.732-3.528h-1.68l1.344 5.5h1.836l.984-3.432.96 3.432h1.848l1.428-5.5h-1.61l-.84 3.576zm6.2 0h-2.324v1.32h.768v4.18h1.56zm-1.848-1.9a1 1 0 002 0 1 1 0 10-2 0zm3.6-.192v2.092h-.864v1.32h.864v3.012c0 1.1.8 1.236 1.584 1.236.456 0 1.212-.072 1.212-.072v-1.328s-.324.036-.72.036c-.24 0-.516-.048-.516-.4v-2.48h1.192v-1.324h-1.188v-2.084zm5.34 2.736s.024-.24.024-.432v-3.112h-1.532v8.4h1.56v-3.564a1.523 1.523 0 011.164-.624.888.888 0 01.936.984v3.204h1.56v-3.6a1.915 1.915 0 00-2.04-2.04 2.156 2.156 0 00-1.668.792zm-52.466 15.336a1.767 1.767 0 00-.432-.048 1.448 1.448 0 00-1.428.948v-.88h-1.512v5.5h1.56v-2.628c0-.96.36-1.332 1.152-1.332h.66zm6.2 3.168c0-2.3-1.368-3.288-2.88-3.288a2.784 2.784 0 00-2.856 2.892 2.8 2.8 0 002.88 2.892 2.8 2.8 0 002.748-1.728l-1.62-.168a1.245 1.245 0 01-1.1.564 1.245 1.245 0 01-1.26-1.1h4.096zm-2.88-1.992a1.192 1.192 0 011.212 1.008h-2.46a1.226 1.226 0 011.252-1.008zm4.176-1.152h-.864v1.32h.864v4.176h1.56v-4.176h1.056v-1.324h-1.056v-1.112c0-.384.192-.456.492-.456.168 0 .648.06.648.06v-1.428s-.72-.072-1.14-.072a1.365 1.365 0 00-1.56 1.452zm8.832 3.144c0-2.3-1.368-3.288-2.88-3.288a2.784 2.784 0 00-2.856 2.892 2.8 2.8 0 002.88 2.892 2.8 2.8 0 002.748-1.728l-1.62-.168a1.245 1.245 0 01-1.1.564 1.245 1.245 0 01-1.26-1.1h4.092zm-2.88-1.992a1.192 1.192 0 011.212 1.008h-2.452a1.226 1.226 0 011.244-1.008zm7.176-1.176a1.767 1.767 0 00-.432-.048 1.447 1.447 0 00-1.428.948v-.88h-1.512v5.5h1.56v-2.628c0-.96.36-1.332 1.152-1.332h.66zm6.2 3.168c0-2.3-1.368-3.288-2.88-3.288a2.784 2.784 0 00-2.856 2.892 2.8 2.8 0 002.88 2.892 2.8 2.8 0 002.748-1.728l-1.62-.168a1.245 1.245 0 01-1.1.564 1.245 1.245 0 01-1.26-1.1h4.092zm-2.88-1.992a1.192 1.192 0 011.212 1.008h-2.448a1.226 1.226 0 011.244-1.008zm5.3-.5s.024-.24.024-.432v-.224h-1.512v5.5h1.56v-3.564a1.523 1.523 0 011.164-.624.888.888 0 01.936.984v3.204h1.56v-3.6a1.915 1.915 0 00-2.04-2.04 2.162 2.162 0 00-1.68.792zm7.6.6a1.275 1.275 0 011.212.84l1.464-.444a2.74 2.74 0 00-2.68-1.792 2.892 2.892 0 100 5.784 2.731 2.731 0 002.688-1.776l-1.464-.456a1.259 1.259 0 01-1.212.84 1.505 1.505 0 010-3zm8.988 1.9c0-2.3-1.368-3.288-2.88-3.288a2.892 2.892 0 00.024 5.784 2.8 2.8 0 002.748-1.728l-1.62-.168a1.305 1.305 0 01-2.364-.54h4.092zm-2.88-1.992a1.192 1.192 0 011.212 1.008h-2.456a1.226 1.226 0 011.252-1.016zm8.88.1a1.408 1.408 0 011.4 1.5 1.408 1.408 0 11-2.808 0 1.408 1.408 0 011.416-1.512zm1.376 4.236h1.56v-8.4h-1.56v2.568c0 .408.024.864.024 1.044a2 2 0 00-1.752-.852 2.7 2.7 0 00-2.652 2.892 2.71 2.71 0 002.664 2.892 2.013 2.013 0 001.716-.844zm4.884-1c-.48 0-.78-.276-.78-.648s.288-.6.78-.6h.588a.678.678 0 00.48-.12v.4a.951.951 0 01-1.068.968zm1.068-2.6c0 .2-.12.324-.384.324h-1.08c-1.224 0-1.992.648-1.992 1.692a1.8 1.8 0 001.92 1.728 1.853 1.853 0 001.536-.66v.516h1.56v-3.612c0-1.452-1.14-2.028-2.388-2.028a4.7 4.7 0 00-2.352.672l.612 1.176a3.735 3.735 0 011.656-.516c.6 0 .912.252.912.648zm3.248-3.984v2.084h-.86v1.32h.86v3.012c0 1.1.8 1.236 1.584 1.236.456 0 1.212-.072 1.212-.072v-1.328s-.324.036-.72.036c-.24 0-.516-.048-.516-.4v-2.48h1.188v-1.324h-1.184v-2.084zm5.812 6.584c-.48 0-.78-.276-.78-.648s.288-.6.78-.6h.588a.678.678 0 00.48-.12v.4a.951.951 0 01-1.068.968zm1.068-2.6c0 .2-.12.324-.384.324h-1.08c-1.224 0-1.992.648-1.992 1.692a1.8 1.8 0 001.92 1.728 1.853 1.853 0 001.536-.66v.516h1.56v-3.612c0-1.452-1.14-2.028-2.388-2.028a4.7 4.7 0 00-2.352.672l.612 1.176a3.735 3.735 0 011.656-.516c.6 0 .912.252.912.648z" fill="#fff"/><g data-name="Group 927"><g data-name="Group 922"><path data-name="Path 876" d="M278.142 15.936c-9.242 0-19.062-2.789-19.062-7.957a1.09 1.09 0 012.179 0c0 2.732 6.935 5.777 16.883 5.777s16.88-3.044 16.88-5.777a1.09 1.09 0 012.179 0c.001 5.171-9.819 7.957-19.059 7.957z" fill="#ffde14"/></g><g data-name="Group 923"><path data-name="Path 877" d="M278.142 28.796c-9.242 0-19.062-2.79-19.062-7.958a1.09 1.09 0 112.179 0c0 2.733 6.935 5.777 16.883 5.777s16.88-3.044 16.88-5.777a1.09 1.09 0 112.179 0c.001 5.168-9.819 7.958-19.059 7.958z" fill="#ffde14"/></g><g data-name="Group 924"><path data-name="Path 878" d="M278.142 41.65c-9.242 0-19.062-2.789-19.062-7.957a1.09 1.09 0 012.179 0c0 2.732 6.935 5.778 16.883 5.778a37.255 37.255 0 0011.626-1.689 1.089 1.089 0 11.7 2.061 39.384 39.384 0 01-12.326 1.807z" fill="#ffde14"/></g><g data-name="Group 925"><path data-name="Path 879" d="M267.647 3.495a1.079 1.079 0 01-1.089-1.09 1.051 1.051 0 01.316-.763 1.09 1.09 0 011.863.763 1.09 1.09 0 01-.327.774 1.054 1.054 0 01-.763.316z" fill="#ffde14"/></g><g data-name="Group 926"><path data-name="Path 880" d="M278.142 54.503c-9.242 0-19.062-2.789-19.062-7.958V7.982c0-1.434.812-3.521 4.672-5.328a1.09 1.09 0 11.925 1.973c-2.171 1.017-3.418 2.24-3.418 3.355v38.565c0 2.733 6.935 5.778 16.883 5.778s16.88-3.045 16.88-5.778V7.982c0-2.735-6.934-5.779-16.88-5.779a43.474 43.474 0 00-6.28.444 1.09 1.09 0 01-.313-2.156 45.625 45.625 0 016.593-.465c9.24 0 19.06 2.788 19.06 7.957v38.565c0 5.169-9.82 7.955-19.06 7.955z" fill="#ffde14"/></g></g><g data-name="Group 955"><g data-name="Group 938"><g data-name="Group 937"><g data-name="Group 930"><g data-name="Group 929"><g data-name="Group 928"><path data-name="Path 881" d="M434.787 279.319h-5.412a1.092 1.092 0 01-1.091-1.092v-3.248a14.341 14.341 0 01-3.064-1.186l-2.567 2.375a1.094 1.094 0 01-1.482 0l-3.826-3.54a1.088 1.088 0 010-1.6l2.476-2.292a12.427 12.427 0 01-1.214-2.721h-3.612a1.1 1.1 0 01-1.092-1.092v-5.008a1.093 1.093 0 011.092-1.09h3.612a12.491 12.491 0 011.214-2.724l-2.476-2.29a1.086 1.086 0 010-1.6l3.826-3.54a1.092 1.092 0 011.482 0l2.567 2.375a14.4 14.4 0 013.064-1.187v-3.249a1.09 1.09 0 011.091-1.089h5.412a1.091 1.091 0 011.091 1.089v3.249a14.431 14.431 0 013.063 1.187l2.567-2.375a1.093 1.093 0 011.483 0l3.826 3.54a1.088 1.088 0 010 1.6l-2.475 2.29a12.435 12.435 0 011.211 2.724h3.616a1.089 1.089 0 011.09 1.09v5.008a1.091 1.091 0 01-1.09 1.092h-3.616a12.372 12.372 0 01-1.211 2.721l2.475 2.292a1.09 1.09 0 010 1.6l-3.826 3.54a1.1 1.1 0 01-1.483 0l-2.567-2.375a14.447 14.447 0 01-3.062 1.186v3.248a1.092 1.092 0 01-1.092 1.092zm-4.321-2.183h3.229v-3.024a1.092 1.092 0 01.882-1.071 12.226 12.226 0 003.96-1.524 1.091 1.091 0 011.3.136l2.41 2.229 2.22-2.054-2.283-2.114a1.088 1.088 0 01-.154-1.427 10.294 10.294 0 001.623-3.61 1.091 1.091 0 011.065-.845h3.356v-2.827h-3.356a1.094 1.094 0 01-1.065-.846 10.254 10.254 0 00-1.623-3.609 1.087 1.087 0 01.154-1.426l2.283-2.115-2.22-2.054-2.41 2.226a1.085 1.085 0 01-1.3.136 12.3 12.3 0 00-3.962-1.523 1.094 1.094 0 01-.88-1.071v-3.025h-3.229v3.025a1.094 1.094 0 01-.878 1.071 12.329 12.329 0 00-3.966 1.523 1.086 1.086 0 01-1.3-.136l-2.407-2.226-2.222 2.054 2.283 2.115a1.088 1.088 0 01.154 1.426 10.3 10.3 0 00-1.623 3.609 1.093 1.093 0 01-1.062.846h-3.359v2.828h3.359a1.091 1.091 0 011.062.845 10.339 10.339 0 001.623 3.61 1.09 1.09 0 01-.154 1.427l-2.285 2.114 2.224 2.054 2.407-2.229a1.092 1.092 0 011.3-.136 12.258 12.258 0 003.962 1.524 1.093 1.093 0 01.882 1.071z" fill="#ffde14"/></g></g></g><g data-name="Group 933"><g data-name="Group 932"><g data-name="Group 931"><path data-name="Path 882" d="M439.1 269.406a1.087 1.087 0 01-1.091-1.086v-.011a1.09 1.09 0 111.091 1.1z" fill="#ffde14"/></g></g></g><g data-name="Group 936"><g data-name="Group 935"><g data-name="Group 934"><path data-name="Path 883" d="M432.08 272.172c-5.764 0-10.453-4.375-10.453-9.753s4.689-9.754 10.453-9.754 10.454 4.375 10.454 9.754a9.263 9.263 0 01-1.154 4.462 1.091 1.091 0 11-1.911-1.053 6.981 6.981 0 00.884-3.409c0-4.176-3.71-7.574-8.273-7.574s-8.272 3.4-8.272 7.574 3.711 7.573 8.272 7.573a8.853 8.853 0 004.129-1.009 1.091 1.091 0 111.022 1.927 11.048 11.048 0 01-5.151 1.262z" fill="#ffde14"/></g></g></g></g></g><g data-name="Group 946"><g data-name="Group 945"><g data-name="Group 941"><g data-name="Group 940"><g data-name="Group 939"><path data-name="Path 884" d="M457.865 260.311a1.068 1.068 0 01-.128-.009l-3.262-.386a1.089 1.089 0 01-.954-1.216l.2-1.632a9.2 9.2 0 01-1.281-.685l-1.484 1.078a1.09 1.09 0 01-1.471-.178l-2.044-2.407a1.092 1.092 0 01.19-1.589l1.388-1.005a8 8 0 01-.364-1.19l-1.865-.222a1.089 1.089 0 01-.731-.409 1.114 1.114 0 01-.225-.806l.37-3.019a1.1 1.1 0 011.211-.951l1.872.223a7.978 7.978 0 01.644-1.077l-1.1-1.3a1.088 1.088 0 01.192-1.587l2.567-1.861a1.093 1.093 0 011.473.175l1.176 1.388a8.978 8.978 0 011.416-.365l.2-1.641a1.1 1.1 0 011.212-.948l3.263.385a1.095 1.095 0 01.954 1.215l-.2 1.633a9.5 9.5 0 011.282.682l1.483-1.074a1.088 1.088 0 011.47.176l2.044 2.409a1.089 1.089 0 01-.189 1.589l-1.388 1.005a8 8 0 01.365 1.189l1.866.223a1.1 1.1 0 01.729.407 1.083 1.083 0 01.225.807l-.369 3.017a1.1 1.1 0 01-1.212.952l-1.872-.221a8.066 8.066 0 01-.642 1.073l1.1 1.3a1.088 1.088 0 01-.189 1.588l-2.568 1.858a1.086 1.086 0 01-1.471-.175l-1.18-1.385a9.308 9.308 0 01-1.416.365l-.2 1.637a1.092 1.092 0 01-1.087.964zm-2.046-2.432l1.1.13.172-1.4a1.087 1.087 0 011-.953 7.149 7.149 0 002.36-.6 1.094 1.094 0 011.277.289l1.031 1.212.8-.577-.928-1.084a1.093 1.093 0 01.02-1.436 5.839 5.839 0 001.16-1.921 1.109 1.109 0 011.156-.71l1.6.19.1-.855-1.594-.188a1.093 1.093 0 01-.955-.969 5.762 5.762 0 00-.665-2.134 1.09 1.09 0 01.323-1.4l1.16-.842-.63-.741-1.295.941a1.1 1.1 0 01-1.31-.022 6.98 6.98 0 00-2.145-1.132 1.093 1.093 0 01-.745-1.17l.172-1.393-1.1-.13-.172 1.4a1.091 1.091 0 01-1 .954 7.059 7.059 0 00-2.36.6 1.088 1.088 0 01-1.277-.288l-1.03-1.214-.8.579.918 1.084a1.088 1.088 0 01-.017 1.433 5.887 5.887 0 00-1.163 1.921 1.089 1.089 0 01-1.152.71l-1.6-.189-.1.853 1.594.189a1.088 1.088 0 01.955.969 5.839 5.839 0 00.663 2.131 1.093 1.093 0 01-.32 1.4l-1.161.841.628.742 1.3-.941a1.1 1.1 0 011.31.022 7.006 7.006 0 002.141 1.132 1.089 1.089 0 01.749 1.168z" fill="#ffde14"/></g></g></g><g data-name="Group 944"><g data-name="Group 943"><g data-name="Group 942"><path data-name="Path 885" d="M457.461 254.463a5.374 5.374 0 01-.661-.038 5.431 5.431 0 01-3.625-2 4.786 4.786 0 01-1.012-3.549 5.154 5.154 0 015.839-4.3 5.437 5.437 0 013.625 2.006 4.735 4.735 0 01.147 5.748 1.091 1.091 0 01-1.768-1.279 2.518 2.518 0 00.467-1.187 2.6 2.6 0 00-.562-1.936 3.253 3.253 0 00-2.167-1.184 2.971 2.971 0 00-3.416 2.4 2.6 2.6 0 00.562 1.935 3.24 3.24 0 002.168 1.186 3.345 3.345 0 001.6-.2 1.09 1.09 0 11.785 2.035 5.5 5.5 0 01-1.982.363z" fill="#ffde14"/></g></g></g></g></g><g data-name="Group 954"><g data-name="Group 953"><g data-name="Group 949"><g data-name="Group 948"><g data-name="Group 947"><path data-name="Path 886" d="M442.192 245.324c-.04 0-.085 0-.13-.008l-2.6-.309a1.084 1.084 0 01-.727-.409 1.1 1.1 0 01-.228-.806l.142-1.14a7.684 7.684 0 01-.773-.413l-1.06.77a1.09 1.09 0 01-1.471-.178l-1.629-1.918a1.092 1.092 0 01.189-1.587l.968-.7a6.671 6.671 0 01-.2-.666l-1.333-.159a1.087 1.087 0 01-.954-1.213l.295-2.406a1.094 1.094 0 011.21-.95l1.339.158a6.672 6.672 0 01.361-.6l-.769-.9a1.086 1.086 0 01.19-1.588l2.048-1.482a1.083 1.083 0 011.469.174l.841.991a7.594 7.594 0 01.859-.222l.138-1.145a1.1 1.1 0 011.214-.951l2.6.309a1.092 1.092 0 01.954 1.215l-.137 1.139a8.264 8.264 0 01.771.413l1.06-.769a1.091 1.091 0 011.47.177l1.63 1.918a1.09 1.09 0 01-.19 1.588l-.969.7a6.564 6.564 0 01.2.667l1.332.157a1.086 1.086 0 01.956 1.215l-.294 2.405a1.1 1.1 0 01-1.21.951l-1.34-.16a6.093 6.093 0 01-.361.606l.769.9a1.1 1.1 0 01-.19 1.589l-2.048 1.484a1.089 1.089 0 01-1.47-.176l-.841-.991a7.925 7.925 0 01-.856.223l-.14 1.144a1.091 1.091 0 01-1.085.953zm-1.387-2.352l.436.049.109-.9a1.091 1.091 0 011-.955 5.46 5.46 0 001.807-.458 1.084 1.084 0 011.277.288l.686.808.276-.2-.581-.682a1.091 1.091 0 01.021-1.432 4.429 4.429 0 00.882-1.458 1.1 1.1 0 011.153-.711l1.055.129.031-.241-1.049-.123a1.089 1.089 0 01-.955-.969 4.455 4.455 0 00-.5-1.619 1.086 1.086 0 01.32-1.4l.731-.529-.214-.251-.868.628a1.09 1.09 0 01-1.305-.022 5.366 5.366 0 00-1.644-.867 1.089 1.089 0 01-.744-1.169l.109-.891-.435-.05-.11.9a1.093 1.093 0 01-1 .955 5.356 5.356 0 00-1.8.457 1.088 1.088 0 01-1.279-.288l-.689-.808-.273.2.577.681a1.084 1.084 0 01-.018 1.432 4.444 4.444 0 00-.88 1.459 1.087 1.087 0 01-1.156.71l-1.056-.124-.029.241 1.048.123a1.089 1.089 0 01.957.969 4.42 4.42 0 00.5 1.618 1.093 1.093 0 01-.322 1.4l-.729.529.212.252.867-.629a1.089 1.089 0 011.306.023 5.461 5.461 0 001.645.867 1.089 1.089 0 01.744 1.168z" fill="#ffde14"/></g></g></g><g data-name="Group 952"><g data-name="Group 951"><g data-name="Group 950"><path data-name="Path 887" d="M441.86 240.099a4.107 4.107 0 01-.474-.028 3.943 3.943 0 01-2.617-1.448 3.492 3.492 0 01-.734-2.589 3.73 3.73 0 014.221-3.135 3.949 3.949 0 012.617 1.448 3.5 3.5 0 01.733 2.589 1.09 1.09 0 11-2.164-.264 1.318 1.318 0 00-.286-.977 1.731 1.731 0 00-1.159-.629 1.55 1.55 0 00-1.8 1.231 1.324 1.324 0 00.286.98 1.728 1.728 0 001.159.627 1.81 1.81 0 00.858-.1 1.09 1.09 0 01.785 2.034 3.971 3.971 0 01-1.425.261z" fill="#ffde14"/></g></g></g></g></g></g><path data-name="Path 888" d="M70.262 187.975l-16.665-.189 8.717-17.726a1.483 1.483 0 00-1.328-2.136H45.314a1.482 1.482 0 100 2.963h13.292l-8.706 17.7a1.481 1.481 0 001.313 2.135l15.785.181-29.5 33.491 8.043-23.756a1.481 1.481 0 00-1.4-1.956H33.186l8.866-22.945a1.481 1.481 0 00-2.763-1.068l-9.646 24.96a1.48 1.48 0 001.382 2.015h11.052l-9.752 28.8a1.482 1.482 0 002.515 1.456l36.521-41.461a1.483 1.483 0 00-1.1-2.462z" fill="#ffde14"/><g data-name="Group 956" fill="none" stroke="#fff" stroke-linecap="round" stroke-miterlimit="10" stroke-width="3"><path data-name="Line 80" d="M299.328 38.114h5.259"/><path data-name="Path 889" d="M315.271 38.114h2.84a14.946 14.946 0 0114.9 14.9v99.919a14.946 14.946 0 01-14.9 14.9h-78.186a14.946 14.946 0 01-14.9-14.9V53.016a14.946 14.946 0 0114.9-14.9h4.86" stroke-dasharray="12.188 12.188"/><path data-name="Line 81" d="M250.131 38.114h5.259"/></g><path data-name="Path 976" d="M765.646 100.457h-2.324l-3.164 9.8h2.044l.784-2.674h2.954l.84 2.674h2.1zm-.2 5.46h-2l.994-3.36h.028zm7.308-.616a1.642 1.642 0 011.642 1.75 1.662 1.662 0 01-1.638 1.764 1.662 1.662 0 01-1.638-1.764 1.642 1.642 0 011.638-1.75zm1.6 4.956h1.82v-9.8h-1.82v3c0 .476.028 1.008.028 1.218a2.331 2.331 0 00-2.044-.994 3.15 3.15 0 00-3.094 3.374 3.161 3.161 0 003.108 3.37 2.349 2.349 0 002-.98zm4.742-6.412h-1.97l2.184 6.412h2.254l2.282-6.412h-1.918l-1.456 4.452zm7.826 5.25c-.56 0-.91-.322-.91-.756s.336-.7.91-.7h.686a.791.791 0 00.56-.14v.458a1.109 1.109 0 01-1.242 1.138zm1.25-3.038c0 .238-.14.378-.448.378h-1.26c-1.428 0-2.324.756-2.324 1.974a2.1 2.1 0 002.24 2.016 2.161 2.161 0 001.792-.768v.6h1.824v-4.214c0-1.694-1.334-2.366-2.79-2.366a5.487 5.487 0 00-2.744.78l.714 1.372a4.358 4.358 0 011.932-.6c.7 0 1.064.294 1.064.756zm5.068-1.456s.028-.28.028-.5v-.252h-1.778v6.408h1.82v-4.158a1.776 1.776 0 011.358-.728 1.036 1.036 0 011.092 1.148v3.738h1.82v-4.2a2.234 2.234 0 00-2.384-2.38 2.523 2.523 0 00-1.956.924zm8.862.7a1.487 1.487 0 011.414.98l1.708-.518a3.2 3.2 0 00-3.136-2.086 3.325 3.325 0 00-3.416 3.374 3.325 3.325 0 003.416 3.374 3.186 3.186 0 003.136-2.068l-1.708-.536a1.469 1.469 0 01-1.414.98 1.621 1.621 0 01-1.606-1.75 1.621 1.621 0 011.606-1.75zm10.486 2.212c0-2.688-1.6-3.836-3.36-3.836a3.248 3.248 0 00-3.332 3.374 3.27 3.27 0 003.36 3.374 3.261 3.261 0 003.206-2.016l-1.89-.2a1.452 1.452 0 01-1.288.658 1.452 1.452 0 01-1.47-1.288h4.774zm-3.36-2.324a1.391 1.391 0 011.414 1.176h-2.87a1.43 1.43 0 011.456-1.176zm7.56.112a1.642 1.642 0 011.638 1.75 1.662 1.662 0 01-1.638 1.764 1.662 1.662 0 01-1.638-1.764 1.642 1.642 0 011.638-1.75zm1.596 4.956h1.82v-9.8h-1.82v3c0 .476.028 1.008.028 1.218a2.331 2.331 0 00-2.044-.994 3.15 3.15 0 00-3.094 3.374 3.161 3.161 0 003.108 3.37 2.349 2.349 0 002-.98zm-50.12 6.2h-2.324l-3.164 9.8h2.044l.784-2.674h2.954l.838 2.674h2.1zm-.2 5.46h-2l.994-3.36h.028zm6.076-1.316s.028-.28.028-.5v-.256h-1.772v6.412h1.82v-4.158a1.776 1.776 0 011.358-.728 1.036 1.036 0 011.092 1.148v3.738h1.82v-4.2a2.234 2.234 0 00-2.38-2.38 2.523 2.523 0 00-1.962.924zm8.156 4.494c-.56 0-.91-.322-.91-.756s.336-.7.91-.7h.686a.791.791 0 00.56-.14v.458a1.109 1.109 0 01-1.246 1.138zm1.242-3.038c0 .238-.14.378-.448.378h-1.26c-1.428 0-2.324.756-2.324 1.974a2.1 2.1 0 002.24 2.016 2.161 2.161 0 001.792-.77v.602h1.82v-4.214c0-1.694-1.33-2.366-2.786-2.366a5.487 5.487 0 00-2.744.784l.714 1.372a4.358 4.358 0 011.932-.6c.7 0 1.064.294 1.064.756zm5.124-5.6h-1.806v9.8h1.806zm3.458 10.22a.667.667 0 01-.714.5h-.9v1.53h1.26a1.844 1.844 0 002-1.442l2.562-7.42h-1.968l-1.372 4.564-1.358-4.564h-2.034l2.2 6.412h.462zm5.614-9.268v2.436h-1.008v1.54h1.008v3.514c0 1.288.938 1.442 1.848 1.442.532 0 1.414-.084 1.414-.084v-1.554s-.378.042-.84.042c-.28 0-.6-.056-.6-.462v-2.9h1.386v-1.538h-1.388v-2.436zm6.662 2.436h-2.714v1.54h.9v4.872h1.814zm-2.154-2.212a1.169 1.169 0 002.338 0 1.169 1.169 0 10-2.338 0zm6.748 3.668a1.487 1.487 0 011.414.98l1.708-.518a3.2 3.2 0 00-3.136-2.086 3.374 3.374 0 100 6.748 3.186 3.186 0 003.136-2.068l-1.708-.532a1.469 1.469 0 01-1.414.98 1.621 1.621 0 01-1.61-1.75 1.621 1.621 0 011.61-1.754zm8.96-.672a3.822 3.822 0 00-2.59-.952c-1.54 0-2.492.938-2.492 1.988a1.9 1.9 0 001.484 1.876l1.092.322c.518.154.728.294.728.616 0 .252-.266.476-.7.476a3.173 3.173 0 01-1.89-.8l-.966 1.26a4.136 4.136 0 002.828 1.008c1.75 0 2.548-1.092 2.548-2.03 0-.84-.448-1.554-1.764-1.988l-1.064-.336c-.336-.112-.476-.266-.476-.49 0-.2.168-.434.644-.434a2.335 2.335 0 011.582.658z" fill="#fff"/><g data-name="Group 957" fill="none" stroke="#fff" stroke-linecap="round" stroke-miterlimit="10" stroke-width="3"><path data-name="Path 890" d="M817.832 67.012h5.256"/><path data-name="Path 891" d="M833.641 67.225c6.367 1.2 11.253 7.347 11.253 14.689v61.031a14.946 14.946 0 01-14.9 14.9h-78.182a14.946 14.946 0 01-14.9-14.9V81.914c0-8.2 5.658-14.9 12.573-14.9h2.028" stroke-dasharray="12.058 12.058"/><path data-name="Path 892" d="M756.801 67.012h5.258"/></g><g data-name="Group 958" fill="none" stroke="#fff" stroke-linecap="round" stroke-miterlimit="10" stroke-width="3"><path data-name="Line 82" d="M462.443 36.636h5.259"/><path data-name="Path 893" d="M478.23 36.636h16.271a14.945 14.945 0 0114.9 14.9v101.4a14.945 14.945 0 01-14.9 14.9H388.624a14.946 14.946 0 01-14.9-14.9V51.538a14.946 14.946 0 0114.9-14.9h18.373" stroke-dasharray="12.009 12.009"/><path data-name="Line 83" d="M412.26 36.636h5.259"/></g><g data-name="Group 959" fill="none" stroke="#fff" stroke-linecap="round" stroke-miterlimit="10" stroke-width="3"><path data-name="Line 84" d="M300.314 272.769h5.259"/><path data-name="Path 894" d="M316.066 272.769h2.045a14.946 14.946 0 0114.9 14.9V361.7a14.946 14.946 0 01-14.9 14.9h-78.186a14.946 14.946 0 01-14.9-14.9v-74.029a14.946 14.946 0 0114.9-14.9h8.681" stroke-dasharray="11.97 11.97"/><path data-name="Line 85" d="M253.856 272.769h5.259"/></g><g data-name="Group 960" fill="none" stroke="#fff" stroke-linecap="round" stroke-miterlimit="10" stroke-width="3"><path data-name="Path 895" d="M470.253 253.484h5.257"/><path data-name="Path 896" d="M486.274 253.863c5.8 1.526 10.16 7.474 10.16 14.523v108.1a14.946 14.946 0 01-14.9 14.9h-78.183a14.945 14.945 0 01-14.9-14.9v-108.1c0-8.2 5.537-14.9 12.3-14.9h1.647" stroke-dasharray="12.316 12.316"/><path data-name="Path 897" d="M407.8 253.484h5.258"/></g><path data-name="Path 898" d="M429.263 113.94l7.542 9.04-7.542 8.976" fill="none" stroke="#fff" stroke-miterlimit="10"/><path data-name="Path 899" d="M433.909 113.94l7.542 9.04-7.542 8.976" fill="none" stroke="#fff" stroke-miterlimit="10"/><g data-name="Group 965"><g data-name="Group 961"><path data-name="Path 900" d="M440.977 15.964c-9.163 0-18.9-2.765-18.9-7.888a1.08 1.08 0 012.161 0c0 2.709 6.874 5.727 16.737 5.727s16.735-3.018 16.735-5.727a1.08 1.08 0 012.159 0c-.001 5.124-9.736 7.888-18.892 7.888z" fill="#ffde14"/></g><g data-name="Group 962"><path data-name="Path 901" d="M440.977 19.74c9.159 0 18.894 2.766 18.894 7.889a1.08 1.08 0 11-2.159 0c0-2.709-6.874-5.727-16.735-5.727s-16.737 3.018-16.737 5.727a1.08 1.08 0 11-2.161 0c-.002-5.123 9.734-7.889 18.898-7.889z" fill="#ffde14"/></g><g data-name="Group 963"><path data-name="Path 902" d="M430.568 3.628a1.077 1.077 0 01-.765-1.837 1.079 1.079 0 011.845.756 1.077 1.077 0 01-.323.767 1.045 1.045 0 01-.757.314z" fill="#ffde14"/></g><g data-name="Group 964"><path data-name="Path 903" d="M440.977 54.197c-9.163 0-18.9-2.766-18.9-7.889V8.08c0-1.419.8-3.49 4.631-5.28a1.08 1.08 0 11.916 1.956c-2.152 1.007-3.386 2.22-3.386 3.325v38.232c0 2.71 6.874 5.728 16.737 5.728s16.735-3.018 16.735-5.728V8.08c0-2.709-6.874-5.728-16.735-5.728a43.106 43.106 0 00-6.225.439 1.08 1.08 0 01-.311-2.137 45.245 45.245 0 016.537-.462c9.159 0 18.894 2.765 18.894 7.888v38.232c-.002 5.12-9.737 7.885-18.893 7.885z" fill="#ffde14"/></g><path data-name="Path 904" d="M432.98 32.37a23.129 23.129 0 01-10.116-2.578l1.078-1.961c.093.051 9.391 5.04 16.308.072 8.725-6.267 18.929-.309 19.362-.052l-1.147 1.921c-.091-.054-9.389-5.456-16.91-.052a14.417 14.417 0 01-8.575 2.65z" fill="#ffde14"/></g><path data-name="Path 979" d="M603.719 65.158a5.143 5.143 0 00-3.234-1.368c-1.736 0-3.276 1.036-3.276 2.758a3.106 3.106 0 002.142 2.744l.686.322c.938.434 1.54.812 1.54 1.484 0 .6-.518 1.064-1.358 1.064A3.605 3.605 0 01597.825 71l-1.078 1.458a4.829 4.829 0 003.514 1.468c2.156 0 3.4-1.428 3.4-2.9s-.938-2.282-2.492-3.01l-.812-.378c-.782-.362-1.062-.712-1.062-1.16 0-.588.588-.924 1.232-.924a3.225 3.225 0 012.068 1.004zm2.828 9.02a.667.667 0 01-.714.5h-.9v1.53h1.26a1.844 1.844 0 002-1.442l2.562-7.42h-1.974l-1.366 4.564-1.358-4.564h-2.03l2.198 6.412h.462zm6.888-6.076s.028-.28.028-.5v-.252h-1.778v6.408h1.82V69.6a1.776 1.776 0 011.358-.728 1.036 1.036 0 011.092 1.148v3.738h1.82v-4.2a2.234 2.234 0 00-2.38-2.38 2.523 2.523 0 00-1.96.924zm8.148 4.494c-.56 0-.91-.322-.91-.756s.336-.7.91-.7h.686a.791.791 0 00.56-.14v.458a1.109 1.109 0 01-1.246 1.138zm1.246-3.038c0 .238-.14.378-.448.378h-1.26c-1.426 0-2.326.756-2.326 1.974a2.1 2.1 0 002.242 2.016 2.161 2.161 0 001.792-.768v.6h1.82v-4.214c0-1.694-1.33-2.366-2.786-2.366a5.487 5.487 0 00-2.744.78l.714 1.372a4.358 4.358 0 011.932-.6c.7 0 1.064.294 1.064.756zm6.734-.756a1.642 1.642 0 011.638 1.75 1.662 1.662 0 01-1.638 1.764 1.662 1.662 0 01-1.638-1.764 1.642 1.642 0 011.638-1.75zm-1.596 4.144a2.307 2.307 0 001.988.98 3.172 3.172 0 003.122-3.374 3.161 3.161 0 00-3.108-3.374 2.3 2.3 0 00-2.03.994c0-.07.028-.21.028-.518v-.308h-1.82v8.862h1.82zm11.1-4.816a3.822 3.822 0 00-2.59-.952c-1.54 0-2.492.938-2.492 1.988a1.9 1.9 0 001.484 1.876l1.092.322c.518.154.728.294.728.616 0 .252-.266.476-.7.476a3.173 3.173 0 01-1.89-.8l-.964 1.262a4.136 4.136 0 002.828 1.008c1.75 0 2.548-1.092 2.548-2.03 0-.84-.448-1.554-1.764-1.988l-1.064-.336c-.336-.112-.476-.266-.476-.49 0-.2.168-.434.644-.434a2.335 2.335 0 011.582.658zm7.49 2.884c0-2.688-1.6-3.836-3.36-3.836a3.248 3.248 0 00-3.332 3.374 3.27 3.27 0 003.362 3.374 3.261 3.261 0 003.206-2.016l-1.89-.2a1.452 1.452 0 01-1.288.658 1.452 1.452 0 01-1.47-1.288h4.774zm-3.362-2.324a1.391 1.391 0 011.414 1.176h-2.87a1.43 1.43 0 011.456-1.176zm-54.393 18.968l1.876-4.83v6.93h1.932v-9.8h-2.615l-2.184 5.558-2.145-5.558h-2.744v9.8h1.89v-6.93l1.932 4.83zm8.568 2.268c1.974 0 3.038-1.176 3.038-2.52v-4.06h-1.806v3.724a1.131 1.131 0 01-1.232 1.232 1.137 1.137 0 01-1.232-1.232v-3.724h-1.82v4.06c0 1.344 1.092 2.52 3.052 2.52zm6.314-9.968h-1.806v9.8h1.806zm2.044.952v2.436h-1.008v1.54h1.008V88.4c0 1.288.938 1.442 1.848 1.442.532 0 1.414-.084 1.414-.084v-1.554s-.378.042-.84.042c-.28 0-.6-.056-.6-.462v-2.9h1.386v-1.538h-1.386V80.91zm6.667 2.436h-2.716v1.54h.9v4.872h1.816zm-2.156-2.212a1.15 1.15 0 001.156 1.162 1.154 1.154 0 001.179-1.162 1.174 1.174 0 00-1.179-1.176 1.171 1.171 0 00-1.159 1.176zm3.22 5.642h2.936v-1.54h-2.94zm5.7-1.918a3.054 3.054 0 013.075-3.276 2.637 2.637 0 012.661 1.862h2.141a4.819 4.819 0 00-4.8-3.654 4.956 4.956 0 00-5.112 5.068 4.956 4.956 0 005.11 5.068 4.819 4.819 0 004.8-3.654h-2.139a2.637 2.637 0 01-2.66 1.862 3.054 3.054 0 01-3.081-3.276zm10.803-4.9h-1.806v9.8h1.806zm4.522 9.968c1.974 0 3.038-1.176 3.038-2.52v-4.06h-1.806v3.724a1.131 1.131 0 01-1.232 1.232 1.137 1.137 0 01-1.232-1.232v-3.724h-1.82v4.06c0 1.344 1.092 2.52 3.052 2.52zm9.324-5.8a3.822 3.822 0 00-2.59-.952c-1.54 0-2.492.938-2.492 1.988a1.9 1.9 0 001.484 1.876l1.092.322c.518.154.728.294.728.616 0 .252-.266.476-.7.476a3.173 3.173 0 01-1.89-.8l-.966 1.26a4.136 4.136 0 002.828 1.008c1.75 0 2.548-1.092 2.548-2.03 0-.84-.448-1.554-1.764-1.988l-1.064-.336c-.336-.112-.476-.266-.476-.49 0-.2.168-.434.644-.434a2.335 2.335 0 011.582.658zm1.68-3.22v2.44h-1.008v1.54h1.008V88.4c0 1.288.938 1.442 1.848 1.442.532 0 1.414-.084 1.414-.084v-1.554s-.378.042-.84.042c-.28 0-.6-.056-.6-.462v-2.9h1.385v-1.538h-1.387V80.91zm10.752 6.1c0-2.688-1.6-3.836-3.36-3.836a3.248 3.248 0 00-3.332 3.374 3.437 3.437 0 006.566 1.358l-1.89-.2a1.523 1.523 0 01-2.758-.63h4.774zm-3.36-2.324a1.391 1.391 0 011.415 1.184h-2.87a1.43 1.43 0 011.455-1.176zm8.372-1.364a2.061 2.061 0 00-.5-.056 1.689 1.689 0 00-1.666 1.106v-1.022h-1.768v6.412h1.82v-3.066c0-1.12.42-1.554 1.344-1.554h.77z" fill="#fff"/><path data-name="Path 978" d="M580.596 108.518a4.279 4.279 0 00-4.392 4.344 4.279 4.279 0 004.392 4.344 4.279 4.279 0 004.392-4.344 4.279 4.279 0 00-4.392-4.344zm0 7.152a2.627 2.627 0 01-2.652-2.808 2.627 2.627 0 012.652-2.808 2.627 2.627 0 012.652 2.808 2.627 2.627 0 01-2.652 2.808zm6.866-3.456s.024-.24.024-.432v-.22h-1.524v5.5h1.558v-3.564a1.523 1.523 0 011.164-.624.888.888 0 01.936.984v3.204h1.56v-3.6a1.915 1.915 0 00-2.04-2.04 2.162 2.162 0 00-1.678.792zm10.392 2.5c0-2.3-1.368-3.288-2.88-3.288a2.784 2.784 0 00-2.858 2.888 2.8 2.8 0 002.88 2.892 2.8 2.8 0 002.748-1.728l-1.62-.168a1.245 1.245 0 01-1.1.564 1.245 1.245 0 01-1.26-1.1h4.088zm-2.882-1.996a1.192 1.192 0 011.212 1.008h-2.46a1.226 1.226 0 011.248-1.008zm-16.77 16.5h1.188a2.755 2.755 0 003.024-2.8 2.723 2.723 0 00-3.024-2.756h-2.844v8.4h1.656zm.936-4.116c.912 0 1.572.384 1.572 1.32s-.66 1.368-1.572 1.368h-.936v-2.688zm6.432 7.1a2.86 2.86 0 002.94-2.892 2.86 2.86 0 00-2.94-2.888 2.86 2.86 0 00-2.94 2.892 2.86 2.86 0 002.94 2.892zm0-4.392a1.387 1.387 0 011.368 1.5 1.394 1.394 0 01-1.368 1.5 1.4 1.4 0 01-1.38-1.5 1.39 1.39 0 011.38-1.496zm6.528 4.392a2.892 2.892 0 100-5.784 2.892 2.892 0 100 5.784zm0-4.392a1.387 1.387 0 011.368 1.5 1.379 1.379 0 11-2.748 0 1.39 1.39 0 011.38-1.496zm5.484-4.148h-1.548v8.4h1.548z" fill="#fff"/><path data-name="Path 977" d="M645.891 115.262l1.608-4.14v5.94h1.656v-8.4h-2.244l-1.872 4.764-1.836-4.764h-2.352v8.4h1.62v-5.94l1.656 4.14zm6.684.8c-.48 0-.78-.276-.78-.648s.288-.6.78-.6h.588a.678.678 0 00.48-.12v.4a.951.951 0 01-1.068.968zm1.068-2.6c0 .2-.12.324-.384.324h-1.08c-1.224 0-1.992.648-1.992 1.692a1.8 1.8 0 001.92 1.728 1.853 1.853 0 001.536-.66v.516h1.56v-3.612c0-1.452-1.14-2.028-2.386-2.028a4.7 4.7 0 00-2.352.672l.612 1.176a3.735 3.735 0 011.656-.516c.6 0 .912.252.912.648zm4.344-1.248s.024-.24.024-.432v-.22h-1.524v5.5h1.56v-3.564a1.523 1.523 0 011.164-.624.888.888 0 01.936.988v3.2h1.56v-3.6a1.915 1.915 0 00-2.04-2.04 2.162 2.162 0 00-1.68.792zm6.54 5.208a.572.572 0 01-.61.432h-.77v1.308h1.08a1.581 1.581 0 001.716-1.236l2.2-6.36h-1.696l-1.176 3.912-1.164-3.916h-1.74l1.884 5.5h.4zm-30.024 6.24h-6.252v8.4h6.252v-1.428h-4.586v-2.136h2.676v-1.428h-2.676v-1.968h4.584zm2.472 3.552s.024-.24.024-.432v-.22h-1.524v5.5h1.56v-3.564a1.523 1.523 0 011.164-.624.888.888 0 01.936.984v3.204h1.56v-3.6a1.915 1.915 0 00-2.04-2.04 2.162 2.162 0 00-1.68.792zm7.68.6a1.408 1.408 0 011.4 1.5 1.425 1.425 0 01-1.4 1.512 1.425 1.425 0 01-1.4-1.512 1.408 1.408 0 011.4-1.5zm1.368 4.248h1.56v-8.4h-1.56v2.568c0 .408.024.864.024 1.044a2 2 0 00-1.752-.852 2.7 2.7 0 00-2.652 2.892 2.71 2.71 0 002.664 2.892 2.013 2.013 0 001.716-.84zm5.832-4.248a1.408 1.408 0 011.4 1.5 1.425 1.425 0 01-1.4 1.512 1.425 1.425 0 01-1.4-1.512 1.408 1.408 0 011.4-1.5zm-1.368 3.548a1.977 1.977 0 001.7.84 2.719 2.719 0 002.68-2.888 2.71 2.71 0 00-2.664-2.892 1.975 1.975 0 00-1.74.852c0-.06.024-.18.024-.444v-.268h-1.56v7.6h1.56zm7.98.84a2.892 2.892 0 100-5.784 2.892 2.892 0 100 5.784zm0-4.392a1.387 1.387 0 011.368 1.5 1.379 1.379 0 11-2.748 0 1.39 1.39 0 011.38-1.496zm5.82-1.248h-2.328v1.32h.768v4.18h1.56zm-1.848-1.9a1 1 0 002 0 1 1 0 10-2 0zm4.692 2.544s.024-.24.024-.432v-.212h-1.524v5.5h1.56v-3.564a1.523 1.523 0 011.164-.624.888.888 0 01.936.984v3.204h1.56v-3.6a1.915 1.915 0 00-2.04-2.04 2.162 2.162 0 00-1.68.792zm5.412-2.736v2.092h-.864v1.32h.864v3.012c0 1.1.8 1.236 1.584 1.236.456 0 1.212-.072 1.212-.072v-1.328s-.324.036-.72.036c-.24 0-.516-.048-.516-.4v-2.48h1.188v-1.324h-1.188v-2.084zm7.956 2.76a3.276 3.276 0 00-2.22-.816c-1.32 0-2.136.8-2.136 1.7a1.627 1.627 0 001.274 1.62l.936.276c.444.132.624.252.624.528 0 .216-.228.408-.6.408a2.72 2.72 0 01-1.62-.684l-.828 1.08a3.545 3.545 0 002.424.864c1.5 0 2.184-.936 2.184-1.74 0-.72-.384-1.332-1.512-1.7l-.912-.288c-.288-.1-.408-.228-.408-.42 0-.168.144-.372.552-.372a2 2 0 011.356.564z" fill="#fff"/><path data-name="Path 973" d="M682.209 343.606l1.608-4.14v5.94h1.652v-8.4h-2.24l-1.872 4.764-1.836-4.764h-2.352v8.4h1.62v-5.94l1.656 4.14zm7.26 1.944a2.86 2.86 0 002.94-2.892 2.86 2.86 0 00-2.94-2.892 2.86 2.86 0 00-2.94 2.892 2.86 2.86 0 002.94 2.892zm0-4.392a1.387 1.387 0 011.368 1.5 1.394 1.394 0 01-1.368 1.5 1.4 1.4 0 01-1.38-1.5 1.39 1.39 0 011.38-1.5zm6.612 0a1.408 1.408 0 011.4 1.5 1.425 1.425 0 01-1.4 1.512 1.425 1.425 0 01-1.4-1.512 1.408 1.408 0 011.4-1.5zm1.368 4.248h1.56v-8.4h-1.56v2.568c0 .408.024.864.024 1.044a2 2 0 00-1.752-.852 2.7 2.7 0 00-2.652 2.892 2.71 2.71 0 002.664 2.892 2.013 2.013 0 001.716-.844zm8.292-2.352c0-2.3-1.368-3.288-2.88-3.288a2.784 2.784 0 00-2.856 2.892 2.8 2.8 0 002.88 2.892 2.8 2.8 0 002.748-1.728l-1.62-.168a1.245 1.245 0 01-1.1.564 1.245 1.245 0 01-1.26-1.1h4.092zm-2.88-1.992a1.192 1.192 0 011.208 1.008h-2.456a1.226 1.226 0 011.248-1.008zm5.352-4.056h-1.544v8.4h1.548zm5.472 3.576a3.276 3.276 0 00-2.216-.816c-1.32 0-2.136.8-2.136 1.7a1.627 1.627 0 001.272 1.608l.936.276c.444.132.624.252.624.528 0 .216-.228.408-.6.408a2.72 2.72 0 01-1.62-.684l-.832 1.084a3.545 3.545 0 002.424.864c1.5 0 2.184-.936 2.184-1.74 0-.72-.384-1.332-1.512-1.7l-.912-.288c-.288-.1-.408-.228-.408-.42 0-.168.144-.372.552-.372a2 2 0 011.356.564zm-40.248 19.584l-1.8-1.86a13.916 13.916 0 001.284-2.52h-1.812a10.111 10.111 0 01-.612 1.392 109.7 109.7 0 01-1.716-1.812 1.989 1.989 0 01-.648-1.26.806.806 0 01.852-.828.789.789 0 01.78.792 1.522 1.522 0 01-.168.612l1.38.144a1.9 1.9 0 00.292-1.056 2.064 2.064 0 00-2.232-1.908 2.269 2.269 0 00-2.508 2.172 2.484 2.484 0 00.684 1.7 3.072 3.072 0 00-1.452 2.46 2.4 2.4 0 002.556 2.352 2.751 2.751 0 002.288-1.04l.852.9h1.98zm-3.888-1.728a1.353 1.353 0 01-1.116.672 1 1 0 01-1.008-.972 1.7 1.7 0 01.66-1.26c.492.516.984 1.028 1.464 1.56zm14.544-2.232a3.987 3.987 0 00-4.356-4.2h-2.88v8.4h2.88a3.987 3.987 0 004.356-4.2zm-1.7 0a2.534 2.534 0 01-2.712 2.784h-1.152v-5.556h1.152a2.536 2.536 0 012.708 2.772zm4.652 3.2c-.48 0-.78-.276-.78-.648s.288-.6.78-.6h.588a.678.678 0 00.48-.12v.4a.951.951 0 01-1.068.968zm1.068-2.6c0 .2-.12.324-.384.324h-1.08c-1.224 0-1.992.648-1.992 1.692a1.8 1.8 0 001.92 1.728 1.853 1.853 0 001.536-.66v.516h1.556v-3.612c0-1.452-1.14-2.028-2.388-2.028a4.7 4.7 0 00-2.352.672l.612 1.176a3.735 3.735 0 011.656-.516c.6 0 .912.252.912.648zm3.256-3.984v2.084h-.864v1.32h.864v3.012c0 1.1.8 1.236 1.584 1.236.456 0 1.212-.072 1.212-.072v-1.328s-.324.036-.72.036c-.24 0-.516-.048-.516-.4v-2.48h1.188v-1.324h-1.192v-2.084zm5.8 6.584c-.48 0-.78-.276-.78-.648s.288-.6.78-.6h.588a.678.678 0 00.48-.12v.4a.951.951 0 01-1.068.968zm1.068-2.6c0 .2-.12.324-.384.324h-1.076c-1.224 0-1.992.648-1.992 1.692a1.8 1.8 0 001.92 1.728 1.853 1.853 0 001.536-.66v.516h1.56v-3.612c0-1.452-1.14-2.028-2.388-2.028a4.7 4.7 0 00-2.352.672l.608 1.176a3.735 3.735 0 011.656-.516c.6 0 .912.252.912.648zm10.732-3.768a4.408 4.408 0 00-2.772-1.176 2.541 2.541 0 00-2.808 2.364 2.662 2.662 0 001.836 2.352l.588.276c.8.372 1.32.7 1.32 1.272 0 .516-.444.912-1.164.912a3.09 3.09 0 01-2.052-1l-.924 1.248a4.139 4.139 0 003.012 1.26 2.651 2.651 0 002.916-2.484c0-1.26-.8-1.956-2.136-2.58l-.7-.324c-.672-.312-.912-.612-.912-1 0-.5.5-.792 1.056-.792a2.765 2.765 0 011.776.864zm6.36 5.016c0-2.3-1.368-3.288-2.88-3.288a2.784 2.784 0 00-2.856 2.892 2.8 2.8 0 002.88 2.892 2.8 2.8 0 002.748-1.728l-1.62-.168a1.305 1.305 0 01-2.364-.54h4.092zm-2.88-1.992a1.192 1.192 0 011.212 1.008h-2.46a1.226 1.226 0 011.248-1.008zm4.212-3.24v2.084h-.864v1.32h.864v3.012c0 1.1.8 1.236 1.584 1.236.456 0 1.212-.072 1.212-.072v-1.328s-.324.036-.72.036c-.24 0-.516-.048-.516-.4v-2.48h1.188v-1.324h-1.188v-2.084zm7.956 2.76a3.276 3.276 0 00-2.22-.816c-1.32 0-2.136.8-2.136 1.7a1.627 1.627 0 001.272 1.608l.936.276c.444.132.624.252.624.528 0 .216-.228.408-.6.408a2.72 2.72 0 01-1.624-.68l-.828 1.08a3.545 3.545 0 002.424.864c1.5 0 2.184-.936 2.184-1.74 0-.72-.384-1.332-1.512-1.7l-.912-.288c-.288-.1-.408-.228-.408-.42 0-.168.144-.372.552-.372a2 2 0 011.356.564z" fill="#fff"/><path data-name="Path 974" d="M775.796 345.406h1.92l-2.148-3.54a2.362 2.362 0 001.6-2.3c0-1.464-1.08-2.556-2.916-2.556h-3.156v8.396h1.668v-3.228h1.176zm-.3-5.832c0 .72-.54 1.152-1.464 1.152h-1.272v-2.28h1.272c.924 0 1.464.384 1.464 1.128zm8.076 3.48c0-2.3-1.368-3.288-2.88-3.288a2.784 2.784 0 00-2.856 2.892 2.8 2.8 0 002.88 2.892 2.8 2.8 0 002.748-1.728l-1.62-.168a1.245 1.245 0 01-1.1.564 1.245 1.245 0 01-1.26-1.1h4.092zm-2.88-1.992a1.192 1.192 0 011.212 1.008h-2.46a1.226 1.226 0 011.248-1.008zm6.732.1a1.408 1.408 0 011.4 1.5 1.425 1.425 0 01-1.4 1.512 1.425 1.425 0 01-1.4-1.512 1.408 1.408 0 011.4-1.504zm-1.368 3.544a1.977 1.977 0 001.7.84 2.719 2.719 0 002.68-2.888 2.71 2.71 0 00-2.664-2.892 1.975 1.975 0 00-1.74.852c0-.06.024-.18.024-.444v-.268h-1.56v7.6h1.56zm7.98.84a2.86 2.86 0 002.944-2.888 2.86 2.86 0 00-2.944-2.892 2.86 2.86 0 00-2.94 2.892 2.86 2.86 0 002.94 2.892zm0-4.392a1.387 1.387 0 011.368 1.5 1.394 1.394 0 01-1.368 1.5 1.4 1.4 0 01-1.38-1.5 1.39 1.39 0 011.38-1.496zm7.308-1.268a1.767 1.767 0 00-.432-.048 1.447 1.447 0 00-1.432.948v-.88h-1.508v5.5h1.56v-2.628c0-.96.36-1.332 1.152-1.332h.66zm1.284-2.064v2.084h-.864v1.32h.864v3.012c0 1.1.8 1.236 1.584 1.236.456.004 1.212-.068 1.212-.068v-1.332s-.324.036-.72.036c-.24 0-.516-.048-.516-.4v-2.48h1.192v-1.324h-1.192v-2.084zm7.952 2.76a3.276 3.276 0 00-2.22-.816c-1.32 0-2.136.8-2.136 1.7a1.627 1.627 0 001.276 1.612l.936.276c.444.132.624.252.624.528 0 .216-.228.408-.6.408a2.72 2.72 0 01-1.62-.684l-.828 1.08a3.545 3.545 0 002.424.864c1.5 0 2.184-.936 2.184-1.74 0-.72-.384-1.332-1.512-1.7l-.912-.288c-.288-.1-.408-.228-.408-.42 0-.168.144-.372.552-.372a2 2 0 011.356.564zm-48.056 19.584l-1.8-1.86a13.916 13.916 0 001.284-2.52h-1.812a10.111 10.111 0 01-.616 1.392 109.7 109.7 0 01-1.716-1.812 1.989 1.989 0 01-.644-1.26.806.806 0 01.852-.828.789.789 0 01.78.792 1.522 1.522 0 01-.168.612l1.38.144a1.9 1.9 0 00.288-1.056 2.064 2.064 0 00-2.232-1.908 2.269 2.269 0 00-2.508 2.172 2.484 2.484 0 00.684 1.7 3.072 3.072 0 00-1.452 2.46 2.4 2.4 0 002.556 2.352 2.751 2.751 0 002.292-1.04l.852.9h1.98zm-3.888-1.728a1.353 1.353 0 01-1.116.672 1 1 0 01-1.008-.972 1.7 1.7 0 01.66-1.26c.492.516.984 1.028 1.464 1.56zm14.544-2.232a3.987 3.987 0 00-4.356-4.2h-2.88v8.4h2.88a3.987 3.987 0 004.356-4.2zm-1.7 0a2.534 2.534 0 01-2.712 2.784h-1.152v-5.556h1.152a2.536 2.536 0 012.712 2.772zm4.656 3.2c-.48 0-.78-.276-.78-.648s.288-.6.78-.6h.588a.678.678 0 00.48-.12v.4a.951.951 0 01-1.072.968zm1.068-2.6c0 .2-.12.324-.384.324h-1.08c-1.224 0-1.992.648-1.992 1.692a1.8 1.8 0 001.92 1.728 1.853 1.853 0 001.536-.66v.516h1.56v-3.612c0-1.452-1.14-2.028-2.388-2.028a4.7 4.7 0 00-2.352.672l.612 1.176a3.735 3.735 0 011.656-.516c.6 0 .912.252.912.648zm6.972-1.224a3.276 3.276 0 00-2.22-.816c-1.32 0-2.136.8-2.136 1.7a1.627 1.627 0 001.272 1.608l.936.276c.444.132.624.252.624.528 0 .216-.228.408-.6.408a2.72 2.72 0 01-1.62-.684l-.828 1.08a3.545 3.545 0 002.424.864c1.5 0 2.184-.936 2.184-1.74 0-.72-.384-1.332-1.512-1.7l-.912-.288c-.288-.1-.408-.228-.408-.42 0-.168.144-.372.552-.372a2 2 0 011.356.564zm2.544-.024s.024-.24.024-.432v-3.12h-1.54v8.4h1.56v-3.564a1.523 1.523 0 011.164-.624.888.888 0 01.936.984v3.204h1.56v-3.6a1.915 1.915 0 00-2.044-2.04 2.156 2.156 0 00-1.664.792zm7.92.6a1.408 1.408 0 011.4 1.5 1.408 1.408 0 11-2.808 0 1.408 1.408 0 011.404-1.5zm-1.372 3.548a1.977 1.977 0 001.7.84 2.719 2.719 0 002.676-2.892 2.71 2.71 0 00-2.664-2.888 1.975 1.975 0 00-1.74.852c0-.156.024-.54.024-.9v-2.712h-1.556v8.4h1.56zm7.98.84a2.892 2.892 0 100-5.784 2.892 2.892 0 100 5.784zm0-4.392a1.387 1.387 0 011.368 1.5 1.379 1.379 0 11-2.748 0 1.39 1.39 0 011.38-1.496zm5.916 3.252c-.48 0-.78-.276-.78-.648s.288-.6.78-.6h.588a.678.678 0 00.48-.12v.4a.951.951 0 01-1.068.968zm1.068-2.6c0 .2-.12.324-.384.324h-1.08c-1.224 0-1.992.648-1.992 1.692a1.8 1.8 0 001.92 1.728 1.853 1.853 0 001.536-.66v.516h1.56v-3.612c0-1.452-1.14-2.028-2.388-2.028a4.7 4.7 0 00-2.352.672l.612 1.176a3.735 3.735 0 011.656-.516c.6 0 .912.252.912.648zm6.216-1.92a1.767 1.767 0 00-.432-.048 1.447 1.447 0 00-1.428.948v-.88h-1.508v5.5h1.56v-2.628c0-.96.36-1.332 1.152-1.332h.66zm3.5 1.272a1.408 1.408 0 011.4 1.5 1.408 1.408 0 11-2.808 0 1.408 1.408 0 011.412-1.5zm1.372 4.248h1.56v-8.4h-1.56v2.568c0 .408.024.864.024 1.044a2 2 0 00-1.752-.852 2.7 2.7 0 00-2.652 2.892 2.71 2.71 0 002.664 2.892 2.013 2.013 0 001.716-.84zm7.032-4.824a3.276 3.276 0 00-2.22-.816c-1.32 0-2.136.8-2.136 1.7a1.627 1.627 0 001.272 1.608l.936.276c.444.132.624.252.624.528 0 .216-.228.408-.6.408a2.72 2.72 0 01-1.62-.684l-.828 1.084a3.545 3.545 0 002.424.864c1.5 0 2.184-.936 2.184-1.74 0-.72-.384-1.332-1.512-1.7l-.912-.288c-.288-.1-.408-.228-.408-.42 0-.168.144-.372.552-.372a2 2 0 011.356.564z" fill="#fff"/><g data-name="Group 966" fill="none" stroke="#fff" stroke-miterlimit="10" stroke-width="3"><path data-name="Line 86" d="M644.422 36.636h5.259"/><path data-name="Path 905" d="M660.069 36.636h20.914a14.945 14.945 0 0114.9 14.9v101.4a14.945 14.945 0 01-14.9 14.9H566.874a14.945 14.945 0 01-14.9-14.9V51.538a14.945 14.945 0 0114.9-14.9h20.519" stroke-dasharray="11.851 11.851"/><path data-name="Line 87" d="M592.586 36.636h5.259"/></g><g data-name="Group 983"><g data-name="Group 975"><g data-name="Group 967"><path data-name="Path 906" d="M770.665 54.336a1.117 1.117 0 01-1.119-1.117V42.504a1.117 1.117 0 112.233 0V53.22a1.116 1.116 0 01-1.114 1.116z" fill="#ffde14"/></g><g data-name="Group 968"><path data-name="Path 907" d="M770.659 58.419a1.083 1.083 0 01-.783-.323 1.095 1.095 0 010-1.576 1.146 1.146 0 011.575 0 1.111 1.111 0 01-.792 1.9z" fill="#ffde14"/></g><g data-name="Group 969"><path data-name="Path 908" d="M796.359 79.498h-25.694a1.117 1.117 0 01-1.119-1.117V62.344a1.117 1.117 0 012.233 0v14.922h24.58a1.117 1.117 0 110 2.233z" fill="#ffde14"/></g><g data-name="Group 970"><path data-name="Path 909" d="M819.974 79.499h-23.615a1.117 1.117 0 010-2.233h23.615a1.117 1.117 0 010 2.233z" fill="#ffde14"/></g><g data-name="Group 971"><path data-name="Path 910" d="M766.866 48.379a1.118 1.118 0 01-.871-1.815l3.8-4.753a1.116 1.116 0 111.744 1.392l-3.8 4.755a1.117 1.117 0 01-.873.421z" fill="#ffde14"/></g><g data-name="Group 972"><path data-name="Path 911" d="M774.458 48.379a1.116 1.116 0 01-.872-.42l-3.8-4.755a1.116 1.116 0 111.744-1.392l3.8 4.753a1.118 1.118 0 01-.873 1.815z" fill="#ffde14"/></g><g data-name="Group 973"><path data-name="Path 912" d="M820.468 79.498a1.116 1.116 0 01-.7-.245l-4.744-3.805a1.117 1.117 0 111.4-1.741l4.744 3.8a1.114 1.114 0 01.169 1.569 1.1 1.1 0 01-.869.422z" fill="#ffde14"/></g><g data-name="Group 974"><path data-name="Path 913" d="M815.726 83.301a1.117 1.117 0 01-.7-1.987l4.744-3.8a1.118 1.118 0 011.4 1.743l-4.744 3.8a1.113 1.113 0 01-.7.244z" fill="#ffde14"/></g></g><g data-name="Group 976"><path data-name="Path 914" d="M776.774 66.38h-.179a1.117 1.117 0 01.013-2.233.355.355 0 01.05 0c1.2 0 28.339-.21 35.14-16.208a1.117 1.117 0 112.055.875c-7.281 17.126-34.369 17.566-37.079 17.566z" fill="#ffde14"/></g><g data-name="Group 977"><path data-name="Path 915" d="M807.163 51.617a1.117 1.117 0 01-.391-2.163l5.7-2.125a1.116 1.116 0 11.781 2.091l-5.7 2.127a1.126 1.126 0 01-.39.07z" fill="#ffde14"/></g><g data-name="Group 978"><path data-name="Path 916" d="M813.694 55.513a1.117 1.117 0 01-1.1-.962l-.837-6.023a1.116 1.116 0 112.211-.309l.837 6.023a1.12 1.12 0 01-.951 1.26 1.055 1.055 0 01-.16.011z" fill="#ffde14"/></g><g data-name="Group 979"><path data-name="Path 917" d="M779.774 79.498a1.115 1.115 0 01-1.117-1.117V69.51a1.115 1.115 0 112.231 0v8.871a1.113 1.113 0 01-1.114 1.117z" fill="#ffde14"/></g><g data-name="Group 980"><path data-name="Path 918" d="M789.551 79.498a1.117 1.117 0 01-1.117-1.117v-9.989a1.117 1.117 0 012.234 0v9.989a1.117 1.117 0 01-1.117 1.117z" fill="#ffde14"/></g><g data-name="Group 981"><path data-name="Path 919" d="M799.33 79.498a1.117 1.117 0 01-1.118-1.117V66.16a1.117 1.117 0 112.233 0v12.222a1.116 1.116 0 01-1.115 1.116z" fill="#ffde14"/></g><g data-name="Group 982"><path data-name="Path 920" d="M809.109 79.498a1.117 1.117 0 01-1.118-1.117V60.576a1.117 1.117 0 112.233 0v17.806a1.115 1.115 0 01-1.115 1.116z" fill="#ffde14"/></g></g><path data-name="Path 975" d="M720.728 298.468h1.386a3.214 3.214 0 003.528-3.262c0-1.778-1.218-3.22-3.528-3.22h-3.318v9.8h1.932zm1.092-4.8c1.064 0 1.834.448 1.834 1.54s-.77 1.6-1.834 1.6h-1.092v-3.142zm7.5 8.288a3.336 3.336 0 003.43-3.374 3.336 3.336 0 00-3.43-3.374 3.336 3.336 0 00-3.43 3.374 3.336 3.336 0 003.434 3.372zm0-5.124a1.619 1.619 0 011.6 1.75 1.627 1.627 0 01-1.6 1.75 1.629 1.629 0 01-1.61-1.75 1.621 1.621 0 011.614-1.752zm9.758-1.456h-1.775l-1.189 4.11-.854-4.116h-1.957l1.565 6.416h2.142l1.148-4 1.12 4h2.156l1.669-6.412h-1.879l-.98 4.172zm11.2 3.668c0-2.688-1.6-3.836-3.36-3.836a3.248 3.248 0 00-3.328 3.372 3.27 3.27 0 003.36 3.374 3.261 3.261 0 003.206-2.016l-1.89-.2a1.452 1.452 0 01-1.288.658 1.452 1.452 0 01-1.475-1.284h4.779zm-3.356-2.326a1.391 1.391 0 011.414 1.176h-2.87a1.43 1.43 0 011.456-1.176zm8.372-1.372a2.061 2.061 0 00-.5-.056 1.689 1.689 0 00-1.67 1.106v-1.022h-1.764v6.412h1.82v-3.066c0-1.12.42-1.554 1.344-1.554h.77zm10-.854c0-1.26-1.008-2.506-3.024-2.506h-3.167v9.8h3.486c2.072 0 3.234-1.246 3.234-2.814a2.578 2.578 0 00-1.82-2.422v-.028a2.161 2.161 0 001.287-2.03zm-4.246 3.066h1.106c.952 0 1.638.42 1.638 1.246 0 .8-.56 1.344-1.736 1.344h-1.008zm.994-3.92c.672 0 1.274.322 1.274 1.078s-.574 1.106-1.274 1.106h-.994v-2.184zm5.222 8.148h1.946v-9.8h-1.946z" fill="#fff"/><g data-name="Group 984" fill="none" stroke="#fff" stroke-linecap="round" stroke-miterlimit="10" stroke-width="3"><path data-name="Path 921" d="M817.311 258.541h5.256"/><path data-name="Path 922" d="M833.019 258.765c6.273 1.23 11.076 7.36 11.076 14.677v99.541a14.945 14.945 0 01-14.9 14.9h-170.33a14.945 14.945 0 01-14.9-14.9v-99.54a14.946 14.946 0 0114.9-14.9h79.575" stroke-dasharray="11.941 11.941"/><path data-name="Line 88" d="M743.679 258.541h5.259"/></g><path data-name="Path 923" d="M609.124 113.94l7.542 9.04-7.542 8.976" fill="none" stroke="#fff" stroke-miterlimit="10"/><path data-name="Path 924" d="M615.207 113.94l7.542 9.04-7.542 8.976" fill="none" stroke="#fff" stroke-miterlimit="10"/><path data-name="Line 89" fill="none" stroke="#fff" stroke-miterlimit="10" d="M742.677 362.026v-23.229"/><g data-name="Group 985" fill="#ffde14"><path data-name="Path 925" d="M775.232 266.228a3.59 3.59 0 01-3.569 3.569 3.486 3.486 0 01-3.57-3.569v-15.3a3.591 3.591 0 013.57-3.568 3.485 3.485 0 013.569 3.568z"/><path data-name="Path 926" d="M785.429 270.306a3.589 3.589 0 01-3.568 3.568 3.347 3.347 0 01-3.4-3.568v-23.283a3.591 3.591 0 013.569-3.57 3.487 3.487 0 013.569 3.57v23.284z"/><path data-name="Path 927" d="M764.864 262.829a3.589 3.589 0 01-3.568 3.569 3.485 3.485 0 01-3.569-3.569V254.5a3.569 3.569 0 117.138 0z"/><path data-name="Path 928" d="M795.627 274.046a3.486 3.486 0 11-6.969 0v-30.932a3.57 3.57 0 017.14 0v30.931z"/><path data-name="Path 929" d="M806.846 272.516a7.182 7.182 0 01-1.869-.341l-4.25-1.36a1.343 1.343 0 11.849-2.549l4.419 1.36a3.052 3.052 0 003.91-2.89v-28.382a2.964 2.964 0 00-2.042-2.889l-41.639-12.577a3.123 3.123 0 00-2.719.34 3.614 3.614 0 00-1.189 2.549v19.546a1.36 1.36 0 01-2.72 0v-19.546a5.417 5.417 0 012.38-4.588 5.545 5.545 0 015.1-.851l41.47 12.578a5.868 5.868 0 014.078 5.608v28.383a5.955 5.955 0 01-2.38 4.76 11.126 11.126 0 01-3.4.849"/></g><g data-name="Group 998"><g data-name="Group 986"><path data-name="Path 930" d="M615.946 29.912a7.31 7.31 0 1110.346.008 7.323 7.323 0 01-10.346-.008zm8.787-8.789a5.118 5.118 0 10.007 7.247 5.13 5.13 0 00-.006-7.247z" fill="#ffde14"/></g><g data-name="Group 987"><path data-name="Path 931" d="M631.035 14.828a6.271 6.271 0 118.875.007 6.28 6.28 0 01-8.875-.007zm7.319-7.319a4.08 4.08 0 10.006 5.776 4.091 4.091 0 00-.006-5.78z" fill="#ffde14"/></g><g data-name="Group 988"><path data-name="Path 932" d="M635.27 40.448a6.271 6.271 0 118.875.006 6.283 6.283 0 01-8.875-.006zm7.319-7.32a4.08 4.08 0 10.006 5.777 4.088 4.088 0 00-.006-5.777z" fill="#ffde14"/></g><g data-name="Group 989"><path data-name="Path 933" d="M609.658 50.864a6.272 6.272 0 118.877.005 6.283 6.283 0 01-8.877-.005zm7.319-7.319a4.08 4.08 0 10.009 5.776 4.087 4.087 0 00-.008-5.776z" fill="#ffde14"/></g><g data-name="Group 990"><path data-name="Path 934" d="M594.729 35.936a6.272 6.272 0 118.875.005 6.284 6.284 0 01-8.875-.005zm7.319-7.319a4.079 4.079 0 10.008 5.775 4.088 4.088 0 00-.007-5.775z" fill="#ffde14"/></g><g data-name="Group 991"><path data-name="Path 935" d="M605.416 10.589a6.281 6.281 0 01-.006-8.875A6.2 6.2 0 01607.058.53a1.1 1.1 0 11.971 1.964 4.03 4.03 0 00-1.072.771 4.09 4.09 0 106.244.562 1.1 1.1 0 011.8-1.253 6.271 6.271 0 01-9.584 8.016z" fill="#ffde14"/></g><g data-name="Group 992"><path data-name="Path 936" d="M610.13 1.867A1.092 1.092 0 01610.915 0a1.123 1.123 0 011.083 1.1 1.06 1.06 0 01-.32.766 1.108 1.108 0 01-.772.327 1.119 1.119 0 01-.776-.326z" fill="#ffde14"/></g><g data-name="Group 993"><path data-name="Path 937" d="M624.734 21.124a1.1 1.1 0 010-1.55l6.3-6.3a1.1 1.1 0 011.549 1.549l-6.3 6.3a1.1 1.1 0 01-1.549.001z" fill="#ffde14"/></g><g data-name="Group 994"><path data-name="Path 938" d="M624.743 29.921a1.1 1.1 0 011.228-1.772l9.644 4.373a1.1 1.1 0 01-.908 2l-9.644-4.375a1.114 1.114 0 01-.32-.226z" fill="#ffde14"/></g><g data-name="Group 995"><path data-name="Path 939" d="M615.938 21.117a1.255 1.255 0 01-.175-.228l-5.314-9.247a1.1 1.1 0 111.9-1.091l5.314 9.245a1.1 1.1 0 01-1.726 1.321z" fill="#ffde14"/></g><g data-name="Group 996"><path data-name="Path 940" d="M603.244 30.491a1.082 1.082 0 01-.253-.4 1.093 1.093 0 01.661-1.4l10.968-3.937a1.1 1.1 0 11.74 2.063l-10.968 3.937a1.1 1.1 0 01-1.148-.263z" fill="#ffde14"/></g><g data-name="Group 997"><path data-name="Path 941" d="M615.099 42.349a1.092 1.092 0 01-.241-1.176l4.2-10.7a1.1 1.1 0 012.041.8l-4.2 10.7a1.093 1.093 0 01-1.419.619 1.065 1.065 0 01-.381-.243z" fill="#ffde14"/></g></g><g data-name="Group 1000"><path data-name="Line 90" fill="none" stroke="#fff" stroke-miterlimit="10" d="M341.951 328.279h18.531"/><g data-name="Group 999"><path data-name="Path 942" d="M358.745 330.825l9.5-2.545-9.5-2.548z" fill="#fff"/></g></g><g data-name="Group 1002"><path data-name="Path 943" d="M502.175 328.279h10.628c5.846 0 10.628-5.128 10.628-11.4V133.39a11.429 11.429 0 0111.4-11.4h4.057" fill="none" stroke="#fff" stroke-miterlimit="10"/><g data-name="Group 1001"><path data-name="Path 944" d="M537.148 124.541l9.5-2.545-9.5-2.548z" fill="#fff"/></g></g><g data-name="Group 1004"><path data-name="Path 945" d="M599.181 178.825v138.058a11.429 11.429 0 0011.4 11.4h18.718" fill="none" stroke="#fff" stroke-miterlimit="10"/><g data-name="Group 1003"><path data-name="Path 946" d="M627.557 330.825l9.5-2.545-9.5-2.548z" fill="#fff"/></g></g><path data-name="Path 947" d="M77.814 32.37h13.732a11.429 11.429 0 0111.4 11.4v40.245a11.429 11.429 0 0011.4 11.4h102.549" fill="none" stroke="#fff" stroke-miterlimit="10"/><g data-name="Group 1006"><path data-name="Line 91" fill="none" stroke="#fff" stroke-miterlimit="10" d="M341.951 95.405h18.531"/><g data-name="Group 1005"><path data-name="Path 948" d="M358.745 97.951l9.5-2.545-9.5-2.548z" fill="#fff"/></g></g><g data-name="Group 1008"><path data-name="Line 92" fill="none" stroke="#fff" stroke-miterlimit="10" d="M521.595 95.405h17.29"/><g data-name="Group 1007"><path data-name="Path 949" d="M537.148 97.951l9.5-2.545-9.5-2.548z" fill="#fff"/></g></g><g data-name="Group 1011"><path data-name="Line 93" fill="none" stroke="#fff" stroke-miterlimit="10" d="M707.814 95.405h16.511"/><g data-name="Group 1009"><path data-name="Path 950" d="M709.551 97.951l-9.5-2.545 9.5-2.548z" fill="#fff"/></g><g data-name="Group 1010"><path data-name="Path 951" d="M722.588 97.951l9.5-2.545-9.5-2.548z" fill="#fff"/></g></g><g data-name="Group 1013"><path data-name="Line 94" fill="none" stroke="#fff" stroke-miterlimit="10" d="M341.951 121.995h18.531"/><g data-name="Group 1012"><path data-name="Path 952" d="M358.745 124.541l9.5-2.545-9.5-2.548z" fill="#fff"/></g></g><g data-name="Group 1015"><path data-name="Line 95" fill="none" stroke="#fff" stroke-miterlimit="10" d="M412.986 248.512v-63.528"/><g data-name="Group 1014"><path data-name="Path 953" d="M415.532 186.721l-2.545-9.5-2.548 9.5z" fill="#fff"/></g></g><g data-name="Group 1017"><path data-name="Line 96" fill="none" stroke="#fff" stroke-miterlimit="10" d="M196.148 121.119h12.981"/><g data-name="Group 1016"><path data-name="Path 954" d="M207.392 123.665l9.5-2.545-9.5-2.548z" fill="#fff"/></g></g><path data-name="Path 955" d="M93.716 205.197h15.487a11.429 11.429 0 0011.4-11.4V133.39" fill="none" stroke="#fff" stroke-miterlimit="10"/><g data-name="Group 1019"><path data-name="Line 97" fill="none" stroke="#fff" stroke-miterlimit="10" d="M196.148 327.402h12.981"/><g data-name="Group 1018"><path data-name="Path 956" d="M207.392 329.948l9.5-2.545-9.5-2.548z" fill="#fff"/></g></g><path data-name="Path 957" d="M93.716 215.273h15.487a11.429 11.429 0 0111.4 11.4v83.641" fill="none" stroke="#fff" stroke-miterlimit="10"/><g data-name="Group 1021"><path data-name="Path 958" d="M702.642 121.995h9.049c4.976 0 9.048 5.128 9.048 11.4v105.133" fill="none" stroke="#fff" stroke-miterlimit="10"/><g data-name="Group 1020"><path data-name="Path 959" d="M718.192 236.79l2.545 9.5 2.549-9.5z" fill="#fff"/></g></g></svg>