<svg xmlns="http://www.w3.org/2000/svg" width="116" height="116"><g data-name="Ellipse 8" fill="none" stroke="#fff" stroke-width="3"><circle cx="58" cy="58" r="58" stroke="none"/><circle cx="58" cy="58" r="56.5"/></g><g data-name="Group 408" fill="#ffde14"><path data-name="Path 108" d="M90.671 30.127H80.003a1.346 1.346 0 100 2.692h9.322v37.22H31.29a1.347 1.347 0 100 2.694h58.035v3.457H26.678V32.819H68.37a1.346 1.346 0 100-2.692H25.331a1.345 1.345 0 00-1.347 1.345v46.067a1.347 1.347 0 001.347 1.347h31.322v3.216h-1.374a6.842 6.842 0 00-6.832 6.842 1.347 1.347 0 001.347 1.349h16.415a1.357 1.357 0 001.347-1.359 6.838 6.838 0 00-6.83-6.832H59.35v-3.216h31.321a1.347 1.347 0 001.347-1.347V31.472a1.345 1.345 0 00-1.347-1.345zm-29.946 54.67a4.144 4.144 0 013.917 2.8H51.361a4.145 4.145 0 013.918-2.8z"/><path data-name="Path 109" d="M74.188 32.813a1.3 1.3 0 00.943-.391 1.319 1.319 0 00.4-.955 1.359 1.359 0 00-.391-.943 1.38 1.38 0 00-1.913 0 1.34 1.34 0 00.957 2.288z"/><path data-name="Path 110" d="M73.169 41.203a11.657 11.657 0 109.871 5.45l-.77-1.216-2.777 1.653c-2.179 1.3-3.085 1.832-4.846 3V41.2zM81 49.631l.206-.123a8.709 8.709 0 11-9.513-5.227v11.372l2.308-1.565c3.506-2.385 4.041-2.702 6.999-4.457z"/><path data-name="Path 111" d="M36.596 51.622v11.32a1.3 1.3 0 102.59 0v-11.32a1.3 1.3 0 10-2.59 0z"/><path data-name="Path 112" d="M30.699 54.984v7.955a1.087 1.087 0 002.175 0v-7.956a1.087 1.087 0 00-2.175 0z"/><path data-name="Path 113" d="M42.699 47.03v15.91a1.3 1.3 0 102.59 0V47.03a1.3 1.3 0 10-2.59 0z"/><path data-name="Path 114" d="M48.801 41.087v21.854a1.3 1.3 0 002.592 0V41.087a1.3 1.3 0 00-2.592 0z"/></g></svg>