<svg xmlns="http://www.w3.org/2000/svg" width="563.268" height="128.195"><path data-name="Rectangle 6" fill="#fff" d="M171.888 29.727h.684v59.504h-.684z"/><g data-name="Group 415"><path data-name="Path 455" d="M225.982 39.987h-5.078l-2.032-6.466h-7.143l-1.9 6.466h-4.943l7.651-23.7h5.62zm-10.665-18.621h-.068l-2.4 8.125h4.841z" fill="#fff"/><path data-name="Path 456" d="M239.218 38.023a5.677 5.677 0 01-4.841 2.37c-4.266 0-7.516-3.42-7.516-8.16s3.217-8.16 7.482-8.16a5.637 5.637 0 014.943 2.4c0-.507-.068-1.794-.068-2.946v-7.245h4.4v23.7h-4.4zm-7.82-5.789a3.972 3.972 0 107.922 0 3.97 3.97 0 10-7.922 0z" fill="#fff"/><path data-name="Path 457" d="M254.013 35.251l3.521-10.766h4.638l-5.518 15.506h-5.451l-5.281-15.506h4.774z" fill="#fff"/><path data-name="Path 458" d="M272.633 29.661c0-1.117-.88-1.829-2.573-1.829a10.538 10.538 0 00-4.672 1.456l-1.727-3.317a13.264 13.264 0 016.636-1.9c3.521 0 6.737 1.625 6.737 5.722v10.19h-4.4v-1.455a5.229 5.229 0 01-4.333 1.862c-3.285 0-5.417-2.336-5.417-4.875 0-2.946 2.167-4.774 5.62-4.774h3.047c.745 0 1.083-.339 1.083-.915zm0 4.774v-1.118a1.913 1.913 0 01-1.354.339h-1.658c-1.389 0-2.2.609-2.2 1.693 0 1.049.846 1.828 2.2 1.828 1.59 0 3.012-.813 3.012-2.739z" fill="#fff"/><path data-name="Path 459" d="M289.629 24.074a5.4 5.4 0 015.755 5.755v10.157h-4.4v-9.039a2.505 2.505 0 00-2.64-2.776 4.3 4.3 0 00-3.285 1.761v10.055h-4.4V24.481h4.3v.61c0 .542-.068 1.219-.068 1.219a6.1 6.1 0 014.738-2.236z" fill="#fff"/><path data-name="Path 460" d="M302.424 32.238a3.921 3.921 0 003.893 4.232 3.55 3.55 0 003.419-2.369l4.131 1.286a7.7 7.7 0 01-7.584 5.011 8.16 8.16 0 110-16.319 7.73 7.73 0 017.584 5.045l-4.131 1.252a3.6 3.6 0 00-3.419-2.37 3.921 3.921 0 00-3.893 4.232z" fill="#fff"/><path data-name="Path 461" d="M331.673 33.52h-11.541a3.682 3.682 0 006.669 1.523l4.571.475a8.259 8.259 0 11-7.821-11.444c4.267 0 8.125 2.777 8.125 9.277zm-11.646-2.946h6.94a3.363 3.363 0 00-3.419-2.844 3.458 3.458 0 00-3.516 2.844z" fill="#fff"/><path data-name="Path 462" d="M345.689 38.023a5.677 5.677 0 01-4.841 2.37c-4.266 0-7.516-3.42-7.516-8.16s3.217-8.16 7.482-8.16a5.637 5.637 0 014.943 2.4c0-.507-.068-1.794-.068-2.946v-7.245h4.4v23.7h-4.4zm-7.82-5.789a3.972 3.972 0 107.922 0 3.97 3.97 0 10-7.922 0z" fill="#fff"/><path data-name="Path 463" d="M373.416 22.585a7.8 7.8 0 00-5.011-2.438c-1.558 0-2.979.813-2.979 2.235 0 1.083.677 1.93 2.574 2.81l1.964.914c3.757 1.76 6.025 3.724 6.025 7.279s-3.013 7.008-8.227 7.008a11.68 11.68 0 01-8.5-3.556l2.607-3.52a8.717 8.717 0 005.789 2.81c2.032 0 3.285-1.117 3.285-2.572 0-1.625-1.456-2.54-3.724-3.589l-1.659-.779c-3.182-1.49-5.18-3.656-5.18-6.636 0-4.164 3.724-6.669 7.922-6.669a12.433 12.433 0 017.82 3.317z" fill="#fff"/><path data-name="Path 464" d="M383.132 45.911h-4.4V24.48h4.4v.746c0 .745-.068 1.083-.068 1.252a5.574 5.574 0 014.91-2.4c4.266 0 7.516 3.42 7.516 8.16s-3.285 8.16-7.55 8.16a5.579 5.579 0 01-4.808-2.37zm-.1-13.678a3.972 3.972 0 107.922 0 3.97 3.97 0 10-7.922 0z" fill="#fff"/><path data-name="Path 465" d="M413.532 33.52h-11.544a3.682 3.682 0 006.669 1.523l4.57.475a8.259 8.259 0 11-7.82-11.444c4.266 0 8.125 2.777 8.125 9.277zm-11.646-2.946h6.941a3.365 3.365 0 00-3.42-2.844 3.458 3.458 0 00-3.521 2.844z" fill="#fff"/><path data-name="Path 466" d="M419.558 32.238a3.921 3.921 0 003.894 4.232 3.551 3.551 0 003.419-2.369l4.13 1.286a7.7 7.7 0 01-7.583 5.011 8.16 8.16 0 110-16.319 7.731 7.731 0 017.583 5.045l-4.13 1.252a3.6 3.6 0 00-3.419-2.37 3.921 3.921 0 00-3.894 4.232z" fill="#fff"/><path data-name="Path 467" d="M438.922 39.987h-4.4V28.205h-2.167v-3.724h6.568zm-2.4-23.7a2.838 2.838 0 012.843 2.844 2.826 2.826 0 01-5.653 0 2.831 2.831 0 012.806-2.843z" fill="#fff"/><path data-name="Path 468" d="M451.313 29.661c0-1.117-.88-1.829-2.573-1.829a10.542 10.542 0 00-4.672 1.456l-1.726-3.317a13.264 13.264 0 016.636-1.9c3.521 0 6.738 1.625 6.738 5.722v10.19h-4.4v-1.455a5.228 5.228 0 01-4.333 1.862c-3.285 0-5.417-2.336-5.417-4.875 0-2.946 2.167-4.774 5.62-4.774h3.047c.745 0 1.083-.339 1.083-.915zm0 4.774v-1.118a1.912 1.912 0 01-1.354.339H448.3c-1.388 0-2.2.609-2.2 1.693 0 1.049.846 1.828 2.2 1.828 1.591 0 3.013-.813 3.013-2.739z" fill="#fff"/><path data-name="Path 469" d="M463.703 39.987h-4.367v-23.7h4.367z" fill="#fff"/><path data-name="Path 470" d="M472.81 39.987h-4.4V28.205h-2.167v-3.724h6.568zm-2.4-23.7a2.838 2.838 0 012.843 2.844 2.826 2.826 0 01-5.653 0 2.831 2.831 0 012.807-2.843z" fill="#fff"/><path data-name="Path 471" d="M489.3 28.104l-7.989 8.192h7.989v3.691h-13.373v-3.622l8.024-8.16h-7.956v-3.724h13.3z" fill="#fff"/><path data-name="Path 472" d="M501.043 29.661c0-1.117-.88-1.829-2.573-1.829a10.538 10.538 0 00-4.672 1.456l-1.727-3.317a13.264 13.264 0 016.636-1.9c3.52 0 6.738 1.625 6.738 5.722v10.19h-4.4v-1.455a5.227 5.227 0 01-4.333 1.862c-3.285 0-5.417-2.336-5.417-4.875 0-2.946 2.167-4.774 5.62-4.774h3.047c.745 0 1.083-.339 1.083-.915zm0 4.774v-1.118a1.909 1.909 0 01-1.354.339h-1.659c-1.388 0-2.2.609-2.2 1.693 0 1.049.846 1.828 2.2 1.828 1.591 0 3.013-.813 3.013-2.739z" fill="#fff"/><path data-name="Path 473" d="M514.62 18.59v5.89h3.352v3.724h-3.352v7.009c0 .982.778 1.117 1.456 1.117 1.117 0 2.031-.1 2.031-.1v3.758s-2.132.2-3.419.2c-2.2 0-4.469-.372-4.469-3.487v-8.5h-2.439v-3.724h2.438v-5.89z" fill="#fff"/><path data-name="Path 474" d="M526.333 39.987h-4.4V28.205h-2.167v-3.724h6.568zm-2.4-23.7a2.838 2.838 0 012.843 2.844 2.826 2.826 0 01-5.653 0 2.831 2.831 0 012.807-2.843z" fill="#fff"/><path data-name="Path 475" d="M529.143 32.238a8.3 8.3 0 118.294 8.16 8.068 8.068 0 01-8.294-8.16zm4.4 0a3.891 3.891 0 103.893-4.232 3.939 3.939 0 00-3.892 4.232z" fill="#fff"/><path data-name="Path 476" d="M557.513 24.074a5.4 5.4 0 015.755 5.755v10.157h-4.4v-9.039a2.505 2.505 0 00-2.64-2.776 4.3 4.3 0 00-3.285 1.761v10.055h-4.4V24.481h4.3v.61c0 .542-.068 1.219-.068 1.219a6.1 6.1 0 014.738-2.236z" fill="#fff"/><path data-name="Path 477" d="M222.078 72.133h-4.154l-1.662-5.29h-5.844l-1.551 5.29h-4.044l6.26-19.389h4.6zm-8.725-15.234h-.055l-1.967 6.647h3.961z" fill="#ffde14"/><path data-name="Path 478" d="M224.322 52.744h3.85v19.389h-3.85z" fill="#ffde14"/><path data-name="Path 479" d="M244.32 63.685c0-.913-.719-1.5-2.1-1.5a8.631 8.631 0 00-3.823 1.191l-1.413-2.715a10.858 10.858 0 015.429-1.551c2.881 0 5.512 1.329 5.512 4.68v8.337h-3.6v-1.18a4.274 4.274 0 01-3.545 1.523 4.159 4.159 0 01-4.432-3.989c0-2.409 1.773-3.906 4.6-3.906h2.492c.61 0 .886-.276.886-.747zm0 3.905v-.914a1.558 1.558 0 01-1.107.278h-1.357c-1.136 0-1.8.5-1.8 1.384 0 .859.693 1.5 1.8 1.5a2.194 2.194 0 002.464-2.248z" fill="#ffde14"/><path data-name="Path 480" d="M258.223 59.115a4.419 4.419 0 014.709 4.709v8.309h-3.6v-7.4a2.05 2.05 0 00-2.161-2.271 3.514 3.514 0 00-2.687 1.44v8.226h-3.6V59.447h3.518v.5c0 .443-.055 1-.055 1a4.989 4.989 0 013.876-1.832z" fill="#ffde14"/><path data-name="Path 481" d="M275.232 70.526a4.647 4.647 0 01-3.961 1.939c-3.49 0-6.149-2.8-6.149-6.675s2.632-6.676 6.122-6.676a4.612 4.612 0 014.043 1.966c0-.416-.055-1.469-.055-2.41v-5.927h3.6v19.389h-3.6zm-6.4-4.736a3.25 3.25 0 106.482 0 3.248 3.248 0 10-6.482 0z" fill="#ffde14"/><path data-name="Path 482" d="M295.507 67.978l-3.822-9.556v13.711h-3.74V52.744h5.429l4.238 11 4.321-11h5.18v19.389h-3.823V58.422l-3.712 9.556z" fill="#ffde14"/><path data-name="Path 483" d="M317.473 63.685c0-.913-.719-1.5-2.1-1.5a8.633 8.633 0 00-3.823 1.191l-1.412-2.715a10.859 10.859 0 015.429-1.551c2.88 0 5.511 1.329 5.511 4.68v8.337h-3.6v-1.18a4.274 4.274 0 01-3.545 1.523 4.159 4.159 0 01-4.432-3.989c0-2.409 1.773-3.906 4.6-3.906h2.492c.61 0 .886-.276.886-.747zm0 3.905v-.914a1.558 1.558 0 01-1.107.278h-1.357c-1.136 0-1.8.5-1.8 1.384 0 .859.693 1.5 1.8 1.5a2.194 2.194 0 002.464-2.248z" fill="#ffde14"/><path data-name="Path 484" d="M326.836 65.791a3.207 3.207 0 003.185 3.462 2.906 2.906 0 002.8-1.939l3.378 1.053a6.3 6.3 0 01-6.2 4.1 6.676 6.676 0 110-13.35 6.323 6.323 0 016.2 4.127l-3.378 1.025a2.942 2.942 0 00-2.8-1.939 3.208 3.208 0 00-3.185 3.461z" fill="#ffde14"/><path data-name="Path 485" d="M345.67 59.115a4.419 4.419 0 014.709 4.709v8.309h-3.6v-7.4a2.05 2.05 0 00-2.16-2.271 3.517 3.517 0 00-2.687 1.44v8.226h-3.6V52.739h3.545v7.2c0 .443-.055 1-.055 1a4.978 4.978 0 013.848-1.824z" fill="#ffde14"/><path data-name="Path 486" d="M357.691 72.133h-3.6v-9.642h-1.776v-3.046h5.373zm-1.966-19.389a2.322 2.322 0 012.326 2.328 2.313 2.313 0 01-4.625 0 2.317 2.317 0 012.299-2.328z" fill="#ffde14"/><path data-name="Path 487" d="M368.133 59.115a4.419 4.419 0 014.708 4.709v8.309h-3.6v-7.4a2.049 2.049 0 00-2.16-2.271 3.517 3.517 0 00-2.687 1.44v8.226h-3.6V59.447h3.518v.5c0 .443-.055 1-.055 1a4.988 4.988 0 013.876-1.832z" fill="#ffde14"/><path data-name="Path 488" d="M388.242 66.847h-9.445a3.012 3.012 0 005.456 1.246l3.739.387a6.757 6.757 0 11-6.4-9.361c3.49 0 6.648 2.271 6.648 7.589zm-9.528-2.41h5.678a2.752 2.752 0 00-2.8-2.326 2.828 2.828 0 00-2.878 2.322z" fill="#ffde14"/><path data-name="Path 489" d="M396.386 72.133V52.744h3.85v16.093h8.227v3.3z" fill="#ffde14"/><path data-name="Path 490" d="M422.782 66.847h-9.445a3.012 3.012 0 005.456 1.246l3.739.387a6.757 6.757 0 11-6.4-9.361c3.49 0 6.648 2.271 6.648 7.589zm-9.528-2.41h5.678a2.752 2.752 0 00-2.8-2.326 2.828 2.828 0 00-2.878 2.322z" fill="#ffde14"/><path data-name="Path 491" d="M431.95 63.685c0-.913-.719-1.5-2.1-1.5a8.632 8.632 0 00-3.823 1.191l-1.412-2.715a10.857 10.857 0 015.429-1.551c2.88 0 5.511 1.329 5.511 4.68v8.337h-3.6v-1.18a4.274 4.274 0 01-3.545 1.523 4.159 4.159 0 01-4.432-3.989c0-2.409 1.773-3.906 4.6-3.906h2.493c.61 0 .886-.276.886-.747zm0 3.905v-.914a1.558 1.558 0 01-1.107.278h-1.357c-1.136 0-1.8.5-1.8 1.384 0 .859.693 1.5 1.8 1.5a2.194 2.194 0 002.464-2.248z" fill="#ffde14"/><path data-name="Path 492" d="M446.299 62.993h-1.524c-1.827 0-2.658.858-2.658 3.074v6.065h-3.6V59.447h3.49v2.022a3.34 3.34 0 013.3-2.188 4.058 4.058 0 011 .111z" fill="#ffde14"/><path data-name="Path 493" d="M455.655 59.115a4.419 4.419 0 014.709 4.709v8.309h-3.6v-7.4a2.05 2.05 0 00-2.161-2.271 3.514 3.514 0 00-2.687 1.44v8.226h-3.6V59.447h3.519v.5c0 .443-.056 1-.056 1a4.989 4.989 0 013.876-1.832z" fill="#ffde14"/><path data-name="Path 494" d="M467.682 72.133h-3.6v-9.642h-1.772v-3.046h5.374zm-1.966-19.389a2.323 2.323 0 012.326 2.328 2.313 2.313 0 01-4.625 0 2.317 2.317 0 012.298-2.328z" fill="#ffde14"/><path data-name="Path 495" d="M478.124 59.115a4.419 4.419 0 014.709 4.709v8.309h-3.6v-7.4a2.05 2.05 0 00-2.16-2.271 3.517 3.517 0 00-2.687 1.44v8.226h-3.6V59.447h3.518v.5c0 .443-.056 1-.056 1a4.991 4.991 0 013.876-1.832z" fill="#ffde14"/><path data-name="Path 496" d="M498.649 59.447v13.627c0 1.994-1 3.905-4.072 3.905h-5.512v-3.046h4.626c.637 0 1.356-.166 1.356-1.135V70.36a4.644 4.644 0 01-3.933 1.912c-3.434 0-6.093-2.6-6.093-6.565 0-3.989 2.632-6.592 6.066-6.592a4.6 4.6 0 014.016 1.966c0-.138-.056-.388-.056-1.052v-.581zm-6.731 9.722a3.489 3.489 0 10-3.185-3.462 3.183 3.183 0 003.185 3.462z" fill="#ffde14"/><path data-name="Path 497" d="M217.873 98.269a6.1 6.1 0 11-6.094-6.343 6.1 6.1 0 016.094 6.343zm-1.191 0c0-2.964-1.995-5.291-4.9-5.291s-4.9 2.327-4.9 5.291 1.995 5.29 4.9 5.29 4.891-2.326 4.891-5.29z" fill="#fff"/><path data-name="Path 498" d="M222.245 94.031a5.984 5.984 0 014.321-2.105c2.577 0 4.4 1.606 4.4 4.1v8.253h-1.191v-7.783a3.182 3.182 0 00-3.324-3.49 5.671 5.671 0 00-4.21 2.189v9.084h-1.191V92.258h1.191z" fill="#fff"/><path data-name="Path 499" d="M256.867 84.89h1.606v19.389h-1.218V86.691l-6.759 13.406h-1.554l-6.758-13.406v17.588h-1.163V84.89h1.635l7.091 14.071z" fill="#fff"/><path data-name="Path 500" d="M264.679 104.279h-1.191V93.256h-1.939v-1h3.13zm-.693-17.588a1.219 1.219 0 11-1.218 1.218 1.23 1.23 0 011.218-1.218z" fill="#fff"/><path data-name="Path 501" d="M267.864 98.269a6.124 6.124 0 016.121-6.343 5.974 5.974 0 015.513 3.545l-1.053.527a4.784 4.784 0 00-4.46-3.02 5.3 5.3 0 000 10.581 4.783 4.783 0 004.46-3.019l1.053.526a5.974 5.974 0 01-5.513 3.545 6.107 6.107 0 01-6.121-6.342z" fill="#fff"/><path data-name="Path 502" d="M287.419 93.338h-.72c-1.994 0-3.019 1.219-3.019 4.431v6.509h-1.163V92.257h1.108v2.188a3.011 3.011 0 013.185-2.3 4.755 4.755 0 01.61.027z" fill="#fff"/><path data-name="Path 503" d="M301.047 98.269a6.1 6.1 0 11-6.094-6.343 6.1 6.1 0 016.094 6.343zm-1.191 0c0-2.964-1.995-5.291-4.9-5.291s-4.9 2.327-4.9 5.291 1.994 5.29 4.9 5.29 4.9-2.326 4.9-5.29z" fill="#fff"/><path data-name="Path 504" d="M310.242 101.205c0-1.329-.914-2.022-2.8-2.659l-1.164-.387c-1.911-.637-2.659-1.773-2.659-3.047 0-1.884 1.635-3.185 3.878-3.185a6.036 6.036 0 013.684 1.274l-.582.886a5.179 5.179 0 00-3.075-1.135c-1.55 0-2.714.83-2.714 2.049 0 .8.415 1.579 1.8 2.077l1.689.609c2.216.8 3.13 1.8 3.13 3.517 0 1.523-1.3 3.407-4.293 3.407a6.651 6.651 0 01-3.988-1.357l.582-.886a6.169 6.169 0 003.434 1.219c1.86-.001 3.078-1.081 3.078-2.382z" fill="#fff"/><path data-name="Path 505" d="M325.865 98.269a6.1 6.1 0 11-6.093-6.343 6.1 6.1 0 016.093 6.343zm-1.19 0c0-2.964-1.995-5.291-4.9-5.291s-4.9 2.327-4.9 5.291 1.995 5.29 4.9 5.29 4.896-2.326 4.896-5.29z" fill="#fff"/><path data-name="Path 506" d="M329.687 87.578c0-2.216 1.3-2.854 2.548-2.854a9.055 9.055 0 011.385.111v1.025a11.119 11.119 0 00-1.164-.139c-1.135 0-1.579.665-1.579 1.884v4.654h2.41v1h-2.41v11.023h-1.19V93.259h-2.078v-1h2.078z" fill="#fff"/><path data-name="Path 507" d="M337.885 87.134v5.124h3.019v1h-3.019v8.835c0 .97.8 1.33 1.551 1.33a7.875 7.875 0 001.468-.111v.969a11.791 11.791 0 01-1.689.111c-1.219 0-2.521-.415-2.521-2.6v-8.53h-2.077v-1h2.078v-5.124z" fill="#fff"/><path data-name="Path 508" d="M350.792 97.216l-2.382 7.063h-1.3l6.729-19.389h1.579l6.759 19.389h-1.33l-2.437-7.062zm.333-1.108h6.9l-3.352-10h-.166z" fill="#fff"/><path data-name="Path 509" d="M372.896 93.338l-7.368 9.888h7.423v1.052h-8.891v-1.052l7.4-9.888h-7.4v-1.08h8.835z" fill="#fff"/><path data-name="Path 510" d="M375.833 100.041v-7.783h1.191v7.7c0 2.3 1.579 3.573 3.794 3.573a3.405 3.405 0 003.74-3.573v-7.7h1.191v7.783c0 2.52-1.607 4.57-4.931 4.57-3.351 0-4.985-2.05-4.985-4.57z" fill="#fff"/><path data-name="Path 511" d="M394.557 93.338h-.72c-1.994 0-3.019 1.219-3.019 4.431v6.509h-1.164V92.257h1.108v2.188a3.01 3.01 0 013.185-2.3 4.768 4.768 0 01.61.027z" fill="#fff"/><path data-name="Path 512" d="M397.187 98.629a4.917 4.917 0 004.9 4.93 4.667 4.667 0 004.293-2.659h1.3a5.95 5.95 0 01-5.595 3.712 6.348 6.348 0 010-12.685c3.158 0 6.038 2.327 6.038 6.619v.083zm.027-1h9.722a4.866 4.866 0 00-9.722 0z" fill="#fff"/></g><g data-name="Group 416"><path data-name="Path 513" d="M26.523 50.341h-3.044V32.569q0-2.1.253-5.13h-.072a16.726 16.726 0 01-.78 2.565l-8.859 20.338h-1.486l-8.88-20.19a15.388 15.388 0 01-.778-2.713h-.073q.145 1.588.144 5.167v17.735H.014V23.877h4.022l7.972 18.455a23.706 23.706 0 011.178 3.173h.127q.906-2.546 1.25-3.248l8.136-18.381h3.823V50.34" fill="#fff"/><path data-name="Path 514" d="M35.489 24.667a1.886 1.886 0 01-.579 1.412 1.963 1.963 0 01-2.763-2.786 1.829 1.829 0 011.386-.581 1.88 1.88 0 011.395.572 1.908 1.908 0 01.562 1.384m-.507 25.67h-2.969v-18.9h2.972v18.9" fill="#fff"/><path data-name="Path 515" d="M52.574 49.474a9.511 9.511 0 01-5.092 1.33 8.811 8.811 0 01-4.557-1.191 8.14 8.14 0 01-3.143-3.369 10.486 10.486 0 01-1.124-4.89 10.632 10.632 0 012.637-7.53 9.121 9.121 0 017.021-2.841 9.275 9.275 0 014.3.959v3.1a7.521 7.521 0 00-4.422-1.477 5.893 5.893 0 00-4.684 2.094 8.006 8.006 0 00-1.8 5.417 7.558 7.558 0 001.712 5.222 5.848 5.848 0 004.594 1.919 7.41 7.41 0 004.567-1.624v2.879" fill="#fff"/><path data-name="Path 516" d="M65.816 34.507a3.936 3.936 0 00-5.472 1.282 8.872 8.872 0 00-1.232 4.919v9.633h-2.97v-18.9h2.97v3.893h.073a6.679 6.679 0 011.9-3.09 4.332 4.332 0 012.954-1.136 4.763 4.763 0 011.775.259v3.137" fill="#fff"/><path data-name="Path 517" d="M84.495 40.819a10.309 10.309 0 01-2.51 7.243 8.688 8.688 0 01-6.732 2.741 8.493 8.493 0 01-6.569-2.667 9.952 9.952 0 01-2.455-7.022 10.488 10.488 0 012.518-7.409 8.991 8.991 0 016.94-2.721 8.206 8.206 0 016.469 2.63 10.462 10.462 0 012.338 7.206m-3.044.111a8.455 8.455 0 00-1.549-5.463 5.391 5.391 0 00-4.432-1.9 5.651 5.651 0 00-4.53 1.947 8.189 8.189 0 00-1.667 5.49 7.778 7.778 0 001.676 5.306 5.712 5.712 0 004.521 1.91 5.409 5.409 0 004.44-1.882 8.348 8.348 0 001.54-5.407" fill="#fff"/><path data-name="Path 518" d="M98.297 45.285a4.919 4.919 0 01-1.858 3.986 7.51 7.51 0 01-4.937 1.533 9.019 9.019 0 01-4.6-1.145v-3.247a7.4 7.4 0 004.82 1.808q3.533 0 3.534-2.638a2.334 2.334 0 00-.689-1.745 13.154 13.154 0 00-3.135-1.817 9.294 9.294 0 01-3.479-2.3 5.333 5.333 0 01.834-7.169 7.006 7.006 0 014.693-1.568 8.77 8.77 0 013.968.886v3.045a6.857 6.857 0 00-4.2-1.347 3.607 3.607 0 00-2.365.738 2.352 2.352 0 00-.9 1.9 2.573 2.573 0 00.689 1.928 10.182 10.182 0 002.845 1.6 10.235 10.235 0 013.715 2.4 4.7 4.7 0 011.068 3.155" fill="#fff"/><path data-name="Path 519" d="M118.571 40.819a10.307 10.307 0 01-2.51 7.243 8.687 8.687 0 01-6.732 2.741 8.49 8.49 0 01-6.568-2.667 9.955 9.955 0 01-2.455-7.022 10.485 10.485 0 012.518-7.409 8.991 8.991 0 016.941-2.721 8.206 8.206 0 016.468 2.63 10.462 10.462 0 012.338 7.206m-3.044.111a8.455 8.455 0 00-1.55-5.463 5.389 5.389 0 00-4.431-1.9 5.651 5.651 0 00-4.53 1.947 8.189 8.189 0 00-1.667 5.49 7.774 7.774 0 001.676 5.306 5.71 5.71 0 004.521 1.91 5.411 5.411 0 004.44-1.882 8.348 8.348 0 001.54-5.407" fill="#fff"/><path data-name="Path 520" d="M130.745 25.022a3.9 3.9 0 00-1.975-.5q-3.117 0-3.117 4v2.916h4.349v2.565h-4.349v16.332h-2.971V34.003h-3.153v-2.565h3.153v-3.064a6.512 6.512 0 011.667-4.651 5.569 5.569 0 014.24-1.771 5.742 5.742 0 012.157.332v2.732" fill="#fff"/><path data-name="Path 521" d="M141.541 50.156a5.608 5.608 0 01-2.791.609q-4.857 0-4.856-5.574V34.008h-3.189v-2.565h3.189v-4.614l2.971-.978v5.592h4.676v2.565h-4.676v10.666a4.426 4.426 0 00.635 2.7 2.545 2.545 0 002.119.8 3.131 3.131 0 001.922-.608v2.583" fill="#fff"/><path data-name="Path 522" d="M46.469 68.22a7.953 7.953 0 01-2.6 6.192 9.782 9.782 0 01-6.822 2.353h-3.425v10.02h-3.039V60.322h7.139a9.277 9.277 0 016.459 2.077 7.453 7.453 0 012.292 5.822m-3.189.166q0-5.26-6.088-5.26h-3.57v10.85h3.189a7.107 7.107 0 004.8-1.448 5.19 5.19 0 001.667-4.143" fill="#fff"/><path data-name="Path 523" d="M61.977 86.786h-2.972v-2.953h-.073a6.2 6.2 0 01-5.708 3.415 6.085 6.085 0 01-4.293-1.486 5.162 5.162 0 01-1.614-3.995q0-5.279 6.124-6.164l5.564-.793q0-4.8-3.824-4.8a9.078 9.078 0 00-6.051 2.307v-3.1a8.975 8.975 0 012.79-1.209 12.611 12.611 0 013.515-.582q6.541 0 6.542 7.069v12.29m-2.972-9.559l-4.494.646a6.574 6.574 0 00-3.226 1.116 3.156 3.156 0 00-.925 2.537 2.856 2.856 0 001 2.28 3.774 3.774 0 002.555.858 4.715 4.715 0 003.651-1.587 5.68 5.68 0 001.44-3.968v-1.882" fill="#fff"/><path data-name="Path 524" d="M76.324 70.947a3.937 3.937 0 00-5.472 1.282 8.869 8.869 0 00-1.231 4.918v9.633h-2.972v-18.9h2.972v3.894h.071a6.69 6.69 0 011.9-3.091 4.333 4.333 0 012.953-1.135 4.761 4.761 0 011.776.259v3.137" fill="#fff"/><path data-name="Path 525" d="M90.171 86.601a5.61 5.61 0 01-2.79.609q-4.857 0-4.856-5.574V70.453h-3.189v-2.566h3.189v-4.61l2.971-.979v5.592h4.675v2.566h-4.675v10.666a4.429 4.429 0 00.634 2.7 2.547 2.547 0 002.121.8 3.117 3.117 0 001.92-.609v2.583" fill="#fff"/><path data-name="Path 526" d="M109.727 86.786h-2.972V76.007q0-6-4.312-6a4.679 4.679 0 00-3.669 1.689 6.3 6.3 0 00-1.477 4.31v10.776h-2.97v-18.9h2.97v3.137h.073a6.644 6.644 0 016.088-3.6 5.592 5.592 0 014.666 2.031 9.1 9.1 0 011.6 5.758v11.57" fill="#fff"/><path data-name="Path 527" d="M129.168 78.095h-13.1a7.114 7.114 0 001.658 4.881 5.733 5.733 0 004.394 1.688 8.992 8.992 0 005.745-2.066v2.823a10.465 10.465 0 01-6.451 1.828 7.7 7.7 0 01-6.2-2.612 10.776 10.776 0 01-2.23-7.225 11.668 11.668 0 011.114-5.122 8.646 8.646 0 013.072-3.589 7.8 7.8 0 014.348-1.274 6.972 6.972 0 015.627 2.39 10.063 10.063 0 012.02 6.691v1.587m-3.043-2.565a6.341 6.341 0 00-1.242-4.07 4.172 4.172 0 00-3.4-1.449 4.747 4.747 0 00-3.533 1.513 7.129 7.129 0 00-1.849 4.006h10.021" fill="#fff"/><path data-name="Path 528" d="M142.265 70.947a3.936 3.936 0 00-5.471 1.282 8.855 8.855 0 00-1.232 4.918v9.633h-2.971v-18.9h2.971v3.894h.072a6.687 6.687 0 011.9-3.091 4.332 4.332 0 012.955-1.135 4.76 4.76 0 011.774.259v3.137" fill="#fff"/><path data-name="Path 529" d="M80.757 119.397l-.572 1.63h-.033a15.61 15.61 0 00-.541-1.612l-3.063-7.821h-2.992v12.435h1.974v-7.645c0-.471-.01-1.042-.029-1.694-.01-.33-.046-.595-.055-.8h.043c.1.469.2.826.281 1.064l3.671 9.071h1.381l3.643-9.153a8.116 8.116 0 00.25-.982h.044a65.179 65.179 0 00-.093 2.233v7.9h2.105v-12.426h-2.873l-3.14 7.8" fill="#fff"/><path data-name="Path 530" d="M88.751 124.031h2.059v-8.91h-2.059v8.91" fill="#fff"/><path data-name="Path 531" d="M89.801 111.333a1.23 1.23 0 00-.876.35 1.169 1.169 0 00-.366.874 1.134 1.134 0 00.363.856 1.238 1.238 0 00.88.341 1.256 1.256 0 00.886-.34 1.129 1.129 0 00.368-.858 1.181 1.181 0 00-.358-.864 1.216 1.216 0 00-.9-.361" fill="#fff"/><path data-name="Path 532" d="M98.098 115.032a5.589 5.589 0 00-1.15-.126 5 5 0 00-2.5.614 4.09 4.09 0 00-1.651 1.728 5.6 5.6 0 00-.566 2.561 4.805 4.805 0 00.551 2.295 3.9 3.9 0 001.54 1.587 4.521 4.521 0 002.25.556 4.852 4.852 0 002.482-.592l.027-.016v-1.92l-.086.064a3.822 3.822 0 01-1.007.534 3.009 3.009 0 01-.986.195 2.511 2.511 0 01-1.927-.765 3.006 3.006 0 01-.711-2.119 3.119 3.119 0 01.741-2.175 2.5 2.5 0 011.929-.812 3.267 3.267 0 011.96.695l.086.064v-2.024l-.027-.017a3.424 3.424 0 00-.953-.327" fill="#fff"/><path data-name="Path 533" d="M104.877 114.966a2.09 2.09 0 00-1.377.5 2.866 2.866 0 00-.792 1.195h-.021v-1.542h-2.058v8.91h2.058v-4.558a3.224 3.224 0 01.513-1.892 1.567 1.567 0 011.331-.717 2.379 2.379 0 01.619.094 1.55 1.55 0 01.48.2l.087.063v-2.113l-.033-.014a2.092 2.092 0 00-.807-.125" fill="#fff"/><path data-name="Path 534" d="M110.468 114.906a4.521 4.521 0 00-3.405 1.28 4.842 4.842 0 00-1.23 3.494 4.593 4.593 0 001.2 3.335 4.317 4.317 0 003.224 1.232 4.4 4.4 0 003.338-1.3 4.841 4.841 0 001.229-3.459 4.718 4.718 0 00-1.154-3.359 4.208 4.208 0 00-3.2-1.224m1.637 6.861a2.069 2.069 0 01-1.729.745 2.192 2.192 0 01-1.773-.759 3.269 3.269 0 01-.637-2.143 3.394 3.394 0 01.637-2.2 2.156 2.156 0 011.756-.772 2.128 2.128 0 011.709.737 3.322 3.322 0 01.624 2.181 3.549 3.549 0 01-.587 2.208" fill="#fff"/><path data-name="Path 535" d="M119.389 118.802a4.432 4.432 0 01-1.235-.654.924.924 0 01-.25-.687.77.77 0 01.317-.634 1.4 1.4 0 01.886-.254 3.572 3.572 0 011.057.165 3.363 3.363 0 01.922.436l.085.059v-1.938l-.033-.014a4.564 4.564 0 00-.936-.266 5.694 5.694 0 00-1.027-.107 3.729 3.729 0 00-2.415.759 2.443 2.443 0 00-.939 1.977 2.819 2.819 0 00.2 1.1 2.222 2.222 0 00.624.83 5.379 5.379 0 001.265.721 9.481 9.481 0 011.054.5 1.484 1.484 0 01.463.388.881.881 0 01.129.5c0 .6-.439.891-1.345.891a3.644 3.644 0 01-1.139-.212 4.3 4.3 0 01-1.166-.6l-.086-.063v2.044l.031.014a5.189 5.189 0 001.105.348 5.858 5.858 0 001.179.138 3.955 3.955 0 002.549-.763 2.488 2.488 0 00.947-2.025 2.349 2.349 0 00-.51-1.53 4.366 4.366 0 00-1.734-1.126" fill="#fff"/><path data-name="Path 536" d="M127.17 114.906a4.523 4.523 0 00-3.406 1.28 4.848 4.848 0 00-1.23 3.494 4.592 4.592 0 001.2 3.335 4.316 4.316 0 003.224 1.232 4.4 4.4 0 003.338-1.3 4.839 4.839 0 001.23-3.459 4.718 4.718 0 00-1.155-3.359 4.207 4.207 0 00-3.2-1.224m1.637 6.861a2.072 2.072 0 01-1.73.745 2.192 2.192 0 01-1.772-.759 3.265 3.265 0 01-.636-2.143 3.389 3.389 0 01.636-2.2 2.157 2.157 0 011.757-.772 2.128 2.128 0 011.709.737 3.326 3.326 0 01.624 2.181 3.554 3.554 0 01-.587 2.208" fill="#fff"/><path data-name="Path 537" d="M142.501 116.829v-1.712h-2.085v-2.659l-.069.023-1.958.611-.039.012v2.014h-3.088v-1.122a1.807 1.807 0 01.341-1.189 1.194 1.194 0 01.956-.4 2.181 2.181 0 01.9.21l.077.035v-1.8l-.035-.014a3.473 3.473 0 00-1.157-.157 3.342 3.342 0 00-1.641.4 2.84 2.84 0 00-1.128 1.135 3.433 3.433 0 00-.4 1.664v1.234h-1.451v1.709h1.451v7.2h2.084v-7.2h3.088v4.576c0 1.885.874 2.84 2.6 2.84a4.153 4.153 0 00.884-.1 2.374 2.374 0 00.644-.208l.028-.015v-1.727l-.085.057a1.419 1.419 0 01-.418.187 1.54 1.54 0 01-.413.071 1.11 1.11 0 01-.887-.328 1.81 1.81 0 01-.282-1.146v-4.206h2.085" fill="#fff"/><path data-name="Path 538" d="M56.756 117.305h-9.682v-9.861h9.682v9.861" fill="#ee5225"/><path data-name="Path 539" d="M67.445 117.303h-9.682v-9.86h9.682v9.86" fill="#80ba42"/><path data-name="Path 540" d="M56.756 128.195h-9.682v-9.861h9.682v9.861" fill="#319ed8"/><path data-name="Path 541" d="M67.445 128.195h-9.682v-9.861h9.682v9.861" fill="#fbb615"/><path data-name="Path 542" d="M10.564 13.084a8.516 8.516 0 01-4.35 1.135 6.29 6.29 0 01-3.248-.839 5.608 5.608 0 01-2.2-2.371 7.59 7.59 0 01-.77-3.461A6.983 6.983 0 011.89 2.519 6.4 6.4 0 016.736.535a8.106 8.106 0 013.562.7v1.716a6.7 6.7 0 00-3.733-1.025A4.707 4.707 0 002.23 4.593a6.218 6.218 0 00-.638 2.833 5.7 5.7 0 001.29 3.944 4.48 4.48 0 003.52 1.444 5.316 5.316 0 002.637-.627v-3.7H6.194v-1.4h4.368v6" fill="#846b2a"/><path data-name="Path 543" d="M22.271 9.227a5.151 5.151 0 01-1.255 3.622 4.34 4.34 0 01-3.366 1.37 4.247 4.247 0 01-3.284-1.333 4.979 4.979 0 01-1.228-3.511 5.246 5.246 0 011.259-3.7 4.5 4.5 0 013.471-1.361 4.1 4.1 0 013.234 1.315 5.227 5.227 0 011.169 3.6m-1.523.056a4.229 4.229 0 00-.774-2.732 2.7 2.7 0 00-2.215-.95 2.828 2.828 0 00-2.265.973 4.094 4.094 0 00-.833 2.745 3.887 3.887 0 00.839 2.652 2.852 2.852 0 002.26.955 2.7 2.7 0 002.219-.942 4.171 4.171 0 00.77-2.7" fill="#846b2a"/><path data-name="Path 544" d="M26.521 13.989h-1.485V.001h1.485v13.988" fill="#846b2a"/><path data-name="Path 545" d="M37.84 13.988h-1.485v-1.605h-.038a3.688 3.688 0 01-5.989.549 5.306 5.306 0 01-1.041-3.437 5.783 5.783 0 011.155-3.765 3.784 3.784 0 013.094-1.421 2.973 2.973 0 012.781 1.532h.038V0h1.485v13.988m-1.485-4.272V8.323a2.657 2.657 0 00-.767-1.947 2.518 2.518 0 00-1.862-.775 2.558 2.558 0 00-2.128 1.01 4.452 4.452 0 00-.789 2.8 4.057 4.057 0 00.743 2.57 2.415 2.415 0 002 .946 2.55 2.55 0 002.012-.9 3.388 3.388 0 00.789-2.306" fill="#846b2a"/></g></svg>