<svg xmlns="http://www.w3.org/2000/svg" width="563.268" height="128.195"><g data-name="Group 412"><path data-name="Path 376" d="M26.523 50.341h-3.044V32.569q0-2.1.253-5.13h-.072a16.722 16.722 0 01-.78 2.565l-8.859 20.337h-1.486l-8.88-20.189a15.407 15.407 0 01-.778-2.713h-.073q.145 1.588.144 5.167V50.34H.014V23.877h4.022l7.972 18.455a23.745 23.745 0 011.178 3.174h.127q.906-2.546 1.25-3.248l8.136-18.381h3.823v26.464" fill="#fff"/><path data-name="Path 377" d="M35.489 24.671a1.883 1.883 0 01-.579 1.411 1.963 1.963 0 01-2.763-2.786 1.831 1.831 0 011.386-.581 1.88 1.88 0 011.395.572 1.907 1.907 0 01.562 1.384m-.507 25.67h-2.969v-18.9h2.972v18.9" fill="#fff"/><path data-name="Path 378" d="M52.574 49.474a9.509 9.509 0 01-5.092 1.329 8.81 8.81 0 01-4.557-1.19 8.141 8.141 0 01-3.143-3.369 10.489 10.489 0 01-1.124-4.89 10.63 10.63 0 012.637-7.53 9.12 9.12 0 017.021-2.841 9.267 9.267 0 014.3.959v3.1a7.524 7.524 0 00-4.422-1.476 5.891 5.891 0 00-4.684 2.094 8 8 0 00-1.8 5.416 7.558 7.558 0 001.712 5.223 5.85 5.85 0 004.594 1.919 7.411 7.411 0 004.567-1.624v2.879" fill="#fff"/><path data-name="Path 379" d="M65.816 34.507a3.663 3.663 0 00-2.265-.609 3.7 3.7 0 00-3.208 1.892 8.871 8.871 0 00-1.232 4.918v9.633h-2.97v-18.9h2.97v3.894h.073a6.686 6.686 0 011.9-3.091 4.334 4.334 0 012.954-1.135 4.763 4.763 0 011.775.259v3.137" fill="#fff"/><path data-name="Path 380" d="M84.495 40.818a10.308 10.308 0 01-2.51 7.243 8.685 8.685 0 01-6.732 2.741 8.495 8.495 0 01-6.569-2.667 9.953 9.953 0 01-2.455-7.022 10.486 10.486 0 012.518-7.409 8.99 8.99 0 016.94-2.722 8.208 8.208 0 016.469 2.629 10.465 10.465 0 012.338 7.206m-3.044.111a8.459 8.459 0 00-1.549-5.464 5.392 5.392 0 00-4.432-1.9 5.65 5.65 0 00-4.53 1.947 8.189 8.189 0 00-1.667 5.49 7.78 7.78 0 001.676 5.306 5.713 5.713 0 004.521 1.91 5.408 5.408 0 004.44-1.882 8.347 8.347 0 001.54-5.407" fill="#fff"/><path data-name="Path 381" d="M98.297 45.285a4.92 4.92 0 01-1.858 3.986 7.509 7.509 0 01-4.937 1.532 9.014 9.014 0 01-4.6-1.145V46.41a7.4 7.4 0 004.82 1.808q3.533 0 3.534-2.639a2.333 2.333 0 00-.689-1.744 13.145 13.145 0 00-3.135-1.818 9.3 9.3 0 01-3.479-2.3 5.333 5.333 0 01.834-7.169 7 7 0 014.693-1.568 8.761 8.761 0 013.968.886v3.045a6.853 6.853 0 00-4.2-1.347 3.6 3.6 0 00-2.365.738 2.351 2.351 0 00-.9 1.9 2.575 2.575 0 00.689 1.929 10.2 10.2 0 002.845 1.6 10.246 10.246 0 013.715 2.4 4.7 4.7 0 011.068 3.156" fill="#fff"/><path data-name="Path 382" d="M118.571 40.818a10.305 10.305 0 01-2.51 7.243 8.685 8.685 0 01-6.732 2.741 8.492 8.492 0 01-6.565-2.67 9.956 9.956 0 01-2.455-7.022 10.483 10.483 0 012.518-7.409 8.991 8.991 0 016.941-2.722 8.208 8.208 0 016.468 2.629 10.465 10.465 0 012.338 7.206m-3.044.111a8.459 8.459 0 00-1.55-5.464 5.39 5.39 0 00-4.431-1.9 5.651 5.651 0 00-4.53 1.947 8.189 8.189 0 00-1.667 5.49 7.775 7.775 0 001.676 5.306 5.711 5.711 0 004.521 1.91 5.41 5.41 0 004.44-1.882 8.347 8.347 0 001.54-5.407" fill="#fff"/><path data-name="Path 383" d="M130.745 25.022a3.9 3.9 0 00-1.975-.5q-3.117 0-3.117 4.005v2.916h4.349v2.565h-4.349V50.34h-2.971V34.009h-3.153v-2.565h3.153v-3.063a6.511 6.511 0 011.667-4.651 5.57 5.57 0 014.24-1.771 5.726 5.726 0 012.157.332v2.732" fill="#fff"/><path data-name="Path 384" d="M141.541 50.156a5.616 5.616 0 01-2.791.609q-4.857 0-4.856-5.574V34.008h-3.189v-2.565h3.189v-4.614l2.971-.977v5.591h4.676v2.565h-4.676v10.666a4.423 4.423 0 00.635 2.7 2.545 2.545 0 002.119.8 3.128 3.128 0 001.922-.609v2.584" fill="#fff"/><path data-name="Path 385" d="M46.469 68.221a7.953 7.953 0 01-2.6 6.192 9.782 9.782 0 01-6.822 2.353h-3.425v10.02h-3.039V60.323h7.139a9.28 9.28 0 016.459 2.076 7.455 7.455 0 012.292 5.823m-3.189.166q0-5.26-6.088-5.26h-3.57v10.85h3.189a7.106 7.106 0 004.8-1.448 5.19 5.19 0 001.667-4.143" fill="#fff"/><path data-name="Path 386" d="M61.977 86.786h-2.972v-2.953h-.073a6.2 6.2 0 01-5.708 3.414 6.083 6.083 0 01-4.293-1.486 5.16 5.16 0 01-1.614-3.994q0-5.278 6.124-6.164l5.564-.793q0-4.8-3.824-4.8a9.08 9.08 0 00-6.051 2.306v-3.1a8.989 8.989 0 012.79-1.209 12.633 12.633 0 013.515-.581q6.541 0 6.542 7.069v12.29m-2.972-9.559l-4.494.646a6.567 6.567 0 00-3.226 1.116 3.156 3.156 0 00-.925 2.538 2.856 2.856 0 001 2.28 3.774 3.774 0 002.555.858 4.715 4.715 0 003.651-1.587 5.681 5.681 0 001.44-3.968v-1.882" fill="#fff"/><path data-name="Path 387" d="M76.324 70.951a3.936 3.936 0 00-5.472 1.282 8.867 8.867 0 00-1.231 4.918v9.634h-2.972v-18.9h2.972v3.894h.071a6.7 6.7 0 011.9-3.092 4.336 4.336 0 012.953-1.135 4.774 4.774 0 011.776.259v3.137" fill="#fff"/><path data-name="Path 388" d="M90.171 86.602a5.612 5.612 0 01-2.79.609q-4.857 0-4.856-5.573V70.454h-3.189v-2.565h3.189v-4.613l2.971-.979v5.592h4.675v2.565h-4.675V81.12a4.425 4.425 0 00.634 2.7 2.545 2.545 0 002.121.8 3.122 3.122 0 001.92-.608v2.583" fill="#fff"/><path data-name="Path 389" d="M109.727 86.786h-2.972V76.01q0-6-4.312-6a4.677 4.677 0 00-3.669 1.689 6.3 6.3 0 00-1.477 4.31v10.776h-2.97v-18.9h2.97v3.137h.073a6.644 6.644 0 016.088-3.6 5.593 5.593 0 014.666 2.03 9.1 9.1 0 011.6 5.758v11.571" fill="#fff"/><path data-name="Path 390" d="M129.168 78.092h-13.1a7.112 7.112 0 001.658 4.881 5.73 5.73 0 004.394 1.689 8.991 8.991 0 005.745-2.066v2.823a10.462 10.462 0 01-6.451 1.828 7.7 7.7 0 01-6.2-2.611 10.778 10.778 0 01-2.23-7.225 11.667 11.667 0 011.121-5.119 8.639 8.639 0 013.072-3.589 7.8 7.8 0 014.348-1.273 6.972 6.972 0 015.627 2.39 10.063 10.063 0 012.02 6.691v1.587m-3.043-2.565a6.342 6.342 0 00-1.242-4.07 4.173 4.173 0 00-3.4-1.448 4.744 4.744 0 00-3.533 1.513 7.129 7.129 0 00-1.849 4.005h10.021" fill="#fff"/><path data-name="Path 391" d="M142.265 70.951a3.934 3.934 0 00-5.471 1.282 8.853 8.853 0 00-1.232 4.918v9.634h-2.971v-18.9h2.971v3.894h.072a6.692 6.692 0 011.9-3.092 4.335 4.335 0 012.955-1.135 4.772 4.772 0 011.774.259v3.137" fill="#fff"/><path data-name="Path 392" d="M80.757 119.4l-.572 1.631h-.033a15.553 15.553 0 00-.541-1.613l-3.063-7.82h-2.992v12.435h1.974v-7.645c0-.472-.01-1.042-.029-1.695-.01-.33-.046-.594-.055-.8h.043c.1.469.2.826.281 1.064l3.671 9.071h1.381l3.643-9.153a8.122 8.122 0 00.25-.982h.044a65.179 65.179 0 00-.093 2.233v7.9h2.105v-12.435h-2.873l-3.14 7.8" fill="#fff"/><path data-name="Path 393" d="M88.751 124.03h2.059v-8.91h-2.059v8.91" fill="#fff"/><path data-name="Path 394" d="M89.801 111.334a1.23 1.23 0 00-.876.35 1.169 1.169 0 00-.366.874 1.134 1.134 0 00.363.856 1.241 1.241 0 00.88.341 1.258 1.258 0 00.886-.34 1.129 1.129 0 00.368-.858 1.185 1.185 0 00-.358-.865 1.218 1.218 0 00-.9-.36" fill="#fff"/><path data-name="Path 395" d="M98.098 115.031a5.6 5.6 0 00-1.15-.125 5 5 0 00-2.5.613 4.1 4.1 0 00-1.651 1.728 5.6 5.6 0 00-.566 2.561 4.8 4.8 0 00.551 2.295 3.912 3.912 0 001.54 1.588 4.527 4.527 0 002.25.556 4.852 4.852 0 002.482-.592l.027-.016v-1.92l-.086.064a3.838 3.838 0 01-1.007.535 3.01 3.01 0 01-.986.195 2.511 2.511 0 01-1.927-.765 3.007 3.007 0 01-.711-2.119 3.121 3.121 0 01.741-2.176 2.5 2.5 0 011.929-.811 3.27 3.27 0 011.96.694l.086.064v-2.024l-.027-.016a3.418 3.418 0 00-.953-.328" fill="#fff"/><path data-name="Path 396" d="M104.877 114.966a2.09 2.09 0 00-1.377.5 2.866 2.866 0 00-.792 1.195h-.021v-1.543h-2.058v8.911h2.058v-4.559a3.223 3.223 0 01.513-1.892 1.566 1.566 0 011.331-.717 2.379 2.379 0 01.619.094 1.538 1.538 0 01.48.2l.087.063v-2.113l-.033-.015a2.108 2.108 0 00-.807-.124" fill="#fff"/><path data-name="Path 397" d="M110.468 114.906a4.521 4.521 0 00-3.405 1.28 4.842 4.842 0 00-1.23 3.493 4.592 4.592 0 001.2 3.335 4.315 4.315 0 003.224 1.232 4.407 4.407 0 003.338-1.3 4.842 4.842 0 001.229-3.459 4.716 4.716 0 00-1.154-3.359 4.206 4.206 0 00-3.2-1.224m1.637 6.861a2.069 2.069 0 01-1.729.745 2.192 2.192 0 01-1.773-.759 3.27 3.27 0 01-.637-2.143 3.394 3.394 0 01.637-2.2 2.156 2.156 0 011.756-.772 2.126 2.126 0 011.709.737 3.321 3.321 0 01.624 2.181 3.551 3.551 0 01-.587 2.208" fill="#fff"/><path data-name="Path 398" d="M119.389 118.802a4.451 4.451 0 01-1.235-.654.923.923 0 01-.25-.687.771.771 0 01.317-.635 1.4 1.4 0 01.886-.254 3.572 3.572 0 011.057.165 3.388 3.388 0 01.922.436l.085.059v-1.938l-.033-.014a4.48 4.48 0 00-.936-.266 5.628 5.628 0 00-1.027-.107 3.729 3.729 0 00-2.415.759 2.442 2.442 0 00-.939 1.977 2.819 2.819 0 00.2 1.1 2.222 2.222 0 00.624.83 5.405 5.405 0 001.265.721 9.459 9.459 0 011.054.5 1.484 1.484 0 01.463.387.886.886 0 01.129.505c0 .6-.439.89-1.345.89a3.64 3.64 0 01-1.139-.211 4.3 4.3 0 01-1.166-.6l-.086-.064v2.044l.031.014a5.189 5.189 0 001.105.348 5.849 5.849 0 001.179.138 3.955 3.955 0 002.549-.763 2.488 2.488 0 00.947-2.025 2.349 2.349 0 00-.51-1.53 4.358 4.358 0 00-1.734-1.126" fill="#fff"/><path data-name="Path 399" d="M127.17 114.906a4.523 4.523 0 00-3.406 1.28 4.848 4.848 0 00-1.23 3.493 4.591 4.591 0 001.2 3.335 4.314 4.314 0 003.224 1.232 4.4 4.4 0 003.338-1.3 4.84 4.84 0 001.23-3.459 4.717 4.717 0 00-1.155-3.359 4.2 4.2 0 00-3.2-1.224m1.637 6.861a2.072 2.072 0 01-1.73.745 2.193 2.193 0 01-1.772-.759 3.266 3.266 0 01-.636-2.143 3.389 3.389 0 01.636-2.2 2.157 2.157 0 011.757-.772 2.125 2.125 0 011.709.737 3.325 3.325 0 01.624 2.181 3.556 3.556 0 01-.587 2.208" fill="#fff"/><path data-name="Path 400" d="M142.501 116.83v-1.709h-2.085v-2.658l-.069.023-1.958.61-.039.012v2.013h-3.088v-1.118a1.81 1.81 0 01.341-1.189 1.194 1.194 0 01.956-.4 2.182 2.182 0 01.9.211l.077.035v-1.8l-.035-.014a3.494 3.494 0 00-1.157-.157 3.344 3.344 0 00-1.641.4 2.837 2.837 0 00-1.128 1.135 3.432 3.432 0 00-.4 1.664v1.233h-1.451v1.709h1.451v7.2h2.084v-7.2h3.088v4.576c0 1.884.874 2.84 2.6 2.84a4.193 4.193 0 00.884-.1 2.4 2.4 0 00.644-.209l.028-.016v-1.726l-.085.057a1.416 1.416 0 01-.418.186 1.525 1.525 0 01-.413.071 1.108 1.108 0 01-.887-.328 1.806 1.806 0 01-.282-1.146v-4.207h2.085" fill="#fff"/><path data-name="Path 401" d="M56.756 117.301h-9.682v-9.861h9.682v9.861" fill="#ee5225"/><path data-name="Path 402" d="M67.445 117.301h-9.682v-9.86h9.682v9.86" fill="#80ba42"/><path data-name="Path 403" d="M56.756 128.195h-9.682v-9.861h9.682v9.861" fill="#319ed8"/><path data-name="Path 404" d="M67.445 128.195h-9.682v-9.861h9.682v9.861" fill="#fbb615"/><path data-name="Path 405" d="M10.564 13.084a8.514 8.514 0 01-4.35 1.135 6.283 6.283 0 01-3.248-.84 5.6 5.6 0 01-2.2-2.371 7.593 7.593 0 01-.77-3.461A6.985 6.985 0 011.89 2.518 6.4 6.4 0 016.736.534a8.116 8.116 0 013.562.7v1.717a6.7 6.7 0 00-3.733-1.025 4.793 4.793 0 00-2.559.7 4.744 4.744 0 00-1.776 1.97 6.217 6.217 0 00-.638 2.832 5.706 5.706 0 001.29 3.945 4.48 4.48 0 003.52 1.444 5.322 5.322 0 002.637-.627v-3.7H6.194v-1.4h4.368v6" fill="#846b2a"/><path data-name="Path 406" d="M22.271 9.227a5.152 5.152 0 01-1.255 3.622 4.34 4.34 0 01-3.366 1.37 4.25 4.25 0 01-3.284-1.333 4.979 4.979 0 01-1.228-3.511 5.246 5.246 0 011.259-3.705 4.5 4.5 0 013.471-1.361 4.105 4.105 0 013.234 1.315 5.229 5.229 0 011.169 3.6m-1.523.056a4.229 4.229 0 00-.774-2.732 2.694 2.694 0 00-2.215-.951 2.829 2.829 0 00-2.265.974 4.092 4.092 0 00-.833 2.745 3.887 3.887 0 00.839 2.652 2.854 2.854 0 002.26.955 2.7 2.7 0 002.219-.941 4.172 4.172 0 00.77-2.7" fill="#846b2a"/><path data-name="Path 407" d="M26.521 13.988h-1.485V0h1.485v13.988" fill="#846b2a"/><path data-name="Path 408" d="M37.84 13.988h-1.485v-1.606h-.038a3.688 3.688 0 01-5.989.549 5.307 5.307 0 01-1.041-3.437 5.782 5.782 0 011.155-3.765 3.784 3.784 0 013.094-1.421 2.973 2.973 0 012.781 1.532h.038V-.001h1.485v13.989m-1.485-4.272V8.323a2.656 2.656 0 00-.767-1.947 2.518 2.518 0 00-1.862-.776 2.557 2.557 0 00-2.128 1.011 4.449 4.449 0 00-.789 2.8 4.054 4.054 0 00.743 2.569 2.415 2.415 0 002 .946 2.55 2.55 0 002.012-.9 3.388 3.388 0 00.789-2.306" fill="#846b2a"/></g><path data-name="Rectangle 5" fill="#fff" d="M171.888 29.033h.684v59.504h-.684z"/><g data-name="Group 413" fill="#fff"><path data-name="Path 409" d="M225.982 54.147h-5.078l-2.032-6.466h-7.143l-1.9 6.466h-4.943l7.651-23.7h5.62zm-10.665-18.621h-.068l-2.4 8.126h4.841z"/><path data-name="Path 410" d="M239.218 52.179a5.679 5.679 0 01-4.841 2.371c-4.266 0-7.516-3.419-7.516-8.16s3.217-8.159 7.482-8.159a5.638 5.638 0 014.943 2.4c0-.508-.068-1.794-.068-2.946V30.44h4.4v23.7h-4.4zm-7.82-5.789a3.972 3.972 0 107.922 0 3.97 3.97 0 10-7.922 0z"/><path data-name="Path 411" d="M254.013 49.407l3.521-10.766h4.638l-5.518 15.505h-5.451l-5.281-15.505h4.774z"/><path data-name="Path 412" d="M272.632 43.821c0-1.118-.88-1.828-2.573-1.828a10.545 10.545 0 00-4.672 1.456l-1.727-3.317a13.268 13.268 0 016.636-1.9c3.521 0 6.737 1.624 6.737 5.721v10.19h-4.4v-1.455a5.227 5.227 0 01-4.333 1.862 5.083 5.083 0 01-5.417-4.876c0-2.945 2.167-4.773 5.62-4.773h3.047c.745 0 1.083-.339 1.083-.914zm0 4.774V47.48a1.917 1.917 0 01-1.354.339h-1.658c-1.389 0-2.2.609-2.2 1.693 0 1.05.846 1.828 2.2 1.828 1.59-.003 3.012-.816 3.012-2.745z"/><path data-name="Path 413" d="M289.629 38.235a5.4 5.4 0 015.755 5.755v10.157h-4.4v-9.039a2.506 2.506 0 00-2.64-2.777 4.3 4.3 0 00-3.285 1.761v10.055h-4.4V38.641h4.3v.609c0 .541-.068 1.219-.068 1.219a6.1 6.1 0 014.738-2.234z"/><path data-name="Path 414" d="M302.424 46.394a3.92 3.92 0 003.893 4.232 3.551 3.551 0 003.419-2.37l4.131 1.286a7.7 7.7 0 01-7.584 5.011 8.16 8.16 0 110-16.318 7.729 7.729 0 017.584 5.044l-4.131 1.252a3.6 3.6 0 00-3.419-2.37 3.921 3.921 0 00-3.893 4.233z"/><path data-name="Path 415" d="M331.673 47.68h-11.541a3.682 3.682 0 006.669 1.523l4.571.474a8.259 8.259 0 11-7.821-11.443c4.267 0 8.125 2.776 8.125 9.276zm-11.646-2.945h6.94a3.363 3.363 0 00-3.419-2.844 3.457 3.457 0 00-3.516 2.844z"/><path data-name="Path 416" d="M345.688 52.179a5.679 5.679 0 01-4.841 2.371c-4.266 0-7.516-3.419-7.516-8.16s3.217-8.159 7.482-8.159a5.639 5.639 0 014.943 2.4c0-.508-.068-1.794-.068-2.946V30.44h4.4v23.7h-4.4zm-7.82-5.789a3.972 3.972 0 107.922 0 3.97 3.97 0 10-7.922 0z"/><path data-name="Path 417" d="M373.416 36.745a7.8 7.8 0 00-5.011-2.437c-1.558 0-2.979.812-2.979 2.234 0 1.084.677 1.93 2.574 2.81l1.964.914c3.757 1.76 6.025 3.724 6.025 7.279s-3.013 7.009-8.227 7.009a11.68 11.68 0 01-8.5-3.556l2.607-3.52a8.714 8.714 0 005.789 2.81c2.032 0 3.285-1.117 3.285-2.572 0-1.625-1.456-2.539-3.724-3.589l-1.659-.778c-3.182-1.49-5.18-3.656-5.18-6.636 0-4.164 3.724-6.669 7.922-6.669a12.433 12.433 0 017.82 3.317z"/><path data-name="Path 418" d="M383.132 60.072h-4.4v-21.43h4.4v.745c0 .745-.068 1.083-.068 1.252a5.576 5.576 0 014.91-2.4c4.266 0 7.516 3.419 7.516 8.159s-3.285 8.16-7.55 8.16a5.577 5.577 0 01-4.808-2.371zm-.1-13.678a3.972 3.972 0 107.922 0 3.97 3.97 0 10-7.922 0z"/><path data-name="Path 419" d="M413.532 47.68h-11.544a3.682 3.682 0 006.669 1.523l4.57.474a8.259 8.259 0 11-7.82-11.443c4.266 0 8.125 2.776 8.125 9.276zm-11.646-2.945h6.941a3.364 3.364 0 00-3.42-2.844 3.458 3.458 0 00-3.521 2.844z"/><path data-name="Path 420" d="M419.558 46.394a3.921 3.921 0 003.894 4.232 3.551 3.551 0 003.419-2.37l4.13 1.286a7.7 7.7 0 01-7.583 5.011 8.16 8.16 0 110-16.318 7.73 7.73 0 017.583 5.044l-4.13 1.252a3.6 3.6 0 00-3.419-2.37 3.921 3.921 0 00-3.894 4.233z"/><path data-name="Path 421" d="M438.922 54.147h-4.4V42.365h-2.167v-3.723h6.568zm-2.4-23.7a2.84 2.84 0 012.843 2.845 2.826 2.826 0 01-5.653 0 2.832 2.832 0 012.806-2.844z"/><path data-name="Path 422" d="M451.313 43.821c0-1.118-.88-1.828-2.573-1.828a10.55 10.55 0 00-4.672 1.456l-1.726-3.317a13.268 13.268 0 016.636-1.9c3.521 0 6.738 1.624 6.738 5.721v10.19h-4.4v-1.455a5.226 5.226 0 01-4.333 1.862 5.083 5.083 0 01-5.417-4.876c0-2.945 2.167-4.773 5.62-4.773h3.047c.745 0 1.083-.339 1.083-.914zm0 4.774V47.48a1.916 1.916 0 01-1.354.339H448.3c-1.388 0-2.2.609-2.2 1.693 0 1.05.846 1.828 2.2 1.828 1.591-.003 3.013-.816 3.013-2.745z"/><path data-name="Path 423" d="M463.703 54.147h-4.367v-23.7h4.367z"/><path data-name="Path 424" d="M472.81 54.147h-4.4V42.365h-2.167v-3.723h6.568zm-2.4-23.7a2.84 2.84 0 012.843 2.845 2.826 2.826 0 01-5.653 0 2.832 2.832 0 012.807-2.844z"/><path data-name="Path 425" d="M489.3 42.263l-7.989 8.193h7.989v3.69h-13.373v-3.622l8.024-8.16h-7.956v-3.723h13.3z"/><path data-name="Path 426" d="M501.043 43.821c0-1.118-.88-1.828-2.573-1.828a10.545 10.545 0 00-4.672 1.456l-1.727-3.317a13.268 13.268 0 016.636-1.9c3.52 0 6.738 1.624 6.738 5.721v10.19h-4.4v-1.455a5.225 5.225 0 01-4.333 1.862 5.083 5.083 0 01-5.414-4.87c0-2.945 2.167-4.773 5.62-4.773h3.047c.745 0 1.083-.339 1.083-.914zm0 4.774V47.48a1.913 1.913 0 01-1.354.339h-1.659c-1.388 0-2.2.609-2.2 1.693 0 1.05.846 1.828 2.2 1.828 1.591-.003 3.013-.816 3.013-2.745z"/><path data-name="Path 427" d="M514.62 32.75v5.892h3.352v3.723h-3.352v7.009c0 .982.778 1.117 1.456 1.117 1.117 0 2.031-.1 2.031-.1v3.758s-2.132.2-3.419.2c-2.2 0-4.469-.372-4.469-3.487v-8.5h-2.439v-3.723h2.438v-5.892z"/><path data-name="Path 428" d="M526.333 54.147h-4.4V42.365h-2.167v-3.723h6.568zm-2.4-23.7a2.84 2.84 0 012.843 2.845 2.826 2.826 0 01-5.653 0 2.832 2.832 0 012.807-2.844z"/><path data-name="Path 429" d="M529.142 46.394a8.3 8.3 0 118.294 8.16 8.068 8.068 0 01-8.294-8.16zm4.4 0a3.891 3.891 0 103.893-4.232 3.939 3.939 0 00-3.892 4.232z"/><path data-name="Path 430" d="M557.513 38.235a5.4 5.4 0 015.755 5.755v10.157h-4.4v-9.039a2.506 2.506 0 00-2.64-2.777 4.294 4.294 0 00-3.285 1.761v10.055h-4.4V38.641h4.3v.609c0 .541-.068 1.219-.068 1.219a6.1 6.1 0 014.738-2.234z"/><path data-name="Path 431" d="M209.06 79.233l-2.382 7.063h-1.3l6.73-19.389h1.579l6.759 19.389h-1.33l-2.437-7.063zm.332-1.109h6.9l-3.351-10h-.167z"/><path data-name="Path 432" d="M224.488 76.044a5.985 5.985 0 014.322-2.1c2.575 0 4.4 1.606 4.4 4.1v8.254h-1.191v-7.783a3.182 3.182 0 00-3.323-3.491 5.672 5.672 0 00-4.211 2.189v9.085h-1.191V74.272h1.191z"/><path data-name="Path 433" d="M244.407 77.79c0-1.995-1.606-2.8-3.323-2.8a5.593 5.593 0 00-3.6 1.33l-.609-.914a6.553 6.553 0 014.237-1.469c2.659 0 4.487 1.44 4.487 3.9v8.448h-1.192v-1.662a4.456 4.456 0 01-3.933 1.994c-2.52 0-4.348-1.385-4.348-3.656 0-2.077 1.551-3.323 3.85-3.323h2.992c1.025 0 1.44-.527 1.44-1.3zm0 4.349v-2.133a1.955 1.955 0 01-1.745.637h-2.631c-1.855 0-2.659 1.052-2.659 2.354 0 1.053.776 2.6 3.213 2.6 1.991.004 3.822-1.215 3.822-3.458z"/><path data-name="Path 434" d="M250.719 86.293h-1.191V66.904h1.191z"/><path data-name="Path 435" d="M258.723 86.293h-.582l-4.542-12.021h1.329l4.127 11.162 4.072-11.162h1.33L259 88.702c-.637 1.69-1.163 2.41-3.157 2.41h-1.274v-1h1.274c1.329 0 1.662-.582 2.188-1.967z"/><path data-name="Path 436" d="M269.11 69.148v5.124h3.019v1h-3.019v8.835c0 .97.8 1.33 1.551 1.33a7.875 7.875 0 001.468-.111v.969a11.808 11.808 0 01-1.689.111c-1.219 0-2.521-.416-2.521-2.6v-8.53h-2.077v-1h2.077v-5.124z"/><path data-name="Path 437" d="M276.229 86.293h-1.191V75.27h-1.939v-1h3.13zm-.693-17.588a1.218 1.218 0 11-1.218 1.218 1.23 1.23 0 011.218-1.222z"/><path data-name="Path 438" d="M279.414 80.282a6.124 6.124 0 016.121-6.343 5.973 5.973 0 015.513 3.546l-1.052.526a4.785 4.785 0 00-4.46-3.02 5.3 5.3 0 000 10.581 4.783 4.783 0 004.46-3.019l1.052.527a5.973 5.973 0 01-5.513 3.545 6.107 6.107 0 01-6.121-6.343z"/><path data-name="Path 439" d="M299.967 83.219c0-1.33-.914-2.022-2.8-2.66l-1.163-.387c-1.911-.638-2.659-1.773-2.659-3.047 0-1.884 1.635-3.185 3.878-3.185a6.041 6.041 0 013.684 1.274l-.582.886a5.181 5.181 0 00-3.074-1.135c-1.551 0-2.715.831-2.715 2.049 0 .8.416 1.579 1.8 2.078l1.689.609c2.216.8 3.13 1.8 3.13 3.518 0 1.522-1.3 3.406-4.293 3.406a6.648 6.648 0 01-3.988-1.357l.581-.886a6.173 6.173 0 003.435 1.219c1.858 0 3.077-1.081 3.077-2.382z"/><path data-name="Path 440" d="M321.128 80.282a6.1 6.1 0 11-6.093-6.343 6.1 6.1 0 016.093 6.343zm-1.191 0c0-2.964-1.994-5.291-4.9-5.291s-4.9 2.327-4.9 5.291 1.994 5.29 4.9 5.29 4.9-2.325 4.9-5.29z"/><path data-name="Path 441" d="M325.505 76.044a5.985 5.985 0 014.321-2.1c2.576 0 4.4 1.606 4.4 4.1v8.254h-1.191v-7.783a3.182 3.182 0 00-3.323-3.491 5.669 5.669 0 00-4.21 2.189v9.085h-1.192V74.272h1.192z"/><path data-name="Path 442" d="M360.127 66.904h1.606v19.389h-1.218V68.705l-6.759 13.4h-1.551l-6.758-13.4v17.588h-1.164V66.904h1.634l7.091 14.07z"/><path data-name="Path 443" d="M367.944 86.293h-1.2V75.27h-1.939v-1h3.131zm-.7-17.592a1.218 1.218 0 11-1.218 1.218 1.229 1.229 0 011.218-1.218z"/><path data-name="Path 444" d="M371.125 80.282a6.124 6.124 0 016.121-6.343 5.974 5.974 0 015.513 3.546l-1.053.526a4.786 4.786 0 00-4.46-3.02 5.3 5.3 0 000 10.581 4.784 4.784 0 004.46-3.019l1.053.527a5.974 5.974 0 01-5.513 3.545 6.108 6.108 0 01-6.121-6.343z"/><path data-name="Path 445" d="M390.679 75.352h-.72c-1.995 0-3.019 1.219-3.019 4.432v6.509h-1.164V74.272h1.108v2.188a3.011 3.011 0 013.185-2.3 4.637 4.637 0 01.609.028z"/><path data-name="Path 446" d="M399.32 83.219c0-1.33-.914-2.022-2.8-2.66l-1.164-.387c-1.91-.638-2.658-1.773-2.658-3.047 0-1.884 1.634-3.185 3.878-3.185a6.036 6.036 0 013.683 1.274l-.581.886a5.181 5.181 0 00-3.074-1.135c-1.551 0-2.715.831-2.715 2.049 0 .8.415 1.579 1.8 2.078l1.689.609c2.216.8 3.13 1.8 3.13 3.518 0 1.522-1.3 3.406-4.294 3.406a6.648 6.648 0 01-3.988-1.357l.582-.886a6.17 6.17 0 003.434 1.219c1.859 0 3.078-1.081 3.078-2.382z"/><path data-name="Path 447" d="M414.941 80.282a6.1 6.1 0 11-6.093-6.343 6.1 6.1 0 016.093 6.343zm-1.19 0c0-2.964-1.995-5.291-4.9-5.291s-4.9 2.327-4.9 5.291 1.994 5.29 4.9 5.29 4.9-2.325 4.9-5.29z"/><path data-name="Path 448" d="M418.764 69.591c0-2.216 1.3-2.853 2.548-2.853a9.071 9.071 0 011.385.111v1.025a11.124 11.124 0 00-1.164-.139c-1.136 0-1.58.665-1.58 1.884v4.654h2.411v1h-2.411v11.023h-1.19V75.269h-2.077v-1h2.077z"/><path data-name="Path 449" d="M426.964 69.148v5.124h3.019v1h-3.019v8.835c0 .97.8 1.33 1.551 1.33a7.888 7.888 0 001.468-.111v.969a11.829 11.829 0 01-1.69.111c-1.218 0-2.521-.416-2.521-2.6v-8.53h-2.077v-1h2.077v-5.124z"/><path data-name="Path 450" d="M439.871 79.233l-2.382 7.063h-1.3l6.73-19.389h1.579l6.759 19.389h-1.33l-2.437-7.063zm.332-1.109h6.9l-3.352-10h-.166z"/><path data-name="Path 451" d="M461.973 75.352l-7.368 9.888h7.423v1.052h-8.891V85.24l7.4-9.888h-7.4v-1.08h8.835z"/><path data-name="Path 452" d="M464.91 82.055v-7.783h1.191v7.7c0 2.3 1.579 3.573 3.794 3.573a3.4 3.4 0 003.74-3.573v-7.7h1.19v7.783c0 2.521-1.607 4.57-4.931 4.57-3.35.003-4.984-2.049-4.984-4.57z"/><path data-name="Path 453" d="M483.633 75.352h-.72c-1.995 0-3.019 1.219-3.019 4.432v6.509h-1.164V74.272h1.108v2.188a3.01 3.01 0 013.185-2.3 4.626 4.626 0 01.609.028z"/><path data-name="Path 454" d="M486.265 80.643a4.917 4.917 0 004.9 4.93 4.665 4.665 0 004.292-2.658h1.3a5.952 5.952 0 01-5.595 3.711 6.348 6.348 0 010-12.685c3.157 0 6.038 2.327 6.038 6.619v.083zm.028-1h9.722a4.865 4.865 0 00-9.722 0z"/></g></svg>