<svg xmlns="http://www.w3.org/2000/svg" width="519.724" height="180.4"><path fill="#FFF" d="M24.282 64.982h-2.788V48.703c0-1.284.077-2.851.231-4.699h-.065c-.266 1.094-.504 1.877-.714 2.35l-8.115 18.629h-1.362L3.336 46.489c-.222-.496-.46-1.324-.713-2.485h-.067c.089.971.132 2.548.132 4.733v16.245H0v-24.24h3.685l7.303 16.904c.553 1.285.912 2.254 1.079 2.906h.117c.552-1.555.933-2.545 1.145-2.975l7.452-16.836h3.502v24.241m8.211-23.513c0 .519-.176.949-.53 1.293s-.774.516-1.261.516c-.498 0-.92-.167-1.263-.498-.343-.333-.514-.77-.514-1.311 0-.484.168-.904.507-1.259.336-.355.76-.532 1.27-.532.508 0 .935.174 1.277.523.342.35.514.773.514 1.268m-.464 23.513h-2.722v-17.31h2.722v17.31m16.114-.794c-1.316.813-2.871 1.218-4.663 1.218-1.55 0-2.941-.363-4.175-1.091s-2.194-1.755-2.88-3.085c-.688-1.329-1.029-2.822-1.029-4.479 0-2.862.806-5.16 2.416-6.896 1.608-1.735 3.752-2.604 6.432-2.604 1.482 0 2.793.293 3.934.879v2.84c-1.273-.901-2.623-1.352-4.051-1.352-1.759 0-3.188.64-4.29 1.918-1.101 1.279-1.651 2.933-1.651 4.962 0 2.017.522 3.612 1.568 4.783 1.046 1.172 2.448 1.758 4.207 1.758 1.483 0 2.878-.495 4.183-1.487v2.636m12.128-13.709c-.487-.372-1.178-.559-2.074-.559-1.206 0-2.186.579-2.938 1.733-.753 1.155-1.128 2.657-1.128 4.506v8.823h-2.722v-17.31h2.722v3.566h.066c.375-1.194.957-2.139 1.742-2.831.786-.693 1.688-1.04 2.707-1.04.706 0 1.249.079 1.625.237v2.875m17.11 5.781c0 2.75-.766 4.961-2.298 6.635-1.533 1.674-3.589 2.511-6.167 2.511-2.512 0-4.517-.814-6.017-2.443-1.5-1.627-2.249-3.771-2.249-6.432 0-2.862.77-5.125 2.308-6.787s3.657-2.493 6.356-2.493c2.523 0 4.498.803 5.926 2.408 1.427 1.607 2.141 3.806 2.141 6.601m-2.787.101c0-2.174-.474-3.843-1.42-5.004-.945-1.16-2.299-1.74-4.059-1.74-1.749 0-3.131.594-4.148 1.782-1.019 1.189-1.527 2.865-1.527 5.029 0 2.074.512 3.694 1.535 4.86s2.404 1.749 4.141 1.749c1.771 0 3.126-.575 4.066-1.725s1.412-2.798 1.412-4.951m15.431 3.99c0 1.499-.566 2.716-1.701 3.651s-2.641 1.403-4.522 1.403c-1.605 0-3.01-.35-4.217-1.049v-2.975c1.339 1.104 2.811 1.656 4.415 1.656 2.158 0 3.238-.806 3.238-2.417 0-.654-.212-1.186-.631-1.598-.422-.411-1.378-.966-2.873-1.664-1.504-.654-2.566-1.355-3.187-2.105-.619-.749-.93-1.743-.93-2.984 0-1.43.565-2.625 1.693-3.583 1.128-.957 2.563-1.437 4.299-1.437 1.339 0 2.55.271 3.636.812v2.789c-1.107-.822-2.391-1.233-3.852-1.233-.896 0-1.618.226-2.166.676s-.821 1.03-.821 1.74c0 .768.21 1.355.631 1.768.42.411 1.289.898 2.605 1.462 1.616.699 2.749 1.432 3.402 2.197.655.767.981 1.73.981 2.891m18.57-4.091c0 2.75-.765 4.961-2.298 6.635s-3.588 2.511-6.167 2.511c-2.513 0-4.517-.814-6.017-2.443-1.499-1.627-2.248-3.771-2.248-6.432 0-2.862.769-5.125 2.307-6.787 1.537-1.662 3.656-2.493 6.357-2.493 2.522 0 4.498.803 5.925 2.408 1.427 1.607 2.141 3.806 2.141 6.601m-2.787.101c0-2.174-.474-3.843-1.42-5.004-.946-1.16-2.298-1.74-4.059-1.74-1.748 0-3.131.594-4.149 1.782-1.018 1.189-1.527 2.865-1.527 5.029 0 2.074.513 3.694 1.535 4.86 1.023 1.166 2.404 1.749 4.142 1.749 1.771 0 3.126-.575 4.067-1.725.939-1.148 1.411-2.798 1.411-4.951m13.938-14.571c-.531-.305-1.135-.456-1.809-.456-1.904 0-2.855 1.223-2.855 3.668v2.671h3.984v2.349h-3.984v14.961h-2.723V50.021h-2.887v-2.349h2.887v-2.807c0-1.758.51-3.177 1.527-4.26 1.018-1.082 2.313-1.622 3.884-1.622.831 0 1.488.102 1.976.304v2.503m9.89 23.023c-.655.372-1.505.559-2.557.559-2.966 0-4.448-1.702-4.448-5.106V50.021h-2.921v-2.349h2.921v-4.227l2.721-.896v5.122h4.284v2.349h-4.284v9.771c0 1.16.194 1.986.582 2.476.388.49 1.035.736 1.941.736.676 0 1.262-.187 1.761-.558v2.368M42.553 81.36c0 2.344-.794 4.234-2.382 5.671s-3.671 2.156-6.249 2.156h-3.137v9.178h-2.789V74.126h6.54c2.545 0 4.518.632 5.917 1.901 1.401 1.267 2.1 3.045 2.1 5.333m-2.922.153c0-3.212-1.858-4.818-5.576-4.818h-3.27v9.939h2.921c1.914 0 3.38-.442 4.398-1.327 1.019-.884 1.527-2.15 1.527-3.794m17.126 16.852h-2.722V95.66h-.066c-1.184 2.086-2.928 3.128-5.229 3.128-1.637 0-2.949-.454-3.934-1.36s-1.478-2.127-1.478-3.66c0-3.223 1.87-5.104 5.61-5.646l5.096-.728c0-2.93-1.168-4.395-3.502-4.395-2.047 0-3.895.704-5.543 2.112v-2.839c.496-.383 1.349-.752 2.555-1.107s2.279-.533 3.22-.533c3.995 0 5.992 2.158 5.992 6.475v11.258m-2.721-8.756l-4.116.592c-1.406.203-2.39.544-2.954 1.021-.564.48-.848 1.254-.848 2.324 0 .869.305 1.565.914 2.089.607.523 1.388.785 2.34.785 1.35 0 2.465-.483 3.345-1.454.88-.968 1.319-2.18 1.319-3.633v-1.724m15.864-5.747c-.486-.372-1.177-.558-2.075-.558-1.205 0-2.186.576-2.938 1.731-.753 1.155-1.128 2.657-1.128 4.505v8.824h-2.723v-17.31h2.723v3.567h.065c.377-1.195.957-2.139 1.744-2.832.785-.693 1.687-1.04 2.705-1.04.708 0 1.251.08 1.626.237v2.876m12.686 14.335c-.653.371-1.506.558-2.556.558-2.966 0-4.448-1.701-4.448-5.105V83.406h-2.922v-2.351h2.922V76.83l2.722-.896v5.122h4.282v2.351h-4.282v9.77c0 1.161.192 1.986.581 2.477.387.49 1.034.735 1.942.735.674 0 1.261-.186 1.759-.558v2.366m17.914.168h-2.723v-9.871c0-3.662-1.317-5.494-3.95-5.494-1.34 0-2.46.515-3.361 1.547-.902 1.031-1.354 2.347-1.354 3.947v9.871h-2.72v-17.31h2.721v2.874h.066c1.273-2.198 3.132-3.297 5.579-3.297 1.869 0 3.293.62 4.272 1.859.979 1.24 1.47 2.999 1.47 5.275v10.599m17.806-7.961h-12.001c.045 1.949.551 3.439 1.52 4.471s2.311 1.546 4.025 1.546c1.926 0 3.679-.63 5.262-1.893v2.586c-1.482 1.116-3.453 1.674-5.909 1.674-2.423 0-4.315-.796-5.676-2.392-1.362-1.595-2.042-3.801-2.042-6.618 0-1.714.34-3.276 1.021-4.691.681-1.414 1.618-2.509 2.813-3.287s2.523-1.167 3.983-1.167c2.202 0 3.919.73 5.153 2.188 1.234 1.46 1.851 3.503 1.851 6.129v1.454m-2.788-2.349c-.023-1.601-.402-2.843-1.137-3.729-.737-.884-1.773-1.326-3.112-1.326-1.262 0-2.341.463-3.236 1.386-.896.925-1.461 2.147-1.694 3.669h9.179m14.784-4.193c-.486-.372-1.177-.558-2.074-.558-1.205 0-2.185.576-2.937 1.731-.754 1.155-1.13 2.657-1.13 4.505v8.824h-2.721v-17.31h2.721v3.567h.067c.375-1.195.957-2.139 1.742-2.832s1.688-1.04 2.707-1.04c.707 0 1.248.08 1.624.237v2.876m-56.34 44.378l-.523 1.492h-.03c-.093-.35-.251-.846-.495-1.477l-2.806-7.163h-2.741v11.39h1.808v-7.002c0-.433-.009-.955-.026-1.553-.009-.303-.042-.544-.05-.729h.038c.093.429.188.756.258.974l3.362 8.31h1.265l3.337-8.385c.076-.19.155-.563.229-.898h.039c-.043.829-.08 1.587-.084 2.045v7.238h1.928v-11.39h-2.632l-2.877 7.148m7.324 4.241h1.885v-8.162h-1.885v8.162m.961-11.63c-.309 0-.58.108-.802.321a1.066 1.066 0 00-.337.801c0 .312.111.576.332.784s.492.313.807.313c.315 0 .59-.105.812-.312.224-.21.337-.475.337-.786 0-.307-.11-.573-.328-.792a1.119 1.119 0 00-.821-.329m7.598 3.387a5.146 5.146 0 00-1.053-.115c-.865 0-1.637.188-2.293.562a3.757 3.757 0 00-1.513 1.583c-.344.676-.519 1.466-.519 2.346 0 .771.171 1.479.504 2.102.336.626.811 1.115 1.411 1.454s1.294.51 2.062.51c.896 0 1.661-.183 2.273-.542l.025-.015v-1.759l-.079.059a3.497 3.497 0 01-.922.489 2.765 2.765 0 01-.903.179c-.74 0-1.334-.236-1.766-.701s-.65-1.118-.65-1.94c0-.828.228-1.499.679-1.993.448-.493 1.044-.743 1.767-.743.621 0 1.225.214 1.796.636l.079.059v-1.853l-.025-.016c-.215-.124-.508-.225-.873-.302m6.213-.06a1.91 1.91 0 00-1.262.461c-.318.268-.549.636-.726 1.094h-.019v-1.413h-1.886v8.162h1.886v-4.175c0-.711.158-1.293.47-1.733.308-.436.718-.656 1.218-.656.171 0 .361.028.567.085.205.056.353.117.44.182l.079.058v-1.937l-.03-.014c-.175-.075-.423-.114-.737-.114m5.12-.055c-1.322 0-2.372.395-3.12 1.172-.749.777-1.127 1.854-1.127 3.2 0 1.278.37 2.306 1.1 3.055.731.749 1.725 1.129 2.954 1.129 1.281 0 2.31-.4 3.059-1.188.747-.789 1.126-1.854 1.126-3.169 0-1.299-.355-2.334-1.058-3.078s-1.69-1.121-2.934-1.121m1.499 6.285c-.355.453-.887.682-1.585.682-.692 0-1.239-.234-1.623-.695-.387-.463-.584-1.123-.584-1.963 0-.864.197-1.542.584-2.013.386-.47.926-.707 1.608-.707.662 0 1.188.228 1.565.676.38.449.571 1.122.571 1.997.001.886-.18 1.567-.536 2.023m6.674-2.716c-.595-.243-.976-.445-1.132-.6-.151-.149-.229-.361-.229-.629 0-.237.097-.428.291-.581.195-.155.469-.233.811-.233.32 0 .645.051.969.151.322.1.606.234.844.399l.079.054v-1.775l-.03-.014a4.146 4.146 0 00-.857-.243 5.243 5.243 0 00-.941-.099c-.898 0-1.643.234-2.211.695a2.24 2.24 0 00-.86 1.811c0 .385.063.724.185 1.012.125.29.316.546.572.76.251.213.643.435 1.159.661.435.183.759.337.965.458.2.119.343.238.424.355.078.113.118.269.118.462 0 .55-.402.815-1.231.815-.31 0-.66-.064-1.044-.193a3.899 3.899 0 01-1.068-.553l-.079-.059v1.873l.028.013c.271.127.611.233 1.013.319.4.083.765.126 1.079.126.978 0 1.763-.235 2.336-.699.576-.468.867-1.091.867-1.855 0-.549-.156-1.021-.467-1.401-.311-.376-.846-.724-1.591-1.03m7.125-3.569c-1.322 0-2.371.395-3.12 1.172-.747.777-1.127 1.854-1.127 3.2 0 1.278.371 2.306 1.101 3.055.73.749 1.725 1.129 2.953 1.129 1.282 0 2.309-.4 3.059-1.188.748-.789 1.126-1.854 1.126-3.169 0-1.299-.355-2.334-1.058-3.078-.702-.744-1.689-1.121-2.934-1.121m1.5 6.285c-.355.453-.889.682-1.585.682-.693 0-1.238-.234-1.624-.695-.387-.463-.582-1.123-.582-1.963 0-.864.195-1.542.582-2.013.386-.47.927-.707 1.609-.707.661 0 1.188.228 1.565.676.379.449.571 1.122.571 1.997.001.886-.181 1.567-.536 2.023m12.544-4.522v-1.566h-1.91v-2.435l-.063.021-1.794.56-.036.011v1.844h-2.827v-1.026c0-.479.105-.845.313-1.09.206-.241.5-.363.875-.363.27 0 .548.064.828.191l.07.032v-1.648l-.032-.013c-.262-.096-.619-.144-1.061-.144a3.06 3.06 0 00-1.503.367 2.6 2.6 0 00-1.034 1.04c-.243.443-.364.956-.364 1.523v1.13h-1.329v1.566h1.329v6.597h1.908v-6.597h2.827v4.19c0 1.727.802 2.603 2.378 2.603.26 0 .532-.031.811-.092.284-.063.477-.124.59-.19l.025-.015v-1.581l-.077.052a1.31 1.31 0 01-.384.172 1.446 1.446 0 01-.379.063c-.368 0-.642-.101-.812-.3-.171-.202-.259-.556-.259-1.05v-3.853h1.91"/><path fill="#EE5225" d="M51.975 126.32h-8.87v-9.032h8.87v9.032"/><path fill="#80BA42" d="M61.766 126.318h-8.869v-9.031h8.869v9.031"/><path fill="#319ED8" d="M51.975 136.296h-8.87v-9.032h8.87v9.032"/><path fill="#FBB615" d="M61.766 136.296h-8.869v-9.032h8.869v9.032"/><path fill="#FFF" d="M157.475 45.54h1v54.25h-1zm35.179-25.565l-2.518 7.815h-2.682l7.815-22.89h3.172l7.881 22.89h-2.846l-2.615-7.815h-8.207zm4.154-12.492h-.033l-3.368 10.235h6.736l-3.335-10.235zm23.801 8.11V4.9h2.584v22.89h-2.584v-2.387c-.784 1.536-2.942 2.779-5.231 2.779-4.284 0-7.488-3.237-7.488-7.718 0-4.479 3.106-7.717 7.39-7.717 2.288.001 4.545 1.276 5.329 2.846zm-4.969 10.333c3.008 0 5.101-2.354 5.101-5.461 0-3.106-2.093-5.46-5.101-5.46-3.009 0-5.102 2.354-5.102 5.46 0 3.107 2.093 5.461 5.102 5.461zm17.589-.36l4.382-12.426h2.779l-5.591 14.649h-3.271l-5.362-14.649h2.942l4.121 12.426zm18.178-7.651c0-1.93-1.438-2.845-3.466-2.845-1.733 0-3.009.752-4.088 1.602l-1.373-1.929c1.177-1.047 3.139-1.995 5.656-1.995 3.729 0 5.854 2.126 5.854 5.199v9.843h-2.583v-1.668c-.851 1.472-2.845 2.061-4.382 2.061-3.237 0-5.297-1.93-5.297-4.676 0-2.846 1.962-4.382 5.166-4.382h3.434c.817 0 1.079-.426 1.079-1.047v-.163zm0 4.48v-1.569c-.294.327-.916.425-1.635.425h-2.289c-2.027 0-3.041.817-3.041 2.289 0 1.242.948 2.452 2.976 2.452 2.06-.001 3.989-1.014 3.989-3.597zm19.813 5.395h-2.583v-9.417c0-1.995-1.145-3.401-3.27-3.401-1.472 0-3.074.817-4.578 2.551V27.79h-2.584V13.141h2.519v1.995c1.308-1.537 3.041-2.388 5.101-2.388 3.467 0 5.396 2.191 5.396 5.461v9.581zm10.919-1.864c1.831 0 3.335-.817 4.218-2.224l2.126 1.341c-1.275 1.896-3.761 3.14-6.344 3.14-4.284 0-7.718-3.237-7.718-7.718 0-4.479 3.434-7.717 7.718-7.717 2.583 0 5.068 1.243 6.344 3.14l-2.126 1.341c-.883-1.406-2.387-2.224-4.218-2.224-3.009 0-5.068 2.354-5.068 5.46-.001 3.107 2.059 5.461 5.068 5.461zm11.049-4.676c.327 2.648 2.027 4.644 4.741 4.644 1.603 0 3.041-.621 3.892-1.831h3.074c-1.309 2.551-3.99 4.12-6.998 4.12-4.284 0-7.423-3.237-7.423-7.718 0-4.479 3.106-7.717 7.39-7.717 3.794 0 7.357 2.453 7.357 8.404v.098h-12.033zm.066-2.125h8.96c-.131-2.093-1.831-4.088-4.35-4.088-2.55 0-4.152 1.7-4.61 4.088zm26.941-3.532V4.9h2.584v22.89h-2.584v-2.387c-.784 1.536-2.942 2.779-5.231 2.779-4.284 0-7.488-3.237-7.488-7.718 0-4.479 3.106-7.717 7.39-7.717 2.288.001 4.545 1.276 5.329 2.846zm-4.969 10.333c3.008 0 5.101-2.354 5.101-5.461 0-3.106-2.093-5.46-5.101-5.46-3.009 0-5.102 2.354-5.102 5.46 0 3.107 2.093 5.461 5.102 5.461zM345.238 8.89c-1.209-1.145-3.27-2.125-5.003-2.125-2.158 0-4.283 1.242-4.283 3.498 0 1.472.915 2.649 3.27 3.826l2.191 1.112c3.728 1.896 5.428 3.858 5.428 6.67 0 3.106-2.485 6.312-7.227 6.312-3.335 0-5.559-1.341-7.227-2.878l1.504-1.896c1.636 1.7 3.63 2.518 5.788 2.518 2.747 0 4.513-1.798 4.513-3.891 0-1.995-1.569-3.336-4.382-4.709l-1.864-.916c-3.041-1.504-4.643-3.433-4.643-6.082 0-3.662 3.237-5.82 6.899-5.82 2.518 0 4.904 1.145 6.475 2.42l-1.439 1.961zm7.421 16.546v8.109h-2.584V13.141h2.584v2.452c.784-1.569 3.041-2.845 5.33-2.845 4.283 0 7.39 3.237 7.39 7.717 0 4.48-3.204 7.718-7.488 7.718-2.289 0-4.448-1.21-5.232-2.747zm4.97-10.431c-3.008 0-5.101 2.354-5.101 5.46 0 3.107 2.093 5.461 5.101 5.461 3.009 0 5.102-2.354 5.102-5.461-.001-3.107-2.093-5.46-5.102-5.46zm12.881 6.245c.327 2.648 2.027 4.644 4.741 4.644 1.603 0 3.041-.621 3.892-1.831h3.074c-1.309 2.551-3.99 4.12-6.998 4.12-4.284 0-7.423-3.237-7.423-7.718 0-4.479 3.106-7.717 7.39-7.717 3.794 0 7.357 2.453 7.357 8.404v.098H370.51zm.065-2.125h8.96c-.131-2.093-1.831-4.088-4.35-4.088-2.549 0-4.152 1.7-4.61 4.088zm21.905 6.801c1.831 0 3.335-.817 4.218-2.224l2.126 1.341c-1.275 1.896-3.761 3.14-6.344 3.14-4.284 0-7.718-3.237-7.718-7.718 0-4.479 3.434-7.717 7.718-7.717 2.583 0 5.068 1.243 6.344 3.14l-2.126 1.341c-.883-1.406-2.387-2.224-4.218-2.224-3.009 0-5.068 2.354-5.068 5.46 0 3.107 2.06 5.461 5.068 5.461zm10.233-10.66h-2.322v-2.125h4.905V27.79h-2.583V15.266zm-.916-7.422c0-1.112.883-2.027 1.995-2.027 1.111 0 2.027.915 2.027 2.027 0 1.111-.916 1.994-2.027 1.994a1.982 1.982 0 01-1.995-1.994zm16.414 10.071c0-1.93-1.438-2.845-3.466-2.845-1.733 0-3.009.752-4.088 1.602l-1.373-1.929c1.177-1.047 3.139-1.995 5.656-1.995 3.729 0 5.854 2.126 5.854 5.199v9.843h-2.583v-1.668c-.851 1.472-2.845 2.061-4.382 2.061-3.237 0-5.298-1.93-5.298-4.676 0-2.846 1.963-4.382 5.167-4.382h3.434c.817 0 1.079-.426 1.079-1.047v-.163zm0 4.48v-1.569c-.294.327-.916.425-1.635.425h-2.289c-2.027 0-3.041.817-3.041 2.289 0 1.242.948 2.452 2.976 2.452 2.059-.001 3.989-1.014 3.989-3.597zm9.383 5.395h-2.584V4.9h2.584v22.89zm5.067-12.524h-2.322v-2.125h4.905V27.79h-2.583V15.266zm-.916-7.422c0-1.112.883-2.027 1.995-2.027 1.111 0 2.027.915 2.027 2.027 0 1.111-.916 1.994-2.027 1.994a1.982 1.982 0 01-1.995-1.994zm18.637 7.422l-8.731 10.399h8.731v2.125h-11.674v-2.125l8.796-10.399h-8.796v-2.125h11.674v2.125zm11.999 2.649c0-1.93-1.438-2.845-3.466-2.845-1.733 0-3.009.752-4.088 1.602l-1.373-1.929c1.177-1.047 3.139-1.995 5.656-1.995 3.729 0 5.854 2.126 5.854 5.199v9.843h-2.583v-1.668c-.851 1.472-2.845 2.061-4.382 2.061-3.237 0-5.298-1.93-5.298-4.676 0-2.846 1.963-4.382 5.167-4.382h3.434c.817 0 1.079-.426 1.079-1.047v-.163zm0 4.48v-1.569c-.294.327-.916.425-1.635.425h-2.289c-2.027 0-3.041.817-3.041 2.289 0 1.242.948 2.452 2.976 2.452 2.059-.001 3.989-1.014 3.989-3.597zm10.166-15.37v6.115h3.598v2.125h-3.598v9.124c0 1.111.654 1.308 1.505 1.308a20.24 20.24 0 002.093-.098v2.19s-1.275.131-2.485.131c-1.569 0-3.695-.327-3.695-3.074v-9.581h-2.485V13.14h2.485V7.025h2.582zm7.324 8.241h-2.322v-2.125h4.905V27.79h-2.583V15.266zm-.916-7.422c0-1.112.883-2.027 1.995-2.027 1.111 0 2.027.915 2.027 2.027 0 1.111-.916 1.994-2.027 1.994a1.982 1.982 0 01-1.995-1.994zm14.615 4.904c4.284 0 7.75 3.237 7.75 7.717 0 4.48-3.466 7.718-7.75 7.718-4.283 0-7.75-3.237-7.75-7.718 0-4.48 3.467-7.717 7.75-7.717zm0 2.257c-3.008 0-5.101 2.354-5.101 5.46 0 3.107 2.093 5.461 5.101 5.461 3.009 0 5.102-2.354 5.102-5.461s-2.093-5.46-5.102-5.46zm24.129 12.785h-2.583v-9.417c0-1.995-1.145-3.401-3.27-3.401-1.472 0-3.074.817-4.578 2.551V27.79h-2.584V13.141h2.519v1.995c1.308-1.537 3.041-2.388 5.101-2.388 3.467 0 5.396 2.191 5.396 5.461v9.581zM191.201 51.368l-2.132 6.422h-1.664l6.267-18.2h2.002l6.292 18.2h-1.742l-2.185-6.422h-6.838zm.443-1.404h5.928l-2.912-8.788h-.078l-2.938 8.788zm20.514.286c0-1.847-1.196-2.834-2.835-2.834-1.378 0-2.729.754-3.821 2.027v8.347h-1.587V46.323h1.561v1.639c1.04-1.248 2.444-1.95 4.108-1.95 2.678 0 4.16 1.638 4.16 4.16v7.618h-1.586v-7.54zm11.336-.391c0-1.742-1.353-2.443-2.887-2.443-1.43 0-2.574.598-3.536 1.248l-.754-1.196c.78-.599 2.392-1.456 4.395-1.456 2.729 0 4.368 1.534 4.368 3.9v7.878h-1.586v-1.43c-.65 1.144-2.211 1.741-3.589 1.741-2.496 0-4.16-1.455-4.16-3.51 0-2.105 1.509-3.354 3.874-3.354h2.757c.806 0 1.118-.416 1.118-1.041v-.337zm0 3.849v-1.586c-.286.338-.885.441-1.482.441h-2.132c-1.69 0-2.471.832-2.471 2.028 0 .988.754 2.158 2.679 2.158 1.742.001 3.406-.961 3.406-3.041zm6.135 4.082h-1.586v-18.2h1.586v18.2zm6.812 0h-.572l-4.264-11.467h1.768l3.588 10.192 3.692-10.192h1.69l-5.123 13.495c-.623 1.638-1.325 2.521-3.275 2.521h-1.326v-1.326h1.3c1.145 0 1.534-.598 1.977-1.768l.545-1.455zm10.062-16.303v4.836h2.834v1.326h-2.834v7.774c0 1.066.754 1.118 1.638 1.118.729 0 1.196-.078 1.196-.078v1.326s-.832.104-1.768.104c-1.196 0-2.652-.313-2.652-2.444v-7.801h-1.976v-1.326h1.976v-4.836h1.586zm6.655 16.303h-1.586V47.649h-1.819v-1.326h3.405V57.79zm-.909-17.005c.754 0 1.378.624 1.378 1.378 0 .755-.624 1.378-1.378 1.378a1.386 1.386 0 01-1.378-1.378c0-.754.623-1.378 1.378-1.378zm9.1 15.939c1.716 0 3.068-.909 3.771-2.313l1.352.779c-.962 1.769-2.938 2.912-5.122 2.912-3.302 0-5.929-2.521-5.929-6.031 0-3.511 2.627-6.059 5.929-6.059 2.184 0 4.16 1.144 5.122 2.912l-1.352.78c-.702-1.378-2.055-2.288-3.771-2.288-2.548 0-4.316 2.027-4.316 4.654-.001 2.626 1.768 4.654 4.316 4.654zm12.687-1.976c0-1.145-.936-1.639-2.574-2.236l-.649-.234c-1.742-.623-2.912-1.508-2.912-3.172 0-1.897 1.689-3.094 3.926-3.094 1.352 0 2.756.494 3.718 1.326l-.857 1.195c-.807-.649-2.002-1.144-2.912-1.144-1.274 0-2.236.65-2.236 1.638 0 .729.521 1.301 1.69 1.742l1.326.494c2.21.858 3.119 1.82 3.119 3.51 0 1.482-1.273 3.328-4.212 3.328-1.352 0-2.99-.571-4.03-1.43l.832-1.196c.885.755 2.236 1.223 3.25 1.223 1.559 0 2.521-.884 2.521-1.95zm13.572-8.736c3.302 0 5.954 2.548 5.954 6.059 0 3.51-2.652 6.031-5.954 6.031-3.276 0-5.929-2.521-5.929-6.031.001-3.511 2.653-6.059 5.929-6.059zm0 1.404c-2.548 0-4.316 2.027-4.316 4.654 0 2.626 1.769 4.653 4.316 4.653 2.574 0 4.342-2.027 4.342-4.653 0-2.627-1.767-4.654-4.342-4.654zm16.458 2.834c0-1.847-1.196-2.834-2.835-2.834-1.378 0-2.729.754-3.821 2.027v8.347h-1.587V46.323h1.561v1.639c1.04-1.248 2.444-1.95 4.108-1.95 2.678 0 4.16 1.638 4.16 4.16v7.618h-1.586v-7.54zm23.972-10.66h2.418v18.2h-1.612V41.514l-5.954 12.844h-1.69l-5.954-12.844V57.79h-1.534v-18.2h2.418l5.98 12.896 5.928-12.896zm8.007 18.2h-1.586V47.649h-1.819v-1.326h3.405V57.79zm-.909-17.005c.754 0 1.378.624 1.378 1.378 0 .755-.624 1.378-1.378 1.378a1.386 1.386 0 01-1.378-1.378c0-.754.623-1.378 1.378-1.378zm9.099 15.939c1.716 0 3.068-.909 3.771-2.313l1.352.779c-.962 1.769-2.938 2.912-5.122 2.912-3.302 0-5.929-2.521-5.929-6.031 0-3.511 2.627-6.059 5.929-6.059 2.184 0 4.16 1.144 5.122 2.912l-1.352.78c-.702-1.378-2.055-2.288-3.771-2.288-2.548 0-4.316 2.027-4.316 4.654 0 2.626 1.769 4.654 4.316 4.654zm13.078-8.996h-.779c-2.028 0-3.484.937-3.484 3.641v6.422h-1.561V46.323h1.509v1.95c.649-1.534 2.08-2.158 3.458-2.158.26 0 .546.026.857.053v1.56zm6.578-1.716c3.302 0 5.954 2.548 5.954 6.059 0 3.51-2.652 6.031-5.954 6.031-3.276 0-5.929-2.521-5.929-6.031 0-3.511 2.652-6.059 5.929-6.059zm0 1.404c-2.548 0-4.316 2.027-4.316 4.654 0 2.626 1.769 4.653 4.316 4.653 2.574 0 4.342-2.027 4.342-4.653-.001-2.627-1.768-4.654-4.342-4.654zm13.78 7.332c0-1.145-.936-1.639-2.574-2.236l-.649-.234c-1.742-.623-2.912-1.508-2.912-3.172 0-1.897 1.689-3.094 3.926-3.094 1.352 0 2.756.494 3.718 1.326l-.857 1.195c-.807-.649-2.002-1.144-2.912-1.144-1.274 0-2.236.65-2.236 1.638 0 .729.521 1.301 1.69 1.742l1.326.494c2.21.858 3.119 1.82 3.119 3.51 0 1.482-1.273 3.328-4.212 3.328-1.352 0-2.99-.571-4.03-1.43l.832-1.196c.885.755 2.236 1.223 3.25 1.223 1.559 0 2.521-.884 2.521-1.95zm8.97-8.736c3.302 0 5.954 2.548 5.954 6.059 0 3.51-2.652 6.031-5.954 6.031-3.276 0-5.929-2.521-5.929-6.031 0-3.511 2.652-6.059 5.929-6.059zm0 1.404c-2.548 0-4.316 2.027-4.316 4.654 0 2.626 1.769 4.653 4.316 4.653 2.574 0 4.342-2.027 4.342-4.653-.001-2.627-1.768-4.654-4.342-4.654zm8.865-5.2c0-2.133 1.378-2.73 2.6-2.73.832 0 1.561.104 1.561.104v1.378s-.729-.13-1.145-.13c-1.014 0-1.43.416-1.43 1.56v3.926h2.34v1.326h-2.34v10.14h-1.586V47.649h-1.977v-1.326h1.977v-4.107zm8.086-.729v4.836h2.834v1.326h-2.834v7.774c0 1.066.754 1.118 1.639 1.118.728 0 1.195-.078 1.195-.078v1.326s-.832.104-1.768.104c-1.196 0-2.652-.313-2.652-2.444v-7.801h-1.977v-1.326h1.977v-4.836h1.586zm11.258 9.881l-2.132 6.422h-1.664l6.267-18.2h2.002l6.292 18.2h-1.742l-2.185-6.422h-6.838zm.442-1.404h5.928l-2.912-8.788h-.078l-2.938 8.788zm20.229-2.288l-6.969 8.788h6.969v1.326h-8.814v-1.326l6.968-8.788h-6.968v-1.353h8.814v1.353zm2.079 6.032v-7.385h1.586v7.229c0 2.08 1.43 3.146 3.328 3.146 1.897 0 3.328-1.066 3.328-3.146v-7.229h1.586v7.385c0 2.418-1.716 4.394-4.914 4.394s-4.914-1.976-4.914-4.394zm18.589-5.98h-.779c-2.028 0-3.484.937-3.484 3.641v6.422h-1.561V46.323h1.509v1.95c.649-1.534 2.08-2.158 3.458-2.158.26 0 .546.026.857.053v1.56zm2.314 4.81c.208 2.366 1.794 4.16 4.187 4.16 1.561 0 2.86-.729 3.563-1.977h1.846c-.962 2.08-3.042 3.38-5.408 3.38-3.302 0-5.824-2.521-5.824-6.031 0-3.511 2.522-6.059 5.798-6.059 2.99 0 5.772 2.105 5.772 6.475v.052h-9.934zm.053-1.3h8.112c-.183-2.08-1.742-3.822-4.005-3.822-2.288 0-3.821 1.638-4.107 3.822zm-265.902 59.275l-2.518 7.815h-2.682l7.815-22.89h3.172l7.881 22.89h-2.846l-2.615-7.815h-8.207zm4.154-12.492h-.033l-3.368 10.235h6.736l-3.335-10.235zm23.801 8.11V95.438h2.584v22.89h-2.584v-2.387c-.784 1.536-2.942 2.779-5.231 2.779-4.284 0-7.488-3.237-7.488-7.718 0-4.479 3.106-7.717 7.39-7.717 2.288.001 4.545 1.277 5.329 2.846zm-4.969 10.333c3.008 0 5.101-2.354 5.101-5.461 0-3.106-2.093-5.46-5.101-5.46-3.009 0-5.102 2.354-5.102 5.46 0 3.107 2.093 5.461 5.102 5.461zm17.589-.36l4.382-12.426h2.779l-5.591 14.649h-3.271l-5.362-14.649h2.942l4.121 12.426zm18.178-7.651c0-1.93-1.438-2.845-3.466-2.845-1.733 0-3.009.752-4.088 1.602l-1.373-1.929c1.177-1.047 3.139-1.995 5.656-1.995 3.729 0 5.854 2.126 5.854 5.199v9.843h-2.583v-1.668c-.851 1.472-2.845 2.061-4.382 2.061-3.237 0-5.297-1.93-5.297-4.676 0-2.846 1.962-4.382 5.166-4.382h3.434c.817 0 1.079-.426 1.079-1.047v-.163zm0 4.48v-1.569c-.294.327-.916.425-1.635.425h-2.289c-2.027 0-3.041.817-3.041 2.289 0 1.242.948 2.452 2.976 2.452 2.06-.001 3.989-1.014 3.989-3.597zm19.813 5.395h-2.583v-9.417c0-1.995-1.145-3.401-3.27-3.401-1.472 0-3.074.817-4.578 2.551v10.268h-2.584V103.68h2.519v1.995c1.308-1.537 3.041-2.388 5.101-2.388 3.467 0 5.396 2.191 5.396 5.461v9.58zm10.919-1.864c1.831 0 3.335-.817 4.218-2.224l2.126 1.341c-1.275 1.896-3.761 3.14-6.344 3.14-4.284 0-7.718-3.237-7.718-7.718 0-4.479 3.434-7.717 7.718-7.717 2.583 0 5.068 1.243 6.344 3.14l-2.126 1.341c-.883-1.406-2.387-2.224-4.218-2.224-3.009 0-5.068 2.354-5.068 5.46-.001 3.107 2.059 5.461 5.068 5.461zm11.049-4.676c.327 2.648 2.027 4.644 4.741 4.644 1.603 0 3.041-.621 3.892-1.831h3.074c-1.309 2.551-3.99 4.12-6.998 4.12-4.284 0-7.423-3.237-7.423-7.718 0-4.479 3.106-7.717 7.39-7.717 3.794 0 7.357 2.453 7.357 8.404v.098h-12.033zm.066-2.125h8.96c-.131-2.093-1.831-4.088-4.35-4.088-2.55 0-4.152 1.7-4.61 4.088zm26.941-3.532V95.438h2.584v22.89h-2.584v-2.387c-.784 1.536-2.942 2.779-5.231 2.779-4.284 0-7.488-3.237-7.488-7.718 0-4.479 3.106-7.717 7.39-7.717 2.288.001 4.545 1.277 5.329 2.846zm-4.969 10.333c3.008 0 5.101-2.354 5.101-5.461 0-3.106-2.093-5.46-5.101-5.46-3.009 0-5.102 2.354-5.102 5.46 0 3.107 2.093 5.461 5.102 5.461zm30.012-17.036c-1.209-1.145-3.27-2.125-5.003-2.125-2.158 0-4.283 1.242-4.283 3.498 0 1.472.915 2.649 3.27 3.826l2.191 1.112c3.728 1.896 5.428 3.858 5.428 6.67 0 3.106-2.485 6.312-7.227 6.312-3.335 0-5.559-1.341-7.227-2.878l1.504-1.896c1.636 1.7 3.63 2.518 5.788 2.518 2.747 0 4.513-1.798 4.513-3.891 0-1.995-1.569-3.336-4.382-4.709l-1.864-.916c-3.041-1.504-4.643-3.433-4.643-6.082 0-3.662 3.237-5.82 6.899-5.82 2.518 0 4.904 1.145 6.475 2.42l-1.439 1.961zm7.421 16.546v8.109h-2.584v-20.404h2.584v2.452c.784-1.569 3.041-2.845 5.33-2.845 4.283 0 7.39 3.237 7.39 7.717 0 4.48-3.204 7.718-7.488 7.718-2.289 0-4.448-1.21-5.232-2.747zm4.97-10.431c-3.008 0-5.101 2.354-5.101 5.46 0 3.107 2.093 5.461 5.101 5.461 3.009 0 5.102-2.354 5.102-5.461-.001-3.107-2.093-5.46-5.102-5.46zm12.881 6.245c.327 2.648 2.027 4.644 4.741 4.644 1.603 0 3.041-.621 3.892-1.831h3.074c-1.309 2.551-3.99 4.12-6.998 4.12-4.284 0-7.423-3.237-7.423-7.718 0-4.479 3.106-7.717 7.39-7.717 3.794 0 7.357 2.453 7.357 8.404v.098H370.51zm.065-2.125h8.96c-.131-2.093-1.831-4.088-4.35-4.088-2.549 0-4.152 1.7-4.61 4.088zm21.905 6.801c1.831 0 3.335-.817 4.218-2.224l2.126 1.341c-1.275 1.896-3.761 3.14-6.344 3.14-4.284 0-7.718-3.237-7.718-7.718 0-4.479 3.434-7.717 7.718-7.717 2.583 0 5.068 1.243 6.344 3.14l-2.126 1.341c-.883-1.406-2.387-2.224-4.218-2.224-3.009 0-5.068 2.354-5.068 5.46 0 3.107 2.06 5.461 5.068 5.461zm10.233-10.66h-2.322v-2.125h4.905v14.649h-2.583v-12.524zm-.916-7.422c0-1.112.883-2.027 1.995-2.027 1.111 0 2.027.915 2.027 2.027 0 1.111-.916 1.994-2.027 1.994a1.982 1.982 0 01-1.995-1.994zm16.414 10.071c0-1.93-1.438-2.845-3.466-2.845-1.733 0-3.009.752-4.088 1.602l-1.373-1.929c1.177-1.047 3.139-1.995 5.656-1.995 3.729 0 5.854 2.126 5.854 5.199v9.843h-2.583v-1.668c-.851 1.472-2.845 2.061-4.382 2.061-3.237 0-5.298-1.93-5.298-4.676 0-2.846 1.963-4.382 5.167-4.382h3.434c.817 0 1.079-.426 1.079-1.047v-.163zm0 4.48v-1.569c-.294.327-.916.425-1.635.425h-2.289c-2.027 0-3.041.817-3.041 2.289 0 1.242.948 2.452 2.976 2.452 2.059-.001 3.989-1.014 3.989-3.597zm9.383 5.395h-2.584v-22.89h2.584v22.89zm5.067-12.524h-2.322v-2.125h4.905v14.649h-2.583v-12.524zm-.916-7.422c0-1.112.883-2.027 1.995-2.027 1.111 0 2.027.915 2.027 2.027 0 1.111-.916 1.994-2.027 1.994a1.982 1.982 0 01-1.995-1.994zm18.637 7.422l-8.731 10.399h8.731v2.125h-11.674v-2.125l8.796-10.399h-8.796v-2.125h11.674v2.125zm11.999 2.649c0-1.93-1.438-2.845-3.466-2.845-1.733 0-3.009.752-4.088 1.602l-1.373-1.929c1.177-1.047 3.139-1.995 5.656-1.995 3.729 0 5.854 2.126 5.854 5.199v9.843h-2.583v-1.668c-.851 1.472-2.845 2.061-4.382 2.061-3.237 0-5.298-1.93-5.298-4.676 0-2.846 1.963-4.382 5.167-4.382h3.434c.817 0 1.079-.426 1.079-1.047v-.163zm0 4.48v-1.569c-.294.327-.916.425-1.635.425h-2.289c-2.027 0-3.041.817-3.041 2.289 0 1.242.948 2.452 2.976 2.452 2.059-.001 3.989-1.014 3.989-3.597zm10.166-15.37v6.115h3.598v2.125h-3.598v9.124c0 1.111.654 1.308 1.505 1.308a20.24 20.24 0 002.093-.098v2.19s-1.275.131-2.485.131c-1.569 0-3.695-.327-3.695-3.074v-9.581h-2.485v-2.125h2.485v-6.115h2.582zm7.324 8.241h-2.322v-2.125h4.905v14.649h-2.583v-12.524zm-.916-7.422c0-1.112.883-2.027 1.995-2.027 1.111 0 2.027.915 2.027 2.027 0 1.111-.916 1.994-2.027 1.994a1.982 1.982 0 01-1.995-1.994zm14.615 4.904c4.284 0 7.75 3.237 7.75 7.717 0 4.48-3.466 7.718-7.75 7.718-4.283 0-7.75-3.237-7.75-7.718 0-4.48 3.467-7.717 7.75-7.717zm0 2.257c-3.008 0-5.101 2.354-5.101 5.46 0 3.107 2.093 5.461 5.101 5.461 3.009 0 5.102-2.354 5.102-5.461s-2.093-5.46-5.102-5.46zm24.129 12.785h-2.583v-9.417c0-1.995-1.145-3.401-3.27-3.401-1.472 0-3.074.817-4.578 2.551v10.268h-2.584V103.68h2.519v1.995c1.308-1.537 3.041-2.388 5.101-2.388 3.467 0 5.396 2.191 5.396 5.461v9.58zm-326.498 23.578l-2.132 6.422h-1.664l6.267-18.2h2.002l6.292 18.2h-1.742l-2.185-6.422h-6.838zm.443-1.404h5.928l-2.912-8.788h-.078l-2.938 8.788zm12.765-10.374h1.612v18.2h-1.612v-18.2zm16.587 10.269c0-1.742-1.352-2.443-2.886-2.443-1.43 0-2.574.598-3.536 1.248l-.754-1.196c.78-.599 2.393-1.456 4.395-1.456 2.729 0 4.368 1.534 4.368 3.9v7.878h-1.587v-1.43c-.649 1.144-2.21 1.741-3.588 1.741-2.496 0-4.16-1.455-4.16-3.51 0-2.105 1.508-3.354 3.874-3.354h2.757c.806 0 1.117-.416 1.117-1.041v-.337zm0 3.849v-1.586c-.285.338-.884.441-1.481.441h-2.132c-1.69 0-2.471.832-2.471 2.028 0 .988.754 2.158 2.679 2.158 1.741.001 3.405-.961 3.405-3.041zm12.793-3.458c0-1.847-1.195-2.834-2.834-2.834-1.378 0-2.729.754-3.822 2.027v8.347h-1.586v-11.467h1.561v1.639c1.04-1.248 2.444-1.95 4.108-1.95 2.678 0 4.16 1.638 4.16 4.16v7.618h-1.587v-7.54zm13.937-1.69v-8.97h1.586v18.2h-1.586v-2.185c-.702 1.431-2.418 2.496-4.368 2.496-3.302 0-5.824-2.521-5.824-6.031 0-3.511 2.496-6.059 5.772-6.059 1.975.001 3.744 1.119 4.42 2.549zm-4.265 8.164c2.549 0 4.343-2.027 4.343-4.653 0-2.627-1.794-4.654-4.343-4.654-2.548 0-4.315 2.027-4.315 4.654 0 2.625 1.767 4.653 4.315 4.653zm28.366-17.134h2.418v18.2h-1.612v-16.276l-5.954 12.844h-1.69l-5.954-12.844v16.276H257.5v-18.2h2.418l5.98 12.896 5.929-12.896zm12.532 10.269c0-1.742-1.353-2.443-2.887-2.443-1.43 0-2.574.598-3.536 1.248l-.754-1.196c.78-.599 2.392-1.456 4.395-1.456 2.729 0 4.368 1.534 4.368 3.9v7.878h-1.586v-1.43c-.65 1.144-2.211 1.741-3.589 1.741-2.496 0-4.16-1.455-4.16-3.51 0-2.105 1.509-3.354 3.874-3.354h2.757c.806 0 1.118-.416 1.118-1.041v-.337zm0 3.849v-1.586c-.286.338-.885.441-1.482.441h-2.132c-1.69 0-2.471.832-2.471 2.028 0 .988.754 2.158 2.679 2.158 1.742.001 3.406-.961 3.406-3.041zm9.646 3.016c1.716 0 3.068-.909 3.771-2.313l1.352.779c-.962 1.769-2.938 2.912-5.122 2.912-3.302 0-5.929-2.521-5.929-6.031 0-3.511 2.627-6.059 5.929-6.059 2.184 0 4.16 1.144 5.122 2.912l-1.352.78c-.702-1.378-2.055-2.288-3.771-2.288-2.548 0-4.316 2.027-4.316 4.654-.001 2.626 1.768 4.654 4.316 4.654zm15.495-6.474c0-1.847-1.195-2.834-2.834-2.834-1.378 0-2.729.754-3.822 2.027v8.347h-1.586v-18.2h1.561v8.372c1.04-1.248 2.444-1.95 4.108-1.95 2.678 0 4.16 1.638 4.16 4.16v7.618H309.5v-7.54zm6.553 7.54h-1.587v-10.141h-1.819v-1.326h3.406v11.467zm-.91-17.005c.754 0 1.378.624 1.378 1.378 0 .755-.624 1.378-1.378 1.378s-1.379-.623-1.379-1.378c0-.754.625-1.378 1.379-1.378zm12.246 9.465c0-1.847-1.196-2.834-2.835-2.834-1.378 0-2.729.754-3.821 2.027v8.347h-1.587v-11.467h1.561v1.639c1.04-1.248 2.444-1.95 4.108-1.95 2.678 0 4.16 1.638 4.16 4.16v7.618h-1.586v-7.54zm5.381 2.288c.208 2.366 1.795 4.16 4.187 4.16 1.56 0 2.86-.729 3.563-1.977h1.846c-.962 2.08-3.042 3.38-5.408 3.38-3.302 0-5.824-2.521-5.824-6.031 0-3.511 2.522-6.059 5.798-6.059 2.99 0 5.772 2.105 5.772 6.475v.052h-9.934zm.052-1.3h8.112c-.183-2.08-1.742-3.822-4.005-3.822-2.287 0-3.822 1.638-4.107 3.822zm17.081 6.552v-18.2h1.612v16.771h8.112v1.43h-9.724zm11.882-5.252c.208 2.366 1.795 4.16 4.187 4.16 1.56 0 2.86-.729 3.563-1.977h1.846c-.962 2.08-3.042 3.38-5.408 3.38-3.302 0-5.824-2.521-5.824-6.031 0-3.511 2.522-6.059 5.798-6.059 2.99 0 5.772 2.105 5.772 6.475v.052h-9.934zm.053-1.3h8.112c-.183-2.08-1.742-3.822-4.005-3.822-2.288 0-3.822 1.638-4.107 3.822zm18.771-1.379c0-1.742-1.352-2.443-2.886-2.443-1.43 0-2.574.598-3.536 1.248l-.754-1.196c.78-.599 2.393-1.456 4.395-1.456 2.729 0 4.368 1.534 4.368 3.9v7.878h-1.587v-1.43c-.649 1.144-2.21 1.741-3.588 1.741-2.496 0-4.16-1.455-4.16-3.51 0-2.105 1.508-3.354 3.874-3.354h2.757c.806 0 1.117-.416 1.117-1.041v-.337zm0 3.849v-1.586c-.285.338-.884.441-1.481.441h-2.132c-1.69 0-2.471.832-2.471 2.028 0 .988.754 2.158 2.679 2.158 1.741.001 3.405-.961 3.405-3.041zm10.374-5.98h-.779c-2.028 0-3.484.937-3.484 3.641v6.422h-1.561v-11.467h1.509v1.95c.649-1.534 2.08-2.158 3.458-2.158.26 0 .546.026.857.053v1.559zm10.037 2.522c0-1.847-1.195-2.834-2.834-2.834-1.378 0-2.729.754-3.822 2.027v8.347h-1.586v-11.467h1.561v1.639c1.04-1.248 2.444-1.95 4.108-1.95 2.678 0 4.16 1.638 4.16 4.16v7.618h-1.587v-7.54zm6.552 7.54h-1.587v-10.141h-1.819v-1.326h3.406v11.467zm-.91-17.005c.754 0 1.378.624 1.378 1.378 0 .755-.624 1.378-1.378 1.378s-1.379-.623-1.379-1.378c0-.754.625-1.378 1.379-1.378zm12.246 9.465c0-1.847-1.196-2.834-2.835-2.834-1.378 0-2.729.754-3.821 2.027v8.347h-1.587v-11.467h1.561v1.639c1.04-1.248 2.444-1.95 4.108-1.95 2.678 0 4.16 1.638 4.16 4.16v7.618h-1.586v-7.54zm15.522 8.736c0 1.872-.857 3.354-3.38 3.354h-4.343v-1.326h4.16c1.093 0 1.977-.338 1.977-1.664v-3.744c-.702 1.431-2.418 2.496-4.368 2.496-3.302 0-5.824-2.521-5.824-6.031 0-3.511 2.496-6.059 5.772-6.059 1.976 0 3.744 1.118 4.42 2.548v-2.236h1.586v12.662zm-1.534-6.916c0-2.627-1.768-4.654-4.315-4.654-2.549 0-4.343 2.027-4.343 4.654 0 2.626 1.794 4.653 4.343 4.653 2.547.001 4.315-2.027 4.315-4.653zm-239.25 18.942c3.302 0 5.954 2.548 5.954 6.059 0 3.51-2.652 6.031-5.954 6.031-3.276 0-5.929-2.521-5.929-6.031 0-3.511 2.652-6.059 5.929-6.059zm0 1.404c-2.548 0-4.316 2.027-4.316 4.654 0 2.626 1.769 4.653 4.316 4.653 2.574 0 4.342-2.027 4.342-4.653-.001-2.627-1.768-4.654-4.342-4.654zm16.458 2.834c0-1.847-1.196-2.834-2.835-2.834-1.378 0-2.729.754-3.821 2.027v8.347h-1.587v-11.467h1.561v1.639c1.04-1.248 2.444-1.95 4.108-1.95 2.678 0 4.16 1.638 4.16 4.16v7.618h-1.586v-7.54zm23.972-10.66h2.418v18.2h-1.612v-16.276l-5.954 12.844h-1.69l-5.954-12.844v16.276h-1.534v-18.2h2.418l5.98 12.896 5.928-12.896zm8.006 18.2h-1.586v-10.141h-1.819v-1.326h3.405v11.467zm-.909-17.005c.754 0 1.378.624 1.378 1.378 0 .755-.624 1.378-1.378 1.378a1.386 1.386 0 01-1.378-1.378c0-.754.623-1.378 1.378-1.378zm9.099 15.939c1.716 0 3.068-.909 3.771-2.313l1.352.779c-.962 1.769-2.938 2.912-5.122 2.912-3.302 0-5.929-2.521-5.929-6.031 0-3.511 2.627-6.059 5.929-6.059 2.184 0 4.16 1.144 5.122 2.912l-1.352.78c-.702-1.378-2.055-2.288-3.771-2.288-2.548 0-4.316 2.027-4.316 4.654 0 2.626 1.769 4.654 4.316 4.654zm13.078-8.996h-.779c-2.028 0-3.484.937-3.484 3.641v6.422h-1.561v-11.467h1.509v1.95c.649-1.534 2.08-2.158 3.458-2.158.26 0 .546.026.857.053v1.559zm6.579-1.716c3.302 0 5.954 2.548 5.954 6.059 0 3.51-2.652 6.031-5.954 6.031-3.276 0-5.929-2.521-5.929-6.031 0-3.511 2.652-6.059 5.929-6.059zm0 1.404c-2.548 0-4.316 2.027-4.316 4.654 0 2.626 1.769 4.653 4.316 4.653 2.574 0 4.342-2.027 4.342-4.653 0-2.627-1.768-4.654-4.342-4.654zm13.779 7.332c0-1.145-.936-1.639-2.574-2.236l-.649-.234c-1.742-.623-2.912-1.508-2.912-3.172 0-1.897 1.689-3.094 3.926-3.094 1.352 0 2.756.494 3.718 1.326l-.857 1.195c-.807-.649-2.002-1.144-2.912-1.144-1.274 0-2.236.65-2.236 1.638 0 .729.521 1.301 1.69 1.742l1.326.494c2.21.858 3.119 1.82 3.119 3.51 0 1.482-1.273 3.328-4.212 3.328-1.352 0-2.99-.571-4.03-1.43l.832-1.196c.885.755 2.236 1.223 3.25 1.223 1.559 0 2.521-.883 2.521-1.95zm8.97-8.736c3.302 0 5.954 2.548 5.954 6.059 0 3.51-2.652 6.031-5.954 6.031-3.276 0-5.929-2.521-5.929-6.031 0-3.511 2.652-6.059 5.929-6.059zm0 1.404c-2.548 0-4.316 2.027-4.316 4.654 0 2.626 1.769 4.653 4.316 4.653 2.574 0 4.342-2.027 4.342-4.653 0-2.627-1.768-4.654-4.342-4.654zm8.865-5.2c0-2.133 1.378-2.73 2.6-2.73.832 0 1.561.104 1.561.104v1.378s-.729-.13-1.145-.13c-1.014 0-1.43.416-1.43 1.56v3.926h2.34v1.326h-2.34v10.141h-1.586v-10.141h-1.977v-1.326h1.977v-4.108zm8.086-.729v4.836h2.834v1.326h-2.834v7.774c0 1.066.754 1.118 1.639 1.118.728 0 1.195-.078 1.195-.078v1.326s-.832.104-1.768.104c-1.196 0-2.652-.313-2.652-2.444v-7.801h-1.977v-1.326h1.977v-4.836h1.586zm11.258 9.881l-2.132 6.422h-1.664l6.267-18.2h2.002l6.292 18.2h-1.742l-2.185-6.422h-6.838zm.442-1.404h5.928l-2.912-8.788h-.078l-2.938 8.788zm20.229-2.288l-6.969 8.788h6.969v1.326h-8.814v-1.326l6.968-8.788h-6.968v-1.353h8.814v1.353zm2.079 6.032v-7.385h1.586v7.229c0 2.08 1.43 3.146 3.328 3.146 1.897 0 3.328-1.066 3.328-3.146v-7.229h1.586v7.385c0 2.418-1.716 4.394-4.914 4.394s-4.914-1.976-4.914-4.394zm18.59-5.98h-.779c-2.028 0-3.484.937-3.484 3.641v6.422h-1.561v-11.467h1.509v1.95c.649-1.534 2.08-2.158 3.458-2.158.26 0 .546.026.857.053v1.559zm2.313 4.81c.208 2.366 1.794 4.16 4.187 4.16 1.561 0 2.86-.729 3.563-1.977h1.846c-.962 2.08-3.042 3.38-5.408 3.38-3.302 0-5.824-2.521-5.824-6.031 0-3.511 2.522-6.059 5.798-6.059 2.99 0 5.772 2.105 5.772 6.475v.052h-9.934zm.053-1.3h8.112c-.183-2.08-1.742-3.822-4.005-3.822-2.288 0-3.821 1.638-4.107 3.822z"/></svg>