<svg xmlns="http://www.w3.org/2000/svg" width="116" height="116"><g data-name="Ellipse 8" fill="none" stroke="#fff" stroke-width="3"><circle cx="58" cy="58" r="58" stroke="none"/><circle cx="58" cy="58" r="56.5"/></g><g data-name="Group 410"><g data-name="Group 58"><g data-name="Group 57"><g data-name="Group 56"><path data-name="Path 85" d="M41.685 88.509a1.261 1.261 0 01-1.262-1.26v-8.077a1.261 1.261 0 012.522 0v8.077a1.261 1.261 0 01-1.26 1.26z" fill="#ffde14"/></g></g></g><g data-name="Group 61"><g data-name="Group 60"><g data-name="Group 59"><path data-name="Path 86" d="M74.315 36.085a1.263 1.263 0 01-1.26-1.26v-8.077a1.261 1.261 0 012.522 0v8.077a1.262 1.262 0 01-1.262 1.26z" fill="#ffde14"/></g></g></g><g data-name="Group 64"><g data-name="Group 63"><g data-name="Group 62"><path data-name="Path 87" d="M41.685 71.308a1.262 1.262 0 01-1.262-1.26v-43.3a1.261 1.261 0 012.522 0v43.3a1.262 1.262 0 01-1.26 1.26z" fill="#ffde14"/></g></g></g><g data-name="Group 67"><g data-name="Group 66"><g data-name="Group 65"><path data-name="Path 88" d="M74.315 64.832a1.263 1.263 0 01-1.26-1.262V43.952a1.261 1.261 0 012.522 0V63.57a1.263 1.263 0 01-1.262 1.262z" fill="#ffde14"/></g></g></g><g data-name="Group 70"><g data-name="Group 69"><g data-name="Group 68"><path data-name="Path 89" d="M74.314 69.754a1.269 1.269 0 01-.9-.366 1.3 1.3 0 01-.367-.895 1.273 1.273 0 01.367-.882 1.307 1.307 0 011.79 0 1.271 1.271 0 01.366.882 1.3 1.3 0 01-.366.895 1.247 1.247 0 01-.89.366z" fill="#ffde14"/></g></g></g><g data-name="Group 73"><g data-name="Group 72"><g data-name="Group 71"><path data-name="Path 90" d="M74.315 88.508a1.262 1.262 0 01-1.26-1.26v-13.82a1.261 1.261 0 112.522 0v13.82a1.261 1.261 0 01-1.262 1.26z" fill="#ffde14"/></g></g></g><g data-name="Group 76"><g data-name="Group 75"><g data-name="Group 74"><path data-name="Path 91" d="M58 88.508a1.259 1.259 0 01-1.26-1.26V61.173a1.26 1.26 0 112.519 0v26.075A1.258 1.258 0 0158 88.508z" fill="#ffde14"/></g></g></g><g data-name="Group 79"><g data-name="Group 78"><g data-name="Group 77"><path data-name="Path 92" d="M58 53.311a1.261 1.261 0 01-1.26-1.26v-25.3a1.26 1.26 0 112.519 0v25.3A1.259 1.259 0 0158 53.311z" fill="#ffde14"/></g></g></g><g data-name="Group 82"><g data-name="Group 81"><g data-name="Group 80"><path data-name="Path 93" d="M41.684 80.434a4.46 4.46 0 01-4.456-4.454v-2.736a4.455 4.455 0 118.911 0v2.733a4.46 4.46 0 01-4.455 4.457zm0-9.123a1.937 1.937 0 00-1.936 1.935v2.733a1.935 1.935 0 003.869 0v-2.735a1.937 1.937 0 00-1.933-1.935z" fill="#ffde14"/></g></g></g><g data-name="Group 85"><g data-name="Group 84"><g data-name="Group 83"><path data-name="Path 94" d="M58 62.432a4.46 4.46 0 01-4.456-4.454v-2.735a4.456 4.456 0 018.912 0v2.735A4.461 4.461 0 0158 62.432zm0-9.123a1.935 1.935 0 00-1.935 1.934v2.735a1.935 1.935 0 003.869 0v-2.735A1.934 1.934 0 0058 53.311z" fill="#ffde14"/></g></g></g><g data-name="Group 88"><g data-name="Group 87"><g data-name="Group 86"><path data-name="Path 95" d="M74.315 45.224a4.46 4.46 0 01-4.454-4.456v-2.733a4.456 4.456 0 118.912 0v2.733a4.461 4.461 0 01-4.458 4.456zm0-9.125a1.938 1.938 0 00-1.934 1.935v2.733a1.936 1.936 0 103.871 0v-2.733a1.94 1.94 0 00-1.937-1.935z" fill="#ffde14"/></g></g></g></g></svg>