<svg xmlns="http://www.w3.org/2000/svg" width="22.701" height="39.434"><path fill-rule="evenodd" clip-rule="evenodd" fill="#FFF" d="M3.018 0h16.669c.847 0 1.61.371 2.16.973.528.582.854 1.369.854 2.239v33.011c0 .863-.326 1.656-.854 2.232-.55.603-1.313.979-2.16.979H3.018c-.849 0-1.612-.376-2.162-.979a3.306 3.306 0 01-.854-2.232V3.211c0-.87.326-1.657.854-2.239A2.916 2.916 0 013.018 0zm7.583 36.504h1.513a.964.964 0 000-1.927h-1.513a.965.965 0 000 1.927zM1.925 3.969h18.85v-.758c0-.37-.136-.708-.35-.943a1.008 1.008 0 00-.738-.343H3.018a1 1 0 00-.74.343 1.39 1.39 0 00-.353.943v.758zm18.849 1.925H1.925v25.613h18.85V5.894h-.001zm0 27.541H1.925v2.788c0 .37.135.702.353.942.194.209.456.344.74.344h16.669c.279 0 .541-.135.738-.344.214-.24.35-.572.35-.942v-2.788z"/></svg>