<svg xmlns="http://www.w3.org/2000/svg" width="116" height="116"><g data-name="Ellipse 8" fill="none" stroke="#fff" stroke-width="3"><circle cx="58" cy="58" r="58" stroke="none"/><circle cx="58" cy="58" r="56.5"/></g><g data-name="Group 55" fill="#ffde14"><path data-name="Path 76" d="M58.541 56.042c-3.1 0-6.786-2.493-6.786-14.372 0-10.025 5.531-22.534 5.766-23.061a1.118 1.118 0 011.02-.663 1.116 1.116 0 011.021.663c.236.528 5.766 13.036 5.766 23.061-.004 11.879-3.695 14.372-6.787 14.372zm0-34.027c-1.608 4.147-4.55 12.684-4.55 19.655 0 7.826 1.617 12.136 4.55 12.136s4.55-4.31 4.55-12.136c-.003-6.977-2.945-15.51-4.55-19.654z"/><path data-name="Path 77" d="M91.787 78.517a1.032 1.032 0 01-.119-.007c-.576-.061-14.169-1.559-22.839-6.592-4.156-2.412-7.009-4.758-8.48-6.975-1.8-2.717-1.29-4.821-.543-6.108a5.306 5.306 0 014.947-2.58c2.739 0 6.4 1.321 10.889 3.926 8.223 4.772 15.877 14.964 16.938 16.408a1.114 1.114 0 01.348.809 1.15 1.15 0 01-1.128 1.118zM64.753 58.491a3.163 3.163 0 00-3.013 1.467c-.633 1.09-.479 2.317.472 3.749 1.279 1.927 3.883 4.039 7.74 6.279 6.034 3.5 14.89 5.242 19.281 5.931-2.778-3.471-8.685-10.3-14.713-13.8-4.141-2.406-7.428-3.626-9.767-3.626z"/><path data-name="Path 78" d="M25.163 78.298a1.119 1.119 0 01-.97-.562 1.118 1.118 0 01.069-1.216c.341-.465 8.46-11.471 17.166-16.441 4.472-2.555 8.125-3.85 10.855-3.85a5.32 5.32 0 014.99 2.614c.739 1.294 1.236 3.4-.586 6.1-1.486 2.207-4.356 4.534-8.528 6.916-8.706 4.972-22.31 6.374-22.885 6.431a.912.912 0 01-.111.008zm27.12-19.835c-2.337 0-5.616 1.2-9.746 3.555-6.059 3.46-12.01 10.245-14.81 13.7 4.4-.66 13.27-2.34 19.323-5.8 3.872-2.211 6.491-4.305 7.784-6.224.96-1.427 1.124-2.651.5-3.745a3.182 3.182 0 00-3.051-1.486z"/><path data-name="Path 79" d="M89.515 69.755a1.106 1.106 0 01-.389-.07 1.118 1.118 0 01-.66-1.437 31.787 31.787 0 001.979-11.087 31.825 31.825 0 00-11.611-24.629 1.119 1.119 0 01-.151-1.574 1.12 1.12 0 011.574-.146A34.06 34.06 0 0192.682 57.16a34 34 0 01-2.119 11.864 1.116 1.116 0 01-1.048.731z"/><path data-name="Path 80" d="M58.53 91.311a34.094 34.094 0 01-15.191-3.579 34.036 34.036 0 01-9.682-7.179 1.118 1.118 0 01.049-1.581 1.117 1.117 0 011.58.049 31.826 31.826 0 009.049 6.708 31.829 31.829 0 0027.217.562 1.116 1.116 0 011.476.566 1.116 1.116 0 01-.566 1.476 34.155 34.155 0 01-13.932 2.978z"/><path data-name="Path 81" d="M25.755 54.279a1.133 1.133 0 01-.138-.008 1.119 1.119 0 01-.974-1.247 34.054 34.054 0 0115.526-24.646 34.017 34.017 0 0111.142-4.6 1.118 1.118 0 011.329.856 1.118 1.118 0 01-.856 1.329 31.806 31.806 0 00-10.412 4.3 31.828 31.828 0 00-14.508 23.036 1.118 1.118 0 01-1.109.98z"/><path data-name="Path 82" d="M83.904 64.829a1.114 1.114 0 01-.276-.035 1.119 1.119 0 01-.808-1.36 25.13 25.13 0 00.773-6.2 24.983 24.983 0 00-1.414-8.318 1.118 1.118 0 01.683-1.425 1.116 1.116 0 011.425.683 27.191 27.191 0 011.542 9.06 27.361 27.361 0 01-.842 6.748 1.118 1.118 0 01-1.083.847z"/><path data-name="Path 83" d="M55.139 84.204a1.247 1.247 0 01-.144-.009 27.2 27.2 0 01-8.788-2.693 27.363 27.363 0 01-5.65-3.784 1.116 1.116 0 01-.111-1.576 1.115 1.115 0 011.576-.111 25.155 25.155 0 005.19 3.474 24.954 24.954 0 008.066 2.473 1.118 1.118 0 01.967 1.251 1.118 1.118 0 01-1.106.975z"/><path data-name="Path 84" d="M37.9 42.213a1.123 1.123 0 01-.684-.234 1.118 1.118 0 01-.2-1.569 27.208 27.208 0 016.773-6.214 27.4 27.4 0 016.124-2.956 1.116 1.116 0 011.415.7 1.118 1.118 0 01-.7 1.417 25.128 25.128 0 00-5.624 2.715 24.972 24.972 0 00-6.218 5.7 1.115 1.115 0 01-.886.441z"/></g></svg>