<svg xmlns="http://www.w3.org/2000/svg" width="715.862" height="177.893"><path data-name="Path 1" d="M715.782 14.989c-.15-2.146-.161-4.3-.433-6.442l-.882-5.5a2.955 2.955 0 00-.206-1.563c1.183-.93-4.651-2.159-4.149-1.032a2.89 2.89 0 00-.674.73 1.986 1.986 0 00-.445 1.027c-.153.267-.327.555-.513.838a26.062 26.062 0 01-1.268 1.754 36.078 36.078 0 01-2.978 3.311 44.363 44.363 0 01-7.078 5.6 55.877 55.877 0 01-16.817 7.15 82.036 82.036 0 01-18.454 2.306c-3.35.191-6.375.167-9.706.572l-4.915.561-4.829.885c-1.616.25-3.192.73-4.78 1.125a40.273 40.273 0 00-4.7 1.407 67.054 67.054 0 00-9.089 3.736c-1.46.741-2.931 1.46-4.318 2.345a45.477 45.477 0 00-4.131 2.664 50.476 50.476 0 00-7.485 6.351 57.585 57.585 0 00-6.184 7.527 81.1 81.1 0 00-4.9 8.407 59.834 59.834 0 00-3.744 8.912 43.261 43.261 0 00-1.177 4.685 45.631 45.631 0 00-.425 4.793 46.471 46.471 0 01.78-4.718 43.021 43.021 0 011.51-4.513A65.734 65.734 0 01598 59.372a79.039 79.039 0 015.218-7.894 55.916 55.916 0 016.387-6.942 53.609 53.609 0 017.438-5.673 42.266 42.266 0 014.033-2.376c1.349-.786 2.784-1.413 4.2-2.062a64.086 64.086 0 018.79-3.2 43.728 43.728 0 014.532-1.177c1.526-.33 3.031-.749 4.588-.938l4.635-.71 4.632-.392c3.033-.3 6.425-.191 9.462-.283a82.86 82.86 0 0019.6-2.052 61.068 61.068 0 0018.484-7.494 48.428 48.428 0 007.988-6.236c.7-.685 1.332-1.454 1.993-2.193.172 1.785.2 3.586.317 5.379a52.174 52.174 0 01-.134 5.989 45.627 45.627 0 01-.563 5.981 98.089 98.089 0 01-2.257 11.86 117.829 117.829 0 01-3.758 11.485c-1.249 3.705-3.275 7.624-4.863 11.21a38.814 38.814 0 01-6.55 9.511 27.591 27.591 0 01-9.487 6.279 49.586 49.586 0 01-11.435 3.142 119.367 119.367 0 01-12.126 1.434c-4.088.3-8.207.483-12.337.616l-12.406.333c-4.113.058-8.371.3-12.556.671-2.093.319-4.191.569-6.264.947-2.054.527-4.119.98-6.148 1.571a49.4 49.4 0 00-11.524 5.245 39.239 39.239 0 00-3.883 2.809c.122-.211.225-.438.353-.649.774-1.343 1.5-2.714 2.307-4.027q1.286-1.919 2.564-3.83a89.642 89.642 0 015.4-7.33 69.078 69.078 0 015.837-6.7q1.5-1.6 2.978-3.173c1.071-.955 2.132-1.907 3.181-2.845a64.454 64.454 0 016.292-5.357l6.312-4.663c2.1-1.429 4.258-2.6 6.264-3.844a98.868 98.868 0 0111.391-6.009c1.743-.816 3.342-1.671 4.9-2.309l4.351-1.565c5.257-1.912 8.235-3.078 8.235-3.078s-3.123.7-8.549 2.048l-4.485 1.138c-1.615.486-3.32 1.185-5.171 1.843l-5.9 2.171c-.522.192-1.049.389-1.585.589-.5.252-1.013.513-1.532.774-1.033.525-2.09 1.066-3.172 1.613-2.146 1.127-4.461 2.187-6.722 3.506q-3.293 2.165-6.794 4.471a68.779 68.779 0 00-6.822 5.237l-3.442 2.834q-1.595 1.595-3.22 3.214a74.07 74.07 0 00-6.328 6.836 72.7 72.7 0 00-5.829 7.569q-1.362 1.99-2.731 4c-.863 1.368-1.643 2.8-2.467 4.2-1.71 2.776-3.106 5.732-4.538 8.671a111.5 111.5 0 00-6.348 17.783l-15.822-42.757h-5.931l19.8 52.388c-.017.074-.025.147-.042.225-.6 2.937-1.321 5.823-2.153 8.621a96.775 96.775 0 01-6.1 15.656 63.427 63.427 0 01-8.177 12.526 43.293 43.293 0 01-9.5 8.3 32.794 32.794 0 01-8.974 3.994 29.93 29.93 0 01-3.586.858 18.444 18.444 0 01-2.7.433l-2.281.25s.8.017 2.3.053a18.918 18.918 0 002.776-.078 21.729 21.729 0 003.741-.463 34.373 34.373 0 009.737-3.245 40.421 40.421 0 0010.83-7.932 59.716 59.716 0 009.489-12.729 87.632 87.632 0 007.111-16.156q1.445-4.359 2.534-8.979a80.2 80.2 0 00.952-4.641 69.48 69.48 0 011.013-4.391 105.892 105.892 0 016.356-17.391 237.074 237.074 0 012.229-4.591 35.443 35.443 0 016.376-4.474 47.406 47.406 0 0111.318-4.4c1.982-.455 3.995-.777 5.981-1.171l6.075-.639c4.075-.191 8.119-.266 12.293-.152 4.141.08 8.306.141 12.469.122s8.335-.078 12.524-.264a122.974 122.974 0 0012.609-1.118 53.257 53.257 0 0012.551-3.214 32.578 32.578 0 0011.224-7.175 43.613 43.613 0 007.706-10.739c1.8-3.977 3.638-7.43 5.1-11.571a122.612 122.612 0 004.05-12.118 104.22 104.22 0 002.464-12.548l.431-3.178c.108-1.063.108-2.143.167-3.209a56.732 56.732 0 00.106-6.444z" fill="#b3cf60"/><path data-name="Path 2" d="M22.976 98.789l-7.536-2.72c-6.175-2.224-8.029-5.682-8.029-9.265 0-5.435 5.187-9.14 12.107-9.14a23.083 23.083 0 0113.711 5.062l2.6-3.95a26.9 26.9 0 00-16.428-5.684c-10.008 0-17.3 5.809-17.3 14.205 0 5.684 3.336 10.75 11.859 13.589l5.19 1.732c8.4 2.839 12.476 5.928 12.476 11.86 0 5.806-5.437 10.625-13.714 10.625a27.553 27.553 0 01-15.318-5.437l-2.595 3.952c4.2 3.583 11.491 6.056 17.791 6.056 13.342 0 19.148-8.4 19.148-15.2.001-7.658-4.076-12.104-13.962-15.685z" fill="#fff"/><path data-name="Path 3" d="M89.069 108.918c0 10.252-6.92 15.934-16.678 15.934-9.883 0-16.925-5.682-16.925-15.934V74.574h-5.305v34.716c0 11.241 7.288 20.383 22.234 20.383 14.827 0 21.991-9.142 21.991-20.383V74.574h-5.312z" fill="#fff"/><path data-name="Path 4" d="M129.955 98.789l-7.535-2.72c-6.178-2.224-8.029-5.682-8.029-9.265 0-5.435 5.187-9.14 12.1-9.14a23.078 23.078 0 0113.711 5.062l2.6-3.95a26.907 26.907 0 00-16.431-5.684c-10.006 0-17.294 5.809-17.294 14.205 0 5.684 3.333 10.75 11.86 13.589l5.188 1.732c8.4 2.839 12.476 5.928 12.476 11.86 0 5.806-5.437 10.625-13.711 10.625a27.548 27.548 0 01-15.318-5.437l-2.595 3.952c4.2 3.583 11.488 6.056 17.788 6.056 13.345 0 19.148-8.4 19.148-15.2-.003-7.658-4.074-12.104-13.958-15.685z" fill="#fff"/><path data-name="Path 5" d="M165.651 51.718h-5.31v22.854h-9.267v4.446h9.267v38.047c0 9.761 5.807 11.615 11.241 11.615a52.373 52.373 0 007.535-.5v-4.322a35.348 35.348 0 01-6.544.491c-3.339 0-6.922-1.6-6.922-5.928V79.018h13.468v-4.449h-13.468z" fill="#fff"/><path data-name="Path 6" d="M208.025 73.089c-9.018 0-15.934 3.83-18.9 6.548l2.717 4.077a24.962 24.962 0 0116.06-5.925c7.657 0 14.821 3.583 14.821 12.476v2.473c0 3.458-1.851 5.807-6.426 5.807h-13.338c-10.256 0-17.172 5.562-17.172 14.827 0 10.128 8.155 16.306 19.4 16.306 7.413 0 14.7-3.461 17.541-8.9v7.411h5.312V90.51c-.004-10.996-8.159-17.421-20.015-17.421zm14.7 36.567c0 10.006-8.155 15.443-17.047 15.443-10.872 0-14.33-6.919-14.33-11.616 0-5.8 3.583-10.5 11.862-10.5h11.732c2.967 0 6.178-.369 7.782-2.84z" fill="#fff"/><path data-name="Path 7" d="M238.658 79.021h8.649v49.168h5.31V74.573h-13.959z" fill="#fff"/><path data-name="Path 8" d="M249.53 49.744a5.436 5.436 0 105.435 5.434 5.483 5.483 0 00-5.435-5.434z" fill="#fff"/><path data-name="Path 9" d="M295.237 73.089c-6.55 0-14.205 3.461-19.273 9.39v-7.907h-5.312v53.617h5.312V87.671c4.694-5.562 11.366-9.765 18.776-9.765 7.66 0 14.827 4.694 14.827 15.571v34.712h5.313V91.373c-.001-11.118-8.155-18.284-19.643-18.284z" fill="#fff"/><path data-name="Path 10" d="M350.083 73.089c-9.02 0-15.937 3.83-18.9 6.548l2.72 4.077a24.966 24.966 0 0116.055-5.925c7.661 0 14.824 3.583 14.824 12.476v2.473c0 3.458-1.854 5.807-6.422 5.807h-13.345c-10.252 0-17.169 5.562-17.169 14.827 0 10.128 8.152 16.306 19.395 16.306 7.411 0 14.7-3.461 17.541-8.9v7.411h5.315V90.51c.004-10.996-8.154-17.421-20.014-17.421zm14.7 36.567c0 10.006-8.151 15.443-17.047 15.443-10.872 0-14.33-6.919-14.33-11.616 0-5.8 3.581-10.5 11.856-10.5h11.739c2.964 0 6.176-.369 7.783-2.84z" fill="#fff"/><path data-name="Path 11" d="M414.815 73.091a23.95 23.95 0 00-21.868 13.342V41.715h-5.312v86.477h5.312v-11.739a23.983 23.983 0 0021.868 13.22c15.071 0 27.053-11.862 27.053-28.293 0-16.307-11.983-28.289-27.053-28.289zm-.125 51.885c-12.848 0-21.868-10.375-21.868-23.6s9.02-23.595 21.868-23.595 21.866 10.378 21.866 23.595-9.018 23.6-21.866 23.6z" fill="#fff"/><path data-name="Path 12" d="M449.15 79.021h8.649v49.168h5.31V74.573H449.15z" fill="#fff"/><path data-name="Path 13" d="M460.022 49.744a5.436 5.436 0 105.435 5.434 5.483 5.483 0 00-5.435-5.434z" fill="#fff"/><path data-name="Rectangle 1" fill="#fff" d="M481.144 41.712h5.313v86.477h-5.313z"/><path data-name="Path 14" d="M497.577 79.021h8.649v49.168h5.31V74.573h-13.959z" fill="#fff"/><path data-name="Path 15" d="M508.445 49.744a5.436 5.436 0 105.434 5.434 5.484 5.484 0 00-5.434-5.434z" fill="#fff"/><path data-name="Path 16" d="M543.403 128.685a52.529 52.529 0 007.536-.5v-4.322a35.371 35.371 0 01-6.548.491c-3.336 0-6.919-1.6-6.919-5.928V79.018h13.467v-4.449h-13.464V51.718h-5.312v22.854h-9.265v4.446h9.265v38.047c-.003 9.766 5.803 11.62 11.24 11.62z" fill="#fff"/></svg>