<svg xmlns="http://www.w3.org/2000/svg" width="116" height="116"><g data-name="Ellipse 8" fill="none" stroke="#fff" stroke-width="3"><circle cx="58" cy="58" r="58" stroke="none"/><circle cx="58" cy="58" r="56.5"/></g><g data-name="Group 411" fill="#ffde14"><path data-name="Path 73" d="M76.39 50.095l-13.144-.15 6.876-13.981a1.169 1.169 0 00-.056-1.133 1.17 1.17 0 00-.992-.55h-12.36a1.167 1.167 0 00-1.168 1.168 1.168 1.168 0 001.168 1.168h10.483l-6.865 13.958a1.17 1.17 0 00.054 1.127 1.168 1.168 0 00.983.557l12.449.141-23.267 26.414 6.344-18.737a1.165 1.165 0 00-.158-1.055 1.167 1.167 0 00-.949-.487h-8.64l6.994-18.1a1.169 1.169 0 00-.669-1.511 1.171 1.171 0 00-1.511.669l-7.607 19.686a1.166 1.166 0 00.126 1.082 1.167 1.167 0 00.964.507h8.715l-7.69 22.713a1.169 1.169 0 00.522 1.387 1.169 1.169 0 00.584.157 1.166 1.166 0 00.877-.4l28.8-32.7a1.17 1.17 0 00.19-1.248 1.171 1.171 0 00-1.053-.682z"/><path data-name="Path 74" d="M98.292 71.535l-8.959 2.951a35.355 35.355 0 00-4.113-39.128 35.351 35.351 0 00-42.492-9.307 1.167 1.167 0 00-.549 1.559 1.168 1.168 0 001.559.549 33.021 33.021 0 0139.687 8.695 33.015 33.015 0 013.6 36.98l-2.469-9.869-2.268.57 3.408 13.611 13.331-4.388z"/><path data-name="Path 75" d="M72.265 87.844a33.022 33.022 0 01-39.687-8.7 33.011 33.011 0 01-3.6-36.979l2.47 9.869 2.269-.571-3.41-13.611-13.33 4.39.73 2.222 8.958-2.952A35.355 35.355 0 0030.78 80.64a35.377 35.377 0 0027.223 12.784 35.291 35.291 0 0015.269-3.477 1.168 1.168 0 00.549-1.559 1.168 1.168 0 00-1.556-.544z"/></g></svg>