<svg id="accurately_icon" xmlns="http://www.w3.org/2000/svg" width="116" height="116" viewBox="0 0 116 116">
  <g id="Ellipse_8" data-name="Ellipse 8" fill="none" stroke="#fff" stroke-width="3">
    <circle cx="58" cy="58" r="58" stroke="none"/>
    <circle cx="58" cy="58" r="56.5" fill="none"/>
  </g>
  <g id="Group_409" data-name="Group 409" transform="translate(-1649.961 -516.152)">
    <g id="Group_32" data-name="Group 32" transform="translate(1672.5 551.751)">
      <g id="Group_25" data-name="Group 25" transform="translate(4.42 0)">
        <path id="Path_51" data-name="Path 51" d="M1689.942,596.15H1676.1a1.418,1.418,0,0,1-1.418-1.42v-41.56a1.417,1.417,0,1,1,2.835,0v40.142h12.426a1.419,1.419,0,0,1,0,2.839Z" transform="translate(-1674.681 -551.751)" fill="#ffde14"/>
      </g>
      <g id="Group_26" data-name="Group 26" transform="translate(26.299 41.576)">
        <path id="Path_52" data-name="Path 52" d="M1686.894,575.088a1.414,1.414,0,0,1-.991-2.425,1.464,1.464,0,0,1,2,0,1.441,1.441,0,0,1,0,2.016A1.471,1.471,0,0,1,1686.894,575.088Z" transform="translate(-1685.478 -572.269)" fill="#ffde14"/>
      </g>
      <g id="Group_27" data-name="Group 27" transform="translate(34.341 41.561)">
        <path id="Path_53" data-name="Path 53" d="M1724.034,575.1h-33.169a1.419,1.419,0,0,1,0-2.839h33.169a1.419,1.419,0,0,1,0,2.839Z" transform="translate(-1689.447 -572.261)" fill="#ffde14"/>
      </g>
      <g id="Group_28" data-name="Group 28">
        <path id="Path_54" data-name="Path 54" d="M1673.917,560.1a1.422,1.422,0,0,1-1.107-2.308l4.419-5.505a1.419,1.419,0,0,1,2.215,1.775l-4.419,5.508A1.422,1.422,0,0,1,1673.917,560.1Z" transform="translate(-1672.5 -551.751)" fill="#ffde14"/>
      </g>
      <g id="Group_29" data-name="Group 29" transform="translate(4.419)">
        <path id="Path_55" data-name="Path 55" d="M1680.522,560.1a1.411,1.411,0,0,1-1.109-.531l-4.421-5.508a1.419,1.419,0,0,1,2.215-1.775l4.417,5.505a1.42,1.42,0,0,1-1.1,2.308Z" transform="translate(-1674.68 -551.751)" fill="#ffde14"/>
      </g>
      <g id="Group_30" data-name="Group 30" transform="translate(62.563 37.156)">
        <path id="Path_56" data-name="Path 56" d="M1710.314,577.331a1.423,1.423,0,0,1-.883-.31l-5.522-4.407a1.418,1.418,0,1,1,1.769-2.217l5.522,4.405a1.418,1.418,0,0,1-.885,2.529Z" transform="translate(-1703.375 -570.087)" fill="#ffde14"/>
      </g>
      <g id="Group_31" data-name="Group 31" transform="translate(62.563 41.561)">
        <path id="Path_57" data-name="Path 57" d="M1704.794,579.5a1.418,1.418,0,0,1-.885-2.527l5.522-4.405a1.419,1.419,0,1,1,1.769,2.219l-5.522,4.405A1.405,1.405,0,0,1,1704.794,579.5Z" transform="translate(-1703.375 -572.261)" fill="#ffde14"/>
      </g>
    </g>
    <g id="Group_33" data-name="Group 33" transform="translate(1683.491 562.223)">
      <path id="Path_58" data-name="Path 58" d="M1683.067,567.166a5.124,5.124,0,1,1,5.143-5.125A5.139,5.139,0,0,1,1683.067,567.166Zm0-7.41a2.287,2.287,0,1,0,2.306,2.286A2.3,2.3,0,0,0,1683.067,559.756Z" transform="translate(-1677.924 -556.919)" fill="#ffde14"/>
    </g>
    <g id="Group_34" data-name="Group 34" transform="translate(1681.337 578.531)">
      <path id="Path_59" data-name="Path 59" d="M1682,575.212a5.123,5.123,0,1,1,5.147-5.122A5.139,5.139,0,0,1,1682,575.212Zm0-7.408a2.286,2.286,0,1,0,2.308,2.286A2.3,2.3,0,0,0,1682,567.8Z" transform="translate(-1676.861 -564.967)" fill="#ffde14"/>
    </g>
    <g id="Group_35" data-name="Group 35" transform="translate(1702.192 551.751)">
      <path id="Path_60" data-name="Path 60" d="M1692.3,562a5.123,5.123,0,1,1,5.143-5.123A5.138,5.138,0,0,1,1692.3,562Zm0-7.408a2.286,2.286,0,1,0,2.3,2.286A2.3,2.3,0,0,0,1692.3,554.588Z" transform="translate(-1687.153 -551.751)" fill="#ffde14"/>
    </g>
    <g id="Group_36" data-name="Group 36" transform="translate(1702.192 571.121)">
      <path id="Path_61" data-name="Path 61" d="M1692.3,571.557a5.124,5.124,0,1,1,5.143-5.125A5.14,5.14,0,0,1,1692.3,571.557Zm0-7.41a2.287,2.287,0,1,0,2.3,2.286A2.3,2.3,0,0,0,1692.3,564.147Z" transform="translate(-1687.153 -561.31)" fill="#ffde14"/>
    </g>
    <g id="Group_37" data-name="Group 37" transform="translate(1725.665 562.223)">
      <path id="Path_62" data-name="Path 62" d="M1703.88,567.166a5.124,5.124,0,1,1,5.145-5.125A5.139,5.139,0,0,1,1703.88,567.166Zm0-7.41a2.287,2.287,0,1,0,2.306,2.286A2.3,2.3,0,0,0,1703.88,559.756Z" transform="translate(-1698.737 -556.919)" fill="#ffde14"/>
    </g>
    <g id="Group_38" data-name="Group 38" transform="translate(1733.114 577.518)">
      <path id="Path_63" data-name="Path 63" d="M1707.556,574.714a5.124,5.124,0,1,1,5.141-5.122A5.139,5.139,0,0,1,1707.556,574.714Zm0-7.41a2.287,2.287,0,1,0,2.3,2.288A2.3,2.3,0,0,0,1707.556,567.3Z" transform="translate(-1702.413 -564.467)" fill="#ffde14"/>
    </g>
    <g id="Group_39" data-name="Group 39" transform="translate(1689.99 557.258)">
      <path id="Path_64" data-name="Path 64" d="M1682.551,563.527a1.419,1.419,0,0,1-.626-2.693l12.687-6.221a1.419,1.419,0,0,1,1.25,2.547l-12.687,6.221A1.4,1.4,0,0,1,1682.551,563.527Z" transform="translate(-1681.131 -554.469)" fill="#ffde14"/>
    </g>
    <g id="Group_40" data-name="Group 40" transform="translate(1709.639 557.258)">
      <path id="Path_65" data-name="Path 65" d="M1708.275,564.836a1.43,1.43,0,0,1-.6-.134l-16.028-7.532a1.418,1.418,0,0,1,1.206-2.567l16.026,7.53a1.419,1.419,0,0,1-.6,2.7Z" transform="translate(-1690.828 -554.469)" fill="#ffde14"/>
    </g>
    <g id="Group_41" data-name="Group 41" transform="translate(1688.785 576.621)">
      <path id="Path_66" data-name="Path 66" d="M1681.956,571.464a1.419,1.419,0,0,1-.446-2.766l13.893-4.6a1.418,1.418,0,0,1,.891,2.693l-13.892,4.6A1.426,1.426,0,0,1,1681.956,571.464Z" transform="translate(-1680.537 -564.025)" fill="#ffde14"/>
    </g>
    <g id="Group_42" data-name="Group 42" transform="translate(1709.64 576.62)">
      <path id="Path_67" data-name="Path 67" d="M1715.723,571.465a1.553,1.553,0,0,1-.273-.026l-23.475-4.6a1.419,1.419,0,0,1,.545-2.784l23.475,4.6a1.418,1.418,0,0,1-.272,2.811Z" transform="translate(-1690.829 -564.024)" fill="#ffde14"/>
    </g>
  </g>
</svg>
