<svg id="ikona_as_both" xmlns="http://www.w3.org/2000/svg" width="98" height="98" viewBox="0 0 98 98">
  <circle id="Ellipse_14" data-name="Ellipse 14" cx="49" cy="49" r="49" fill="#b3cf60"/>
  <g id="Group_386" data-name="Group 386" transform="translate(17.01 18.719)">
    <path id="Path_349" data-name="Path 349" d="M45.14,66.5a12.661,12.661,0,1,1,24.578-6.018" transform="translate(-30.519 -36.235)" fill="#b3cf60" stroke="#fff" stroke-linecap="round" stroke-linejoin="round" stroke-width="2.133"/>
    <line id="Line_19" data-name="Line 19" y1="7.408" transform="translate(26.797)" fill="none" stroke="#fff" stroke-linecap="round" stroke-linejoin="round" stroke-width="2.133"/>
    <line id="Line_20" data-name="Line 20" x1="3.704" y1="6.416" transform="translate(13.399 3.59)" fill="none" stroke="#fff" stroke-linecap="round" stroke-linejoin="round" stroke-width="2.133"/>
    <line id="Line_21" data-name="Line 21" x1="6.415" y1="3.704" transform="translate(3.59 13.398)" fill="none" stroke="#fff" stroke-linecap="round" stroke-linejoin="round" stroke-width="2.133"/>
    <line id="Line_22" data-name="Line 22" x1="7.408" transform="translate(0 26.797)" fill="none" stroke="#fff" stroke-linecap="round" stroke-linejoin="round" stroke-width="2.133"/>
    <line id="Line_23" data-name="Line 23" x1="6.416" y2="3.704" transform="translate(43.589 13.398)" fill="none" stroke="#fff" stroke-linecap="round" stroke-linejoin="round" stroke-width="2.133"/>
    <line id="Line_24" data-name="Line 24" x1="3.704" y2="6.416" transform="translate(36.492 3.59)" fill="none" stroke="#fff" stroke-linecap="round" stroke-linejoin="round" stroke-width="2.133"/>
    <path id="Path_350" data-name="Path 350" d="M39.791,72.736s15.435-16.078,60.452-9.325" transform="translate(-31.065 -34.958)" fill="#b3cf60" stroke="#fff" stroke-linecap="round" stroke-linejoin="round" stroke-width="2.133"/>
    <path id="Path_351" data-name="Path 351" d="M39.791,89.384s20.258-24.116,60.452-24.116" transform="translate(-31.065 -34.563)" fill="#b3cf60" stroke="#fff" stroke-linecap="round" stroke-linejoin="round" stroke-width="2.133"/>
    <path id="Path_352" data-name="Path 352" d="M98,68.448S77.747,68.214,59.74,90.956" transform="translate(-28.827 -34.206)" fill="#b3cf60" stroke="#fff" stroke-linecap="round" stroke-linejoin="round" stroke-width="2.133"/>
    <path id="Path_353" data-name="Path 353" d="M73.085,76.109S86.861,82.38,86.861,90.1" transform="translate(-27.33 -33.347)" fill="#b3cf60" stroke="#fff" stroke-linecap="round" stroke-linejoin="round" stroke-width="2.133"/>
    <path id="Path_354" data-name="Path 354" d="M79.278,72.518S95.812,74.1,95.812,80.853" transform="translate(-26.635 -33.75)" fill="#b3cf60" stroke="#fff" stroke-linecap="round" stroke-linejoin="round" stroke-width="2.133"/>
  </g>
</svg>
