<svg id="ikona_azure" xmlns="http://www.w3.org/2000/svg" width="98" height="98" viewBox="0 0 98 98">
  <circle id="Ellipse_16" data-name="Ellipse 16" cx="49" cy="49" r="49" fill="#b3cf60"/>
  <g id="Group_399" data-name="Group 399" transform="translate(22.72 19.185)">
    <g id="Group_392" data-name="Group 392" transform="translate(5.086 26.461)">
      <g id="Group_389" data-name="Group 389">
        <path id="Path_360" data-name="Path 360" d="M439.894,1345.693h-5.617a1.247,1.247,0,0,1-1.247-1.247v-3.618a14.446,14.446,0,0,1-3.037-1.258l-2.582,2.569a1.249,1.249,0,0,1-1.76,0l-3.973-3.95a1.25,1.25,0,0,1,0-1.769l2.576-2.56a14.406,14.406,0,0,1-1.258-3.009h-3.645a1.247,1.247,0,0,1-1.249-1.247v-5.586a1.248,1.248,0,0,1,1.249-1.247H423a14.425,14.425,0,0,1,1.258-3.01l-2.576-2.559a1.25,1.25,0,0,1,0-1.769l3.973-3.949a1.245,1.245,0,0,1,1.76,0l2.582,2.567a14.476,14.476,0,0,1,3.037-1.259v-3.616a1.245,1.245,0,0,1,1.247-1.245h5.617a1.246,1.246,0,0,1,1.247,1.245v3.616a14.479,14.479,0,0,1,3.037,1.259l2.583-2.567a1.244,1.244,0,0,1,1.758,0l3.971,3.949a1.25,1.25,0,0,1,0,1.769l-2.574,2.559a14.346,14.346,0,0,1,1.258,3.01h3.646a1.248,1.248,0,0,1,1.247,1.247v5.586a1.247,1.247,0,0,1-1.247,1.247h-3.646a14.328,14.328,0,0,1-1.258,3.009l2.574,2.56a1.25,1.25,0,0,1,0,1.769l-3.971,3.95a1.246,1.246,0,0,1-1.758,0l-2.583-2.569a14.45,14.45,0,0,1-3.037,1.258v3.618A1.247,1.247,0,0,1,439.894,1345.693Zm-4.37-2.5h3.123v-3.342a1.251,1.251,0,0,1,.989-1.222,12.069,12.069,0,0,0,4.058-1.675,1.244,1.244,0,0,1,1.555.162l2.391,2.376,2.2-2.19-2.38-2.366a1.248,1.248,0,0,1-.166-1.565,11.945,11.945,0,0,0,1.687-4.033,1.246,1.246,0,0,1,1.219-.985h3.37v-3.091H450.2a1.245,1.245,0,0,1-1.219-.985,11.963,11.963,0,0,0-1.687-4.032,1.245,1.245,0,0,1,.166-1.563l2.38-2.368-2.2-2.191-2.391,2.376a1.243,1.243,0,0,1-1.555.164,12.08,12.08,0,0,0-4.058-1.676,1.253,1.253,0,0,1-.989-1.222v-3.343h-3.123v3.343a1.253,1.253,0,0,1-.989,1.222,12.092,12.092,0,0,0-4.058,1.676,1.246,1.246,0,0,1-1.555-.164l-2.391-2.376-2.2,2.191,2.38,2.368a1.244,1.244,0,0,1,.166,1.563,11.958,11.958,0,0,0-1.687,4.032,1.245,1.245,0,0,1-1.219.985H420.6v3.091h3.37a1.246,1.246,0,0,1,1.219.985,11.941,11.941,0,0,0,1.687,4.033,1.247,1.247,0,0,1-.166,1.565l-2.38,2.366,2.2,2.19,2.391-2.376a1.248,1.248,0,0,1,1.555-.162,12.081,12.081,0,0,0,4.058,1.675,1.251,1.251,0,0,1,.989,1.222Z" transform="translate(-418.103 -1307.932)" fill="#fff"/>
      </g>
      <g id="Group_390" data-name="Group 390" transform="translate(21.657 20.599)">
        <path id="Path_361" data-name="Path 361" d="M431.52,1321.974a1.254,1.254,0,0,1-.886-.362,1.239,1.239,0,0,1-.374-.886,1.211,1.211,0,0,1,.374-.884,1.287,1.287,0,0,1,1.758,0,1.214,1.214,0,0,1,.362.884,1.262,1.262,0,0,1-.362.886A1.277,1.277,0,0,1,431.52,1321.974Z" transform="translate(-430.26 -1319.496)" fill="#fff"/>
      </g>
      <g id="Group_391" data-name="Group 391" transform="translate(12.814 12.739)">
        <path id="Path_362" data-name="Path 362" d="M431.465,1327.365a6.141,6.141,0,1,1,6.167-6.144,1.247,1.247,0,1,1-2.494,0,3.664,3.664,0,1,0-2.69,3.515,1.248,1.248,0,0,1,.661,2.407A6.236,6.236,0,0,1,431.465,1327.365Z" transform="translate(-425.296 -1315.083)" fill="#fff"/>
      </g>
    </g>
    <g id="Group_395" data-name="Group 395" transform="translate(22.822)">
      <g id="Group_393" data-name="Group 393">
        <path id="Path_363" data-name="Path 363" d="M445.2,1322.693a1.244,1.244,0,0,1-1.183-.849l-.818-2.432a11.082,11.082,0,0,1-2.155-.141l-1.161,2.326a1.248,1.248,0,0,1-1.664.564l-3.866-1.895a1.249,1.249,0,0,1-.567-1.678l1.155-2.314a11.355,11.355,0,0,1-1.411-1.6l-2.457.833a1.225,1.225,0,0,1-.953-.062,1.25,1.25,0,0,1-.631-.719l-1.368-4.075a1.249,1.249,0,0,1,.78-1.579l2.462-.836a11.662,11.662,0,0,1,.152-2.144l-2.309-1.132a1.247,1.247,0,0,1-.567-1.677l1.931-3.868a1.244,1.244,0,0,1,1.664-.563l2.32,1.138a11.741,11.741,0,0,1,1.637-1.433l-.821-2.438a1.249,1.249,0,0,1,.782-1.579l4.1-1.392a1.249,1.249,0,0,1,1.584.785l.818,2.431a11.424,11.424,0,0,1,2.155.139l1.162-2.326a1.25,1.25,0,0,1,1.664-.562l3.868,1.894a1.249,1.249,0,0,1,.567,1.678l-1.155,2.315a11.272,11.272,0,0,1,1.409,1.605l2.457-.836a1.248,1.248,0,0,1,1.583.784l1.37,4.075a1.248,1.248,0,0,1-.782,1.578l-2.462.837a11.252,11.252,0,0,1-.153,2.143l2.311,1.133a1.245,1.245,0,0,1,.566,1.676l-1.929,3.866a1.244,1.244,0,0,1-1.664.565l-2.323-1.139a11.438,11.438,0,0,1-1.634,1.433l.818,2.437a1.247,1.247,0,0,1-.781,1.579l-4.1,1.394A1.263,1.263,0,0,1,445.2,1322.693Zm-1.124-5.841a1.248,1.248,0,0,1,1.181.847l.725,2.163,1.737-.589-.73-2.17a1.253,1.253,0,0,1,.547-1.471,9.014,9.014,0,0,0,2.47-2.165,1.253,1.253,0,0,1,1.527-.342l2.07,1.014.814-1.635-2.052-1a1.25,1.25,0,0,1-.659-1.432,8.9,8.9,0,0,0,.233-3.257,1.249,1.249,0,0,1,.839-1.322l2.191-.745-.576-1.71-2.182.743a1.246,1.246,0,0,1-1.475-.545,8.82,8.82,0,0,0-2.147-2.441,1.246,1.246,0,0,1-.344-1.535l1.026-2.059-1.626-.8-1.035,2.075a1.247,1.247,0,0,1-1.42.655,9.02,9.02,0,0,0-3.265-.212,1.249,1.249,0,0,1-1.331-.839l-.727-2.164-1.737.591.73,2.173a1.249,1.249,0,0,1-.545,1.469,9.059,9.059,0,0,0-2.475,2.165,1.248,1.248,0,0,1-1.525.342l-2.068-1.014-.816,1.633,2.054,1.007a1.25,1.25,0,0,1,.657,1.433,8.9,8.9,0,0,0-.234,3.253,1.248,1.248,0,0,1-.837,1.322l-2.191.747.572,1.709,2.184-.743a1.251,1.251,0,0,1,1.475.544,8.875,8.875,0,0,0,2.146,2.444,1.243,1.243,0,0,1,.344,1.535l-1.026,2.059,1.626.8,1.035-2.075a1.247,1.247,0,0,1,1.418-.652,9.08,9.08,0,0,0,3.267.21A1.126,1.126,0,0,1,444.078,1316.852Z" transform="translate(-428.059 -1293.079)" fill="#fff"/>
      </g>
      <g id="Group_394" data-name="Group 394" transform="translate(9.836 9.787)">
        <path id="Path_364" data-name="Path 364" d="M438.586,1308.614a5.021,5.021,0,1,1,4.8-6.639,5.055,5.055,0,0,1-4.8,6.639Zm.053-7.546a2.56,2.56,0,0,0-2.434,3.349,2.545,2.545,0,0,0,4.815-1.647A2.506,2.506,0,0,0,438.639,1301.068Z" transform="translate(-433.58 -1298.572)" fill="#fff"/>
      </g>
    </g>
    <g id="Group_398" data-name="Group 398" transform="translate(0 4.53)">
      <g id="Group_396" data-name="Group 396">
        <path id="Path_365" data-name="Path 365" d="M424.98,1316.848a1.25,1.25,0,0,1-1.243-1.172l-.087-1.472a8.336,8.336,0,0,1-.921-.319l-.992,1.112a1.249,1.249,0,0,1-1.757.1l-2.211-1.953a1.25,1.25,0,0,1-.1-1.766l.987-1.1a8.578,8.578,0,0,1-.422-.862l-1.488.089a1.231,1.231,0,0,1-.9-.312,1.253,1.253,0,0,1-.417-.859l-.173-2.939a1.249,1.249,0,0,1,1.171-1.319l1.489-.088a8.629,8.629,0,0,1,.315-.9l-1.108-.979a1.248,1.248,0,0,1-.1-1.766l1.967-2.2a1.244,1.244,0,0,1,1.754-.1l1.117.984a7.975,7.975,0,0,1,.876-.426l-.087-1.471a1.244,1.244,0,0,1,1.171-1.318l2.955-.179a1.226,1.226,0,0,1,.9.313,1.26,1.26,0,0,1,.417.859l.085,1.468a8.944,8.944,0,0,1,.921.319l.99-1.111a1.249,1.249,0,0,1,1.757-.1l2.213,1.951a1.251,1.251,0,0,1,.105,1.766l-.987,1.1a8.426,8.426,0,0,1,.42.86l1.487-.088a1.226,1.226,0,0,1,.9.311,1.26,1.26,0,0,1,.417.859l.172,2.939a1.246,1.246,0,0,1-1.17,1.316l-1.488.091a8.22,8.22,0,0,1-.319.9l1.11.978a1.25,1.25,0,0,1,.1,1.768l-1.967,2.2a1.248,1.248,0,0,1-1.756.1l-1.114-.985a8.092,8.092,0,0,1-.878.425l.087,1.471a1.246,1.246,0,0,1-1.17,1.319l-2.955.178Zm-2.554-5.74a1.267,1.267,0,0,1,.613.158,5.768,5.768,0,0,0,1.985.687,1.245,1.245,0,0,1,1.06,1.16l.07,1.17.467-.028-.07-1.171a1.247,1.247,0,0,1,.914-1.277,5.728,5.728,0,0,0,1.89-.917,1.247,1.247,0,0,1,1.563.071l.891.788.306-.344-.88-.775a1.247,1.247,0,0,1-.259-1.555,5.669,5.669,0,0,0,.691-1.97,1.244,1.244,0,0,1,1.158-1.054l1.184-.072-.025-.447-1.185.069a1.236,1.236,0,0,1-1.276-.912,5.7,5.7,0,0,0-.917-1.875,1.247,1.247,0,0,1,.071-1.573l.786-.878-.344-.3-.793.887a1.246,1.246,0,0,1-1.543.256,5.8,5.8,0,0,0-1.986-.686,1.247,1.247,0,0,1-1.058-1.16l-.07-1.168-.467.027.07,1.17a1.248,1.248,0,0,1-.912,1.277,5.823,5.823,0,0,0-1.894.918,1.25,1.25,0,0,1-1.562-.071l-.889-.788-.306.344.88.777a1.248,1.248,0,0,1,.258,1.554,5.661,5.661,0,0,0-.691,1.97,1.247,1.247,0,0,1-1.158,1.056l-1.186.072.027.449,1.183-.073a1.255,1.255,0,0,1,1.277.912,5.677,5.677,0,0,0,.917,1.876,1.247,1.247,0,0,1-.071,1.571l-.784.878.342.3.793-.888A1.247,1.247,0,0,1,422.426,1311.107Z" transform="translate(-415.248 -1295.621)" fill="#fff"/>
      </g>
      <g id="Group_397" data-name="Group 397" transform="translate(6.824 6.786)">
        <path id="Path_366" data-name="Path 366" d="M422.912,1307.085a3.844,3.844,0,1,1,.231-.007C423.065,1307.082,422.988,1307.085,422.912,1307.085Zm.013-5.16a1.361,1.361,0,0,0-1.351,1.413,1.336,1.336,0,0,0,1.338,1.252l.084,0a1.331,1.331,0,0,0-.071-2.661Z" transform="translate(-419.078 -1299.43)" fill="#fff"/>
      </g>
    </g>
  </g>
</svg>
