<svg id="ikona_our_solution" xmlns="http://www.w3.org/2000/svg" width="98" height="98" viewBox="0 0 98 98">
  <circle id="Ellipse_15" data-name="Ellipse 15" cx="49" cy="49" r="49" fill="#b3cf60"/>
  <g id="Group_388" data-name="Group 388" transform="translate(14.39 15.169)">
    <g id="Group_387" data-name="Group 387" transform="translate(0)">
      <path id="Path_355" data-name="Path 355" d="M479.618,404.172l2.143,9.458a35.121,35.121,0,0,0,3.925.227c.292,0,.578-.014.867-.022l3.209-9.276a26.82,26.82,0,0,0,7.846-2.466l7.592,5.767a34.908,34.908,0,0,0,3.97-3.143l-3.376-8.83a27.087,27.087,0,0,0,4.449-6.777l8.847-.428a34.668,34.668,0,0,0,1.083-5.356l-7.5-4.173c.021-.432.032-.867.032-1.305a27.033,27.033,0,0,0-.912-6.97l5.86-5.422a34.661,34.661,0,0,0-2.723-5.119l-7.517,1.45a27.18,27.18,0,0,0-6.283-6.1l.919-7.241a34.6,34.6,0,0,0-5.441-2.328l-4.465,5.5a27.064,27.064,0,0,0-9.2-.643l-3.852-5.983a34.53,34.53,0,0,0-5.561,1.559l.113,7.12a27.117,27.117,0,0,0-7.614,5.662l-7.224-2.239a34.688,34.688,0,0,0-3.1,4.459l5.068,5.847A26.847,26.847,0,0,0,458.7,376.6l-7.747,3.252a34.9,34.9,0,0,0,.466,5.018l8.588,1.372a26.913,26.913,0,0,0,4.243,8.037l-4.237,8.239a34.8,34.8,0,0,0,3.456,3.3l8.172-4.893" transform="translate(-450.953 -344.984)" fill="none" stroke="#fff" stroke-linecap="round" stroke-linejoin="round" stroke-width="2"/>
      <path id="Path_356" data-name="Path 356" d="M472.668,389.378a17.377,17.377,0,0,1,.275-26.324" transform="translate(-449.536 -343.365)" fill="none" stroke="#fff" stroke-linecap="round" stroke-linejoin="round" stroke-width="2"/>
      <path id="Path_357" data-name="Path 357" d="M499.934,373.066a17.774,17.774,0,0,1,.159,2.371,17.375,17.375,0,0,1-17.375,17.376" transform="translate(-448.107 -342.468)" fill="none" stroke="#fff" stroke-linecap="round" stroke-linejoin="round" stroke-width="2"/>
      <path id="Path_358" data-name="Path 358" d="M491.634,362.019a17.441,17.441,0,0,1,4.29,4.122" transform="translate(-447.308 -343.458)" fill="none" stroke="#fff" stroke-linecap="round" stroke-linejoin="round" stroke-width="2"/>
    </g>
    <path id="Path_359" data-name="Path 359" d="M481.371,355.827H492.9l-7.175,14.589,13.986.16-26.861,30.493,7.659-22.62-9.648,0,7.1-18.358" transform="translate(-449.17 -344.013)" fill="none" stroke="#fff" stroke-linecap="round" stroke-linejoin="round" stroke-width="2"/>
  </g>
</svg>
