<svg id="make_business_icon" xmlns="http://www.w3.org/2000/svg" width="116" height="116" viewBox="0 0 116 116">
  <g id="Ellipse_8" data-name="Ellipse 8" fill="none" stroke="#fff" stroke-width="3">
    <circle cx="58" cy="58" r="58" stroke="none"/>
    <circle cx="58" cy="58" r="56.5" fill="none"/>
  </g>
  <g id="Group_408" data-name="Group 408" transform="translate(-154.775 -125.381)">
    <path id="Path_108" data-name="Path 108" d="M245.446,155.508H234.778a1.346,1.346,0,1,0,0,2.692H244.1V195.42H186.065a1.347,1.347,0,1,0,0,2.694H244.1v3.457H181.453V158.2h41.692a1.346,1.346,0,1,0,0-2.692H180.106a1.345,1.345,0,0,0-1.347,1.345V202.92a1.347,1.347,0,0,0,1.347,1.347h31.322v3.216h-1.374a6.842,6.842,0,0,0-6.832,6.842,1.347,1.347,0,0,0,1.347,1.349h16.415a1.357,1.357,0,0,0,1.347-1.359,6.838,6.838,0,0,0-6.83-6.832h-1.376v-3.216h31.321a1.347,1.347,0,0,0,1.347-1.347V156.853A1.345,1.345,0,0,0,245.446,155.508ZM215.5,210.178a4.144,4.144,0,0,1,3.917,2.8H206.136a4.145,4.145,0,0,1,3.918-2.8Z" transform="translate(0 0)" fill="#ffde14"/>
    <path id="Path_109" data-name="Path 109" d="M205.492,158.188a1.3,1.3,0,0,0,.943-.391,1.319,1.319,0,0,0,.4-.955,1.359,1.359,0,0,0-.391-.943,1.38,1.38,0,0,0-1.913,0,1.34,1.34,0,0,0,.957,2.288Z" transform="translate(23.471 0.006)" fill="#ffde14"/>
    <path id="Path_110" data-name="Path 110" d="M209.918,161.263a11.657,11.657,0,1,0,9.871,5.45l-.77-1.216-2.777,1.653c-2.179,1.3-3.085,1.832-4.846,3v-8.89Zm7.831,8.428.206-.123a8.709,8.709,0,1,1-9.513-5.227v11.372l2.308-1.565C214.256,171.763,214.791,171.446,217.749,169.691Z" transform="translate(18.026 5.321)" fill="#ffde14"/>
    <path id="Path_111" data-name="Path 111" d="M185.312,167.3v11.32a1.3,1.3,0,1,0,2.59,0V167.3a1.3,1.3,0,1,0-2.59,0Z" transform="translate(6.059 9.703)" fill="#ffde14"/>
    <path id="Path_112" data-name="Path 112" d="M182.248,168.945V176.9a1.087,1.087,0,0,0,2.175,0v-7.956a1.087,1.087,0,0,0-2.175,0Z" transform="translate(3.226 11.42)" fill="#ffde14"/>
    <path id="Path_113" data-name="Path 113" d="M188.483,164.914v15.91a1.3,1.3,0,1,0,2.59,0v-15.91a1.3,1.3,0,1,0-2.59,0Z" transform="translate(8.991 7.497)" fill="#ffde14"/>
    <path id="Path_114" data-name="Path 114" d="M191.654,161.825v21.854a1.3,1.3,0,0,0,2.592,0V161.825a1.3,1.3,0,0,0-2.592,0Z" transform="translate(11.922 4.643)" fill="#ffde14"/>
  </g>
</svg>
