<?xml version="1.0" encoding="utf-8"?>
<!-- Generator: Adobe Illustrator 16.0.3, SVG Export Plug-In . SVG Version: 6.00 Build 0)  -->
<!DOCTYPE svg PUBLIC "-//W3C//DTD SVG 1.1//EN" "http://www.w3.org/Graphics/SVG/1.1/DTD/svg11.dtd">
<svg version="1.1" id="Layer_1" xmlns="http://www.w3.org/2000/svg" xmlns:xlink="http://www.w3.org/1999/xlink" x="0px" y="0px"
	 width="519.724px" height="180.4px" viewBox="0 0 519.724 180.4" enable-background="new 0 0 519.724 180.4" xml:space="preserve">
<g>
	<g>
		<path fill="#FFFFFF" d="M24.282,64.982h-2.788V48.703c0-1.284,0.077-2.851,0.231-4.699H21.66c-0.266,1.094-0.504,1.877-0.714,2.35
			l-8.115,18.629h-1.362L3.336,46.489c-0.222-0.496-0.46-1.324-0.713-2.485H2.556c0.089,0.971,0.132,2.548,0.132,4.733v16.245H0
			v-24.24h3.685l7.303,16.904c0.553,1.285,0.912,2.254,1.079,2.906h0.117c0.552-1.555,0.933-2.545,1.145-2.975l7.452-16.836h3.502
			V64.982"/>
		<path fill="#FFFFFF" d="M32.494,41.469c0,0.519-0.176,0.949-0.53,1.293s-0.774,0.516-1.261,0.516c-0.498,0-0.92-0.167-1.263-0.498
			c-0.343-0.333-0.514-0.77-0.514-1.311c0-0.484,0.168-0.904,0.507-1.259c0.336-0.355,0.76-0.532,1.27-0.532
			c0.508,0,0.935,0.174,1.277,0.523C32.322,40.551,32.494,40.974,32.494,41.469 M32.03,64.982h-2.722v-17.31h2.722V64.982"/>
		<path fill="#FFFFFF" d="M48.144,64.188c-1.316,0.813-2.871,1.218-4.663,1.218c-1.55,0-2.941-0.363-4.175-1.091
			c-1.234-0.728-2.194-1.755-2.88-3.085c-0.688-1.329-1.029-2.822-1.029-4.479c0-2.862,0.806-5.16,2.416-6.896
			c1.608-1.735,3.752-2.604,6.432-2.604c1.482,0,2.793,0.293,3.934,0.879v2.84c-1.273-0.901-2.623-1.352-4.051-1.352
			c-1.759,0-3.188,0.64-4.29,1.918c-1.101,1.279-1.651,2.933-1.651,4.962c0,2.017,0.522,3.612,1.568,4.783
			c1.046,1.172,2.448,1.758,4.207,1.758c1.483,0,2.878-0.495,4.183-1.487V64.188"/>
		<path fill="#FFFFFF" d="M60.273,50.479c-0.487-0.372-1.178-0.559-2.074-0.559c-1.206,0-2.186,0.579-2.938,1.733
			c-0.753,1.155-1.128,2.657-1.128,4.506v8.823h-2.722v-17.31h2.722v3.566h0.066c0.375-1.194,0.957-2.139,1.742-2.831
			c0.786-0.693,1.688-1.04,2.707-1.04c0.706,0,1.249,0.079,1.625,0.237V50.479"/>
		<path fill="#FFFFFF" d="M77.383,56.26c0,2.75-0.766,4.961-2.298,6.635c-1.533,1.674-3.589,2.511-6.167,2.511
			c-2.512,0-4.517-0.814-6.017-2.443c-1.5-1.627-2.249-3.771-2.249-6.432c0-2.862,0.77-5.125,2.308-6.787s3.657-2.493,6.356-2.493
			c2.523,0,4.498,0.803,5.926,2.408C76.669,51.266,77.383,53.465,77.383,56.26 M74.596,56.361c0-2.174-0.474-3.843-1.42-5.004
			c-0.945-1.16-2.299-1.74-4.059-1.74c-1.749,0-3.131,0.594-4.148,1.782c-1.019,1.189-1.527,2.865-1.527,5.029
			c0,2.074,0.512,3.694,1.535,4.86s2.404,1.749,4.141,1.749c1.771,0,3.126-0.575,4.066-1.725S74.596,58.514,74.596,56.361"/>
		<path fill="#FFFFFF" d="M90.027,60.351c0,1.499-0.566,2.716-1.701,3.651s-2.641,1.403-4.522,1.403c-1.605,0-3.01-0.35-4.217-1.049
			v-2.975c1.339,1.104,2.811,1.656,4.415,1.656c2.158,0,3.238-0.806,3.238-2.417c0-0.654-0.212-1.186-0.631-1.598
			c-0.422-0.411-1.378-0.966-2.873-1.664c-1.504-0.654-2.566-1.355-3.187-2.105c-0.619-0.749-0.93-1.743-0.93-2.984
			c0-1.43,0.565-2.625,1.693-3.583c1.128-0.957,2.563-1.437,4.299-1.437c1.339,0,2.55,0.271,3.636,0.812v2.789
			c-1.107-0.822-2.391-1.233-3.852-1.233c-0.896,0-1.618,0.226-2.166,0.676s-0.821,1.03-0.821,1.74c0,0.768,0.21,1.355,0.631,1.768
			c0.42,0.411,1.289,0.898,2.605,1.462c1.616,0.699,2.749,1.432,3.402,2.197C89.701,58.227,90.027,59.19,90.027,60.351"/>
		<path fill="#FFFFFF" d="M108.597,56.26c0,2.75-0.765,4.961-2.298,6.635s-3.588,2.511-6.167,2.511
			c-2.513,0-4.517-0.814-6.017-2.443c-1.499-1.627-2.248-3.771-2.248-6.432c0-2.862,0.769-5.125,2.307-6.787
			c1.537-1.662,3.656-2.493,6.357-2.493c2.522,0,4.498,0.803,5.925,2.408C107.883,51.266,108.597,53.465,108.597,56.26
			 M105.81,56.361c0-2.174-0.474-3.843-1.42-5.004c-0.946-1.16-2.298-1.74-4.059-1.74c-1.748,0-3.131,0.594-4.149,1.782
			c-1.018,1.189-1.527,2.865-1.527,5.029c0,2.074,0.513,3.694,1.535,4.86c1.023,1.166,2.404,1.749,4.142,1.749
			c1.771,0,3.126-0.575,4.067-1.725C105.338,60.164,105.81,58.514,105.81,56.361"/>
		<path fill="#FFFFFF" d="M119.748,41.79c-0.531-0.305-1.135-0.456-1.809-0.456c-1.904,0-2.855,1.223-2.855,3.668v2.671h3.984v2.349
			h-3.984v14.961h-2.723V50.021h-2.887v-2.349h2.887v-2.807c0-1.758,0.51-3.177,1.527-4.26c1.018-1.082,2.313-1.622,3.884-1.622
			c0.831,0,1.488,0.102,1.976,0.304V41.79"/>
		<path fill="#FFFFFF" d="M129.638,64.813c-0.655,0.372-1.505,0.559-2.557,0.559c-2.966,0-4.448-1.702-4.448-5.106V50.021h-2.921
			v-2.349h2.921v-4.227l2.721-0.896v5.122h4.284v2.349h-4.284v9.771c0,1.16,0.194,1.986,0.582,2.476
			c0.388,0.49,1.035,0.736,1.941,0.736c0.676,0,1.262-0.187,1.761-0.558V64.813"/>
		<path fill="#FFFFFF" d="M42.553,81.36c0,2.344-0.794,4.234-2.382,5.671s-3.671,2.156-6.249,2.156h-3.137v9.178h-2.789V74.126h6.54
			c2.545,0,4.518,0.632,5.917,1.901C41.854,77.294,42.553,79.072,42.553,81.36 M39.631,81.513c0-3.212-1.858-4.818-5.576-4.818
			h-3.27v9.939h2.921c1.914,0,3.38-0.442,4.398-1.327C39.123,84.423,39.631,83.157,39.631,81.513"/>
		<path fill="#FFFFFF" d="M56.757,98.365h-2.722V95.66h-0.066c-1.184,2.086-2.928,3.128-5.229,3.128
			c-1.637,0-2.949-0.454-3.934-1.36s-1.478-2.127-1.478-3.66c0-3.223,1.87-5.104,5.61-5.646l5.096-0.728
			c0-2.93-1.168-4.395-3.502-4.395c-2.047,0-3.895,0.704-5.543,2.112v-2.839c0.496-0.383,1.349-0.752,2.555-1.107
			s2.279-0.533,3.22-0.533c3.995,0,5.992,2.158,5.992,6.475V98.365 M54.035,89.609l-4.116,0.592
			c-1.406,0.203-2.39,0.544-2.954,1.021c-0.564,0.48-0.848,1.254-0.848,2.324c0,0.869,0.305,1.565,0.914,2.089
			c0.607,0.523,1.388,0.785,2.34,0.785c1.35,0,2.465-0.483,3.345-1.454c0.88-0.968,1.319-2.18,1.319-3.633V89.609"/>
		<path fill="#FFFFFF" d="M69.899,83.862c-0.486-0.372-1.177-0.558-2.075-0.558c-1.205,0-2.186,0.576-2.938,1.731
			c-0.753,1.155-1.128,2.657-1.128,4.505v8.824h-2.723v-17.31h2.723v3.567h0.065c0.377-1.195,0.957-2.139,1.744-2.832
			c0.785-0.693,1.687-1.04,2.705-1.04c0.708,0,1.251,0.08,1.626,0.237V83.862"/>
		<path fill="#FFFFFF" d="M82.584,98.197c-0.653,0.371-1.506,0.558-2.556,0.558c-2.966,0-4.448-1.701-4.448-5.105V83.406h-2.922
			v-2.351h2.922V76.83l2.722-0.896v5.122h4.282v2.351h-4.282v9.77c0,1.161,0.192,1.986,0.581,2.477
			c0.387,0.49,1.034,0.735,1.942,0.735c0.674,0,1.261-0.186,1.759-0.558V98.197"/>
		<path fill="#FFFFFF" d="M100.498,98.365h-2.723v-9.871c0-3.662-1.317-5.494-3.95-5.494c-1.34,0-2.46,0.515-3.361,1.547
			c-0.902,1.031-1.354,2.347-1.354,3.947v9.871H86.39v-17.31h2.721v2.874h0.066c1.273-2.198,3.132-3.297,5.579-3.297
			c1.869,0,3.293,0.62,4.272,1.859c0.979,1.24,1.47,2.999,1.47,5.275V98.365"/>
		<path fill="#FFFFFF" d="M118.304,90.404h-12.001c0.045,1.949,0.551,3.439,1.52,4.471s2.311,1.546,4.025,1.546
			c1.926,0,3.679-0.63,5.262-1.893v2.586c-1.482,1.116-3.453,1.674-5.909,1.674c-2.423,0-4.315-0.796-5.676-2.392
			c-1.362-1.595-2.042-3.801-2.042-6.618c0-1.714,0.34-3.276,1.021-4.691c0.681-1.414,1.618-2.509,2.813-3.287
			s2.523-1.167,3.983-1.167c2.202,0,3.919,0.73,5.153,2.188c1.234,1.46,1.851,3.503,1.851,6.129V90.404 M115.516,88.055
			c-0.023-1.601-0.402-2.843-1.137-3.729c-0.737-0.884-1.773-1.326-3.112-1.326c-1.262,0-2.341,0.463-3.236,1.386
			c-0.896,0.925-1.461,2.147-1.694,3.669H115.516"/>
		<path fill="#FFFFFF" d="M130.3,83.862c-0.486-0.372-1.177-0.558-2.074-0.558c-1.205,0-2.185,0.576-2.937,1.731
			c-0.754,1.155-1.13,2.657-1.13,4.505v8.824h-2.721v-17.31h2.721v3.567h0.067c0.375-1.195,0.957-2.139,1.742-2.832
			s1.688-1.04,2.707-1.04c0.707,0,1.248,0.08,1.624,0.237V83.862"/>
		<path fill="#FFFFFF" d="M73.959,128.24l-0.523,1.492h-0.03c-0.093-0.35-0.251-0.846-0.495-1.477l-2.806-7.163h-2.741v11.39h1.808
			v-7.002c0-0.433-0.009-0.955-0.026-1.553c-0.009-0.303-0.042-0.544-0.05-0.729h0.038c0.093,0.429,0.188,0.756,0.258,0.974
			l3.362,8.31h1.265l3.337-8.385c0.076-0.19,0.155-0.563,0.229-0.898h0.039c-0.043,0.829-0.08,1.587-0.084,2.045v7.238h1.928v-11.39
			h-2.632L73.959,128.24"/>
		<polyline fill="#FFFFFF" points="81.283,132.481 83.168,132.481 83.168,126.32 83.168,124.319 81.283,124.319 81.283,129.321 
			81.283,132.481 		"/>
		<path fill="#FFFFFF" d="M82.244,120.851c-0.309,0-0.58,0.108-0.802,0.321c-0.224,0.214-0.337,0.483-0.337,0.801
			c0,0.312,0.111,0.576,0.332,0.784s0.492,0.313,0.807,0.313c0.315,0,0.59-0.105,0.812-0.312c0.224-0.21,0.337-0.475,0.337-0.786
			c0-0.307-0.11-0.573-0.328-0.792C82.848,120.962,82.57,120.851,82.244,120.851"/>
		<path fill="#FFFFFF" d="M89.842,124.238c-0.362-0.076-0.716-0.115-1.053-0.115c-0.865,0-1.637,0.188-2.293,0.562
			c-0.657,0.373-1.166,0.905-1.513,1.583c-0.344,0.676-0.519,1.466-0.519,2.346c0,0.771,0.171,1.479,0.504,2.102
			c0.336,0.626,0.811,1.115,1.411,1.454s1.294,0.51,2.062,0.51c0.896,0,1.661-0.183,2.273-0.542l0.025-0.015v-1.759l-0.079,0.059
			c-0.278,0.207-0.589,0.371-0.922,0.489c-0.334,0.118-0.638,0.179-0.903,0.179c-0.74,0-1.334-0.236-1.766-0.701
			s-0.65-1.118-0.65-1.94c0-0.828,0.228-1.499,0.679-1.993c0.448-0.493,1.044-0.743,1.767-0.743c0.621,0,1.225,0.214,1.796,0.636
			l0.079,0.059v-1.853l-0.025-0.016C90.5,124.416,90.207,124.315,89.842,124.238"/>
		<path fill="#FFFFFF" d="M96.055,124.178c-0.475,0-0.898,0.155-1.262,0.461c-0.318,0.268-0.549,0.636-0.726,1.094h-0.019v-1.413
			h-1.886v8.162h1.886v-4.175c0-0.711,0.158-1.293,0.47-1.733c0.308-0.436,0.718-0.656,1.218-0.656c0.171,0,0.361,0.028,0.567,0.085
			c0.205,0.056,0.353,0.117,0.44,0.182l0.079,0.058v-1.937l-0.03-0.014C96.617,124.217,96.369,124.178,96.055,124.178"/>
		<path fill="#FFFFFF" d="M101.175,124.123c-1.322,0-2.372,0.395-3.12,1.172c-0.749,0.777-1.127,1.854-1.127,3.2
			c0,1.278,0.37,2.306,1.1,3.055c0.731,0.749,1.725,1.129,2.954,1.129c1.281,0,2.31-0.4,3.059-1.188
			c0.747-0.789,1.126-1.854,1.126-3.169c0-1.299-0.355-2.334-1.058-3.078S102.419,124.123,101.175,124.123 M102.674,130.408
			c-0.355,0.453-0.887,0.682-1.585,0.682c-0.692,0-1.239-0.234-1.623-0.695c-0.387-0.463-0.584-1.123-0.584-1.963
			c0-0.864,0.197-1.542,0.584-2.013c0.386-0.47,0.926-0.707,1.608-0.707c0.662,0,1.188,0.228,1.565,0.676
			c0.38,0.449,0.571,1.122,0.571,1.997C103.211,129.271,103.03,129.952,102.674,130.408"/>
		<path fill="#FFFFFF" d="M109.348,127.692c-0.595-0.243-0.976-0.445-1.132-0.6c-0.151-0.149-0.229-0.361-0.229-0.629
			c0-0.237,0.097-0.428,0.291-0.581c0.195-0.155,0.469-0.233,0.811-0.233c0.32,0,0.645,0.051,0.969,0.151
			c0.322,0.1,0.606,0.234,0.844,0.399l0.079,0.054v-1.775l-0.03-0.014c-0.22-0.095-0.507-0.177-0.857-0.243
			c-0.35-0.065-0.666-0.099-0.941-0.099c-0.898,0-1.643,0.234-2.211,0.695c-0.57,0.465-0.86,1.074-0.86,1.811
			c0,0.385,0.063,0.724,0.185,1.012c0.125,0.29,0.316,0.546,0.572,0.76c0.251,0.213,0.643,0.435,1.159,0.661
			c0.435,0.183,0.759,0.337,0.965,0.458c0.2,0.119,0.343,0.238,0.424,0.355c0.078,0.113,0.118,0.269,0.118,0.462
			c0,0.55-0.402,0.815-1.231,0.815c-0.31,0-0.66-0.064-1.044-0.193c-0.385-0.13-0.745-0.315-1.068-0.553l-0.079-0.059v1.873
			l0.028,0.013c0.271,0.127,0.611,0.233,1.013,0.319c0.4,0.083,0.765,0.126,1.079,0.126c0.978,0,1.763-0.235,2.336-0.699
			c0.576-0.468,0.867-1.091,0.867-1.855c0-0.549-0.156-1.021-0.467-1.401C110.628,128.346,110.093,127.998,109.348,127.692"/>
		<path fill="#FFFFFF" d="M116.473,124.123c-1.322,0-2.371,0.395-3.12,1.172c-0.747,0.777-1.127,1.854-1.127,3.2
			c0,1.278,0.371,2.306,1.101,3.055c0.73,0.749,1.725,1.129,2.953,1.129c1.282,0,2.309-0.4,3.059-1.188
			c0.748-0.789,1.126-1.854,1.126-3.169c0-1.299-0.355-2.334-1.058-3.078C118.705,124.5,117.718,124.123,116.473,124.123
			 M117.973,130.408c-0.355,0.453-0.889,0.682-1.585,0.682c-0.693,0-1.238-0.234-1.624-0.695c-0.387-0.463-0.582-1.123-0.582-1.963
			c0-0.864,0.195-1.542,0.582-2.013c0.386-0.47,0.927-0.707,1.609-0.707c0.661,0,1.188,0.228,1.565,0.676
			c0.379,0.449,0.571,1.122,0.571,1.997C118.51,129.271,118.328,129.952,117.973,130.408"/>
		<path fill="#FFFFFF" d="M130.517,125.886v-1.566h-1.91v-2.435l-0.063,0.021l-1.794,0.56l-0.036,0.011v1.844h-2.827v-1.026
			c0-0.479,0.105-0.845,0.313-1.09c0.206-0.241,0.5-0.363,0.875-0.363c0.27,0,0.548,0.064,0.828,0.191l0.07,0.032v-1.648
			l-0.032-0.013c-0.262-0.096-0.619-0.144-1.061-0.144c-0.557,0-1.063,0.123-1.503,0.367c-0.442,0.245-0.79,0.595-1.034,1.04
			c-0.243,0.443-0.364,0.956-0.364,1.523v1.13h-1.329v1.566h1.329v6.597h1.908v-6.597h2.827v4.19c0,1.727,0.802,2.603,2.378,2.603
			c0.26,0,0.532-0.031,0.811-0.092c0.284-0.063,0.477-0.124,0.59-0.19l0.025-0.015v-1.581l-0.077,0.052
			c-0.104,0.071-0.232,0.129-0.384,0.172c-0.153,0.043-0.279,0.063-0.379,0.063c-0.368,0-0.642-0.101-0.812-0.3
			c-0.171-0.202-0.259-0.556-0.259-1.05v-3.853H130.517"/>
		<polyline fill="#EE5225" points="51.975,126.32 43.105,126.32 43.105,117.288 51.975,117.288 51.975,126.32 		"/>
		<polyline fill="#80BA42" points="61.766,126.318 52.897,126.318 52.897,117.287 61.766,117.287 61.766,126.318 		"/>
		<polyline fill="#319ED8" points="51.975,136.296 43.105,136.296 43.105,127.264 51.975,127.264 51.975,136.296 		"/>
		<polyline fill="#FBB615" points="61.766,136.296 52.897,136.296 52.897,127.264 61.766,127.264 61.766,136.296 		"/>
	</g>
	<rect x="157.475" y="45.54" fill="#FFFFFF" width="1" height="54.25"/>
	<g>
		<path fill="#FFFFFF" d="M192.654,19.975l-2.518,7.815h-2.682l7.815-22.89h3.172l7.881,22.89h-2.846l-2.615-7.815H192.654z
			 M196.808,7.483h-0.033l-3.368,10.235h6.736L196.808,7.483z"/>
		<path fill="#FFFFFF" d="M220.609,15.593V4.9h2.584v22.89h-2.584v-2.387c-0.784,1.536-2.942,2.779-5.231,2.779
			c-4.284,0-7.488-3.237-7.488-7.718c0-4.479,3.106-7.717,7.39-7.717C217.568,12.748,219.825,14.023,220.609,15.593z M215.64,25.926
			c3.008,0,5.101-2.354,5.101-5.461c0-3.106-2.093-5.46-5.101-5.46c-3.009,0-5.102,2.354-5.102,5.46
			C210.538,23.572,212.631,25.926,215.64,25.926z"/>
		<path fill="#FFFFFF" d="M233.229,25.566l4.382-12.426h2.779l-5.591,14.649h-3.271l-5.362-14.649h2.942L233.229,25.566z"/>
		<path fill="#FFFFFF" d="M251.407,17.915c0-1.93-1.438-2.845-3.466-2.845c-1.733,0-3.009,0.752-4.088,1.602l-1.373-1.929
			c1.177-1.047,3.139-1.995,5.656-1.995c3.729,0,5.854,2.126,5.854,5.199v9.843h-2.583v-1.668c-0.851,1.472-2.845,2.061-4.382,2.061
			c-3.237,0-5.297-1.93-5.297-4.676c0-2.846,1.962-4.382,5.166-4.382h3.434c0.817,0,1.079-0.426,1.079-1.047V17.915z
			 M251.407,22.395v-1.569c-0.294,0.327-0.916,0.425-1.635,0.425h-2.289c-2.027,0-3.041,0.817-3.041,2.289
			c0,1.242,0.948,2.452,2.976,2.452C249.478,25.991,251.407,24.978,251.407,22.395z"/>
		<path fill="#FFFFFF" d="M271.22,27.79h-2.583v-9.417c0-1.995-1.145-3.401-3.27-3.401c-1.472,0-3.074,0.817-4.578,2.551V27.79
			h-2.584V13.141h2.519v1.995c1.308-1.537,3.041-2.388,5.101-2.388c3.467,0,5.396,2.191,5.396,5.461V27.79z"/>
		<path fill="#FFFFFF" d="M282.139,25.926c1.831,0,3.335-0.817,4.218-2.224l2.126,1.341c-1.275,1.896-3.761,3.14-6.344,3.14
			c-4.284,0-7.718-3.237-7.718-7.718c0-4.479,3.434-7.717,7.718-7.717c2.583,0,5.068,1.243,6.344,3.14l-2.126,1.341
			c-0.883-1.406-2.387-2.224-4.218-2.224c-3.009,0-5.068,2.354-5.068,5.46C277.07,23.572,279.13,25.926,282.139,25.926z"/>
		<path fill="#FFFFFF" d="M293.188,21.25c0.327,2.648,2.027,4.644,4.741,4.644c1.603,0,3.041-0.621,3.892-1.831h3.074
			c-1.309,2.551-3.99,4.12-6.998,4.12c-4.284,0-7.423-3.237-7.423-7.718c0-4.479,3.106-7.717,7.39-7.717
			c3.794,0,7.357,2.453,7.357,8.404v0.098H293.188z M293.254,19.125h8.96c-0.131-2.093-1.831-4.088-4.35-4.088
			C295.314,15.037,293.712,16.737,293.254,19.125z"/>
		<path fill="#FFFFFF" d="M320.195,15.593V4.9h2.584v22.89h-2.584v-2.387c-0.784,1.536-2.942,2.779-5.231,2.779
			c-4.284,0-7.488-3.237-7.488-7.718c0-4.479,3.106-7.717,7.39-7.717C317.154,12.748,319.411,14.023,320.195,15.593z
			 M315.226,25.926c3.008,0,5.101-2.354,5.101-5.461c0-3.106-2.093-5.46-5.101-5.46c-3.009,0-5.102,2.354-5.102,5.46
			C310.124,23.572,312.217,25.926,315.226,25.926z"/>
		<path fill="#FFFFFF" d="M345.238,8.89c-1.209-1.145-3.27-2.125-5.003-2.125c-2.158,0-4.283,1.242-4.283,3.498
			c0,1.472,0.915,2.649,3.27,3.826l2.191,1.112c3.728,1.896,5.428,3.858,5.428,6.67c0,3.106-2.485,6.312-7.227,6.312
			c-3.335,0-5.559-1.341-7.227-2.878l1.504-1.896c1.636,1.7,3.63,2.518,5.788,2.518c2.747,0,4.513-1.798,4.513-3.891
			c0-1.995-1.569-3.336-4.382-4.709l-1.864-0.916c-3.041-1.504-4.643-3.433-4.643-6.082c0-3.662,3.237-5.82,6.899-5.82
			c2.518,0,4.904,1.145,6.475,2.42L345.238,8.89z"/>
		<path fill="#FFFFFF" d="M352.659,25.436v8.109h-2.584V13.141h2.584v2.452c0.784-1.569,3.041-2.845,5.33-2.845
			c4.283,0,7.39,3.237,7.39,7.717c0,4.48-3.204,7.718-7.488,7.718C355.602,28.183,353.443,26.973,352.659,25.436z M357.629,15.005
			c-3.008,0-5.101,2.354-5.101,5.46c0,3.107,2.093,5.461,5.101,5.461c3.009,0,5.102-2.354,5.102-5.461
			C362.73,17.358,360.638,15.005,357.629,15.005z"/>
		<path fill="#FFFFFF" d="M370.51,21.25c0.327,2.648,2.027,4.644,4.741,4.644c1.603,0,3.041-0.621,3.892-1.831h3.074
			c-1.309,2.551-3.99,4.12-6.998,4.12c-4.284,0-7.423-3.237-7.423-7.718c0-4.479,3.106-7.717,7.39-7.717
			c3.794,0,7.357,2.453,7.357,8.404v0.098H370.51z M370.575,19.125h8.96c-0.131-2.093-1.831-4.088-4.35-4.088
			C372.636,15.037,371.033,16.737,370.575,19.125z"/>
		<path fill="#FFFFFF" d="M392.48,25.926c1.831,0,3.335-0.817,4.218-2.224l2.126,1.341c-1.275,1.896-3.761,3.14-6.344,3.14
			c-4.284,0-7.718-3.237-7.718-7.718c0-4.479,3.434-7.717,7.718-7.717c2.583,0,5.068,1.243,6.344,3.14l-2.126,1.341
			c-0.883-1.406-2.387-2.224-4.218-2.224c-3.009,0-5.068,2.354-5.068,5.46C387.412,23.572,389.472,25.926,392.48,25.926z"/>
		<path fill="#FFFFFF" d="M402.713,15.266h-2.322v-2.125h4.905V27.79h-2.583V15.266z M401.797,7.844
			c0-1.112,0.883-2.027,1.995-2.027c1.111,0,2.027,0.915,2.027,2.027c0,1.111-0.916,1.994-2.027,1.994
			C402.68,9.838,401.797,8.955,401.797,7.844z"/>
		<path fill="#FFFFFF" d="M418.211,17.915c0-1.93-1.438-2.845-3.466-2.845c-1.733,0-3.009,0.752-4.088,1.602l-1.373-1.929
			c1.177-1.047,3.139-1.995,5.656-1.995c3.729,0,5.854,2.126,5.854,5.199v9.843h-2.583v-1.668c-0.851,1.472-2.845,2.061-4.382,2.061
			c-3.237,0-5.298-1.93-5.298-4.676c0-2.846,1.963-4.382,5.167-4.382h3.434c0.817,0,1.079-0.426,1.079-1.047V17.915z
			 M418.211,22.395v-1.569c-0.294,0.327-0.916,0.425-1.635,0.425h-2.289c-2.027,0-3.041,0.817-3.041,2.289
			c0,1.242,0.948,2.452,2.976,2.452C416.281,25.991,418.211,24.978,418.211,22.395z"/>
		<path fill="#FFFFFF" d="M427.594,27.79h-2.584V4.9h2.584V27.79z"/>
		<path fill="#FFFFFF" d="M432.661,15.266h-2.322v-2.125h4.905V27.79h-2.583V15.266z M431.745,7.844
			c0-1.112,0.883-2.027,1.995-2.027c1.111,0,2.027,0.915,2.027,2.027c0,1.111-0.916,1.994-2.027,1.994
			C432.628,9.838,431.745,8.955,431.745,7.844z"/>
		<path fill="#FFFFFF" d="M450.382,15.266l-8.731,10.399h8.731v2.125h-11.674v-2.125l8.796-10.399h-8.796v-2.125h11.674V15.266z"/>
		<path fill="#FFFFFF" d="M462.381,17.915c0-1.93-1.438-2.845-3.466-2.845c-1.733,0-3.009,0.752-4.088,1.602l-1.373-1.929
			c1.177-1.047,3.139-1.995,5.656-1.995c3.729,0,5.854,2.126,5.854,5.199v9.843h-2.583v-1.668c-0.851,1.472-2.845,2.061-4.382,2.061
			c-3.237,0-5.298-1.93-5.298-4.676c0-2.846,1.963-4.382,5.167-4.382h3.434c0.817,0,1.079-0.426,1.079-1.047V17.915z
			 M462.381,22.395v-1.569c-0.294,0.327-0.916,0.425-1.635,0.425h-2.289c-2.027,0-3.041,0.817-3.041,2.289
			c0,1.242,0.948,2.452,2.976,2.452C460.451,25.991,462.381,24.978,462.381,22.395z"/>
		<path fill="#FFFFFF" d="M472.547,7.025v6.115h3.598v2.125h-3.598v9.124c0,1.111,0.654,1.308,1.505,1.308
			c1.242,0,2.093-0.098,2.093-0.098v2.19c0,0-1.275,0.131-2.485,0.131c-1.569,0-3.695-0.327-3.695-3.074v-9.581h-2.485v-2.125h2.485
			V7.025H472.547z"/>
		<path fill="#FFFFFF" d="M479.871,15.266h-2.322v-2.125h4.905V27.79h-2.583V15.266z M478.955,7.844
			c0-1.112,0.883-2.027,1.995-2.027c1.111,0,2.027,0.915,2.027,2.027c0,1.111-0.916,1.994-2.027,1.994
			C479.838,9.838,478.955,8.955,478.955,7.844z"/>
		<path fill="#FFFFFF" d="M493.57,12.748c4.284,0,7.75,3.237,7.75,7.717c0,4.48-3.466,7.718-7.75,7.718
			c-4.283,0-7.75-3.237-7.75-7.718C485.82,15.985,489.287,12.748,493.57,12.748z M493.57,15.005c-3.008,0-5.101,2.354-5.101,5.46
			c0,3.107,2.093,5.461,5.101,5.461c3.009,0,5.102-2.354,5.102-5.461C498.672,17.358,496.579,15.005,493.57,15.005z"/>
		<path fill="#FFFFFF" d="M517.699,27.79h-2.583v-9.417c0-1.995-1.145-3.401-3.27-3.401c-1.472,0-3.074,0.817-4.578,2.551V27.79
			h-2.584V13.141h2.519v1.995c1.308-1.537,3.041-2.388,5.101-2.388c3.467,0,5.396,2.191,5.396,5.461V27.79z"/>
		<path fill="#FFFFFF" d="M191.201,51.368l-2.132,6.422h-1.664l6.267-18.2h2.002l6.292,18.2h-1.742l-2.185-6.422H191.201z
			 M191.644,49.964h5.928l-2.912-8.788h-0.078L191.644,49.964z"/>
		<path fill="#FFFFFF" d="M212.158,50.25c0-1.847-1.196-2.834-2.835-2.834c-1.378,0-2.729,0.754-3.821,2.027v8.347h-1.587V46.323
			h1.561v1.639c1.04-1.248,2.444-1.95,4.108-1.95c2.678,0,4.16,1.638,4.16,4.16v7.618h-1.586V50.25z"/>
		<path fill="#FFFFFF" d="M223.494,49.859c0-1.742-1.353-2.443-2.887-2.443c-1.43,0-2.574,0.598-3.536,1.248l-0.754-1.196
			c0.78-0.599,2.392-1.456,4.395-1.456c2.729,0,4.368,1.534,4.368,3.9v7.878h-1.586v-1.43c-0.65,1.144-2.211,1.741-3.589,1.741
			c-2.496,0-4.16-1.455-4.16-3.51c0-2.105,1.509-3.354,3.874-3.354h2.757c0.806,0,1.118-0.416,1.118-1.041V49.859z M223.494,53.708
			v-1.586c-0.286,0.338-0.885,0.441-1.482,0.441h-2.132c-1.69,0-2.471,0.832-2.471,2.028c0,0.988,0.754,2.158,2.679,2.158
			C221.83,56.75,223.494,55.788,223.494,53.708z"/>
		<path fill="#FFFFFF" d="M229.629,57.79h-1.586v-18.2h1.586V57.79z"/>
		<path fill="#FFFFFF" d="M236.441,57.79h-0.572l-4.264-11.467h1.768l3.588,10.192l3.692-10.192h1.69l-5.123,13.495
			c-0.623,1.638-1.325,2.521-3.275,2.521h-1.326v-1.326h1.3c1.145,0,1.534-0.598,1.977-1.768L236.441,57.79z"/>
		<path fill="#FFFFFF" d="M246.503,41.487v4.836h2.834v1.326h-2.834v7.774c0,1.066,0.754,1.118,1.638,1.118
			c0.729,0,1.196-0.078,1.196-0.078v1.326c0,0-0.832,0.104-1.768,0.104c-1.196,0-2.652-0.313-2.652-2.444v-7.801h-1.976v-1.326
			h1.976v-4.836H246.503z"/>
		<path fill="#FFFFFF" d="M253.158,57.79h-1.586V47.649h-1.819v-1.326h3.405V57.79z M252.249,40.785
			c0.754,0,1.378,0.624,1.378,1.378c0,0.755-0.624,1.378-1.378,1.378c-0.755,0-1.378-0.623-1.378-1.378
			C250.871,41.409,251.494,40.785,252.249,40.785z"/>
		<path fill="#FFFFFF" d="M261.349,56.724c1.716,0,3.068-0.909,3.771-2.313l1.352,0.779c-0.962,1.769-2.938,2.912-5.122,2.912
			c-3.302,0-5.929-2.521-5.929-6.031c0-3.511,2.627-6.059,5.929-6.059c2.184,0,4.16,1.144,5.122,2.912l-1.352,0.78
			c-0.702-1.378-2.055-2.288-3.771-2.288c-2.548,0-4.316,2.027-4.316,4.654C257.032,54.696,258.801,56.724,261.349,56.724z"/>
		<path fill="#FFFFFF" d="M274.036,54.748c0-1.145-0.936-1.639-2.574-2.236l-0.649-0.234c-1.742-0.623-2.912-1.508-2.912-3.172
			c0-1.897,1.689-3.094,3.926-3.094c1.352,0,2.756,0.494,3.718,1.326l-0.857,1.195c-0.807-0.649-2.002-1.144-2.912-1.144
			c-1.274,0-2.236,0.65-2.236,1.638c0,0.729,0.521,1.301,1.69,1.742l1.326,0.494c2.21,0.858,3.119,1.82,3.119,3.51
			c0,1.482-1.273,3.328-4.212,3.328c-1.352,0-2.99-0.571-4.03-1.43l0.832-1.196c0.885,0.755,2.236,1.223,3.25,1.223
			C273.074,56.698,274.036,55.814,274.036,54.748z"/>
		<path fill="#FFFFFF" d="M287.608,46.012c3.302,0,5.954,2.548,5.954,6.059c0,3.51-2.652,6.031-5.954,6.031
			c-3.276,0-5.929-2.521-5.929-6.031C281.68,48.56,284.332,46.012,287.608,46.012z M287.608,47.416
			c-2.548,0-4.316,2.027-4.316,4.654c0,2.626,1.769,4.653,4.316,4.653c2.574,0,4.342-2.027,4.342-4.653
			C291.95,49.443,290.183,47.416,287.608,47.416z"/>
		<path fill="#FFFFFF" d="M304.066,50.25c0-1.847-1.196-2.834-2.835-2.834c-1.378,0-2.729,0.754-3.821,2.027v8.347h-1.587V46.323
			h1.561v1.639c1.04-1.248,2.444-1.95,4.108-1.95c2.678,0,4.16,1.638,4.16,4.16v7.618h-1.586V50.25z"/>
		<path fill="#FFFFFF" d="M328.038,39.59h2.418v18.2h-1.612V41.514l-5.954,12.844h-1.69l-5.954-12.844V57.79h-1.534v-18.2h2.418
			l5.98,12.896L328.038,39.59z"/>
		<path fill="#FFFFFF" d="M336.045,57.79h-1.586V47.649h-1.819v-1.326h3.405V57.79z M335.136,40.785
			c0.754,0,1.378,0.624,1.378,1.378c0,0.755-0.624,1.378-1.378,1.378c-0.755,0-1.378-0.623-1.378-1.378
			C333.758,41.409,334.381,40.785,335.136,40.785z"/>
		<path fill="#FFFFFF" d="M344.235,56.724c1.716,0,3.068-0.909,3.771-2.313l1.352,0.779c-0.962,1.769-2.938,2.912-5.122,2.912
			c-3.302,0-5.929-2.521-5.929-6.031c0-3.511,2.627-6.059,5.929-6.059c2.184,0,4.16,1.144,5.122,2.912l-1.352,0.78
			c-0.702-1.378-2.055-2.288-3.771-2.288c-2.548,0-4.316,2.027-4.316,4.654C339.919,54.696,341.688,56.724,344.235,56.724z"/>
		<path fill="#FFFFFF" d="M357.313,47.728h-0.779c-2.028,0-3.484,0.937-3.484,3.641v6.422h-1.561V46.323h1.509v1.95
			c0.649-1.534,2.08-2.158,3.458-2.158c0.26,0,0.546,0.026,0.857,0.053V47.728z"/>
		<path fill="#FFFFFF" d="M363.891,46.012c3.302,0,5.954,2.548,5.954,6.059c0,3.51-2.652,6.031-5.954,6.031
			c-3.276,0-5.929-2.521-5.929-6.031C357.962,48.56,360.614,46.012,363.891,46.012z M363.891,47.416
			c-2.548,0-4.316,2.027-4.316,4.654c0,2.626,1.769,4.653,4.316,4.653c2.574,0,4.342-2.027,4.342-4.653
			C368.232,49.443,366.465,47.416,363.891,47.416z"/>
		<path fill="#FFFFFF" d="M377.671,54.748c0-1.145-0.936-1.639-2.574-2.236l-0.649-0.234c-1.742-0.623-2.912-1.508-2.912-3.172
			c0-1.897,1.689-3.094,3.926-3.094c1.352,0,2.756,0.494,3.718,1.326l-0.857,1.195c-0.807-0.649-2.002-1.144-2.912-1.144
			c-1.274,0-2.236,0.65-2.236,1.638c0,0.729,0.521,1.301,1.69,1.742l1.326,0.494c2.21,0.858,3.119,1.82,3.119,3.51
			c0,1.482-1.273,3.328-4.212,3.328c-1.352,0-2.99-0.571-4.03-1.43l0.832-1.196c0.885,0.755,2.236,1.223,3.25,1.223
			C376.709,56.698,377.671,55.814,377.671,54.748z"/>
		<path fill="#FFFFFF" d="M386.641,46.012c3.302,0,5.954,2.548,5.954,6.059c0,3.51-2.652,6.031-5.954,6.031
			c-3.276,0-5.929-2.521-5.929-6.031C380.712,48.56,383.364,46.012,386.641,46.012z M386.641,47.416
			c-2.548,0-4.316,2.027-4.316,4.654c0,2.626,1.769,4.653,4.316,4.653c2.574,0,4.342-2.027,4.342-4.653
			C390.982,49.443,389.215,47.416,386.641,47.416z"/>
		<path fill="#FFFFFF" d="M395.506,42.216c0-2.133,1.378-2.73,2.6-2.73c0.832,0,1.561,0.104,1.561,0.104v1.378
			c0,0-0.729-0.13-1.145-0.13c-1.014,0-1.43,0.416-1.43,1.56v3.926h2.34v1.326h-2.34V57.79h-1.586V47.649h-1.977v-1.326h1.977
			V42.216z"/>
		<path fill="#FFFFFF" d="M403.592,41.487v4.836h2.834v1.326h-2.834v7.774c0,1.066,0.754,1.118,1.639,1.118
			c0.728,0,1.195-0.078,1.195-0.078v1.326c0,0-0.832,0.104-1.768,0.104c-1.196,0-2.652-0.313-2.652-2.444v-7.801h-1.977v-1.326
			h1.977v-4.836H403.592z"/>
		<path fill="#FFFFFF" d="M414.85,51.368l-2.132,6.422h-1.664l6.267-18.2h2.002l6.292,18.2h-1.742l-2.185-6.422H414.85z
			 M415.292,49.964h5.928l-2.912-8.788h-0.078L415.292,49.964z"/>
		<path fill="#FFFFFF" d="M435.521,47.676l-6.969,8.788h6.969v1.326h-8.814v-1.326l6.968-8.788h-6.968v-1.353h8.814V47.676z"/>
		<path fill="#FFFFFF" d="M437.6,53.708v-7.385h1.586v7.229c0,2.08,1.43,3.146,3.328,3.146c1.897,0,3.328-1.066,3.328-3.146v-7.229
			h1.586v7.385c0,2.418-1.716,4.394-4.914,4.394S437.6,56.126,437.6,53.708z"/>
		<path fill="#FFFFFF" d="M456.189,47.728h-0.779c-2.028,0-3.484,0.937-3.484,3.641v6.422h-1.561V46.323h1.509v1.95
			c0.649-1.534,2.08-2.158,3.458-2.158c0.26,0,0.546,0.026,0.857,0.053V47.728z"/>
		<path fill="#FFFFFF" d="M458.503,52.538c0.208,2.366,1.794,4.16,4.187,4.16c1.561,0,2.86-0.729,3.563-1.977h1.846
			c-0.962,2.08-3.042,3.38-5.408,3.38c-3.302,0-5.824-2.521-5.824-6.031c0-3.511,2.522-6.059,5.798-6.059
			c2.99,0,5.772,2.105,5.772,6.475v0.052H458.503z M458.556,51.238h8.112c-0.183-2.08-1.742-3.822-4.005-3.822
			C460.375,47.416,458.842,49.054,458.556,51.238z"/>
	</g>
	<g>
		<path fill="#FFFFFF" d="M192.654,110.513l-2.518,7.815h-2.682l7.815-22.89h3.172l7.881,22.89h-2.846l-2.615-7.815H192.654z
			 M196.808,98.021h-0.033l-3.368,10.235h6.736L196.808,98.021z"/>
		<path fill="#FFFFFF" d="M220.609,106.131V95.438h2.584v22.89h-2.584v-2.387c-0.784,1.536-2.942,2.779-5.231,2.779
			c-4.284,0-7.488-3.237-7.488-7.718c0-4.479,3.106-7.717,7.39-7.717C217.568,103.286,219.825,104.562,220.609,106.131z
			 M215.64,116.464c3.008,0,5.101-2.354,5.101-5.461c0-3.106-2.093-5.46-5.101-5.46c-3.009,0-5.102,2.354-5.102,5.46
			C210.538,114.11,212.631,116.464,215.64,116.464z"/>
		<path fill="#FFFFFF" d="M233.229,116.104l4.382-12.426h2.779l-5.591,14.649h-3.271l-5.362-14.649h2.942L233.229,116.104z"/>
		<path fill="#FFFFFF" d="M251.407,108.453c0-1.93-1.438-2.845-3.466-2.845c-1.733,0-3.009,0.752-4.088,1.602l-1.373-1.929
			c1.177-1.047,3.139-1.995,5.656-1.995c3.729,0,5.854,2.126,5.854,5.199v9.843h-2.583v-1.668c-0.851,1.472-2.845,2.061-4.382,2.061
			c-3.237,0-5.297-1.93-5.297-4.676c0-2.846,1.962-4.382,5.166-4.382h3.434c0.817,0,1.079-0.426,1.079-1.047V108.453z
			 M251.407,112.933v-1.569c-0.294,0.327-0.916,0.425-1.635,0.425h-2.289c-2.027,0-3.041,0.817-3.041,2.289
			c0,1.242,0.948,2.452,2.976,2.452C249.478,116.529,251.407,115.516,251.407,112.933z"/>
		<path fill="#FFFFFF" d="M271.22,118.328h-2.583v-9.417c0-1.995-1.145-3.401-3.27-3.401c-1.472,0-3.074,0.817-4.578,2.551v10.268
			h-2.584v-14.649h2.519v1.995c1.308-1.537,3.041-2.388,5.101-2.388c3.467,0,5.396,2.191,5.396,5.461V118.328z"/>
		<path fill="#FFFFFF" d="M282.139,116.464c1.831,0,3.335-0.817,4.218-2.224l2.126,1.341c-1.275,1.896-3.761,3.14-6.344,3.14
			c-4.284,0-7.718-3.237-7.718-7.718c0-4.479,3.434-7.717,7.718-7.717c2.583,0,5.068,1.243,6.344,3.14l-2.126,1.341
			c-0.883-1.406-2.387-2.224-4.218-2.224c-3.009,0-5.068,2.354-5.068,5.46C277.07,114.11,279.13,116.464,282.139,116.464z"/>
		<path fill="#FFFFFF" d="M293.188,111.788c0.327,2.648,2.027,4.644,4.741,4.644c1.603,0,3.041-0.621,3.892-1.831h3.074
			c-1.309,2.551-3.99,4.12-6.998,4.12c-4.284,0-7.423-3.237-7.423-7.718c0-4.479,3.106-7.717,7.39-7.717
			c3.794,0,7.357,2.453,7.357,8.404v0.098H293.188z M293.254,109.663h8.96c-0.131-2.093-1.831-4.088-4.35-4.088
			C295.314,105.575,293.712,107.275,293.254,109.663z"/>
		<path fill="#FFFFFF" d="M320.195,106.131V95.438h2.584v22.89h-2.584v-2.387c-0.784,1.536-2.942,2.779-5.231,2.779
			c-4.284,0-7.488-3.237-7.488-7.718c0-4.479,3.106-7.717,7.39-7.717C317.154,103.286,319.411,104.562,320.195,106.131z
			 M315.226,116.464c3.008,0,5.101-2.354,5.101-5.461c0-3.106-2.093-5.46-5.101-5.46c-3.009,0-5.102,2.354-5.102,5.46
			C310.124,114.11,312.217,116.464,315.226,116.464z"/>
		<path fill="#FFFFFF" d="M345.238,99.428c-1.209-1.145-3.27-2.125-5.003-2.125c-2.158,0-4.283,1.242-4.283,3.498
			c0,1.472,0.915,2.649,3.27,3.826l2.191,1.112c3.728,1.896,5.428,3.858,5.428,6.67c0,3.106-2.485,6.312-7.227,6.312
			c-3.335,0-5.559-1.341-7.227-2.878l1.504-1.896c1.636,1.7,3.63,2.518,5.788,2.518c2.747,0,4.513-1.798,4.513-3.891
			c0-1.995-1.569-3.336-4.382-4.709l-1.864-0.916c-3.041-1.504-4.643-3.433-4.643-6.082c0-3.662,3.237-5.82,6.899-5.82
			c2.518,0,4.904,1.145,6.475,2.42L345.238,99.428z"/>
		<path fill="#FFFFFF" d="M352.659,115.974v8.109h-2.584v-20.404h2.584v2.452c0.784-1.569,3.041-2.845,5.33-2.845
			c4.283,0,7.39,3.237,7.39,7.717c0,4.48-3.204,7.718-7.488,7.718C355.602,118.721,353.443,117.511,352.659,115.974z
			 M357.629,105.543c-3.008,0-5.101,2.354-5.101,5.46c0,3.107,2.093,5.461,5.101,5.461c3.009,0,5.102-2.354,5.102-5.461
			C362.73,107.896,360.638,105.543,357.629,105.543z"/>
		<path fill="#FFFFFF" d="M370.51,111.788c0.327,2.648,2.027,4.644,4.741,4.644c1.603,0,3.041-0.621,3.892-1.831h3.074
			c-1.309,2.551-3.99,4.12-6.998,4.12c-4.284,0-7.423-3.237-7.423-7.718c0-4.479,3.106-7.717,7.39-7.717
			c3.794,0,7.357,2.453,7.357,8.404v0.098H370.51z M370.575,109.663h8.96c-0.131-2.093-1.831-4.088-4.35-4.088
			C372.636,105.575,371.033,107.275,370.575,109.663z"/>
		<path fill="#FFFFFF" d="M392.48,116.464c1.831,0,3.335-0.817,4.218-2.224l2.126,1.341c-1.275,1.896-3.761,3.14-6.344,3.14
			c-4.284,0-7.718-3.237-7.718-7.718c0-4.479,3.434-7.717,7.718-7.717c2.583,0,5.068,1.243,6.344,3.14l-2.126,1.341
			c-0.883-1.406-2.387-2.224-4.218-2.224c-3.009,0-5.068,2.354-5.068,5.46C387.412,114.11,389.472,116.464,392.48,116.464z"/>
		<path fill="#FFFFFF" d="M402.713,105.804h-2.322v-2.125h4.905v14.649h-2.583V105.804z M401.797,98.382
			c0-1.112,0.883-2.027,1.995-2.027c1.111,0,2.027,0.915,2.027,2.027c0,1.111-0.916,1.994-2.027,1.994
			C402.68,100.376,401.797,99.493,401.797,98.382z"/>
		<path fill="#FFFFFF" d="M418.211,108.453c0-1.93-1.438-2.845-3.466-2.845c-1.733,0-3.009,0.752-4.088,1.602l-1.373-1.929
			c1.177-1.047,3.139-1.995,5.656-1.995c3.729,0,5.854,2.126,5.854,5.199v9.843h-2.583v-1.668c-0.851,1.472-2.845,2.061-4.382,2.061
			c-3.237,0-5.298-1.93-5.298-4.676c0-2.846,1.963-4.382,5.167-4.382h3.434c0.817,0,1.079-0.426,1.079-1.047V108.453z
			 M418.211,112.933v-1.569c-0.294,0.327-0.916,0.425-1.635,0.425h-2.289c-2.027,0-3.041,0.817-3.041,2.289
			c0,1.242,0.948,2.452,2.976,2.452C416.281,116.529,418.211,115.516,418.211,112.933z"/>
		<path fill="#FFFFFF" d="M427.594,118.328h-2.584v-22.89h2.584V118.328z"/>
		<path fill="#FFFFFF" d="M432.661,105.804h-2.322v-2.125h4.905v14.649h-2.583V105.804z M431.745,98.382
			c0-1.112,0.883-2.027,1.995-2.027c1.111,0,2.027,0.915,2.027,2.027c0,1.111-0.916,1.994-2.027,1.994
			C432.628,100.376,431.745,99.493,431.745,98.382z"/>
		<path fill="#FFFFFF" d="M450.382,105.804l-8.731,10.399h8.731v2.125h-11.674v-2.125l8.796-10.399h-8.796v-2.125h11.674V105.804z"
			/>
		<path fill="#FFFFFF" d="M462.381,108.453c0-1.93-1.438-2.845-3.466-2.845c-1.733,0-3.009,0.752-4.088,1.602l-1.373-1.929
			c1.177-1.047,3.139-1.995,5.656-1.995c3.729,0,5.854,2.126,5.854,5.199v9.843h-2.583v-1.668c-0.851,1.472-2.845,2.061-4.382,2.061
			c-3.237,0-5.298-1.93-5.298-4.676c0-2.846,1.963-4.382,5.167-4.382h3.434c0.817,0,1.079-0.426,1.079-1.047V108.453z
			 M462.381,112.933v-1.569c-0.294,0.327-0.916,0.425-1.635,0.425h-2.289c-2.027,0-3.041,0.817-3.041,2.289
			c0,1.242,0.948,2.452,2.976,2.452C460.451,116.529,462.381,115.516,462.381,112.933z"/>
		<path fill="#FFFFFF" d="M472.547,97.563v6.115h3.598v2.125h-3.598v9.124c0,1.111,0.654,1.308,1.505,1.308
			c1.242,0,2.093-0.098,2.093-0.098v2.19c0,0-1.275,0.131-2.485,0.131c-1.569,0-3.695-0.327-3.695-3.074v-9.581h-2.485v-2.125h2.485
			v-6.115H472.547z"/>
		<path fill="#FFFFFF" d="M479.871,105.804h-2.322v-2.125h4.905v14.649h-2.583V105.804z M478.955,98.382
			c0-1.112,0.883-2.027,1.995-2.027c1.111,0,2.027,0.915,2.027,2.027c0,1.111-0.916,1.994-2.027,1.994
			C479.838,100.376,478.955,99.493,478.955,98.382z"/>
		<path fill="#FFFFFF" d="M493.57,103.286c4.284,0,7.75,3.237,7.75,7.717c0,4.48-3.466,7.718-7.75,7.718
			c-4.283,0-7.75-3.237-7.75-7.718C485.82,106.523,489.287,103.286,493.57,103.286z M493.57,105.543
			c-3.008,0-5.101,2.354-5.101,5.46c0,3.107,2.093,5.461,5.101,5.461c3.009,0,5.102-2.354,5.102-5.461
			C498.672,107.896,496.579,105.543,493.57,105.543z"/>
		<path fill="#FFFFFF" d="M517.699,118.328h-2.583v-9.417c0-1.995-1.145-3.401-3.27-3.401c-1.472,0-3.074,0.817-4.578,2.551v10.268
			h-2.584v-14.649h2.519v1.995c1.308-1.537,3.041-2.388,5.101-2.388c3.467,0,5.396,2.191,5.396,5.461V118.328z"/>
		<path fill="#FFFFFF" d="M191.201,141.906l-2.132,6.422h-1.664l6.267-18.2h2.002l6.292,18.2h-1.742l-2.185-6.422H191.201z
			 M191.644,140.502h5.928l-2.912-8.788h-0.078L191.644,140.502z"/>
		<path fill="#FFFFFF" d="M204.409,130.128h1.612v18.2h-1.612V130.128z"/>
		<path fill="#FFFFFF" d="M220.996,140.397c0-1.742-1.352-2.443-2.886-2.443c-1.43,0-2.574,0.598-3.536,1.248l-0.754-1.196
			c0.78-0.599,2.393-1.456,4.395-1.456c2.729,0,4.368,1.534,4.368,3.9v7.878h-1.587v-1.43c-0.649,1.144-2.21,1.741-3.588,1.741
			c-2.496,0-4.16-1.455-4.16-3.51c0-2.105,1.508-3.354,3.874-3.354h2.757c0.806,0,1.117-0.416,1.117-1.041V140.397z
			 M220.996,144.246v-1.586c-0.285,0.338-0.884,0.441-1.481,0.441h-2.132c-1.69,0-2.471,0.832-2.471,2.028
			c0,0.988,0.754,2.158,2.679,2.158C219.332,147.288,220.996,146.326,220.996,144.246z"/>
		<path fill="#FFFFFF" d="M233.789,140.788c0-1.847-1.195-2.834-2.834-2.834c-1.378,0-2.729,0.754-3.822,2.027v8.347h-1.586v-11.467
			h1.561v1.639c1.04-1.248,2.444-1.95,4.108-1.95c2.678,0,4.16,1.638,4.16,4.16v7.618h-1.587V140.788z"/>
		<path fill="#FFFFFF" d="M247.726,139.098v-8.97h1.586v18.2h-1.586v-2.185c-0.702,1.431-2.418,2.496-4.368,2.496
			c-3.302,0-5.824-2.521-5.824-6.031c0-3.511,2.496-6.059,5.772-6.059C245.281,136.55,247.05,137.668,247.726,139.098z
			 M243.461,147.262c2.549,0,4.343-2.027,4.343-4.653c0-2.627-1.794-4.654-4.343-4.654c-2.548,0-4.315,2.027-4.315,4.654
			C239.146,145.234,240.913,147.262,243.461,147.262z"/>
		<path fill="#FFFFFF" d="M271.827,130.128h2.418v18.2h-1.612v-16.276l-5.954,12.844h-1.69l-5.954-12.844v16.276H257.5v-18.2h2.418
			l5.98,12.896L271.827,130.128z"/>
		<path fill="#FFFFFF" d="M284.359,140.397c0-1.742-1.353-2.443-2.887-2.443c-1.43,0-2.574,0.598-3.536,1.248l-0.754-1.196
			c0.78-0.599,2.392-1.456,4.395-1.456c2.729,0,4.368,1.534,4.368,3.9v7.878h-1.586v-1.43c-0.65,1.144-2.211,1.741-3.589,1.741
			c-2.496,0-4.16-1.455-4.16-3.51c0-2.105,1.509-3.354,3.874-3.354h2.757c0.806,0,1.118-0.416,1.118-1.041V140.397z
			 M284.359,144.246v-1.586c-0.286,0.338-0.885,0.441-1.482,0.441h-2.132c-1.69,0-2.471,0.832-2.471,2.028
			c0,0.988,0.754,2.158,2.679,2.158C282.695,147.288,284.359,146.326,284.359,144.246z"/>
		<path fill="#FFFFFF" d="M294.005,147.262c1.716,0,3.068-0.909,3.771-2.313l1.352,0.779c-0.962,1.769-2.938,2.912-5.122,2.912
			c-3.302,0-5.929-2.521-5.929-6.031c0-3.511,2.627-6.059,5.929-6.059c2.184,0,4.16,1.144,5.122,2.912l-1.352,0.78
			c-0.702-1.378-2.055-2.288-3.771-2.288c-2.548,0-4.316,2.027-4.316,4.654C289.688,145.234,291.457,147.262,294.005,147.262z"/>
		<path fill="#FFFFFF" d="M309.5,140.788c0-1.847-1.195-2.834-2.834-2.834c-1.378,0-2.729,0.754-3.822,2.027v8.347h-1.586v-18.2
			h1.561v8.372c1.04-1.248,2.444-1.95,4.108-1.95c2.678,0,4.16,1.638,4.16,4.16v7.618H309.5V140.788z"/>
		<path fill="#FFFFFF" d="M316.053,148.328h-1.587v-10.141h-1.819v-1.326h3.406V148.328z M315.143,131.323
			c0.754,0,1.378,0.624,1.378,1.378c0,0.755-0.624,1.378-1.378,1.378s-1.379-0.623-1.379-1.378
			C313.764,131.947,314.389,131.323,315.143,131.323z"/>
		<path fill="#FFFFFF" d="M327.389,140.788c0-1.847-1.196-2.834-2.835-2.834c-1.378,0-2.729,0.754-3.821,2.027v8.347h-1.587v-11.467
			h1.561v1.639c1.04-1.248,2.444-1.95,4.108-1.95c2.678,0,4.16,1.638,4.16,4.16v7.618h-1.586V140.788z"/>
		<path fill="#FFFFFF" d="M332.77,143.076c0.208,2.366,1.795,4.16,4.187,4.16c1.56,0,2.86-0.729,3.563-1.977h1.846
			c-0.962,2.08-3.042,3.38-5.408,3.38c-3.302,0-5.824-2.521-5.824-6.031c0-3.511,2.522-6.059,5.798-6.059
			c2.99,0,5.772,2.105,5.772,6.475v0.052H332.77z M332.822,141.776h8.112c-0.183-2.08-1.742-3.822-4.005-3.822
			C334.642,137.954,333.107,139.592,332.822,141.776z"/>
		<path fill="#FFFFFF" d="M349.903,148.328v-18.2h1.612v16.771h8.112v1.43H349.903z"/>
		<path fill="#FFFFFF" d="M361.785,143.076c0.208,2.366,1.795,4.16,4.187,4.16c1.56,0,2.86-0.729,3.563-1.977h1.846
			c-0.962,2.08-3.042,3.38-5.408,3.38c-3.302,0-5.824-2.521-5.824-6.031c0-3.511,2.522-6.059,5.798-6.059
			c2.99,0,5.772,2.105,5.772,6.475v0.052H361.785z M361.838,141.776h8.112c-0.183-2.08-1.742-3.822-4.005-3.822
			C363.657,137.954,362.123,139.592,361.838,141.776z"/>
		<path fill="#FFFFFF" d="M380.609,140.397c0-1.742-1.352-2.443-2.886-2.443c-1.43,0-2.574,0.598-3.536,1.248l-0.754-1.196
			c0.78-0.599,2.393-1.456,4.395-1.456c2.729,0,4.368,1.534,4.368,3.9v7.878h-1.587v-1.43c-0.649,1.144-2.21,1.741-3.588,1.741
			c-2.496,0-4.16-1.455-4.16-3.51c0-2.105,1.508-3.354,3.874-3.354h2.757c0.806,0,1.117-0.416,1.117-1.041V140.397z
			 M380.609,144.246v-1.586c-0.285,0.338-0.884,0.441-1.481,0.441h-2.132c-1.69,0-2.471,0.832-2.471,2.028
			c0,0.988,0.754,2.158,2.679,2.158C378.945,147.288,380.609,146.326,380.609,144.246z"/>
		<path fill="#FFFFFF" d="M390.983,138.266h-0.779c-2.028,0-3.484,0.937-3.484,3.641v6.422h-1.561v-11.467h1.509v1.95
			c0.649-1.534,2.08-2.158,3.458-2.158c0.26,0,0.546,0.026,0.857,0.053V138.266z"/>
		<path fill="#FFFFFF" d="M401.02,140.788c0-1.847-1.195-2.834-2.834-2.834c-1.378,0-2.729,0.754-3.822,2.027v8.347h-1.586v-11.467
			h1.561v1.639c1.04-1.248,2.444-1.95,4.108-1.95c2.678,0,4.16,1.638,4.16,4.16v7.618h-1.587V140.788z"/>
		<path fill="#FFFFFF" d="M407.572,148.328h-1.587v-10.141h-1.819v-1.326h3.406V148.328z M406.662,131.323
			c0.754,0,1.378,0.624,1.378,1.378c0,0.755-0.624,1.378-1.378,1.378s-1.379-0.623-1.379-1.378
			C405.283,131.947,405.908,131.323,406.662,131.323z"/>
		<path fill="#FFFFFF" d="M418.908,140.788c0-1.847-1.196-2.834-2.835-2.834c-1.378,0-2.729,0.754-3.821,2.027v8.347h-1.587v-11.467
			h1.561v1.639c1.04-1.248,2.444-1.95,4.108-1.95c2.678,0,4.16,1.638,4.16,4.16v7.618h-1.586V140.788z"/>
		<path fill="#FFFFFF" d="M434.43,149.524c0,1.872-0.857,3.354-3.38,3.354h-4.343v-1.326h4.16c1.093,0,1.977-0.338,1.977-1.664
			v-3.744c-0.702,1.431-2.418,2.496-4.368,2.496c-3.302,0-5.824-2.521-5.824-6.031c0-3.511,2.496-6.059,5.772-6.059
			c1.976,0,3.744,1.118,4.42,2.548v-2.236h1.586V149.524z M432.896,142.608c0-2.627-1.768-4.654-4.315-4.654
			c-2.549,0-4.343,2.027-4.343,4.654c0,2.626,1.794,4.653,4.343,4.653C431.128,147.262,432.896,145.234,432.896,142.608z"/>
		<path fill="#FFFFFF" d="M193.646,161.55c3.302,0,5.954,2.548,5.954,6.059c0,3.51-2.652,6.031-5.954,6.031
			c-3.276,0-5.929-2.521-5.929-6.031C187.717,164.098,190.369,161.55,193.646,161.55z M193.646,162.954
			c-2.548,0-4.316,2.027-4.316,4.654c0,2.626,1.769,4.653,4.316,4.653c2.574,0,4.342-2.027,4.342-4.653
			C197.987,164.981,196.22,162.954,193.646,162.954z"/>
		<path fill="#FFFFFF" d="M210.104,165.788c0-1.847-1.196-2.834-2.835-2.834c-1.378,0-2.729,0.754-3.821,2.027v8.347h-1.587v-11.467
			h1.561v1.639c1.04-1.248,2.444-1.95,4.108-1.95c2.678,0,4.16,1.638,4.16,4.16v7.618h-1.586V165.788z"/>
		<path fill="#FFFFFF" d="M234.076,155.128h2.418v18.2h-1.612v-16.276l-5.954,12.844h-1.69l-5.954-12.844v16.276h-1.534v-18.2h2.418
			l5.98,12.896L234.076,155.128z"/>
		<path fill="#FFFFFF" d="M242.082,173.328h-1.586v-10.141h-1.819v-1.326h3.405V173.328z M241.173,156.323
			c0.754,0,1.378,0.624,1.378,1.378c0,0.755-0.624,1.378-1.378,1.378c-0.755,0-1.378-0.623-1.378-1.378
			C239.795,156.947,240.418,156.323,241.173,156.323z"/>
		<path fill="#FFFFFF" d="M250.272,172.262c1.716,0,3.068-0.909,3.771-2.313l1.352,0.779c-0.962,1.769-2.938,2.912-5.122,2.912
			c-3.302,0-5.929-2.521-5.929-6.031c0-3.511,2.627-6.059,5.929-6.059c2.184,0,4.16,1.144,5.122,2.912l-1.352,0.78
			c-0.702-1.378-2.055-2.288-3.771-2.288c-2.548,0-4.316,2.027-4.316,4.654C245.956,170.234,247.725,172.262,250.272,172.262z"/>
		<path fill="#FFFFFF" d="M263.35,163.266h-0.779c-2.028,0-3.484,0.937-3.484,3.641v6.422h-1.561v-11.467h1.509v1.95
			c0.649-1.534,2.08-2.158,3.458-2.158c0.26,0,0.546,0.026,0.857,0.053V163.266z"/>
		<path fill="#FFFFFF" d="M269.929,161.55c3.302,0,5.954,2.548,5.954,6.059c0,3.51-2.652,6.031-5.954,6.031
			c-3.276,0-5.929-2.521-5.929-6.031C264,164.098,266.652,161.55,269.929,161.55z M269.929,162.954
			c-2.548,0-4.316,2.027-4.316,4.654c0,2.626,1.769,4.653,4.316,4.653c2.574,0,4.342-2.027,4.342-4.653
			C274.271,164.981,272.503,162.954,269.929,162.954z"/>
		<path fill="#FFFFFF" d="M283.708,170.286c0-1.145-0.936-1.639-2.574-2.236l-0.649-0.234c-1.742-0.623-2.912-1.508-2.912-3.172
			c0-1.897,1.689-3.094,3.926-3.094c1.352,0,2.756,0.494,3.718,1.326l-0.857,1.195c-0.807-0.649-2.002-1.144-2.912-1.144
			c-1.274,0-2.236,0.65-2.236,1.638c0,0.729,0.521,1.301,1.69,1.742l1.326,0.494c2.21,0.858,3.119,1.82,3.119,3.51
			c0,1.482-1.273,3.328-4.212,3.328c-1.352,0-2.99-0.571-4.03-1.43l0.832-1.196c0.885,0.755,2.236,1.223,3.25,1.223
			C282.746,172.236,283.708,171.353,283.708,170.286z"/>
		<path fill="#FFFFFF" d="M292.678,161.55c3.302,0,5.954,2.548,5.954,6.059c0,3.51-2.652,6.031-5.954,6.031
			c-3.276,0-5.929-2.521-5.929-6.031C286.749,164.098,289.401,161.55,292.678,161.55z M292.678,162.954
			c-2.548,0-4.316,2.027-4.316,4.654c0,2.626,1.769,4.653,4.316,4.653c2.574,0,4.342-2.027,4.342-4.653
			C297.02,164.981,295.252,162.954,292.678,162.954z"/>
		<path fill="#FFFFFF" d="M301.543,157.754c0-2.133,1.378-2.73,2.6-2.73c0.832,0,1.561,0.104,1.561,0.104v1.378
			c0,0-0.729-0.13-1.145-0.13c-1.014,0-1.43,0.416-1.43,1.56v3.926h2.34v1.326h-2.34v10.141h-1.586v-10.141h-1.977v-1.326h1.977
			V157.754z"/>
		<path fill="#FFFFFF" d="M309.629,157.025v4.836h2.834v1.326h-2.834v7.774c0,1.066,0.754,1.118,1.639,1.118
			c0.728,0,1.195-0.078,1.195-0.078v1.326c0,0-0.832,0.104-1.768,0.104c-1.196,0-2.652-0.313-2.652-2.444v-7.801h-1.977v-1.326
			h1.977v-4.836H309.629z"/>
		<path fill="#FFFFFF" d="M320.887,166.906l-2.132,6.422h-1.664l6.267-18.2h2.002l6.292,18.2h-1.742l-2.185-6.422H320.887z
			 M321.329,165.502h5.928l-2.912-8.788h-0.078L321.329,165.502z"/>
		<path fill="#FFFFFF" d="M341.558,163.214l-6.969,8.788h6.969v1.326h-8.814v-1.326l6.968-8.788h-6.968v-1.353h8.814V163.214z"/>
		<path fill="#FFFFFF" d="M343.637,169.246v-7.385h1.586v7.229c0,2.08,1.43,3.146,3.328,3.146c1.897,0,3.328-1.066,3.328-3.146
			v-7.229h1.586v7.385c0,2.418-1.716,4.394-4.914,4.394S343.637,171.664,343.637,169.246z"/>
		<path fill="#FFFFFF" d="M362.227,163.266h-0.779c-2.028,0-3.484,0.937-3.484,3.641v6.422h-1.561v-11.467h1.509v1.95
			c0.649-1.534,2.08-2.158,3.458-2.158c0.26,0,0.546,0.026,0.857,0.053V163.266z"/>
		<path fill="#FFFFFF" d="M364.54,168.076c0.208,2.366,1.794,4.16,4.187,4.16c1.561,0,2.86-0.729,3.563-1.977h1.846
			c-0.962,2.08-3.042,3.38-5.408,3.38c-3.302,0-5.824-2.521-5.824-6.031c0-3.511,2.522-6.059,5.798-6.059
			c2.99,0,5.772,2.105,5.772,6.475v0.052H364.54z M364.593,166.776h8.112c-0.183-2.08-1.742-3.822-4.005-3.822
			C366.412,162.954,364.879,164.592,364.593,166.776z"/>
	</g>
</g>
</svg>
