<svg id="microsoft_partner_2" xmlns="http://www.w3.org/2000/svg" width="563.268" height="128.195" viewBox="0 0 563.268 128.195">
  <rect id="Rectangle_6" data-name="Rectangle 6" width="0.684" height="59.504" transform="translate(171.888 29.727)" fill="#fff"/>
  <g id="Group_415" data-name="Group 415" transform="translate(204.822 15.882)">
    <path id="Path_455" data-name="Path 455" d="M3812.344,1284.051h-5.078l-2.032-6.466h-7.143l-1.9,6.466h-4.943l7.651-23.7h5.62Zm-10.665-18.621h-.068l-2.4,8.125h4.841Z" transform="translate(-3791.184 -1259.946)" fill="#fff"/>
    <path id="Path_456" data-name="Path 456" d="M3835.732,1282.087a5.677,5.677,0,0,1-4.841,2.37c-4.266,0-7.516-3.42-7.516-8.16s3.217-8.16,7.482-8.16a5.637,5.637,0,0,1,4.943,2.4c0-.507-.068-1.794-.068-2.946v-7.245h4.4v23.7h-4.4Zm-7.82-5.789a3.972,3.972,0,1,0,7.922,0,3.97,3.97,0,1,0-7.922,0Z" transform="translate(-3801.336 -1259.946)" fill="#fff"/>
    <path id="Path_457" data-name="Path 457" d="M3859.334,1283.1l3.521-10.766h4.638l-5.518,15.506h-5.451l-5.281-15.506h4.774Z" transform="translate(-3810.143 -1263.731)" fill="#fff"/>
    <path id="Path_458" data-name="Path 458" d="M3885.791,1277.323c0-1.117-.88-1.829-2.573-1.829a10.538,10.538,0,0,0-4.672,1.456l-1.727-3.317a13.264,13.264,0,0,1,6.636-1.9c3.521,0,6.737,1.625,6.737,5.722v10.19h-4.4v-1.455a5.229,5.229,0,0,1-4.333,1.862c-3.285,0-5.417-2.336-5.417-4.875,0-2.946,2.167-4.774,5.62-4.774h3.047c.745,0,1.083-.339,1.083-.915Zm0,4.774v-1.118a1.913,1.913,0,0,1-1.354.339h-1.658c-1.389,0-2.2.609-2.2,1.693,0,1.049.846,1.828,2.2,1.828C3884.369,1284.839,3885.791,1284.026,3885.791,1282.1Z" transform="translate(-3817.98 -1263.544)" fill="#fff"/>
    <path id="Path_459" data-name="Path 459" d="M3911,1271.736a5.4,5.4,0,0,1,5.755,5.755v10.157h-4.4v-9.039a2.505,2.505,0,0,0-2.64-2.776,4.3,4.3,0,0,0-3.285,1.761v10.055h-4.4v-15.506h4.3v.61c0,.542-.068,1.219-.068,1.219A6.1,6.1,0,0,1,3911,1271.736Z" transform="translate(-3826.193 -1263.544)" fill="#fff"/>
    <path id="Path_460" data-name="Path 460" d="M3931.82,1279.9a3.921,3.921,0,0,0,3.893,4.232,3.55,3.55,0,0,0,3.419-2.369l4.131,1.286a7.7,7.7,0,0,1-7.584,5.011,8.16,8.16,0,1,1,0-16.319,7.73,7.73,0,0,1,7.584,5.045l-4.131,1.252a3.6,3.6,0,0,0-3.419-2.37A3.921,3.921,0,0,0,3931.82,1279.9Z" transform="translate(-3834.218 -1263.544)" fill="#fff"/>
    <path id="Path_461" data-name="Path 461" d="M3969.141,1281.182H3957.6a3.682,3.682,0,0,0,6.669,1.523l4.571.475a8.259,8.259,0,1,1-7.821-11.444c4.267,0,8.125,2.777,8.125,9.277Zm-11.646-2.946h6.94a3.363,3.363,0,0,0-3.419-2.844A3.458,3.458,0,0,0,3957.5,1278.236Z" transform="translate(-3842.29 -1263.544)" fill="#fff"/>
    <path id="Path_462" data-name="Path 462" d="M3991.4,1282.087a5.677,5.677,0,0,1-4.841,2.37c-4.266,0-7.516-3.42-7.516-8.16s3.217-8.16,7.482-8.16a5.637,5.637,0,0,1,4.943,2.4c0-.507-.068-1.794-.068-2.946v-7.245h4.4v23.7h-4.4Zm-7.82-5.789a3.972,3.972,0,1,0,7.922,0,3.97,3.97,0,1,0-7.922,0Z" transform="translate(-3850.533 -1259.946)" fill="#fff"/>
    <path id="Path_463" data-name="Path 463" d="M4031.11,1266.461a7.8,7.8,0,0,0-5.011-2.438c-1.558,0-2.979.813-2.979,2.235,0,1.083.677,1.93,2.574,2.81l1.964.914c3.757,1.76,6.025,3.724,6.025,7.279s-3.013,7.008-8.227,7.008a11.68,11.68,0,0,1-8.5-3.556l2.607-3.52a8.717,8.717,0,0,0,5.789,2.81c2.032,0,3.285-1.117,3.285-2.572,0-1.625-1.456-2.54-3.724-3.589l-1.659-.779c-3.182-1.49-5.18-3.656-5.18-6.636,0-4.164,3.724-6.669,7.922-6.669a12.433,12.433,0,0,1,7.82,3.317Z" transform="translate(-3862.516 -1259.758)" fill="#fff"/>
    <path id="Path_464" data-name="Path 464" d="M4049.821,1293.573h-4.4v-21.431h4.4v.746c0,.745-.068,1.083-.068,1.252a5.574,5.574,0,0,1,4.91-2.4c4.266,0,7.516,3.42,7.516,8.16s-3.285,8.16-7.55,8.16a5.579,5.579,0,0,1-4.808-2.37Zm-.1-13.678a3.972,3.972,0,1,0,7.922,0,3.97,3.97,0,1,0-7.922,0Z" transform="translate(-3871.511 -1263.544)" fill="#fff"/>
    <path id="Path_465" data-name="Path 465" d="M4088.825,1281.182h-11.544a3.682,3.682,0,0,0,6.669,1.523l4.57.475a8.259,8.259,0,1,1-7.82-11.444c4.266,0,8.125,2.777,8.125,9.277Zm-11.646-2.946h6.941a3.365,3.365,0,0,0-3.42-2.844A3.458,3.458,0,0,0,4077.179,1278.236Z" transform="translate(-3880.115 -1263.544)" fill="#fff"/>
    <path id="Path_466" data-name="Path 466" d="M4103.079,1279.9a3.921,3.921,0,0,0,3.894,4.232,3.551,3.551,0,0,0,3.419-2.369l4.13,1.286a7.7,7.7,0,0,1-7.583,5.011,8.16,8.16,0,1,1,0-16.319,7.731,7.731,0,0,1,7.583,5.045l-4.13,1.252a3.6,3.6,0,0,0-3.419-2.37A3.921,3.921,0,0,0,4103.079,1279.9Z" transform="translate(-3888.343 -1263.544)" fill="#fff"/>
    <path id="Path_467" data-name="Path 467" d="M4130.389,1284.051h-4.4v-11.782h-2.167v-3.724h6.568Zm-2.4-23.7a2.838,2.838,0,0,1,2.843,2.844,2.826,2.826,0,0,1-5.653,0A2.831,2.831,0,0,1,4127.985,1260.352Z" transform="translate(-3896.289 -1259.946)" fill="#fff"/>
    <path id="Path_468" data-name="Path 468" d="M4147.035,1277.323c0-1.117-.88-1.829-2.573-1.829a10.542,10.542,0,0,0-4.672,1.456l-1.726-3.317a13.264,13.264,0,0,1,6.636-1.9c3.521,0,6.738,1.625,6.738,5.722v10.19h-4.4v-1.455a5.228,5.228,0,0,1-4.333,1.862c-3.285,0-5.417-2.336-5.417-4.875,0-2.946,2.167-4.774,5.62-4.774h3.047c.745,0,1.083-.339,1.083-.915Zm0,4.774v-1.118a1.912,1.912,0,0,1-1.354.339h-1.659c-1.388,0-2.2.609-2.2,1.693,0,1.049.846,1.828,2.2,1.828C4145.613,1284.839,4147.035,1284.026,4147.035,1282.1Z" transform="translate(-3900.544 -1263.544)" fill="#fff"/>
    <path id="Path_469" data-name="Path 469" d="M4167.638,1284.051h-4.367v-23.7h4.367Z" transform="translate(-3908.757 -1259.946)" fill="#fff"/>
    <path id="Path_470" data-name="Path 470" d="M4179.936,1284.051h-4.4v-11.782h-2.167v-3.724h6.568Zm-2.4-23.7a2.838,2.838,0,0,1,2.843,2.844,2.826,2.826,0,0,1-5.653,0A2.831,2.831,0,0,1,4177.533,1260.352Z" transform="translate(-3911.948 -1259.946)" fill="#fff"/>
    <path id="Path_471" data-name="Path 471" d="M4200.9,1275.953l-7.989,8.192h7.989v3.691h-13.373v-3.622l8.024-8.16h-7.956v-3.724h13.3Z" transform="translate(-3916.422 -1263.731)" fill="#fff"/>
    <path id="Path_472" data-name="Path 472" d="M4219.745,1277.323c0-1.117-.88-1.829-2.573-1.829a10.538,10.538,0,0,0-4.672,1.456l-1.727-3.317a13.264,13.264,0,0,1,6.636-1.9c3.52,0,6.738,1.625,6.738,5.722v10.19h-4.4v-1.455a5.227,5.227,0,0,1-4.333,1.862c-3.285,0-5.417-2.336-5.417-4.875,0-2.946,2.167-4.774,5.62-4.774h3.047c.745,0,1.083-.339,1.083-.915Zm0,4.774v-1.118a1.909,1.909,0,0,1-1.354.339h-1.659c-1.388,0-2.2.609-2.2,1.693,0,1.049.846,1.828,2.2,1.828C4218.323,1284.839,4219.745,1284.026,4219.745,1282.1Z" transform="translate(-3923.524 -1263.544)" fill="#fff"/>
    <path id="Path_473" data-name="Path 473" d="M4240.94,1263.718v5.89h3.352v3.724h-3.352v7.009c0,.982.778,1.117,1.456,1.117,1.117,0,2.031-.1,2.031-.1v3.758s-2.132.2-3.419.2c-2.2,0-4.469-.372-4.469-3.487v-8.5H4234.1v-3.724h2.438v-5.89Z" transform="translate(-3931.142 -1261.01)" fill="#fff"/>
    <path id="Path_474" data-name="Path 474" d="M4258.191,1284.051h-4.4v-11.782h-2.167v-3.724h6.568Zm-2.4-23.7a2.838,2.838,0,0,1,2.843,2.844,2.826,2.826,0,0,1-5.653,0A2.831,2.831,0,0,1,4255.788,1260.352Z" transform="translate(-3936.68 -1259.946)" fill="#fff"/>
    <path id="Path_475" data-name="Path 475" d="M4265.334,1279.9a8.3,8.3,0,1,1,8.294,8.16A8.068,8.068,0,0,1,4265.334,1279.9Zm4.4,0a3.891,3.891,0,1,0,3.893-4.232A3.939,3.939,0,0,0,4269.735,1279.9Z" transform="translate(-3941.013 -1263.544)" fill="#fff"/>
    <path id="Path_476" data-name="Path 476" d="M4302.667,1271.736a5.4,5.4,0,0,1,5.755,5.755v10.157h-4.4v-9.039a2.505,2.505,0,0,0-2.64-2.776,4.3,4.3,0,0,0-3.285,1.761v10.055h-4.4v-15.506h4.3v.61c0,.542-.068,1.219-.068,1.219A6.1,6.1,0,0,1,4302.667,1271.736Z" transform="translate(-3949.976 -1263.544)" fill="#fff"/>
    <path id="Path_477" data-name="Path 477" d="M3808.408,1333.042h-4.154l-1.662-5.29h-5.844l-1.551,5.29h-4.044l6.26-19.389h4.6Zm-8.725-15.234h-.055l-1.967,6.647h3.961Z" transform="translate(-3791.152 -1276.791)" fill="#ffde14"/>
    <path id="Path_478" data-name="Path 478" d="M3819.663,1313.653h3.85v19.389h-3.85Z" transform="translate(-3800.163 -1276.791)" fill="#ffde14"/>
    <path id="Path_479" data-name="Path 479" d="M3845.215,1327.538c0-.913-.719-1.5-2.1-1.5a8.631,8.631,0,0,0-3.823,1.191l-1.413-2.715a10.858,10.858,0,0,1,5.429-1.551c2.881,0,5.512,1.329,5.512,4.68v8.337h-3.6V1334.8a4.274,4.274,0,0,1-3.545,1.523,4.159,4.159,0,0,1-4.432-3.989c0-2.409,1.773-3.906,4.6-3.906h2.492c.61,0,.886-.276.886-.747Zm0,3.905v-.914a1.558,1.558,0,0,1-1.107.278h-1.357c-1.136,0-1.8.5-1.8,1.384,0,.859.693,1.5,1.8,1.5A2.194,2.194,0,0,0,3845.215,1331.443Z" transform="translate(-3805.717 -1279.735)" fill="#ffde14"/>
    <path id="Path_480" data-name="Path 480" d="M3865.838,1322.968a4.419,4.419,0,0,1,4.709,4.709v8.309h-3.6v-7.4a2.05,2.05,0,0,0-2.161-2.271,3.514,3.514,0,0,0-2.687,1.44v8.226h-3.6V1323.3h3.518v.5c0,.443-.055,1-.055,1A4.989,4.989,0,0,1,3865.838,1322.968Z" transform="translate(-3812.437 -1279.735)" fill="#ffde14"/>
    <path id="Path_481" data-name="Path 481" d="M3889.425,1331.435a4.647,4.647,0,0,1-3.961,1.939c-3.49,0-6.149-2.8-6.149-6.675s2.632-6.676,6.122-6.676a4.612,4.612,0,0,1,4.043,1.966c0-.416-.055-1.469-.055-2.41v-5.927h3.6v19.389h-3.6Zm-6.4-4.736a3.25,3.25,0,1,0,6.482,0,3.248,3.248,0,1,0-6.482,0Z" transform="translate(-3819.015 -1276.791)" fill="#ffde14"/>
    <path id="Path_482" data-name="Path 482" d="M3920.247,1328.887l-3.822-9.556v13.711h-3.74v-19.389h5.429l4.238,11,4.321-11h5.18v19.389h-3.823v-13.711l-3.712,9.556Z" transform="translate(-3829.562 -1276.791)" fill="#ffde14"/>
    <path id="Path_483" data-name="Path 483" d="M3952.17,1327.538c0-.913-.719-1.5-2.1-1.5a8.633,8.633,0,0,0-3.823,1.191l-1.412-2.715a10.859,10.859,0,0,1,5.429-1.551c2.88,0,5.511,1.329,5.511,4.68v8.337h-3.6V1334.8a4.274,4.274,0,0,1-3.545,1.523,4.159,4.159,0,0,1-4.432-3.989c0-2.409,1.773-3.906,4.6-3.906h2.492c.61,0,.886-.276.886-.747Zm0,3.905v-.914a1.558,1.558,0,0,1-1.107.278h-1.357c-1.136,0-1.8.5-1.8,1.384,0,.859.693,1.5,1.8,1.5A2.194,2.194,0,0,0,3952.17,1331.443Z" transform="translate(-3839.519 -1279.735)" fill="#ffde14"/>
    <path id="Path_484" data-name="Path 484" d="M3967.881,1329.644a3.207,3.207,0,0,0,3.185,3.462,2.906,2.906,0,0,0,2.8-1.939l3.378,1.053a6.3,6.3,0,0,1-6.2,4.1,6.676,6.676,0,1,1,0-13.35,6.323,6.323,0,0,1,6.2,4.127l-3.378,1.025a2.942,2.942,0,0,0-2.8-1.939A3.208,3.208,0,0,0,3967.881,1329.644Z" transform="translate(-3845.867 -1279.735)" fill="#ffde14"/>
    <path id="Path_485" data-name="Path 485" d="M3993.691,1320.024a4.419,4.419,0,0,1,4.709,4.709v8.309h-3.6v-7.4a2.05,2.05,0,0,0-2.16-2.271,3.517,3.517,0,0,0-2.687,1.44v8.226h-3.6v-19.389h3.545v7.2c0,.443-.055,1-.055,1A4.978,4.978,0,0,1,3993.691,1320.024Z" transform="translate(-3852.843 -1276.791)" fill="#ffde14"/>
    <path id="Path_486" data-name="Path 486" d="M4012.176,1333.042h-3.6V1323.4H4006.8v-3.046h5.373Zm-1.966-19.389a2.322,2.322,0,0,1,2.326,2.328,2.312,2.312,0,0,1-4.625,0A2.317,2.317,0,0,1,4010.21,1313.653Z" transform="translate(-3859.307 -1276.791)" fill="#ffde14"/>
    <path id="Path_487" data-name="Path 487" d="M4026.534,1322.968a4.419,4.419,0,0,1,4.708,4.709v8.309h-3.6v-7.4a2.049,2.049,0,0,0-2.16-2.271,3.517,3.517,0,0,0-2.687,1.44v8.226h-3.6V1323.3h3.518v.5c0,.443-.055,1-.055,1A4.988,4.988,0,0,1,4026.534,1322.968Z" transform="translate(-3863.223 -1279.735)" fill="#ffde14"/>
    <path id="Path_488" data-name="Path 488" d="M4053.209,1330.7h-9.445a3.012,3.012,0,0,0,5.456,1.246l3.739.387a6.757,6.757,0,1,1-6.4-9.361c3.49,0,6.648,2.271,6.648,7.589Zm-9.528-2.41h5.678a2.752,2.752,0,0,0-2.8-2.326A2.828,2.828,0,0,0,4043.681,1328.286Z" transform="translate(-3869.789 -1279.735)" fill="#ffde14"/>
    <path id="Path_489" data-name="Path 489" d="M4071.233,1333.042v-19.389h3.85v16.093h8.227v3.3Z" transform="translate(-3879.669 -1276.791)" fill="#ffde14"/>
    <path id="Path_490" data-name="Path 490" d="M4103.709,1330.7h-9.445a3.012,3.012,0,0,0,5.456,1.246l3.739.387a6.757,6.757,0,1,1-6.4-9.361c3.49,0,6.648,2.271,6.648,7.589Zm-9.528-2.41h5.678a2.752,2.752,0,0,0-2.8-2.326A2.828,2.828,0,0,0,4094.181,1328.286Z" transform="translate(-3885.749 -1279.735)" fill="#ffde14"/>
    <path id="Path_491" data-name="Path 491" d="M4119.545,1327.538c0-.913-.719-1.5-2.1-1.5a8.632,8.632,0,0,0-3.823,1.191l-1.412-2.715a10.857,10.857,0,0,1,5.429-1.551c2.88,0,5.511,1.329,5.511,4.68v8.337h-3.6V1334.8a4.274,4.274,0,0,1-3.545,1.523,4.159,4.159,0,0,1-4.432-3.989c0-2.409,1.773-3.906,4.6-3.906h2.493c.61,0,.886-.276.886-.747Zm0,3.905v-.914a1.558,1.558,0,0,1-1.107.278h-1.357c-1.136,0-1.8.5-1.8,1.384,0,.859.693,1.5,1.8,1.5A2.194,2.194,0,0,0,4119.545,1331.443Z" transform="translate(-3892.417 -1279.735)" fill="#ffde14"/>
    <path id="Path_492" data-name="Path 492" d="M4140.613,1326.923h-1.524c-1.827,0-2.658.858-2.658,3.074v6.065h-3.6v-12.685h3.49v2.022a3.34,3.34,0,0,1,3.3-2.188,4.058,4.058,0,0,1,1,.111Z" transform="translate(-3899.136 -1279.812)" fill="#ffde14"/>
    <path id="Path_493" data-name="Path 493" d="M4154.5,1322.968a4.419,4.419,0,0,1,4.709,4.709v8.309h-3.6v-7.4a2.05,2.05,0,0,0-2.161-2.271,3.514,3.514,0,0,0-2.687,1.44v8.226h-3.6V1323.3h3.519v.5c0,.443-.056,1-.056,1A4.989,4.989,0,0,1,4154.5,1322.968Z" transform="translate(-3903.667 -1279.735)" fill="#ffde14"/>
    <path id="Path_494" data-name="Path 494" d="M4172.991,1333.042h-3.6V1323.4h-1.772v-3.046h5.374Zm-1.966-19.389a2.323,2.323,0,0,1,2.326,2.328,2.313,2.313,0,0,1-4.625,0A2.317,2.317,0,0,1,4171.024,1313.653Z" transform="translate(-3910.131 -1276.791)" fill="#ffde14"/>
    <path id="Path_495" data-name="Path 495" d="M4187.349,1322.968a4.419,4.419,0,0,1,4.709,4.709v8.309h-3.6v-7.4a2.05,2.05,0,0,0-2.16-2.271,3.517,3.517,0,0,0-2.687,1.44v8.226h-3.6V1323.3h3.518v.5c0,.443-.056,1-.056,1A4.991,4.991,0,0,1,4187.349,1322.968Z" transform="translate(-3914.047 -1279.735)" fill="#ffde14"/>
    <path id="Path_496" data-name="Path 496" d="M4214.452,1323.3v13.627c0,1.994-1,3.905-4.072,3.905h-5.512v-3.046h4.626c.637,0,1.356-.166,1.356-1.135v-2.438a4.644,4.644,0,0,1-3.933,1.912c-3.434,0-6.093-2.6-6.093-6.565,0-3.989,2.632-6.592,6.066-6.592a4.6,4.6,0,0,1,4.016,1.966c0-.138-.056-.388-.056-1.052v-.581Zm-6.731,9.722a3.489,3.489,0,1,0-3.185-3.462A3.183,3.183,0,0,0,4207.721,1333.022Z" transform="translate(-3920.625 -1279.735)" fill="#ffde14"/>
    <path id="Path_497" data-name="Path 497" d="M3804.6,1377.283a6.1,6.1,0,1,1-6.094-6.343A6.1,6.1,0,0,1,3804.6,1377.283Zm-1.191,0c0-2.964-1.995-5.291-4.9-5.291s-4.9,2.327-4.9,5.291,1.995,5.29,4.9,5.29S3803.4,1380.247,3803.4,1377.283Z" transform="translate(-3791.549 -1294.896)" fill="#fff"/>
    <path id="Path_498" data-name="Path 498" d="M3816.075,1373.045a5.984,5.984,0,0,1,4.321-2.105c2.577,0,4.4,1.606,4.4,4.1v8.253h-1.191v-7.783a3.182,3.182,0,0,0-3.324-3.49,5.671,5.671,0,0,0-4.21,2.189v9.084h-1.191v-12.021h1.191Z" transform="translate(-3798.652 -1294.896)" fill="#fff"/>
    <path id="Path_499" data-name="Path 499" d="M3859.925,1360.653h1.606v19.389h-1.218v-17.588l-6.759,13.406H3852l-6.758-13.406v17.588h-1.163v-19.389h1.635l7.091,14.071Z" transform="translate(-3807.88 -1291.645)" fill="#fff"/>
    <path id="Path_500" data-name="Path 500" d="M3877.222,1380.874h-1.191v-11.023h-1.939v-1h3.13Zm-.693-17.588a1.219,1.219,0,1,1-1.218,1.218A1.23,1.23,0,0,1,3876.529,1363.286Z" transform="translate(-3817.365 -1292.477)" fill="#fff"/>
    <path id="Path_501" data-name="Path 501" d="M3883.324,1377.283a6.124,6.124,0,0,1,6.121-6.343,5.974,5.974,0,0,1,5.513,3.545l-1.053.527a4.784,4.784,0,0,0-4.46-3.02,5.3,5.3,0,0,0,0,10.581,4.783,4.783,0,0,0,4.46-3.019l1.053.526a5.974,5.974,0,0,1-5.513,3.545A6.107,6.107,0,0,1,3883.324,1377.283Z" transform="translate(-3820.282 -1294.896)" fill="#fff"/>
    <path id="Path_502" data-name="Path 502" d="M3909.65,1372.455h-.72c-1.994,0-3.019,1.219-3.019,4.431v6.509h-1.163v-12.021h1.108v2.188a3.011,3.011,0,0,1,3.185-2.3,4.755,4.755,0,0,1,.61.027Z" transform="translate(-3827.053 -1294.999)" fill="#fff"/>
    <path id="Path_503" data-name="Path 503" d="M3926.209,1377.283a6.1,6.1,0,1,1-6.094-6.343A6.1,6.1,0,0,1,3926.209,1377.283Zm-1.191,0c0-2.964-1.995-5.291-4.9-5.291s-4.9,2.327-4.9,5.291,1.994,5.29,4.9,5.29S3925.018,1380.247,3925.018,1377.283Z" transform="translate(-3829.984 -1294.896)" fill="#fff"/>
    <path id="Path_504" data-name="Path 504" d="M3942.008,1380.219c0-1.329-.914-2.022-2.8-2.659l-1.164-.387c-1.911-.637-2.659-1.773-2.659-3.047,0-1.884,1.635-3.185,3.878-3.185a6.036,6.036,0,0,1,3.684,1.274l-.582.886a5.179,5.179,0,0,0-3.075-1.135c-1.55,0-2.714.83-2.714,2.049,0,.8.415,1.579,1.8,2.077l1.689.609c2.216.8,3.13,1.8,3.13,3.517,0,1.523-1.3,3.407-4.293,3.407a6.651,6.651,0,0,1-3.988-1.357l.582-.886a6.169,6.169,0,0,0,3.434,1.219C3940.79,1382.6,3942.008,1381.52,3942.008,1380.219Z" transform="translate(-3836.588 -1294.896)" fill="#fff"/>
    <path id="Path_505" data-name="Path 505" d="M3962.494,1377.283a6.1,6.1,0,1,1-6.093-6.343A6.1,6.1,0,0,1,3962.494,1377.283Zm-1.19,0c0-2.964-1.995-5.291-4.9-5.291s-4.9,2.327-4.9,5.291,1.995,5.29,4.9,5.29S3961.3,1380.247,3961.3,1377.283Z" transform="translate(-3841.451 -1294.896)" fill="#fff"/>
    <path id="Path_506" data-name="Path 506" d="M3972.754,1363.264c0-2.216,1.3-2.854,2.548-2.854a9.055,9.055,0,0,1,1.385.111v1.025a11.119,11.119,0,0,0-1.164-.139c-1.135,0-1.579.665-1.579,1.884v4.654h2.41v1h-2.41v11.023h-1.19v-11.023h-2.078v-1h2.078Z" transform="translate(-3847.889 -1291.568)" fill="#fff"/>
    <path id="Path_507" data-name="Path 507" d="M3984.19,1363.934v5.124h3.019v1h-3.019v8.835c0,.97.8,1.33,1.551,1.33a7.875,7.875,0,0,0,1.468-.111v.969a11.791,11.791,0,0,1-1.689.111c-1.219,0-2.521-.415-2.521-2.6v-8.53h-2.077v-1H3983v-5.124Z" transform="translate(-3851.127 -1292.682)" fill="#fff"/>
    <path id="Path_508" data-name="Path 508" d="M4002.87,1372.979l-2.382,7.063h-1.3l6.729-19.389h1.579l6.759,19.389h-1.33l-2.437-7.062Zm.333-1.108h6.9l-3.352-10h-.166Z" transform="translate(-3856.9 -1291.645)" fill="#fff"/>
    <path id="Path_509" data-name="Path 509" d="M4032.806,1372.506l-7.368,9.888h7.423v1.052h-8.891v-1.052l7.4-9.888h-7.4v-1.08h8.835Z" transform="translate(-3864.732 -1295.05)" fill="#fff"/>
    <path id="Path_510" data-name="Path 510" d="M4041.183,1379.209v-7.783h1.191v7.7c0,2.3,1.579,3.573,3.794,3.573a3.405,3.405,0,0,0,3.74-3.573v-7.7h1.191v7.783c0,2.52-1.607,4.57-4.931,4.57C4042.817,1383.779,4041.183,1381.729,4041.183,1379.209Z" transform="translate(-3870.172 -1295.05)" fill="#fff"/>
    <path id="Path_511" data-name="Path 511" d="M4066.293,1372.455h-.72c-1.994,0-3.019,1.219-3.019,4.431v6.509h-1.164v-12.021h1.108v2.188a3.01,3.01,0,0,1,3.185-2.3,4.768,4.768,0,0,1,.61.027Z" transform="translate(-3876.558 -1294.999)" fill="#fff"/>
    <path id="Path_512" data-name="Path 512" d="M4071.855,1377.643a4.917,4.917,0,0,0,4.9,4.93,4.667,4.667,0,0,0,4.293-2.659h1.3a5.95,5.95,0,0,1-5.595,3.712,6.348,6.348,0,0,1,0-12.685c3.158,0,6.038,2.327,6.038,6.619v.083Zm.027-1h9.722a4.866,4.866,0,0,0-9.722,0Z" transform="translate(-3879.49 -1294.896)" fill="#fff"/>
  </g>
  <g id="Group_416" data-name="Group 416">
    <path id="Path_513" data-name="Path 513" d="M3518.217,1297.911h-3.044v-17.772q0-2.1.253-5.13h-.072a16.726,16.726,0,0,1-.78,2.565l-8.859,20.338h-1.486l-8.88-20.19a15.388,15.388,0,0,1-.778-2.713h-.073q.145,1.588.144,5.167v17.735h-2.934v-26.464h4.022l7.972,18.455a23.706,23.706,0,0,1,1.178,3.173h.127q.906-2.546,1.25-3.248l8.136-18.381h3.823v26.464" transform="translate(-3491.694 -1247.57)" fill="#fff"/>
    <path id="Path_514" data-name="Path 514" d="M3541.775,1271.7a1.886,1.886,0,0,1-.579,1.412,1.963,1.963,0,0,1-2.763-2.786,1.829,1.829,0,0,1,1.386-.581,1.88,1.88,0,0,1,1.395.572,1.908,1.908,0,0,1,.562,1.384m-.507,25.67H3538.3v-18.9h2.972v18.9" transform="translate(-3506.286 -1247.033)" fill="#fff"/>
    <path id="Path_515" data-name="Path 515" d="M3562.124,1300.327a9.511,9.511,0,0,1-5.092,1.33,8.811,8.811,0,0,1-4.557-1.191,8.14,8.14,0,0,1-3.143-3.369,10.486,10.486,0,0,1-1.124-4.89,10.632,10.632,0,0,1,2.637-7.53,9.121,9.121,0,0,1,7.021-2.841,9.275,9.275,0,0,1,4.3.959v3.1a7.521,7.521,0,0,0-4.422-1.477,5.893,5.893,0,0,0-4.684,2.094,8.006,8.006,0,0,0-1.8,5.417,7.558,7.558,0,0,0,1.712,5.222,5.848,5.848,0,0,0,4.594,1.919,7.41,7.41,0,0,0,4.567-1.624v2.879" transform="translate(-3509.55 -1250.853)" fill="#fff"/>
    <path id="Path_516" data-name="Path 516" d="M3583.444,1285.42a3.936,3.936,0,0,0-5.472,1.282,8.872,8.872,0,0,0-1.232,4.919v9.633h-2.97v-18.9h2.97v3.893h.073a6.679,6.679,0,0,1,1.9-3.09,4.332,4.332,0,0,1,2.954-1.136,4.763,4.763,0,0,1,1.775.259v3.137" transform="translate(-3517.628 -1250.913)" fill="#fff"/>
    <path id="Path_517" data-name="Path 517" d="M3606.785,1291.672a10.309,10.309,0,0,1-2.51,7.243,8.688,8.688,0,0,1-6.732,2.741,8.493,8.493,0,0,1-6.569-2.667,9.952,9.952,0,0,1-2.455-7.022,10.488,10.488,0,0,1,2.518-7.409,8.991,8.991,0,0,1,6.94-2.721,8.206,8.206,0,0,1,6.469,2.63,10.462,10.462,0,0,1,2.338,7.206m-3.044.111a8.455,8.455,0,0,0-1.549-5.463,5.391,5.391,0,0,0-4.432-1.9,5.651,5.651,0,0,0-4.53,1.947,8.189,8.189,0,0,0-1.667,5.49,7.778,7.778,0,0,0,1.676,5.306,5.712,5.712,0,0,0,4.521,1.91,5.409,5.409,0,0,0,4.44-1.882,8.348,8.348,0,0,0,1.54-5.407" transform="translate(-3522.29 -1250.853)" fill="#fff"/>
    <path id="Path_518" data-name="Path 518" d="M3630.139,1296.138a4.919,4.919,0,0,1-1.858,3.986,7.51,7.51,0,0,1-4.937,1.533,9.019,9.019,0,0,1-4.6-1.145v-3.247a7.4,7.4,0,0,0,4.82,1.808q3.533,0,3.534-2.638a2.334,2.334,0,0,0-.689-1.745,13.154,13.154,0,0,0-3.135-1.817,9.294,9.294,0,0,1-3.479-2.3,5.333,5.333,0,0,1,.834-7.169,7.006,7.006,0,0,1,4.693-1.568,8.77,8.77,0,0,1,3.968.886v3.045a6.857,6.857,0,0,0-4.2-1.347,3.607,3.607,0,0,0-2.365.738,2.352,2.352,0,0,0-.9,1.9,2.573,2.573,0,0,0,.689,1.928,10.182,10.182,0,0,0,2.845,1.6,10.235,10.235,0,0,1,3.715,2.4,4.7,4.7,0,0,1,1.068,3.155" transform="translate(-3531.842 -1250.853)" fill="#fff"/>
    <path id="Path_519" data-name="Path 519" d="M3656.607,1291.672a10.307,10.307,0,0,1-2.51,7.243,8.687,8.687,0,0,1-6.732,2.741,8.49,8.49,0,0,1-6.568-2.667,9.955,9.955,0,0,1-2.455-7.022,10.485,10.485,0,0,1,2.518-7.409,8.991,8.991,0,0,1,6.941-2.721,8.206,8.206,0,0,1,6.468,2.63,10.462,10.462,0,0,1,2.338,7.206m-3.044.111a8.455,8.455,0,0,0-1.55-5.463,5.389,5.389,0,0,0-4.431-1.9,5.651,5.651,0,0,0-4.53,1.947,8.189,8.189,0,0,0-1.667,5.49,7.774,7.774,0,0,0,1.676,5.306,5.71,5.71,0,0,0,4.521,1.91,5.411,5.411,0,0,0,4.44-1.882,8.348,8.348,0,0,0,1.54-5.407" transform="translate(-3538.036 -1250.853)" fill="#fff"/>
    <path id="Path_520" data-name="Path 520" d="M3677.663,1271.705a3.9,3.9,0,0,0-1.975-.5q-3.117,0-3.117,4v2.916h4.349v2.565h-4.349v16.332H3669.6v-16.332h-3.153v-2.565h3.153v-3.064a6.512,6.512,0,0,1,1.667-4.651,5.569,5.569,0,0,1,4.24-1.771,5.742,5.742,0,0,1,2.157.332v2.732" transform="translate(-3546.918 -1246.683)" fill="#fff"/>
    <path id="Path_521" data-name="Path 521" d="M3693.624,1298.639a5.608,5.608,0,0,1-2.791.609q-4.857,0-4.856-5.574v-11.183h-3.189v-2.565h3.189v-4.614l2.971-.978v5.592h4.676v2.565h-4.676v10.666a4.426,4.426,0,0,0,.635,2.7,2.545,2.545,0,0,0,2.119.8,3.131,3.131,0,0,0,1.922-.608v2.583" transform="translate(-3552.083 -1248.483)" fill="#fff"/>
    <path id="Path_522" data-name="Path 522" d="M3552.286,1332.631a7.953,7.953,0,0,1-2.6,6.192,9.782,9.782,0,0,1-6.822,2.353h-3.425v10.02H3536.4v-26.463h7.139a9.277,9.277,0,0,1,6.459,2.077,7.453,7.453,0,0,1,2.292,5.822m-3.189.166q0-5.26-6.088-5.26h-3.57v10.85h3.189a7.107,7.107,0,0,0,4.8-1.448,5.19,5.19,0,0,0,1.667-4.143" transform="translate(-3505.817 -1264.411)" fill="#fff"/>
    <path id="Path_523" data-name="Path 523" d="M3575.528,1354.479h-2.972v-2.953h-.073a6.2,6.2,0,0,1-5.708,3.415,6.085,6.085,0,0,1-4.293-1.486,5.162,5.162,0,0,1-1.614-3.995q0-5.279,6.124-6.164l5.564-.793q0-4.8-3.824-4.8a9.078,9.078,0,0,0-6.051,2.307v-3.1a8.975,8.975,0,0,1,2.79-1.209,12.611,12.611,0,0,1,3.515-.582q6.541,0,6.542,7.069v12.29m-2.972-9.559-4.494.646a6.574,6.574,0,0,0-3.226,1.116,3.156,3.156,0,0,0-.925,2.537,2.856,2.856,0,0,0,1,2.28,3.774,3.774,0,0,0,2.555.858,4.715,4.715,0,0,0,3.651-1.587,5.68,5.68,0,0,0,1.44-3.968v-1.882" transform="translate(-3513.551 -1267.693)" fill="#fff"/>
    <path id="Path_524" data-name="Path 524" d="M3598.808,1338.7a3.937,3.937,0,0,0-5.472,1.282,8.869,8.869,0,0,0-1.231,4.918v9.633h-2.972v-18.9h2.972v3.894h.071a6.69,6.69,0,0,1,1.9-3.091,4.333,4.333,0,0,1,2.953-1.135,4.761,4.761,0,0,1,1.776.259v3.137" transform="translate(-3522.484 -1267.753)" fill="#fff"/>
    <path id="Path_525" data-name="Path 525" d="M3618.518,1351.924a5.61,5.61,0,0,1-2.79.609q-4.857,0-4.856-5.574v-11.183h-3.189v-2.566h3.189V1328.6l2.971-.979v5.592h4.675v2.566h-4.675v10.666a4.429,4.429,0,0,0,.634,2.7,2.547,2.547,0,0,0,2.121.8,3.117,3.117,0,0,0,1.92-.609v2.583" transform="translate(-3528.347 -1265.323)" fill="#fff"/>
    <path id="Path_526" data-name="Path 526" d="M3645,1354.479h-2.972V1343.7q0-6-4.312-6a4.679,4.679,0,0,0-3.669,1.689,6.3,6.3,0,0,0-1.477,4.31v10.776h-2.97v-18.9h2.97v3.137h.073a6.644,6.644,0,0,1,6.088-3.6,5.592,5.592,0,0,1,4.666,2.031,9.1,9.1,0,0,1,1.6,5.758v11.57" transform="translate(-3535.273 -1267.693)" fill="#fff"/>
    <path id="Path_527" data-name="Path 527" d="M3673.063,1345.788h-13.1a7.114,7.114,0,0,0,1.658,4.881,5.733,5.733,0,0,0,4.394,1.688,8.992,8.992,0,0,0,5.745-2.066v2.823a10.465,10.465,0,0,1-6.451,1.828,7.7,7.7,0,0,1-6.2-2.612,10.776,10.776,0,0,1-2.23-7.225,11.668,11.668,0,0,1,1.114-5.122,8.646,8.646,0,0,1,3.072-3.589,7.8,7.8,0,0,1,4.348-1.274,6.972,6.972,0,0,1,5.627,2.39,10.063,10.063,0,0,1,2.02,6.691v1.587m-3.043-2.565a6.341,6.341,0,0,0-1.242-4.07,4.172,4.172,0,0,0-3.4-1.449,4.747,4.747,0,0,0-3.533,1.513,7.129,7.129,0,0,0-1.849,4.006h10.021" transform="translate(-3543.895 -1267.693)" fill="#fff"/>
    <path id="Path_528" data-name="Path 528" d="M3695.219,1338.7a3.936,3.936,0,0,0-5.471,1.282,8.855,8.855,0,0,0-1.232,4.918v9.633h-2.971v-18.9h2.971v3.894h.072a6.687,6.687,0,0,1,1.9-3.091,4.332,4.332,0,0,1,2.955-1.135,4.76,4.76,0,0,1,1.774.259v3.137" transform="translate(-3552.954 -1267.753)" fill="#fff"/>
    <path id="Path_529" data-name="Path 529" d="M3606.432,1407.5l-.572,1.63h-.033a15.61,15.61,0,0,0-.541-1.612l-3.063-7.821h-2.992v12.435h1.974v-7.645c0-.471-.01-1.042-.029-1.694-.01-.33-.046-.595-.055-.8h.043c.1.469.2.826.281,1.064l3.671,9.071h1.381l3.643-9.153a8.116,8.116,0,0,0,.25-.982h.044c-.048.906-.087,1.733-.093,2.233v7.9h2.105V1399.7h-2.873l-3.14,7.8" transform="translate(-3525.675 -1288.103)" fill="#fff"/>
    <path id="Path_530" data-name="Path 530" d="M3621.448,1413.762h2.059v-8.91h-2.059v8.91" transform="translate(-3532.697 -1289.731)" fill="#fff"/>
    <path id="Path_531" data-name="Path 531" d="M3622.409,1399.315a1.23,1.23,0,0,0-.876.35,1.169,1.169,0,0,0-.366.874,1.134,1.134,0,0,0,.363.856,1.238,1.238,0,0,0,.88.341,1.256,1.256,0,0,0,.886-.34,1.129,1.129,0,0,0,.368-.858,1.181,1.181,0,0,0-.358-.864,1.216,1.216,0,0,0-.9-.361" transform="translate(-3532.608 -1287.982)" fill="#fff"/>
    <path id="Path_532" data-name="Path 532" d="M3632.4,1404.664a5.589,5.589,0,0,0-1.15-.126,5,5,0,0,0-2.5.614,4.09,4.09,0,0,0-1.651,1.728,5.6,5.6,0,0,0-.566,2.561,4.805,4.805,0,0,0,.551,2.295,3.9,3.9,0,0,0,1.54,1.587,4.521,4.521,0,0,0,2.25.556,4.852,4.852,0,0,0,2.482-.592l.027-.016v-1.92l-.086.064a3.822,3.822,0,0,1-1.007.534,3.009,3.009,0,0,1-.986.195,2.511,2.511,0,0,1-1.927-.765,3.006,3.006,0,0,1-.711-2.119,3.119,3.119,0,0,1,.741-2.175,2.5,2.5,0,0,1,1.929-.812,3.267,3.267,0,0,1,1.96.695l.086.064v-2.024l-.027-.017a3.424,3.424,0,0,0-.953-.327" transform="translate(-3534.302 -1289.632)" fill="#fff"/>
    <path id="Path_533" data-name="Path 533" d="M3643.063,1404.626a2.09,2.09,0,0,0-1.377.5,2.866,2.866,0,0,0-.792,1.195h-.021v-1.542h-2.058v8.91h2.058v-4.558a3.224,3.224,0,0,1,.513-1.892,1.567,1.567,0,0,1,1.331-.717,2.379,2.379,0,0,1,.619.094,1.55,1.55,0,0,1,.48.2l.087.063v-2.113l-.033-.014a2.092,2.092,0,0,0-.807-.125" transform="translate(-3538.186 -1289.66)" fill="#fff"/>
    <path id="Path_534" data-name="Path 534" d="M3651.057,1404.538a4.521,4.521,0,0,0-3.405,1.28,4.842,4.842,0,0,0-1.23,3.494,4.593,4.593,0,0,0,1.2,3.335,4.317,4.317,0,0,0,3.224,1.232,4.4,4.4,0,0,0,3.338-1.3,4.841,4.841,0,0,0,1.229-3.459,4.718,4.718,0,0,0-1.154-3.359,4.208,4.208,0,0,0-3.2-1.224m1.637,6.861a2.069,2.069,0,0,1-1.729.745,2.192,2.192,0,0,1-1.773-.759,3.269,3.269,0,0,1-.637-2.143,3.394,3.394,0,0,1,.637-2.2,2.156,2.156,0,0,1,1.756-.772,2.128,2.128,0,0,1,1.709.737,3.322,3.322,0,0,1,.624,2.181,3.549,3.549,0,0,1-.587,2.208" transform="translate(-3540.589 -1289.632)" fill="#fff"/>
    <path id="Path_535" data-name="Path 535" d="M3664.595,1408.434a4.432,4.432,0,0,1-1.235-.654.924.924,0,0,1-.25-.687.77.77,0,0,1,.317-.634,1.4,1.4,0,0,1,.886-.254,3.572,3.572,0,0,1,1.057.165,3.363,3.363,0,0,1,.922.436l.085.059v-1.938l-.033-.014a4.564,4.564,0,0,0-.936-.266,5.694,5.694,0,0,0-1.027-.107,3.729,3.729,0,0,0-2.415.759,2.443,2.443,0,0,0-.939,1.977,2.819,2.819,0,0,0,.2,1.1,2.222,2.222,0,0,0,.624.83,5.379,5.379,0,0,0,1.265.721,9.481,9.481,0,0,1,1.054.5,1.484,1.484,0,0,1,.463.388.881.881,0,0,1,.129.5c0,.6-.439.891-1.345.891a3.644,3.644,0,0,1-1.139-.212,4.3,4.3,0,0,1-1.166-.6l-.086-.063v2.044l.031.014a5.189,5.189,0,0,0,1.105.348,5.858,5.858,0,0,0,1.179.138,3.955,3.955,0,0,0,2.549-.763,2.488,2.488,0,0,0,.947-2.025,2.349,2.349,0,0,0-.51-1.53,4.366,4.366,0,0,0-1.734-1.126" transform="translate(-3545.206 -1289.632)" fill="#fff"/>
    <path id="Path_536" data-name="Path 536" d="M3675.476,1404.538a4.523,4.523,0,0,0-3.406,1.28,4.848,4.848,0,0,0-1.23,3.494,4.592,4.592,0,0,0,1.2,3.335,4.316,4.316,0,0,0,3.224,1.232,4.4,4.4,0,0,0,3.338-1.3,4.839,4.839,0,0,0,1.23-3.459,4.718,4.718,0,0,0-1.155-3.359,4.207,4.207,0,0,0-3.2-1.224m1.637,6.861a2.072,2.072,0,0,1-1.73.745,2.192,2.192,0,0,1-1.772-.759,3.265,3.265,0,0,1-.636-2.143,3.389,3.389,0,0,1,.636-2.2,2.157,2.157,0,0,1,1.757-.772,2.128,2.128,0,0,1,1.709.737,3.326,3.326,0,0,1,.624,2.181,3.554,3.554,0,0,1-.587,2.208" transform="translate(-3548.306 -1289.632)" fill="#fff"/>
    <path id="Path_537" data-name="Path 537" d="M3695.056,1404.512V1402.8h-2.085v-2.659l-.069.023-1.958.611-.039.012v2.014h-3.088v-1.122a1.807,1.807,0,0,1,.341-1.189,1.194,1.194,0,0,1,.956-.4,2.181,2.181,0,0,1,.9.21l.077.035v-1.8l-.035-.014a3.473,3.473,0,0,0-1.157-.157,3.342,3.342,0,0,0-1.641.4,2.84,2.84,0,0,0-1.128,1.135,3.433,3.433,0,0,0-.4,1.664v1.234h-1.451v1.709h1.451v7.2h2.084v-7.2h3.088v4.576c0,1.885.874,2.84,2.6,2.84a4.153,4.153,0,0,0,.884-.1,2.374,2.374,0,0,0,.644-.208l.028-.015v-1.727l-.085.057a1.419,1.419,0,0,1-.418.187,1.54,1.54,0,0,1-.413.071,1.11,1.11,0,0,1-.887-.328,1.81,1.81,0,0,1-.282-1.146v-4.206h2.085" transform="translate(-3552.555 -1287.683)" fill="#fff"/>
    <path id="Path_538" data-name="Path 538" d="M3570.194,1403.489h-9.682v-9.861h9.682v9.861" transform="translate(-3513.438 -1286.184)" fill="#ee5225"/>
    <path id="Path_539" data-name="Path 539" d="M3585.823,1403.487h-9.682v-9.86h9.682v9.86" transform="translate(-3518.378 -1286.184)" fill="#80ba42"/>
    <path id="Path_540" data-name="Path 540" d="M3570.194,1419.411h-9.682v-9.861h9.682v9.861" transform="translate(-3513.438 -1291.216)" fill="#319ed8"/>
    <path id="Path_541" data-name="Path 541" d="M3585.823,1419.411h-9.682v-9.861h9.682v9.861" transform="translate(-3518.378 -1291.216)" fill="#fbb615"/>
    <path id="Path_542" data-name="Path 542" d="M3502.251,1249.868a8.516,8.516,0,0,1-4.35,1.135,6.29,6.29,0,0,1-3.248-.839,5.608,5.608,0,0,1-2.2-2.371,7.59,7.59,0,0,1-.77-3.461,6.983,6.983,0,0,1,1.894-5.029,6.4,6.4,0,0,1,4.846-1.984,8.106,8.106,0,0,1,3.562.7v1.716a6.7,6.7,0,0,0-3.733-1.025,4.707,4.707,0,0,0-4.335,2.667,6.218,6.218,0,0,0-.638,2.833,5.7,5.7,0,0,0,1.29,3.944,4.48,4.48,0,0,0,3.52,1.444,5.316,5.316,0,0,0,2.637-.627v-3.7h-2.845v-1.4h4.368v6" transform="translate(-3491.687 -1236.784)" fill="#846b2a"/>
    <path id="Path_543" data-name="Path 543" d="M3520.029,1247.755a5.151,5.151,0,0,1-1.255,3.622,4.34,4.34,0,0,1-3.366,1.37,4.247,4.247,0,0,1-3.284-1.333,4.979,4.979,0,0,1-1.228-3.511,5.246,5.246,0,0,1,1.259-3.7,4.5,4.5,0,0,1,3.471-1.361,4.1,4.1,0,0,1,3.234,1.315,5.227,5.227,0,0,1,1.169,3.6m-1.523.056a4.229,4.229,0,0,0-.774-2.732,2.7,2.7,0,0,0-2.215-.95,2.828,2.828,0,0,0-2.265.973,4.094,4.094,0,0,0-.833,2.745,3.887,3.887,0,0,0,.839,2.652,2.852,2.852,0,0,0,2.26.955,2.7,2.7,0,0,0,2.219-.942,4.171,4.171,0,0,0,.77-2.7" transform="translate(-3497.758 -1238.528)" fill="#846b2a"/>
    <path id="Path_544" data-name="Path 544" d="M3529.777,1250.526h-1.485v-13.988h1.485v13.988" transform="translate(-3503.256 -1236.537)" fill="#846b2a"/>
    <path id="Path_545" data-name="Path 545" d="M3543.06,1250.525h-1.485v-1.605h-.038a3.688,3.688,0,0,1-5.989.549,5.306,5.306,0,0,1-1.041-3.437,5.783,5.783,0,0,1,1.155-3.765,3.784,3.784,0,0,1,3.094-1.421,2.973,2.973,0,0,1,2.781,1.532h.038v-5.841h1.485v13.988m-1.485-4.272v-1.393a2.657,2.657,0,0,0-.767-1.947,2.518,2.518,0,0,0-1.862-.775,2.558,2.558,0,0,0-2.128,1.01,4.452,4.452,0,0,0-.789,2.8,4.057,4.057,0,0,0,.743,2.57,2.415,2.415,0,0,0,2,.946,2.55,2.55,0,0,0,2.012-.9,3.388,3.388,0,0,0,.789-2.306" transform="translate(-3505.22 -1236.537)" fill="#846b2a"/>
  </g>
</svg>
