<svg id="mitigation_icon" xmlns="http://www.w3.org/2000/svg" width="116" height="116" viewBox="0 0 116 116">
  <g id="Ellipse_8" data-name="Ellipse 8" fill="none" stroke="#fff" stroke-width="3">
    <circle cx="58" cy="58" r="58" stroke="none"/>
    <circle cx="58" cy="58" r="56.5" fill="none"/>
  </g>
  <g id="Group_410" data-name="Group 410" transform="translate(-1101.235 -614.215)">
    <g id="Group_58" data-name="Group 58" transform="translate(1141.657 692.126)">
      <g id="Group_57" data-name="Group 57">
        <g id="Group_56" data-name="Group 56">
          <path id="Path_85" data-name="Path 85" d="M1141.5,679.419a1.261,1.261,0,0,1-1.262-1.26v-8.077a1.261,1.261,0,0,1,2.522,0v8.077A1.261,1.261,0,0,1,1141.5,679.419Z" transform="translate(-1140.237 -668.821)" fill="#ffde14"/>
        </g>
      </g>
    </g>
    <g id="Group_61" data-name="Group 61" transform="translate(1174.289 639.707)">
      <g id="Group_60" data-name="Group 60">
        <g id="Group_59" data-name="Group 59">
          <path id="Path_86" data-name="Path 86" d="M1159.622,650.3a1.263,1.263,0,0,1-1.26-1.26v-8.077a1.261,1.261,0,0,1,2.522,0v8.077A1.262,1.262,0,0,1,1159.622,650.3Z" transform="translate(-1158.361 -639.707)" fill="#ffde14"/>
        </g>
      </g>
    </g>
    <g id="Group_64" data-name="Group 64" transform="translate(1141.657 639.707)">
      <g id="Group_63" data-name="Group 63">
        <g id="Group_62" data-name="Group 62">
          <path id="Path_87" data-name="Path 87" d="M1141.5,685.523a1.262,1.262,0,0,1-1.262-1.26v-43.3a1.261,1.261,0,0,1,2.522,0v43.3A1.262,1.262,0,0,1,1141.5,685.523Z" transform="translate(-1140.237 -639.707)" fill="#ffde14"/>
        </g>
      </g>
    </g>
    <g id="Group_67" data-name="Group 67" transform="translate(1174.289 656.907)">
      <g id="Group_66" data-name="Group 66">
        <g id="Group_65" data-name="Group 65">
          <path id="Path_88" data-name="Path 88" d="M1159.622,671.4a1.263,1.263,0,0,1-1.26-1.262V650.52a1.261,1.261,0,0,1,2.522,0v19.618A1.263,1.263,0,0,1,1159.622,671.4Z" transform="translate(-1158.361 -649.26)" fill="#ffde14"/>
        </g>
      </g>
    </g>
    <g id="Group_70" data-name="Group 70" transform="translate(1174.287 681.474)">
      <g id="Group_69" data-name="Group 69">
        <g id="Group_68" data-name="Group 68">
          <path id="Path_89" data-name="Path 89" d="M1159.622,665.4a1.269,1.269,0,0,1-.9-.366,1.3,1.3,0,0,1-.367-.895,1.273,1.273,0,0,1,.367-.882,1.307,1.307,0,0,1,1.79,0,1.271,1.271,0,0,1,.366.882,1.3,1.3,0,0,1-.366.895A1.247,1.247,0,0,1,1159.622,665.4Z" transform="translate(-1158.36 -662.905)" fill="#ffde14"/>
        </g>
      </g>
    </g>
    <g id="Group_73" data-name="Group 73" transform="translate(1174.289 686.38)">
      <g id="Group_72" data-name="Group 72">
        <g id="Group_71" data-name="Group 71">
          <path id="Path_90" data-name="Path 90" d="M1159.622,681.973a1.262,1.262,0,0,1-1.26-1.26v-13.82a1.261,1.261,0,1,1,2.522,0v13.82A1.261,1.261,0,0,1,1159.622,681.973Z" transform="translate(-1158.361 -665.63)" fill="#ffde14"/>
        </g>
      </g>
    </g>
    <g id="Group_76" data-name="Group 76" transform="translate(1157.975 674.128)">
      <g id="Group_75" data-name="Group 75">
        <g id="Group_74" data-name="Group 74">
          <path id="Path_91" data-name="Path 91" d="M1150.56,687.42a1.259,1.259,0,0,1-1.26-1.26V660.085a1.259,1.259,0,1,1,2.519,0V686.16A1.258,1.258,0,0,1,1150.56,687.42Z" transform="translate(-1149.3 -658.825)" fill="#ffde14"/>
        </g>
      </g>
    </g>
    <g id="Group_79" data-name="Group 79" transform="translate(1157.975 639.707)">
      <g id="Group_78" data-name="Group 78">
        <g id="Group_77" data-name="Group 77">
          <path id="Path_92" data-name="Path 92" d="M1150.56,667.526a1.261,1.261,0,0,1-1.26-1.26v-25.3a1.259,1.259,0,1,1,2.519,0v25.3A1.259,1.259,0,0,1,1150.56,667.526Z" transform="translate(-1149.3 -639.707)" fill="#ffde14"/>
        </g>
      </g>
    </g>
    <g id="Group_82" data-name="Group 82" transform="translate(1138.463 683.003)">
      <g id="Group_81" data-name="Group 81">
        <g id="Group_80" data-name="Group 80">
          <path id="Path_93" data-name="Path 93" d="M1142.919,675.4a4.46,4.46,0,0,1-4.456-4.454V668.21a4.455,4.455,0,1,1,8.911,0v2.733A4.46,4.46,0,0,1,1142.919,675.4Zm0-9.123a1.937,1.937,0,0,0-1.936,1.935v2.733a1.935,1.935,0,0,0,3.869,0V668.21A1.937,1.937,0,0,0,1142.919,666.275Z" transform="translate(-1138.463 -663.754)" fill="#ffde14"/>
        </g>
      </g>
    </g>
    <g id="Group_85" data-name="Group 85" transform="translate(1154.779 665.004)">
      <g id="Group_84" data-name="Group 84">
        <g id="Group_83" data-name="Group 83">
          <path id="Path_94" data-name="Path 94" d="M1151.981,665.4a4.46,4.46,0,0,1-4.456-4.454v-2.735a4.456,4.456,0,0,1,8.912,0v2.735A4.461,4.461,0,0,1,1151.981,665.4Zm0-9.123a1.935,1.935,0,0,0-1.935,1.934v2.735a1.934,1.934,0,0,0,3.869,0v-2.735A1.934,1.934,0,0,0,1151.981,656.279Z" transform="translate(-1147.525 -653.757)" fill="#ffde14"/>
        </g>
      </g>
    </g>
    <g id="Group_88" data-name="Group 88" transform="translate(1171.095 647.793)">
      <g id="Group_87" data-name="Group 87">
        <g id="Group_86" data-name="Group 86">
          <path id="Path_95" data-name="Path 95" d="M1161.042,655.844a4.46,4.46,0,0,1-4.454-4.456v-2.733a4.456,4.456,0,1,1,8.912,0v2.733A4.461,4.461,0,0,1,1161.042,655.844Zm0-9.125a1.938,1.938,0,0,0-1.934,1.935v2.733a1.935,1.935,0,1,0,3.871,0v-2.733A1.94,1.94,0,0,0,1161.042,646.719Z" transform="translate(-1156.587 -644.198)" fill="#ffde14"/>
        </g>
      </g>
    </g>
  </g>
</svg>
