<?xml version="1.0" encoding="utf-8"?>
<!-- Generator: Adobe Illustrator 16.0.3, SVG Export Plug-In . SVG Version: 6.00 Build 0)  -->
<!DOCTYPE svg PUBLIC "-//W3C//DTD SVG 1.1//EN" "http://www.w3.org/Graphics/SVG/1.1/DTD/svg11.dtd">
<svg version="1.1" id="Layer_1" xmlns="http://www.w3.org/2000/svg" xmlns:xlink="http://www.w3.org/1999/xlink" x="0px" y="0px"
	 width="22.701px" height="39.434px" viewBox="0 0 22.701 39.434" enable-background="new 0 0 22.701 39.434" xml:space="preserve">
<path fill-rule="evenodd" clip-rule="evenodd" fill="#FFFFFF" d="M3.018,0h16.669c0.847,0,1.61,0.371,2.16,0.973
	c0.528,0.582,0.854,1.369,0.854,2.239V4.93v27.541v3.752c0,0.863-0.326,1.656-0.854,2.232c-0.55,0.603-1.313,0.979-2.16,0.979H3.018
	c-0.849,0-1.612-0.376-2.162-0.979c-0.528-0.576-0.854-1.369-0.854-2.232v-3.752V4.93V3.211c0-0.87,0.326-1.657,0.854-2.239
	C1.405,0.371,2.169,0,3.018,0L3.018,0z M10.601,36.504h1.513c0.532,0,0.964-0.432,0.964-0.963c0-0.532-0.432-0.964-0.964-0.964
	h-1.513c-0.532,0-0.964,0.432-0.964,0.964C9.637,36.072,10.068,36.504,10.601,36.504L10.601,36.504z M1.925,3.969h18.85V3.211
	c0-0.37-0.136-0.708-0.35-0.943c-0.197-0.214-0.459-0.343-0.738-0.343H3.018c-0.284,0-0.546,0.129-0.74,0.343
	C2.06,2.503,1.925,2.841,1.925,3.211V3.969L1.925,3.969z M20.774,5.894H1.925v25.613h18.85V5.894L20.774,5.894z M20.774,33.435
	H1.925v2.788c0,0.37,0.135,0.702,0.353,0.942c0.194,0.209,0.456,0.344,0.74,0.344h16.669c0.279,0,0.541-0.135,0.738-0.344
	c0.214-0.24,0.35-0.572,0.35-0.942V33.435z"/>
</svg>
