<svg id="real_time_icon" xmlns="http://www.w3.org/2000/svg" width="116" height="116" viewBox="0 0 116 116">
  <g id="Ellipse_8" data-name="Ellipse 8" fill="none" stroke="#fff" stroke-width="3">
    <circle cx="58" cy="58" r="58" stroke="none"/>
    <circle cx="58" cy="58" r="56.5" fill="none"/>
  </g>
  <g id="Group_55" data-name="Group 55" transform="translate(24.045 17.946)">
    <path id="Path_76" data-name="Path 76" d="M-115,66.141c-3.1,0-6.786-2.493-6.786-14.372,0-10.025,5.531-22.534,5.766-23.061A1.118,1.118,0,0,1-115,28.045h0a1.116,1.116,0,0,1,1.021.663c.236.528,5.766,13.036,5.766,23.061C-108.217,63.648-111.908,66.141-115,66.141Zm0-34.027c-1.608,4.147-4.55,12.684-4.55,19.655,0,7.826,1.617,12.136,4.55,12.136s4.55-4.31,4.55-12.136C-110.453,44.792-113.395,36.259-115,32.115Z" transform="translate(149.496 -28.045)" fill="#ffde14"/>
    <path id="Path_77" data-name="Path 77" d="M-82.532,84.572a1.032,1.032,0,0,1-.119-.007c-.576-.061-14.169-1.559-22.839-6.592-4.156-2.412-7.009-4.758-8.48-6.975-1.8-2.717-1.29-4.821-.543-6.108a5.306,5.306,0,0,1,4.947-2.58c2.739,0,6.4,1.321,10.889,3.926C-90.454,71.008-82.8,81.2-81.739,82.644a1.114,1.114,0,0,1,.348.809,1.15,1.15,0,0,1-1.128,1.118Zm-27.034-20.026a3.163,3.163,0,0,0-3.013,1.467c-.633,1.09-.479,2.317.472,3.749,1.279,1.927,3.883,4.039,7.74,6.279,6.034,3.5,14.89,5.242,19.281,5.931-2.778-3.471-8.685-10.3-14.713-13.8C-103.94,65.766-107.227,64.546-109.566,64.546Z" transform="translate(150.274 -24.001)" fill="#ffde14"/>
    <path id="Path_78" data-name="Path 78" d="M-145.454,84.356a1.119,1.119,0,0,1-.97-.562,1.118,1.118,0,0,1,.069-1.216c.341-.465,8.46-11.471,17.166-16.441,4.472-2.555,8.125-3.85,10.855-3.85a5.32,5.32,0,0,1,4.99,2.614c.739,1.294,1.236,3.4-.586,6.1-1.486,2.207-4.356,4.534-8.528,6.916-8.706,4.972-22.31,6.374-22.885,6.431A.912.912,0,0,1-145.454,84.356Zm27.12-19.835c-2.337,0-5.616,1.2-9.746,3.555-6.059,3.46-12.01,10.245-14.81,13.7,4.4-.66,13.27-2.34,19.323-5.8,3.872-2.211,6.491-4.305,7.784-6.224.96-1.427,1.124-2.651.5-3.745A3.182,3.182,0,0,0-118.334,64.521Z" transform="translate(146.572 -24.004)" fill="#ffde14"/>
    <path id="Path_79" data-name="Path 79" d="M-86.842,78.523a1.106,1.106,0,0,1-.389-.07,1.118,1.118,0,0,1-.66-1.437,31.787,31.787,0,0,0,1.979-11.087A31.825,31.825,0,0,0-97.523,41.3a1.119,1.119,0,0,1-.151-1.574A1.12,1.12,0,0,1-96.1,39.58,34.06,34.06,0,0,1-83.675,65.928a34,34,0,0,1-2.119,11.864A1.116,1.116,0,0,1-86.842,78.523Z" transform="translate(152.312 -26.714)" fill="#ffde14"/>
    <path id="Path_80" data-name="Path 80" d="M-113.069,95a34.094,34.094,0,0,1-15.191-3.579,34.036,34.036,0,0,1-9.682-7.179,1.118,1.118,0,0,1,.049-1.581,1.117,1.117,0,0,1,1.58.049,31.826,31.826,0,0,0,9.049,6.708,31.829,31.829,0,0,0,27.217.562,1.116,1.116,0,0,1,1.476.566,1.116,1.116,0,0,1-.566,1.476A34.155,34.155,0,0,1-113.069,95Z" transform="translate(147.554 -21.635)" fill="#ffde14"/>
    <path id="Path_81" data-name="Path 81" d="M-144.924,63.765a1.133,1.133,0,0,1-.138-.008,1.119,1.119,0,0,1-.974-1.247A34.054,34.054,0,0,1-130.51,37.864a34.017,34.017,0,0,1,11.142-4.6,1.118,1.118,0,0,1,1.329.856,1.118,1.118,0,0,1-.856,1.329,31.806,31.806,0,0,0-10.412,4.3,31.828,31.828,0,0,0-14.508,23.036A1.118,1.118,0,0,1-144.924,63.765Z" transform="translate(146.634 -27.432)" fill="#ffde14"/>
    <path id="Path_82" data-name="Path 82" d="M-92.842,71.816a1.114,1.114,0,0,1-.276-.035,1.119,1.119,0,0,1-.808-1.36,25.13,25.13,0,0,0,.773-6.2,24.983,24.983,0,0,0-1.414-8.318,1.118,1.118,0,0,1,.683-1.425,1.116,1.116,0,0,1,1.425.683,27.191,27.191,0,0,1,1.542,9.06,27.361,27.361,0,0,1-.842,6.748A1.118,1.118,0,0,1-92.842,71.816Z" transform="translate(152.701 -24.933)" fill="#ffde14"/>
    <path id="Path_83" data-name="Path 83" d="M-117.18,88.2a1.247,1.247,0,0,1-.144-.009,27.2,27.2,0,0,1-8.788-2.693,27.363,27.363,0,0,1-5.65-3.784,1.116,1.116,0,0,1-.111-1.576,1.115,1.115,0,0,1,1.576-.111,25.155,25.155,0,0,0,5.19,3.474,24.954,24.954,0,0,0,8.066,2.473,1.118,1.118,0,0,1,.967,1.251A1.118,1.118,0,0,1-117.18,88.2Z" transform="translate(148.274 -21.942)" fill="#ffde14"/>
    <path id="Path_84" data-name="Path 84" d="M-134.061,50.915a1.123,1.123,0,0,1-.684-.234,1.118,1.118,0,0,1-.2-1.569,27.208,27.208,0,0,1,6.773-6.214,27.4,27.4,0,0,1,6.124-2.956,1.116,1.116,0,0,1,1.415.7,1.118,1.118,0,0,1-.7,1.417,25.128,25.128,0,0,0-5.624,2.715,24.972,24.972,0,0,0-6.218,5.7A1.115,1.115,0,0,1-134.061,50.915Z" transform="translate(147.916 -26.648)" fill="#ffde14"/>
  </g>
</svg>
