<svg id="warehouses_icon" xmlns="http://www.w3.org/2000/svg" width="116" height="116" viewBox="0 0 116 116">
  <g id="Ellipse_8" data-name="Ellipse 8" fill="none" stroke="#fff" stroke-width="3">
    <circle cx="58" cy="58" r="58" stroke="none"/>
    <circle cx="58" cy="58" r="56.5" fill="none"/>
  </g>
  <g id="Group_411" data-name="Group 411" transform="translate(240.749 -116.011)">
    <path id="Path_73" data-name="Path 73" d="M-168.292,164.419l-13.144-.15,6.876-13.981a1.169,1.169,0,0,0-.056-1.133,1.17,1.17,0,0,0-.992-.55h-12.36a1.167,1.167,0,0,0-1.168,1.168,1.168,1.168,0,0,0,1.168,1.168h10.483l-6.865,13.958a1.17,1.17,0,0,0,.054,1.127,1.168,1.168,0,0,0,.983.557l12.449.141-23.267,26.414,6.344-18.737a1.165,1.165,0,0,0-.158-1.055,1.167,1.167,0,0,0-.949-.487h0l-8.64,0,6.994-18.1a1.169,1.169,0,0,0-.669-1.511,1.171,1.171,0,0,0-1.511.669l-7.607,19.686a1.166,1.166,0,0,0,.126,1.082,1.167,1.167,0,0,0,.964.507l8.715,0-7.69,22.713a1.169,1.169,0,0,0,.522,1.387,1.169,1.169,0,0,0,.584.157,1.166,1.166,0,0,0,.877-.4l28.8-32.7a1.17,1.17,0,0,0,.19-1.248A1.171,1.171,0,0,0-168.292,164.419Z" transform="translate(3.933 1.687)" fill="#ffde14"/>
    <path id="Path_74" data-name="Path 74" d="M-146.072,187.546l-8.959,2.951a35.355,35.355,0,0,0-4.113-39.128,35.351,35.351,0,0,0-42.492-9.307,1.167,1.167,0,0,0-.549,1.559,1.168,1.168,0,0,0,1.559.549,33.021,33.021,0,0,1,39.687,8.695,33.015,33.015,0,0,1,3.6,36.98l-2.469-9.869-2.268.57,3.408,13.611,13.331-4.388Z" transform="translate(3.615)" fill="#ffde14"/>
    <path id="Path_75" data-name="Path 75" d="M-168.484,201.653a33.022,33.022,0,0,1-39.687-8.7,33.011,33.011,0,0,1-3.6-36.979l2.47,9.869,2.269-.571-3.41-13.611-13.33,4.39.73,2.222,8.958-2.952a35.355,35.355,0,0,0,4.115,39.128,35.377,35.377,0,0,0,27.223,12.784,35.291,35.291,0,0,0,15.269-3.477,1.168,1.168,0,0,0,.549-1.559A1.168,1.168,0,0,0-168.484,201.653Z" transform="translate(0 2.202)" fill="#ffde14"/>
  </g>
</svg>
